<?xml version="1.0" encoding="utf-8"?>
<!-- Generator: Adobe Illustrator 16.0.0, SVG Export Plug-In . SVG Version: 6.00 Build 0)  -->
<!DOCTYPE svg PUBLIC "-//W3C//DTD SVG 1.1//EN" "http://www.w3.org/Graphics/SVG/1.1/DTD/svg11.dtd">
<svg version="1.1" id="Layer_1" xmlns="http://www.w3.org/2000/svg" xmlns:xlink="http://www.w3.org/1999/xlink" x="0px" y="0px"
	 width="852.344px" height="440px" viewBox="0 0 852.344 440" enable-background="new 0 0 852.344 440" xml:space="preserve">
<g transform="translate(-70,-182) scale(1,1)">
	<rect x="351" y="559" opacity="0.2" fill="#C0C0C0" enable-background="new    " width="89.9" height="60"/>
</g>
<g transform="translate(-70,-182) scale(1,1)">
	<rect x="344" y="552" fill="#FFFFFF" width="89.9" height="60"/>
</g>
<g transform="translate(-70,-182) scale(1,1)">
	<path fill="none" stroke="#000000" stroke-miterlimit="10" d="M344,552h89.9v60H344V552z"/>
</g>
<g transform="translate(-70,-182) scale(1,1)">
	<path fill="none" stroke="#000000" stroke-miterlimit="10" d="M344,590h89.9"/>
</g>
<g transform="translate(-70,-182) scale(1,1)">
	<g>
		<path fill="none" stroke="#000000" stroke-miterlimit="10" d="M0,0"/>
		<text transform="matrix(1 0 0 1 356.79 569.5)" font-family="'ArialMT'" font-size="13">«interface»</text>
	</g>
</g>
<g transform="translate(-70,-182) scale(1,1)">
	<g>
		<path d="M0,0"/>
		<text transform="matrix(1 0 0 1 351.7373 584.5)" font-family="'Arial-BoldMT'" font-size="13">AccountsAPI</text>
	</g>
</g>
<g transform="translate(-70,-182) scale(1,1)">
	<rect x="151" y="199" opacity="0.2" fill="#C0C0C0" enable-background="new    " width="768" height="60"/>
</g>
<g transform="translate(-70,-182) scale(1,1)">
	<rect x="144" y="192" fill="#FFFFFF" width="768" height="60"/>
</g>
<g transform="translate(-70,-182) scale(1,1)">
	<path fill="none" stroke="#000000" stroke-miterlimit="10" d="M144,192h768v60H144V192z"/>
</g>
<g transform="translate(-70,-182) scale(1,1)">
	<path fill="none" stroke="#000000" stroke-miterlimit="10" d="M144,230h768"/>
</g>
<g transform="translate(-70,-182) scale(1,1)">
	<g>
		<path fill="none" stroke="#000000" stroke-miterlimit="10" d="M0,0"/>
		<text transform="matrix(1 0 0 1 495.8398 209.5)" font-family="'ArialMT'" font-size="13">«interface»</text>
	</g>
</g>
<g transform="translate(-70,-182) scale(1,1)">
	<g>
		<path d="M0,0"/>
		<text transform="matrix(1 0 0 1 506.6816 224.5)" font-family="'Arial-BoldMT'" font-size="13">SignUp</text>
	</g>
</g>
<g transform="translate(-70,-182) scale(1,1)">
	<g>
		<path d="M0,0"/>
		<text transform="matrix(1 0 0 1 149 247.5)" font-family="'ArialMT'" font-size="13">+doSignUp(email: String, username: String, firstName: String, secondName: String, fiscalCode: String, document: Picture): boolean</text>
	</g>
</g>
<g transform="translate(-70,-182) scale(1,1)">
	<rect x="199" y="303" opacity="0.2" fill="#C0C0C0" enable-background="new    " width="720.344" height="71"/>
</g>
<g transform="translate(-70,-182) scale(1,1)">
	<rect x="192" y="296" fill="#FFFFFF" width="720.344" height="71"/>
</g>
<g transform="translate(-70,-182) scale(1,1)">
	<path fill="none" stroke="#000000" stroke-miterlimit="10" d="M192,296h720.344v71H192V296z"/>
</g>
<g transform="translate(-70,-182) scale(1,1)">
	<path fill="none" stroke="#000000" stroke-miterlimit="10" d="M192,334h720.344"/>
</g>
<g transform="translate(-70,-182) scale(1,1)">
	<g>
		<path fill="none" stroke="#000000" stroke-miterlimit="10" d="M0,0"/>
		<text transform="matrix(1 0 0 1 520.0117 313.5)" font-family="'ArialMT'" font-size="13">«interface»</text>
	</g>
</g>
<g transform="translate(-70,-182) scale(1,1)">
	<g>
		<path d="M0,0"/>
		<text transform="matrix(1 0 0 1 509.1758 328.5)" font-family="'Arial-BoldMT'" font-size="13">CreateAccount</text>
	</g>
</g>
<g transform="translate(-70,-182) scale(1,1)">
	<g>
		<path d="M0,0"/>
		<text transform="matrix(1 0 0 1 197 351.5)" font-family="'ArialMT'" font-size="13">+createUser(doSignUp(email: String, username: String, firstName: String, secondName: String, fiscalCode: String): boolean</text>
	</g>
</g>
<g transform="translate(-70,-182) scale(1,1)">
	<rect x="223" y="407" opacity="0.2" fill="#C0C0C0" enable-background="new    " width="336" height="60"/>
</g>
<g transform="translate(-70,-182) scale(1,1)">
	<rect x="216" y="400" fill="#FFFFFF" width="336" height="60"/>
</g>
<g transform="translate(-70,-182) scale(1,1)">
	<path fill="none" stroke="#000000" stroke-miterlimit="10" d="M216,400h336v60H216V400z"/>
</g>
<g transform="translate(-70,-182) scale(1,1)">
	<path fill="none" stroke="#000000" stroke-miterlimit="10" d="M216,438h336"/>
</g>
<g transform="translate(-70,-182) scale(1,1)">
	<g>
		<path fill="none" stroke="#000000" stroke-miterlimit="10" d="M0,0"/>
		<text transform="matrix(1 0 0 1 351.8398 417.5)" font-family="'ArialMT'" font-size="13">«interface»</text>
	</g>
</g>
<g transform="translate(-70,-182) scale(1,1)">
	<g>
		<path d="M0,0"/>
		<text transform="matrix(1 0 0 1 368.0957 432.5)" font-family="'Arial-BoldMT'" font-size="13">Login</text>
	</g>
</g>
<g transform="translate(-70,-182) scale(1,1)">
	<g>
		<path d="M0,0"/>
		<text transform="matrix(1 0 0 1 221 455.5)" font-family="'ArialMT'" font-size="13">+doLogin(username: String, password: String): boolean</text>
	</g>
</g>
<g transform="translate(-70,-182) scale(1,1)">
	<rect x="599" y="407" opacity="0.2" fill="#C0C0C0" enable-background="new    " width="304" height="60"/>
</g>
<g transform="translate(-70,-182) scale(1,1)">
	<rect x="592" y="400" fill="#FFFFFF" width="304" height="60"/>
</g>
<g transform="translate(-70,-182) scale(1,1)">
	<path fill="none" stroke="#000000" stroke-miterlimit="10" d="M592,400h304v60H592V400z"/>
</g>
<g transform="translate(-70,-182) scale(1,1)">
	<path fill="none" stroke="#000000" stroke-miterlimit="10" d="M592,438h304"/>
</g>
<g transform="translate(-70,-182) scale(1,1)">
	<g>
		<path fill="none" stroke="#000000" stroke-miterlimit="10" d="M0,0"/>
		<text transform="matrix(1 0 0 1 711.8398 417.5)" font-family="'ArialMT'" font-size="13">«interface»</text>
	</g>
</g>
<g transform="translate(-70,-182) scale(1,1)">
	<g>
		<path d="M0,0"/>
		<text transform="matrix(1 0 0 1 707.8633 432.5)" font-family="'Arial-BoldMT'" font-size="13">ChangeRole</text>
	</g>
</g>
<g transform="translate(-70,-182) scale(1,1)">
	<g>
		<path d="M0,0"/>
		<text transform="matrix(1 0 0 1 597 455.5)" font-family="'ArialMT'" font-size="13">+changeRole(userID: String, role: String): boolean</text>
	</g>
</g>
<g transform="translate(-70,-182) scale(1,1)">
	<path fill="none" stroke="#000000" stroke-miterlimit="10" d="M387,551l-2-90"/>
</g>
<g transform="translate(-70,-182) scale(1,1)">
	<path fill="#FFFFFF" d="M393.868,481.133L385,461l-7.966,20.508"/>
</g>
<g transform="translate(-70,-182) scale(1,1)">
	<path fill="none" stroke="#000000" stroke-miterlimit="10" d="M393.868,481.133L385,461l-7.966,20.508L393.868,481.133"/>
</g>
<g transform="translate(-70,-182) scale(1,1)">
	<path fill="none" stroke="#000000" stroke-miterlimit="10" d="M435,582l309,2V461"/>
</g>
<g transform="translate(-70,-182) scale(1,1)">
	<path fill="#FFFFFF" d="M752.419,481.325L744,461l-8.419,20.325"/>
</g>
<g transform="translate(-70,-182) scale(1,1)">
	<path fill="none" stroke="#000000" stroke-miterlimit="10" d="M752.419,481.325L744,461l-8.419,20.325H752.419"/>
</g>
<g transform="translate(-70,-182) scale(1,1)">
	<path fill="none" stroke="#000000" stroke-miterlimit="10" d="M343,582l-231,2V328l79,1"/>
</g>
<g transform="translate(-70,-182) scale(1,1)">
	<path fill="#FFFFFF" d="M170.57,337.161L191,329l-20.217-8.676"/>
</g>
<g transform="translate(-70,-182) scale(1,1)">
	<path fill="none" stroke="#000000" stroke-miterlimit="10" d="M170.57,337.161L191,329l-20.217-8.676L170.57,337.161"/>
</g>
<g transform="translate(-70,-182) scale(1,1)">
	<path fill="none" stroke="#000000" stroke-miterlimit="10" d="M343,582l-263,2V224h63"/>
</g>
<g transform="translate(-70,-182) scale(1,1)">
	<path fill="#FFFFFF" d="M122.675,232.419L143,224l-20.325-8.419"/>
</g>
<g transform="translate(-70,-182) scale(1,1)">
	<path fill="none" stroke="#000000" stroke-miterlimit="10" d="M122.675,232.419L143,224l-20.325-8.419V232.419"/>
</g>
</svg>
