<?xml version="1.0" encoding="utf-8"?>
<!-- Generator: Adobe Illustrator 16.0.0, SVG Export Plug-In . SVG Version: 6.00 Build 0)  -->
<!DOCTYPE svg PUBLIC "-//W3C//DTD SVG 1.1//EN" "http://www.w3.org/Graphics/SVG/1.1/DTD/svg11.dtd">
<svg version="1.1" id="Layer_1" xmlns="http://www.w3.org/2000/svg" xmlns:xlink="http://www.w3.org/1999/xlink" x="0px" y="0px"
	 width="600.188px" height="316px" viewBox="0 0 600.188 316" enable-background="new 0 0 600.188 316" xml:space="preserve">
<g transform="translate(-6,-278) scale(1,1)">
	<rect x="247" y="527" opacity="0.2" fill="#C0C0C0" enable-background="new    " width="96" height="64"/>
</g>
<g transform="translate(-6,-278) scale(1,1)">
	<rect x="240" y="520" fill="#FFFFFF" width="96" height="64"/>
</g>
<g transform="translate(-6,-278) scale(1,1)">
	<path fill="none" stroke="#000000" stroke-miterlimit="10" d="M240,520h96v64h-96V520z"/>
</g>
<g transform="translate(-6,-278) scale(1,1)">
	<path fill="none" stroke="#000000" stroke-miterlimit="10" d="M240,558h96"/>
</g>
<g transform="translate(-6,-278) scale(1,1)">
	<g>
		<path fill="none" stroke="#000000" stroke-miterlimit="10" d="M0,0"/>
		<text transform="matrix(1 0 0 1 255.8398 537.5)" font-family="'ArialMT'" font-size="13">«interface»</text>
	</g>
</g>
<g transform="translate(-6,-278) scale(1,1)">
	<g>
		<path d="M0,0"/>
		<text transform="matrix(1 0 0 1 247.6572 552.5)" font-family="'Arial-BoldMT'" font-size="13">WebClientAPI</text>
	</g>
</g>
<g transform="translate(-6,-278) scale(1,1)">
	<rect x="23" y="407" opacity="0.2" fill="#C0C0C0" enable-background="new    " width="224" height="75"/>
</g>
<g transform="translate(-6,-278) scale(1,1)">
	<rect x="16" y="400" fill="#FFFFFF" width="224" height="75"/>
</g>
<g transform="translate(-6,-278) scale(1,1)">
	<path fill="none" stroke="#000000" stroke-miterlimit="10" d="M16,400h224v75H16V400z"/>
</g>
<g transform="translate(-6,-278) scale(1,1)">
	<path fill="none" stroke="#000000" stroke-miterlimit="10" d="M16,438h224"/>
</g>
<g transform="translate(-6,-278) scale(1,1)">
	<g>
		<path fill="none" stroke="#000000" stroke-miterlimit="10" d="M0,0"/>
		<text transform="matrix(1 0 0 1 95.8398 417.5)" font-family="'ArialMT'" font-size="13">«interface»</text>
	</g>
</g>
<g transform="translate(-6,-278) scale(1,1)">
	<g>
		<path d="M0,0"/>
		<text transform="matrix(1 0 0 1 90.7871 432.5)" font-family="'Arial-BoldMT'" font-size="13">GetAccounts</text>
	</g>
</g>
<g transform="translate(-6,-278) scale(1,1)">
	<g>
		<path d="M0,0"/>
		<text transform="matrix(1 0 0 1 21 455.5)" font-family="'ArialMT'" font-size="13">+getData(): List&lt;String&gt;</text>
	</g>
</g>
<g transform="translate(-6,-278) scale(1,1)">
	<g>
		<path d="M0,0"/>
		<text transform="matrix(1 0 0 1 21 470.5)" font-family="'ArialMT'" font-size="13">+getUserData(userID: String): User</text>
	</g>
</g>
<g transform="translate(-6,-278) scale(1,1)">
	<rect x="215" y="295" opacity="0.2" fill="#C0C0C0" enable-background="new    " width="160" height="60"/>
</g>
<g transform="translate(-6,-278) scale(1,1)">
	<rect x="208" y="288" fill="#FFFFFF" width="160" height="60"/>
</g>
<g transform="translate(-6,-278) scale(1,1)">
	<path fill="none" stroke="#000000" stroke-miterlimit="10" d="M208,288h160v60H208V288z"/>
</g>
<g transform="translate(-6,-278) scale(1,1)">
	<path fill="none" stroke="#000000" stroke-miterlimit="10" d="M208,326h160"/>
</g>
<g transform="translate(-6,-278) scale(1,1)">
	<g>
		<path fill="none" stroke="#000000" stroke-miterlimit="10" d="M0,0"/>
		<text transform="matrix(1 0 0 1 255.8398 305.5)" font-family="'ArialMT'" font-size="13">«interface»</text>
	</g>
</g>
<g transform="translate(-6,-278) scale(1,1)">
	<g>
		<path d="M0,0"/>
		<text transform="matrix(1 0 0 1 241.748 320.5)" font-family="'Arial-BoldMT'" font-size="13">GetSuggestions</text>
	</g>
</g>
<g transform="translate(-6,-278) scale(1,1)">
	<g>
		<path d="M0,0"/>
		<text transform="matrix(1 0 0 1 213 343.5)" font-family="'ArialMT'" font-size="13">+getData(): List&lt;String&gt;</text>
	</g>
</g>
<g transform="translate(-6,-278) scale(1,1)">
	<rect x="343" y="407" opacity="0.2" fill="#C0C0C0" enable-background="new    " width="260.188" height="75"/>
</g>
<g transform="translate(-6,-278) scale(1,1)">
	<rect x="336" y="400" fill="#FFFFFF" width="260.188" height="75"/>
</g>
<g transform="translate(-6,-278) scale(1,1)">
	<path fill="none" stroke="#000000" stroke-miterlimit="10" d="M336,400h260.188v75H336V400z"/>
</g>
<g transform="translate(-6,-278) scale(1,1)">
	<path fill="none" stroke="#000000" stroke-miterlimit="10" d="M336,438h260.188"/>
</g>
<g transform="translate(-6,-278) scale(1,1)">
	<g>
		<path fill="none" stroke="#000000" stroke-miterlimit="10" d="M0,0"/>
		<text transform="matrix(1 0 0 1 433.9336 417.5)" font-family="'ArialMT'" font-size="13">«interface»</text>
	</g>
</g>
<g transform="translate(-6,-278) scale(1,1)">
	<g>
		<path d="M0,0"/>
		<text transform="matrix(1 0 0 1 432.8574 432.5)" font-family="'Arial-BoldMT'" font-size="13">GetReports</text>
	</g>
</g>
<g transform="translate(-6,-278) scale(1,1)">
	<g>
		<path d="M0,0"/>
		<text transform="matrix(1 0 0 1 341 455.5)" font-family="'ArialMT'" font-size="13">+getData(): List&lt;Report&gt;</text>
	</g>
</g>
<g transform="translate(-6,-278) scale(1,1)">
	<g>
		<path d="M0,0"/>
		<text transform="matrix(1 0 0 1 341 470.5)" font-family="'ArialMT'" font-size="13">+getReportData(reportID: String): Report</text>
	</g>
</g>
<g transform="translate(-6,-278) scale(1,1)">
	<path fill="none" stroke="#000000" stroke-miterlimit="10" d="M337,552h127l1-76"/>
</g>
<g transform="translate(-6,-278) scale(1,1)">
	<path fill="#FFFFFF" d="M473.15,496.435L465,476l-8.686,20.213"/>
</g>
<g transform="translate(-6,-278) scale(1,1)">
	<path fill="none" stroke="#000000" stroke-miterlimit="10" d="M473.15,496.435L465,476l-8.686,20.213L473.15,496.435"/>
</g>
<g transform="translate(-6,-278) scale(1,1)">
	<path fill="none" stroke="#000000" stroke-miterlimit="10" d="M288,519V349"/>
</g>
<g transform="translate(-6,-278) scale(1,1)">
	<path fill="#FFFFFF" d="M296.419,369.325L288,349l-8.419,20.325"/>
</g>
<g transform="translate(-6,-278) scale(1,1)">
	<path fill="none" stroke="#000000" stroke-miterlimit="10" d="M296.419,369.325L288,349l-8.419,20.325H296.419"/>
</g>
<g transform="translate(-6,-278) scale(1,1)">
	<path fill="none" stroke="#000000" stroke-miterlimit="10" d="M239,552H128v-76"/>
</g>
<g transform="translate(-6,-278) scale(1,1)">
	<path fill="#FFFFFF" d="M136.419,496.325L128,476l-8.419,20.325"/>
</g>
<g transform="translate(-6,-278) scale(1,1)">
	<path fill="none" stroke="#000000" stroke-miterlimit="10" d="M136.419,496.325L128,476l-8.419,20.325H136.419"/>
</g>
</svg>
