<?xml version="1.0" encoding="utf-8"?>
<!-- Generator: Adobe Illustrator 16.0.0, SVG Export Plug-In . SVG Version: 6.00 Build 0)  -->
<!DOCTYPE svg PUBLIC "-//W3C//DTD SVG 1.1//EN" "http://www.w3.org/Graphics/SVG/1.1/DTD/svg11.dtd">
<svg version="1.1" id="Layer_1" xmlns="http://www.w3.org/2000/svg" xmlns:xlink="http://www.w3.org/1999/xlink" x="0px" y="0px"
	 width="711px" height="471px" viewBox="0 0 711 471" enable-background="new 0 0 711 471" xml:space="preserve">
<path fill="none" d="z"/>
<g>
	<path pointer-events="none" fill="#FFFFFF" stroke="#000000" stroke-miterlimit="10" d="M0,0h120v25l-10,15H0V0z"/>
	<path pointer-events="none" fill="none" stroke="#000000" stroke-miterlimit="10" d="M120,0h590v470H0V40"/>
	<g>
		<text transform="matrix(1 0 0 1 23.1465 24.5)" enable-background="new    "><tspan x="0" y="0" font-family="'ArialMT'" font-size="12">use case </tspan><tspan x="51.363" y="0" font-family="'Arial-BoldMT'" font-size="12">user</tspan></text>
	</g>
	<rect x="150" y="40" pointer-events="none" fill="#FFFFFF" stroke="#000000" width="520" height="410"/>
	<g>
		<text transform="matrix(1 0 0 1 378.1494 58.5)" font-family="'ArialMT'" font-size="12">SafeStreets</text>
	</g>
	<path pointer-events="none" fill="none" stroke="#000000" stroke-miterlimit="10" d="M55,245h115V135h56.63"/>
	<path pointer-events="none" stroke="#000000" stroke-miterlimit="10" d="M231.88,135l-7,3.5l1.75-3.5l-1.75-3.5L231.88,135z"/>
	<path pointer-events="none" fill="none" stroke="#000000" stroke-miterlimit="10" d="M55,245h171.63"/>
	<path pointer-events="none" stroke="#000000" stroke-miterlimit="10" d="M231.88,245l-7,3.5l1.75-3.5l-1.75-3.5L231.88,245z"/>
	<path pointer-events="none" fill="none" stroke="#000000" stroke-miterlimit="10" d="M55,245h115v120h56.63"/>
	<path pointer-events="none" stroke="#000000" stroke-miterlimit="10" d="M231.88,365l-7,3.5l1.75-3.5l-1.75-3.5L231.88,365z"/>
	<ellipse pointer-events="none" fill="#FFFFFF" stroke="#000000" cx="55" cy="222.5" rx="7.5" ry="7.5"/>
	<path pointer-events="none" fill="none" stroke="#000000" stroke-miterlimit="10" d="M55,230v25 M55,235H40 M55,235h15 M55,255
		l-15,20 M55,255l15,20"/>
	<g>
		<rect x="41" y="284" fill="#FFFFFF" width="29" height="15"/>
		<text transform="matrix(1 0 0 1 41.832 293.5)" font-family="'ArialMT'" font-size="12">User</text>
	</g>
	<ellipse pointer-events="none" fill="#FFFFFF" stroke="#000000" cx="540" cy="245" rx="70" ry="35"/>
	<g>
		<text transform="matrix(1 0 0 1 524.8193 248.5)" font-family="'ArialMT'" font-size="12">Login</text>
	</g>
	<ellipse pointer-events="none" fill="#FFFFFF" stroke="#000000" cx="303" cy="135" rx="70" ry="35"/>
	<g>
		<text transform="matrix(1 0 0 1 262.1465 138.5)" font-family="'ArialMT'" font-size="12">Create a report</text>
	</g>
	<ellipse pointer-events="none" fill="#FFFFFF" stroke="#000000" cx="303" cy="245" rx="70" ry="35"/>
	<g>
		<text transform="matrix(1 0 0 1 258.4756 248.5)" font-family="'ArialMT'" font-size="12">See past reports</text>
	</g>
	<ellipse pointer-events="none" fill="#FFFFFF" stroke="#000000" cx="303" cy="365" rx="70" ry="35"/>
	<g>
		<text transform="matrix(1 0 0 1 255.4727 368.5)" font-family="'ArialMT'" font-size="12">See Street Safety</text>
	</g>
	<path pointer-events="none" fill="none" stroke="#000000" stroke-miterlimit="10" stroke-dasharray="3,3" d="M470,245
		l-95.52-108.32"/>
	<path pointer-events="none" fill="none" stroke="#000000" stroke-miterlimit="10" d="M387.21,141.29l-13.47-5.45l3.72,14.05"/>
	<g>
		<rect x="385" y="191" fill="#FFFFFF" width="60" height="14"/>
		<text transform="matrix(1 0 0 1 383.4434 199.8604)" font-family="'ArialMT'" font-size="11">&lt;&lt;include&gt;&gt;</text>
	</g>
	<path pointer-events="none" fill="none" stroke="#000000" stroke-miterlimit="10" stroke-dasharray="3,3" d="M470,245h-94.76"/>
	<path pointer-events="none" fill="none" stroke="#000000" stroke-miterlimit="10" d="M387.12,238.5l-13,6.5l13,6.5"/>
	<g>
		<rect x="392" y="249" fill="#FFFFFF" width="60" height="14"/>
		<text transform="matrix(1 0 0 1 390.2227 258)" font-family="'ArialMT'" font-size="11">&lt;&lt;include&gt;&gt;</text>
	</g>
	<path pointer-events="none" fill="none" stroke="#000000" stroke-miterlimit="10" stroke-dasharray="3,3" d="M470,245
		l-95.59,118.26"/>
	<path pointer-events="none" fill="none" stroke="#000000" stroke-miterlimit="10" d="M376.82,349.93l-3.12,14.2l13.229-6.021"/>
	<g>
		<rect x="400" y="305" fill="#FFFFFF" width="60" height="14"/>
		<text transform="matrix(1 0 0 1 398.5938 314.1699)" font-family="'ArialMT'" font-size="11">&lt;&lt;include&gt;&gt;</text>
	</g>
</g>
<path fill="none" d="z"/>
</svg>
