<?xml version="1.0" encoding="utf-8"?>
<!-- Generator: Adobe Illustrator 16.0.0, SVG Export Plug-In . SVG Version: 6.00 Build 0)  -->
<!DOCTYPE svg PUBLIC "-//W3C//DTD SVG 1.1//EN" "http://www.w3.org/Graphics/SVG/1.1/DTD/svg11.dtd">
<svg version="1.1" id="Layer_1" xmlns="http://www.w3.org/2000/svg" xmlns:xlink="http://www.w3.org/1999/xlink" x="0px" y="0px"
	 width="396px" height="285px" viewBox="0 0 396 285" enable-background="new 0 0 396 285" xml:space="preserve">
<g>
	<rect fill="#FFFFFF" width="396" height="285"/>
</g>
<g>
	<path fill="none" stroke="#000000" stroke-width="1.3613" stroke-miterlimit="10" stroke-dasharray="12.5655,5.4451" d="
		M30.167,128.803v156.818"/>
	<path fill="none" stroke="#000000" stroke-width="1.3613" stroke-miterlimit="10" stroke-dasharray="12.5655,5.4451" d="
		M332.063,128.803v156.818"/>
</g>
<g>
	<g>
		<path fill="#FFFFFF" stroke="#000000" stroke-width="2.777" stroke-miterlimit="10" d="M39.479,59.705
			c0,5.143-4.169,9.311-9.312,9.311c-5.143,0-9.311-4.17-9.311-9.312c0-5.143,4.169-9.311,9.312-9.311
			c5.139,0,9.306,4.164,9.31,9.303 M30.167,69.016v19.929 M18.406,76.204h23.522 M30.167,88.945l-11.761,18.622 M30.167,88.945
			l11.761,18.622"/>
	</g>
	<g>
		<text transform="matrix(1 0 0 1 8.1675 123.9023)" font-family="'ArialMT'" font-size="11">Officer</text>
	</g>
	<path d="M0,0"/>
	<g>
		<path fill="#FFFFFF" stroke="#000000" stroke-width="2.6136" stroke-miterlimit="10" d="M275.84,84.698h112.447v44.105H275.84
			V84.698z"/>
	</g>
	<g>
		<text transform="matrix(1 0 0 1 293.5635 112.4678)" font-family="'ArialMT'" font-size="11">SafeStreets</text>
	</g>
</g>
<g>
	<path fill="#FFFFFF" stroke="#000000" stroke-width="1.3613" stroke-miterlimit="10" d="M22,136.971h16.335v132.314H22V136.971"/>
	<path fill="#FFFFFF" stroke="#000000" stroke-width="1.3613" stroke-miterlimit="10" d="M323.896,182.709h16.335v45.738h-16.335
		V182.709"/>
	<g>
		<g>
			<rect x="57.665" y="161.474" fill="#FFFFFF" width="246.9" height="21.235"/>
		</g>
		<text transform="matrix(1 0 0 1 60.1152 176.1748)" font-family="'ArialMT'" font-size="11">Clicks &quot;Consult analyzed data&quot; button</text>
	</g>
	<g>
		<path fill="none" stroke="#000000" stroke-width="1.3613" stroke-miterlimit="10" d="M38.335,182.709h282.838"/>
		<g transform="translate(323.89574543333333,182.70924891049998) translate(-323.89574543333333,-182.70924891049998)">
			<path d="M310.283,175.902l13.612,6.807l-13.612,6.807V175.902z"/>
		</g>
	</g>
	<g>
		<g>
			<rect x="58.665" y="207.212" fill="#FFFFFF" width="244.9" height="21.235"/>
		</g>
		<text transform="matrix(1 0 0 1 61.1152 221.9141)" font-family="'ArialMT'" font-size="11">Prompts Consult analyzed data page</text>
	</g>
	<g>
		<path fill="none" stroke="#000000" stroke-width="1.3613" stroke-miterlimit="10" stroke-dasharray="6.5341" d="M323.896,228.447
			H41.058"/>
		<g transform="translate(38.3352033,228.44781815049998) translate(-38.3352033,-228.44781815049998)">
			<path d="M51.948,221.642l-13.613,6.806l13.613,6.807V221.642z"/>
		</g>
	</g>
</g>
</svg>
