<?xml version="1.0" encoding="utf-8"?>
<!-- Generator: Adobe Illustrator 16.0.0, SVG Export Plug-In . SVG Version: 6.00 Build 0)  -->
<!DOCTYPE svg PUBLIC "-//W3C//DTD SVG 1.1//EN" "http://www.w3.org/Graphics/SVG/1.1/DTD/svg11.dtd">
<svg version="1.1" id="Layer_1" xmlns="http://www.w3.org/2000/svg" xmlns:xlink="http://www.w3.org/1999/xlink" x="0px" y="0px"
	 width="424px" height="462px" viewBox="0 0 424 462" enable-background="new 0 0 424 462" xml:space="preserve">
<g>
	<rect fill="#FFFFFF" width="424" height="462"/>
</g>
<g>
	<path fill="none" stroke="#000000" stroke-width="1.3613" stroke-miterlimit="10" stroke-dasharray="12.5655,5.4451" d="
		M81.676,128.803v333.238"/>
	<path fill="none" stroke="#000000" stroke-width="1.3613" stroke-miterlimit="10" stroke-dasharray="12.5655,5.4451" d="
		M342.571,128.803v333.238"/>
</g>
<g>
	<g>
		<path fill="#FFFFFF" stroke="#000000" stroke-width="2.777" stroke-miterlimit="10" d="M90.987,59.705
			c0.001,5.143-4.166,9.313-9.308,9.314c-5.143,0.002-9.313-4.166-9.314-9.308c-0.001-5.142,4.166-9.312,9.308-9.314
			c5.139-0.001,9.308,4.16,9.314,9.299 M81.676,69.016v19.929 M69.915,76.204h23.523 M81.676,88.945l-11.761,18.622 M81.676,88.945
			l11.762,18.622"/>
	</g>
	<g>
		<text transform="matrix(1 0 0 1 59.6758 123.9023)" font-family="'ArialMT'" font-size="11">Officer</text>
	</g>
	<path d="M0,0"/>
	<g>
		<path fill="#FFFFFF" stroke="#000000" stroke-width="2.6136" stroke-miterlimit="10" d="M286.348,84.698h112.448v44.105H286.348
			V84.698z"/>
	</g>
	<g>
		<text transform="matrix(1 0 0 1 304.0723 112.4678)" font-family="'ArialMT'" font-size="11">SafeStreets</text>
	</g>
</g>
<g>
	<path fill="#FFFFFF" stroke="#000000" stroke-width="1.3613" stroke-miterlimit="10" d="M73.508,136.971h16.335v308.735H73.508
		V136.971"/>
	<path fill="#FFFFFF" stroke="#000000" stroke-width="1.3613" stroke-miterlimit="10" d="M334.404,182.709h16.335v45.739h-16.335
		V182.709"/>
	<path fill="#FFFFFF" stroke="#000000" stroke-width="1.3613" stroke-miterlimit="10" d="M334.404,318.291h16.335v62.074h-16.335
		V318.291"/>
	<g>
		<g>
			<rect x="110.674" y="161.474" fill="#FFFFFF" width="202.9" height="21.235"/>
		</g>
		<text transform="matrix(1 0 0 1 113.124 176.1748)" font-family="'ArialMT'" font-size="11">Clicks &quot;Consult reports&quot; button</text>
	</g>
	<g>
		<path fill="none" stroke="#000000" stroke-width="1.3613" stroke-miterlimit="10" d="M89.844,182.709h241.838"/>
		<g transform="translate(334.40416028333334,182.70924891049998) translate(-334.40416028333334,-182.70924891049998)">
			<path d="M320.791,175.903l13.613,6.806l-13.613,6.807V175.903z"/>
		</g>
	</g>
	<g>
		<g>
			<rect x="111.674" y="207.212" fill="#FFFFFF" width="200.9" height="21.236"/>
		</g>
		<text transform="matrix(1 0 0 1 114.124 221.9141)" font-family="'ArialMT'" font-size="11">Prompts Consult reports page</text>
	</g>
	<g>
		<path fill="none" stroke="#000000" stroke-width="1.3613" stroke-miterlimit="10" stroke-dasharray="6.5341" d="M334.404,228.448
			H92.566"/>
		<g transform="translate(89.84361814999998,228.44781815049998) translate(-89.84361814999998,-228.44781815049998)">
			<path d="M103.456,221.642l-13.612,6.806l13.612,6.806V221.642z"/>
		</g>
	</g>
	<g>
		<g>
			<rect x="126.174" y="297.056" fill="#FFFFFF" width="171.9" height="21.235"/>
		</g>
		<text transform="matrix(1 0 0 1 128.624 311.7578)" font-family="'ArialMT'" font-size="11">Clicks on report photo link</text>
	</g>
	<g>
		<path fill="none" stroke="#000000" stroke-width="1.3613" stroke-miterlimit="10" d="M89.844,318.291h241.838"/>
		<g transform="translate(334.40416028333334,318.2914363005) translate(-334.40416028333334,-318.2914363005)">
			<path d="M320.791,311.485l13.613,6.806l-13.613,6.807V311.485z"/>
		</g>
	</g>
	<g>
		<g>
			<rect x="109.174" y="342.795" fill="#FFFFFF" width="194.9" height="21.235"/>
		</g>
		<g>
			<rect x="109.174" y="359.129" fill="#FFFFFF" width="205.9" height="21.236"/>
		</g>
		<text transform="matrix(1 0 0 1 111.624 357.4961)" font-family="'ArialMT'" font-size="11">Prompts a popup with photos</text>
		<text transform="matrix(1 0 0 1 111.624 373.8311)" font-family="'ArialMT'" font-size="11">attached to the selected record</text>
	</g>
	<g>
		<path fill="none" stroke="#000000" stroke-width="1.3613" stroke-miterlimit="10" stroke-dasharray="6.5341" d="M334.404,380.365
			H92.566"/>
		<g transform="translate(89.84361814999998,380.3652088405) translate(-89.84361814999998,-380.3652088405)">
			<path d="M103.456,373.559l-13.612,6.807l13.612,6.807V373.559z"/>
		</g>
	</g>
	<g>
		<path fill="none" stroke="#000000" stroke-width="2.3336" stroke-miterlimit="10" d="M16.335,252.951h383.41v151.917H16.335
			V252.951z"/>
		<path fill="#FFFFFF" stroke="#000000" stroke-width="2.3336" stroke-miterlimit="10" d="M16.335,252.951v19.602h56.67l9.801-9.801
			v-9.801H16.335"/>
		<text transform="matrix(1 0 0 1 32.6704 266.0186)" font-family="'Arial-BoldMT'" font-size="8.8">loop</text>
	</g>
</g>
</svg>
