<?xml version="1.0" encoding="utf-8"?>
<!-- Generator: Adobe Illustrator 16.0.0, SVG Export Plug-In . SVG Version: 6.00 Build 0)  -->
<!DOCTYPE svg PUBLIC "-//W3C//DTD SVG 1.1//EN" "http://www.w3.org/Graphics/SVG/1.1/DTD/svg11.dtd">
<svg version="1.1" id="Layer_1" xmlns="http://www.w3.org/2000/svg" xmlns:xlink="http://www.w3.org/1999/xlink" x="0px" y="0px"
	 width="752px" height="1046px" viewBox="0 0 752 1046" enable-background="new 0 0 752 1046" xml:space="preserve">
<g>
	<rect fill="#FFFFFF" width="752" height="1046"/>
</g>
<g>
	<path fill="none" stroke="#000000" stroke-width="1.3613" stroke-miterlimit="10" stroke-dasharray="12.5655,5.4451" d="
		M98.011,128.803v918.039"/>
	<path fill="none" stroke="#000000" stroke-width="1.3613" stroke-miterlimit="10" stroke-dasharray="12.5655,5.4451" d="
		M317.907,128.803v918.039"/>
	<path fill="none" stroke="#000000" stroke-width="1.3613" stroke-miterlimit="10" stroke-dasharray="12.5655,5.4451" d="
		M616.971,128.803v918.039"/>
</g>
<g>
	<g>
		<path fill="#FFFFFF" stroke="#000000" stroke-width="2.777" stroke-miterlimit="10" d="M107.322,59.705
			c0.001,5.143-4.166,9.313-9.308,9.314c-5.142,0.002-9.313-4.166-9.314-9.308c-0.001-5.142,4.166-9.312,9.308-9.314
			c5.139-0.001,9.307,4.16,9.314,9.299 M98.011,69.016v19.929 M86.25,76.204h23.522 M98.011,88.945L86.25,107.567 M98.011,88.945
			l11.761,18.622"/>
	</g>
	<g>
		<text transform="matrix(1 0 0 1 61.0112 123.9023)" font-family="'ArialMT'" font-size="11">Municipality</text>
	</g>
	<g>
		<path fill="#FFFFFF" stroke="#000000" stroke-width="2.777" stroke-miterlimit="10" d="M327.218,59.705
			c-0.002,5.143-4.173,9.309-9.315,9.307c-5.143-0.003-9.309-4.173-9.307-9.316c0.003-5.142,4.174-9.309,9.316-9.306
			c5.139,0.002,9.304,4.167,9.306,9.306 M317.907,69.016v19.929 M306.146,76.204h23.522 M317.907,88.945l-11.762,18.622
			 M317.907,88.945l11.761,18.622"/>
	</g>
	<g>
		<text transform="matrix(1 0 0 1 274.9067 123.9023)" font-family="'ArialMT'" font-size="11">Administrator</text>
	</g>
	<path d="M0,0"/>
	<g>
		<path fill="#FFFFFF" stroke="#000000" stroke-width="2.6136" stroke-miterlimit="10" d="M560.747,84.698h112.447v44.105H560.747
			V84.698z"/>
	</g>
	<g>
		<text transform="matrix(1 0 0 1 578.4707 112.4678)" font-family="'ArialMT'" font-size="11">SafeStreets</text>
	</g>
</g>
<g>
	<path fill="#FFFFFF" stroke="#000000" stroke-width="1.3613" stroke-miterlimit="10" d="M89.844,136.971h16.335v893.536H89.844
		V136.971"/>
	<path fill="#FFFFFF" stroke="#000000" stroke-width="1.3613" stroke-miterlimit="10" d="M309.739,199.044h16.335v790.624h-16.335
		V199.044"/>
	<path fill="#FFFFFF" stroke="#000000" stroke-width="1.3613" stroke-miterlimit="10" d="M608.803,244.783h16.335v45.738h-16.335
		V244.783"/>
	<path fill="#FFFFFF" stroke="#000000" stroke-width="1.3613" stroke-miterlimit="10" d="M608.803,486.544h16.335v45.738h-16.335
		V486.544"/>
	<path fill="#FFFFFF" stroke="#000000" stroke-width="1.3613" stroke-miterlimit="10" d="M317.907,594.356h16.335v40.838h-16.335
		V594.356"/>
	<path fill="#FFFFFF" stroke="#000000" stroke-width="1.3613" stroke-miterlimit="10" d="M608.803,680.933h16.335v153.551h-16.335
		V680.933"/>
	<g>
		<g>
			<rect x="129.009" y="161.474" fill="#FFFFFF" width="157.9" height="21.235"/>
		</g>
		<g>
			<rect x="129.009" y="177.809" fill="#FFFFFF" width="139.9" height="21.236"/>
		</g>
		<text transform="matrix(1 0 0 1 131.459 176.1748)" font-family="'ArialMT'" font-size="11">Send formal request for</text>
		<text transform="matrix(1 0 0 1 131.459 192.5107)" font-family="'ArialMT'" font-size="11">account(s) activation</text>
	</g>
	<g>
		<path fill="none" stroke="#000000" stroke-width="1.3613" stroke-miterlimit="10" d="M106.179,199.044h200.838"/>
		<g transform="translate(309.7393635833333,199.04445221049997) translate(-309.7393635833333,-199.04445221049997)">
			<path d="M296.127,192.238l13.612,6.806l-13.612,6.806V192.238z"/>
		</g>
	</g>
	<g>
		<g>
			<rect x="361.488" y="223.547" fill="#FFFFFF" width="211.9" height="21.236"/>
		</g>
		<text transform="matrix(1 0 0 1 363.9385 238.249)" font-family="'ArialMT'" font-size="11">Clicks &quot;Accounts control&quot; button</text>
	</g>
	<g>
		<path fill="none" stroke="#000000" stroke-width="1.3613" stroke-miterlimit="10" d="M326.074,244.783H606.08"/>
		<g transform="translate(608.8027106666666,244.78302145049997) translate(-608.8027106666666,-244.78302145049997)">
			<path d="M595.19,237.977l13.612,6.807l-13.612,6.806V237.977z"/>
		</g>
	</g>
	<g>
		<g>
			<rect x="362.488" y="269.286" fill="#FFFFFF" width="209.9" height="21.236"/>
		</g>
		<text transform="matrix(1 0 0 1 364.9385 283.9873)" font-family="'ArialMT'" font-size="11">Prompts Accounts control page</text>
	</g>
	<g>
		<path fill="none" stroke="#000000" stroke-width="1.3613" stroke-miterlimit="10" stroke-dasharray="6.5341" d="M608.803,290.521
			H328.797"/>
		<g transform="translate(326.07456688333326,290.5215906905) translate(-326.07456688333326,-290.5215906905)">
			<path d="M339.688,283.715l-13.613,6.806l13.613,6.807V283.715z"/>
		</g>
	</g>
	<g>
		<g>
			<rect x="345.404" y="359.129" fill="#FFFFFF" width="174.9" height="21.236"/>
		</g>
		<text transform="matrix(1 0 0 1 347.855 373.8311)" font-family="'ArialMT'" font-size="11">Check data completeness</text>
	</g>
	<g>
		<path fill="none" stroke="#000000" stroke-width="1.3613" stroke-miterlimit="10" d="M326.074,380.365h65.341V396.7h-62.618"/>
		<g transform="translate(326.07456688333326,396.70041214049996) translate(-326.07456688333326,-396.70041214049996)">
			<path d="M339.688,389.894l-13.613,6.806l13.613,6.807V389.894z"/>
		</g>
	</g>
	<g>
		<g>
			<rect x="349.488" y="465.309" fill="#FFFFFF" width="235.9" height="21.235"/>
		</g>
		<text transform="matrix(1 0 0 1 351.9385 480.0098)" font-family="'ArialMT'" font-size="11">Clicks &quot;New Officer account&quot; button</text>
	</g>
	<g>
		<path fill="none" stroke="#000000" stroke-width="1.3613" stroke-miterlimit="10" d="M326.074,486.544H606.08"/>
		<g transform="translate(608.8027106666666,486.54403029049996) translate(-608.8027106666666,-486.54403029049996)">
			<path d="M595.19,479.737l13.612,6.807l-13.612,6.807V479.737z"/>
		</g>
	</g>
	<g>
		<g>
			<rect x="350.488" y="511.047" fill="#FFFFFF" width="233.9" height="21.235"/>
		</g>
		<text transform="matrix(1 0 0 1 352.9385 525.749)" font-family="'ArialMT'" font-size="11">Prompts New Officer account page</text>
	</g>
	<g>
		<path fill="none" stroke="#000000" stroke-width="1.3613" stroke-miterlimit="10" stroke-dasharray="6.5341" d="M608.803,532.282
			H328.797"/>
		<g transform="translate(326.07456688333326,532.2825995305) translate(-326.07456688333326,-532.2825995305)">
			<path d="M339.688,525.477l-13.613,6.806l13.613,6.807V525.477z"/>
		</g>
	</g>
	<g>
		<g>
			<rect x="353.572" y="556.785" fill="#FFFFFF" width="209.9" height="21.236"/>
		</g>
		<text transform="matrix(1 0 0 1 356.0225 571.4873)" font-family="'ArialMT'" font-size="11">Fills the form with received data</text>
	</g>
	<g>
		<path fill="none" stroke="#000000" stroke-width="1.3613" stroke-miterlimit="10" d="M326.074,578.021h73.509v16.335h-62.618"/>
		<g transform="translate(334.24216853333326,594.3563720704999) translate(-334.24216853333326,-594.3563720704999)">
			<path d="M347.854,587.55l-13.612,6.807l13.612,6.807V587.55z"/>
		</g>
	</g>
	<g>
		<g>
			<rect x="399.488" y="659.697" fill="#FFFFFF" width="135.9" height="21.235"/>
		</g>
		<text transform="matrix(1 0 0 1 401.9385 674.3984)" font-family="'ArialMT'" font-size="11">Clicks &quot;Save&quot; button</text>
	</g>
	<g>
		<path fill="none" stroke="#000000" stroke-width="1.3613" stroke-miterlimit="10" d="M326.074,680.933H606.08"/>
		<g transform="translate(608.8027106666666,680.9329495604999) translate(-608.8027106666666,-680.9329495604999)">
			<path d="M595.19,674.127l13.612,6.806l-13.612,6.807V674.127z"/>
		</g>
	</g>
	<g>
		<g>
			<rect x="644.468" y="705.436" fill="#FFFFFF" width="69.9" height="21.236"/>
		</g>
		<text transform="matrix(1 0 0 1 646.918 720.1377)" font-family="'ArialMT'" font-size="11">Save data</text>
	</g>
	<g>
		<path fill="none" stroke="#000000" stroke-width="1.3613" stroke-miterlimit="10" d="M625.138,726.672h65.341v16.335H627.86"/>
		<g transform="translate(625.1379139666667,743.0067221004999) translate(-625.1379139666667,-743.0067221004999)">
			<path d="M638.751,736.2l-13.613,6.807l13.613,6.807V736.2z"/>
		</g>
	</g>
	<g>
		<g>
			<rect x="369.988" y="767.51" fill="#FFFFFF" width="194.9" height="21.235"/>
		</g>
		<text transform="matrix(1 0 0 1 372.4385 782.2109)" font-family="'ArialMT'" font-size="11">Notifies completed procedure</text>
	</g>
	<g>
		<path fill="none" stroke="#000000" stroke-width="1.3613" stroke-miterlimit="10" stroke-dasharray="6.5341" d="M608.803,788.745
			H328.797"/>
		<g transform="translate(326.07456688333326,788.7452913404999) translate(-326.07456688333326,-788.7452913404999)">
			<path d="M339.688,781.938l-13.613,6.807l13.613,6.807V781.938z"/>
		</g>
	</g>
	<g>
		<g>
			<rect x="125.509" y="813.248" fill="#FFFFFF" width="164.9" height="21.235"/>
		</g>
		<text transform="matrix(1 0 0 1 127.959 827.9502)" font-family="'ArialMT'" font-size="11">Notifies account creation</text>
	</g>
	<g>
		<path fill="none" stroke="#000000" stroke-width="1.3613" stroke-miterlimit="10" d="M309.739,834.483H108.901"/>
		<g transform="translate(106.17882144999999,834.4838605804998) translate(-106.17882144999999,-834.4838605804998)">
			<path d="M119.792,827.678l-13.613,6.806l13.613,6.807V827.678z"/>
		</g>
	</g>
	<g>
		<g>
			<rect x="140.009" y="903.092" fill="#FFFFFF" width="135.9" height="21.235"/>
		</g>
		<g>
			<rect x="140.009" y="919.427" fill="#FFFFFF" width="103.9" height="21.236"/>
		</g>
		<text transform="matrix(1 0 0 1 142.459 917.793)" font-family="'ArialMT'" font-size="11">Request for missing</text>
		<text transform="matrix(1 0 0 1 142.459 934.1289)" font-family="'ArialMT'" font-size="11">data integration</text>
	</g>
	<g>
		<path fill="none" stroke="#000000" stroke-width="1.3613" stroke-miterlimit="10" d="M309.739,940.663H108.901"/>
		<g transform="translate(106.17882144999999,940.6626820304999) translate(-106.17882144999999,-940.6626820304999)">
			<path d="M119.792,933.856l-13.613,6.807l13.613,6.806V933.856z"/>
		</g>
	</g>
	<g>
		<path fill="none" stroke="#000000" stroke-width="2.3336" stroke-miterlimit="10" d="M16.335,315.024h720.086v674.644H16.335
			V315.024z"/>
		<path fill="#FFFFFF" stroke="#000000" stroke-width="2.3336" stroke-miterlimit="10" d="M16.335,315.024v19.602h56.67l9.801-9.801
			v-9.801H16.335"/>
		<text transform="matrix(1 0 0 1 32.6704 328.0928)" font-family="'Arial-BoldMT'" font-size="8.8">loop</text>
		<text transform="matrix(1 0 0 1 99.1421 328.0928)" font-family="'Arial-BoldMT'" font-size="8.8">[Accounts in request]</text>
	</g>
	<g>
		<path fill="none" stroke="#000000" stroke-width="2.3336" stroke-miterlimit="10" d="M32.67,421.203h687.416v543.962H32.67
			V421.203z"/>
		<path fill="#FFFFFF" stroke="#000000" stroke-width="2.3336" stroke-miterlimit="10" d="M32.67,421.203v19.603h46.67l9.801-9.802
			v-9.801H32.67"/>
		<text transform="matrix(1 0 0 1 49.0054 434.2715)" font-family="'Arial-BoldMT'" font-size="8.8">alt</text>
		<text transform="matrix(1 0 0 1 105.4771 434.2715)" font-family="'Arial-BoldMT'" font-size="8.8">[Complete data]</text>
		<g>
			<path fill="none" stroke="#000000" stroke-width="2.3336" stroke-miterlimit="10" stroke-dasharray="4.0838" d="M32.67,858.986
				h687.416"/>
		</g>
		<text transform="matrix(1 0 0 1 105.4771 872.0547)" font-family="'Arial-BoldMT'" font-size="8.8">[Incomplete data]</text>
	</g>
</g>
</svg>
