<svg version="1.1" xmlns="http://www.w3.org/2000/svg" xmlns:xlink="http://www.w3.org/1999/xlink" width="752" height="1046"><defs/><g><g/><g/><g/><g/><g/><g/><g/><g/><g/><g/><g/><g/><g/><g/><g><rect fill="white" stroke="none" x="0" y="0" width="752" height="1046"/></g><g><text fill="black" stroke="none" font-family="sans-serif" font-size="16.5pt" font-style="normal" font-weight="normal" text-decoration="normal" x="235.79476839459636" y="24.50280495" text-anchor="start" dominant-baseline="alphabetic">Authority registration request</text></g><g/><g><path fill="none" stroke="black" paint-order="fill stroke markers" d=" M 98.01121979999999 128.80307802049998 L 98.01121979999999 1046.8415034805" stroke-miterlimit="10" stroke-width="1.3612669416666667" stroke-dasharray="12.565541,5.445067766666667"/><path fill="none" stroke="black" paint-order="fill stroke markers" d=" M 317.90696523333327 128.80307802049998 L 317.90696523333327 1046.8415034805" stroke-miterlimit="10" stroke-width="1.3612669416666667" stroke-dasharray="12.565541,5.445067766666667"/><path fill="none" stroke="black" paint-order="fill stroke markers" d=" M 616.9703123166667 128.80307802049998 L 616.9703123166667 1046.8415034805" stroke-miterlimit="10" stroke-width="1.3612669416666667" stroke-dasharray="12.565541,5.445067766666667"/></g><g><g><path fill="white" stroke="black" paint-order="fill stroke markers" d=" M 107.322285681 59.70516806150002 A 9.311065881 9.311065881 0 1 1 107.32228102546743 59.69585699717086 M 98.01121979999999 69.01623394250002 L 98.01121979999999 88.94518196850002 M 86.24987342399999 76.20372339450002 L 109.772566176 76.20372339450002 M 98.01121979999999 88.94518196850002 L 86.24987342399999 107.56731373050002 M 98.01121979999999 88.94518196850002 L 109.772566176 107.56731373050002" stroke-miterlimit="10" stroke-width="2.7769845610000004" stroke-dasharray=""/></g><g><g/><text fill="black" stroke="none" font-family="sans-serif" font-size="11pt" font-style="normal" font-weight="normal" text-decoration="normal" x="61.01121979999999" y="123.90251703050001" text-anchor="start" dominant-baseline="alphabetic">Municipality</text></g><g><path fill="white" stroke="black" paint-order="fill stroke markers" d=" M 327.21803111433326 59.70516806150002 A 9.311065881 9.311065881 0 1 1 327.2180264588007 59.69585699717086 M 317.90696523333327 69.01623394250002 L 317.90696523333327 88.94518196850002 M 306.14561885733326 76.20372339450002 L 329.6683116093333 76.20372339450002 M 317.90696523333327 88.94518196850002 L 306.14561885733326 107.56731373050002 M 317.90696523333327 88.94518196850002 L 329.6683116093333 107.56731373050002" stroke-miterlimit="10" stroke-width="2.7769845610000004" stroke-dasharray=""/></g><g><g/><text fill="black" stroke="none" font-family="sans-serif" font-size="11pt" font-style="normal" font-weight="normal" text-decoration="normal" x="274.90696523333327" y="123.90251703050001" text-anchor="start" dominant-baseline="alphabetic">Administrator</text></g><path fill="none" stroke="none"/><g><path fill="white" stroke="black" paint-order="fill stroke markers" d=" M 560.7466167361666 84.69802911050002 L 673.1940078971667 84.69802911050002 L 673.1940078971667 128.8030780205 L 560.7466167361666 128.8030780205 L 560.7466167361666 84.69802911050002 Z" stroke-miterlimit="10" stroke-width="2.613632528" stroke-dasharray=""/></g><g><g/><text fill="black" stroke="none" font-family="sans-serif" font-size="11pt" font-style="normal" font-weight="normal" text-decoration="normal" x="578.4703123166667" y="112.46787472049999" text-anchor="start" dominant-baseline="alphabetic">SafeStreets</text></g></g><g><path fill="white" stroke="black" paint-order="fill stroke markers" d=" M 89.84361815 136.97067967049998 L 106.17882144999999 136.97067967049998 L 106.17882144999999 1030.5063001805 L 89.84361815 1030.5063001805 L 89.84361815 136.97067967049998" stroke-miterlimit="10" stroke-width="1.3612669416666667" stroke-dasharray=""/><path fill="white" stroke="black" paint-order="fill stroke markers" d=" M 309.7393635833333 199.04445221049997 L 326.07456688333326 199.04445221049997 L 326.07456688333326 989.6682919305 L 309.7393635833333 989.6682919305 L 309.7393635833333 199.04445221049997" stroke-miterlimit="10" stroke-width="1.3612669416666667" stroke-dasharray=""/><path fill="white" stroke="black" paint-order="fill stroke markers" d=" M 608.8027106666666 244.78302145049997 L 625.1379139666667 244.78302145049997 L 625.1379139666667 290.5215906905 L 608.8027106666666 290.5215906905 L 608.8027106666666 244.78302145049997" stroke-miterlimit="10" stroke-width="1.3612669416666667" stroke-dasharray=""/><path fill="white" stroke="black" paint-order="fill stroke markers" d=" M 608.8027106666666 486.54403029049996 L 625.1379139666667 486.54403029049996 L 625.1379139666667 532.2825995305 L 608.8027106666666 532.2825995305 L 608.8027106666666 486.54403029049996" stroke-miterlimit="10" stroke-width="1.3612669416666667" stroke-dasharray=""/><path fill="white" stroke="black" paint-order="fill stroke markers" d=" M 317.90696523333327 594.3563720704999 L 334.24216853333326 594.3563720704999 L 334.24216853333326 635.1943803204999 L 317.90696523333327 635.1943803204999 L 317.90696523333327 594.3563720704999" stroke-miterlimit="10" stroke-width="1.3612669416666667" stroke-dasharray=""/><path fill="white" stroke="black" paint-order="fill stroke markers" d=" M 608.8027106666666 680.9329495604999 L 625.1379139666667 680.9329495604999 L 625.1379139666667 834.4838605804998 L 608.8027106666666 834.4838605804998 L 608.8027106666666 680.9329495604999" stroke-miterlimit="10" stroke-width="1.3612669416666667" stroke-dasharray=""/><g><g><rect fill="white" stroke="none" x="129.00881202166664" y="161.47348462049996" width="157.90056099" height="21.23576429"/></g><g><rect fill="white" stroke="none" x="129.00881202166664" y="177.80868792049995" width="139.90056099" height="21.23576429"/></g><text fill="black" stroke="none" font-family="sans-serif" font-size="11pt" font-style="normal" font-weight="normal" text-decoration="normal" x="131.45909251666663" y="176.17516759049994" text-anchor="start" dominant-baseline="alphabetic">Send formal request for</text><text fill="black" stroke="none" font-family="sans-serif" font-size="11pt" font-style="normal" font-weight="normal" text-decoration="normal" x="131.45909251666663" y="192.51037089049993" text-anchor="start" dominant-baseline="alphabetic">account(s) activation</text></g><g><path fill="none" stroke="black" paint-order="fill stroke markers" d=" M 106.17882144999999 199.04445221049997 L 307.01682969999996 199.04445221049997" stroke-miterlimit="10" stroke-width="1.3612669416666667" stroke-dasharray=""/><g transform="translate(309.7393635833333,199.04445221049997) translate(-309.7393635833333,-199.04445221049997)"><path fill="black" stroke="none" paint-order="stroke fill markers" d=" M 296.1266941666666 192.23811750216663 L 309.7393635833333 199.04445221049997 L 296.1266941666666 205.8507869188333 Z"/></g></g><g><g><rect fill="white" stroke="none" x="361.48835827999994" y="223.54725716049998" width="211.90056099" height="21.23576429"/></g><text fill="black" stroke="none" font-family="sans-serif" font-size="11pt" font-style="normal" font-weight="normal" text-decoration="normal" x="363.93863877499996" y="238.24894013049996" text-anchor="start" dominant-baseline="alphabetic">Clicks "Accounts control" button</text></g><g><path fill="none" stroke="black" paint-order="fill stroke markers" d=" M 326.07456688333326 244.78302145049997 L 606.0801767833333 244.78302145049997" stroke-miterlimit="10" stroke-width="1.3612669416666667" stroke-dasharray=""/><g transform="translate(608.8027106666666,244.78302145049997) translate(-608.8027106666666,-244.78302145049997)"><path fill="black" stroke="none" paint-order="stroke fill markers" d=" M 595.1900412499999 237.97668674216663 L 608.8027106666666 244.78302145049997 L 595.1900412499999 251.5893561588333 Z"/></g></g><g><g><rect fill="white" stroke="none" x="362.48835827999994" y="269.28582640049996" width="209.90056099" height="21.23576429"/></g><text fill="black" stroke="none" font-family="sans-serif" font-size="11pt" font-style="normal" font-weight="normal" text-decoration="normal" x="364.93863877499996" y="283.98750937049994" text-anchor="start" dominant-baseline="alphabetic">Prompts Accounts control page</text></g><g><path fill="none" stroke="black" paint-order="fill stroke markers" d=" M 608.8027106666666 290.5215906905 L 328.7971007666666 290.5215906905" stroke-miterlimit="10" stroke-width="1.3612669416666667" stroke-dasharray="6.53408132"/><g transform="translate(326.07456688333326,290.5215906905) translate(-326.07456688333326,-290.5215906905)"><path fill="black" stroke="none" paint-order="stroke fill markers" d=" M 339.68723629999994 283.71525598216664 L 326.07456688333326 290.5215906905 L 339.68723629999994 297.3279253988333 Z"/></g></g><g><g><rect fill="white" stroke="none" x="345.4045574549999" y="359.12944455049995" width="174.90056099" height="21.23576429"/></g><text fill="black" stroke="none" font-family="sans-serif" font-size="11pt" font-style="normal" font-weight="normal" text-decoration="normal" x="347.85483794999993" y="373.83112752049993" text-anchor="start" dominant-baseline="alphabetic">Check data completeness</text></g><g><path fill="none" stroke="black" paint-order="fill stroke markers" d=" M 326.07456688333326 380.3652088405 L 391.4153800833333 380.3652088405 L 391.4153800833333 396.70041214049996 L 328.7971007666666 396.70041214049996" stroke-miterlimit="10" stroke-width="1.3612669416666667" stroke-dasharray=""/><g transform="translate(326.07456688333326,396.70041214049996) translate(-326.07456688333326,-396.70041214049996)"><path fill="black" stroke="none" paint-order="stroke fill markers" d=" M 339.68723629999994 389.8940774321666 L 326.07456688333326 396.70041214049996 L 339.68723629999994 403.5067468488333 Z"/></g></g><g><g><rect fill="white" stroke="none" x="349.48835827999994" y="465.30826600049994" width="235.90056099" height="21.23576429"/></g><text fill="black" stroke="none" font-family="sans-serif" font-size="11pt" font-style="normal" font-weight="normal" text-decoration="normal" x="351.93863877499996" y="480.0099489704999" text-anchor="start" dominant-baseline="alphabetic">Clicks "New Officer account" button</text></g><g><path fill="none" stroke="black" paint-order="fill stroke markers" d=" M 326.07456688333326 486.54403029049996 L 606.0801767833333 486.54403029049996" stroke-miterlimit="10" stroke-width="1.3612669416666667" stroke-dasharray=""/><g transform="translate(608.8027106666666,486.54403029049996) translate(-608.8027106666666,-486.54403029049996)"><path fill="black" stroke="none" paint-order="stroke fill markers" d=" M 595.1900412499999 479.7376955821666 L 608.8027106666666 486.54403029049996 L 595.1900412499999 493.3503649988333 Z"/></g></g><g><g><rect fill="white" stroke="none" x="350.48835827999994" y="511.04683524049995" width="233.90056099" height="21.23576429"/></g><text fill="black" stroke="none" font-family="sans-serif" font-size="11pt" font-style="normal" font-weight="normal" text-decoration="normal" x="352.93863877499996" y="525.7485182104999" text-anchor="start" dominant-baseline="alphabetic">Prompts New Officer account page</text></g><g><path fill="none" stroke="black" paint-order="fill stroke markers" d=" M 608.8027106666666 532.2825995305 L 328.7971007666666 532.2825995305" stroke-miterlimit="10" stroke-width="1.3612669416666667" stroke-dasharray="6.53408132"/><g transform="translate(326.07456688333326,532.2825995305) translate(-326.07456688333326,-532.2825995305)"><path fill="black" stroke="none" paint-order="stroke fill markers" d=" M 339.68723629999994 525.4762648221666 L 326.07456688333326 532.2825995305 L 339.68723629999994 539.0889342388333 Z"/></g></g><g><g><rect fill="white" stroke="none" x="353.5721591049999" y="556.7854044804999" width="209.90056099" height="21.23576429"/></g><text fill="black" stroke="none" font-family="sans-serif" font-size="11pt" font-style="normal" font-weight="normal" text-decoration="normal" x="356.0224395999999" y="571.4870874504999" text-anchor="start" dominant-baseline="alphabetic">Fills the form with received data</text></g><g><path fill="none" stroke="black" paint-order="fill stroke markers" d=" M 326.07456688333326 578.0211687704999 L 399.58298173333327 578.0211687704999 L 399.58298173333327 594.3563720704999 L 336.96470241666657 594.3563720704999" stroke-miterlimit="10" stroke-width="1.3612669416666667" stroke-dasharray=""/><g transform="translate(334.24216853333326,594.3563720704999) translate(-334.24216853333326,-594.3563720704999)"><path fill="black" stroke="none" paint-order="stroke fill markers" d=" M 347.85483794999993 587.5500373621666 L 334.24216853333326 594.3563720704999 L 347.85483794999993 601.1627067788332 Z"/></g></g><g><g><rect fill="white" stroke="none" x="399.48835827999994" y="659.6971852704999" width="135.90056099" height="21.23576429"/></g><text fill="black" stroke="none" font-family="sans-serif" font-size="11pt" font-style="normal" font-weight="normal" text-decoration="normal" x="401.93863877499996" y="674.3988682404998" text-anchor="start" dominant-baseline="alphabetic">Clicks "Save" button</text></g><g><path fill="none" stroke="black" paint-order="fill stroke markers" d=" M 326.07456688333326 680.9329495604999 L 606.0801767833333 680.9329495604999" stroke-miterlimit="10" stroke-width="1.3612669416666667" stroke-dasharray=""/><g transform="translate(608.8027106666666,680.9329495604999) translate(-608.8027106666666,-680.9329495604999)"><path fill="black" stroke="none" paint-order="stroke fill markers" d=" M 595.1900412499999 674.1266148521665 L 608.8027106666666 680.9329495604999 L 595.1900412499999 687.7392842688332 Z"/></g></g><g><g><rect fill="white" stroke="none" x="644.4679045383334" y="705.4357545104999" width="69.90056099" height="21.23576429"/></g><text fill="black" stroke="none" font-family="sans-serif" font-size="11pt" font-style="normal" font-weight="normal" text-decoration="normal" x="646.9181850333334" y="720.1374374804999" text-anchor="start" dominant-baseline="alphabetic">Save data</text></g><g><path fill="none" stroke="black" paint-order="fill stroke markers" d=" M 625.1379139666667 726.6715188004999 L 690.4787271666667 726.6715188004999 L 690.4787271666667 743.0067221004999 L 627.86044785 743.0067221004999" stroke-miterlimit="10" stroke-width="1.3612669416666667" stroke-dasharray=""/><g transform="translate(625.1379139666667,743.0067221004999) translate(-625.1379139666667,-743.0067221004999)"><path fill="black" stroke="none" paint-order="stroke fill markers" d=" M 638.7505833833334 736.2003873921666 L 625.1379139666667 743.0067221004999 L 638.7505833833334 749.8130568088333 Z"/></g></g><g><g><rect fill="white" stroke="none" x="369.98835827999994" y="767.5095270504999" width="194.90056099" height="21.23576429"/></g><text fill="black" stroke="none" font-family="sans-serif" font-size="11pt" font-style="normal" font-weight="normal" text-decoration="normal" x="372.43863877499996" y="782.2112100204998" text-anchor="start" dominant-baseline="alphabetic">Notifies completed procedure</text></g><g><path fill="none" stroke="black" paint-order="fill stroke markers" d=" M 608.8027106666666 788.7452913404999 L 328.7971007666666 788.7452913404999" stroke-miterlimit="10" stroke-width="1.3612669416666667" stroke-dasharray="6.53408132"/><g transform="translate(326.07456688333326,788.7452913404999) translate(-326.07456688333326,-788.7452913404999)"><path fill="black" stroke="none" paint-order="stroke fill markers" d=" M 339.68723629999994 781.9389566321665 L 326.07456688333326 788.7452913404999 L 339.68723629999994 795.5516260488332 Z"/></g></g><g><g><rect fill="white" stroke="none" x="125.50881202166663" y="813.2480962904998" width="164.90056099" height="21.23576429"/></g><text fill="black" stroke="none" font-family="sans-serif" font-size="11pt" font-style="normal" font-weight="normal" text-decoration="normal" x="127.95909251666663" y="827.9497792604998" text-anchor="start" dominant-baseline="alphabetic">Notifies account creation</text></g><g><path fill="none" stroke="black" paint-order="fill stroke markers" d=" M 309.7393635833333 834.4838605804998 L 108.90135533333333 834.4838605804998" stroke-miterlimit="10" stroke-width="1.3612669416666667" stroke-dasharray=""/><g transform="translate(106.17882144999999,834.4838605804998) translate(-106.17882144999999,-834.4838605804998)"><path fill="black" stroke="none" paint-order="stroke fill markers" d=" M 119.79149086666665 827.6775258721665 L 106.17882144999999 834.4838605804998 L 119.79149086666665 841.2901952888332 Z"/></g></g><g><g><rect fill="white" stroke="none" x="140.00881202166664" y="903.0917144404999" width="135.90056099" height="21.23576429"/></g><g><rect fill="white" stroke="none" x="140.00881202166664" y="919.4269177404999" width="103.90056099" height="21.23576429"/></g><text fill="black" stroke="none" font-family="sans-serif" font-size="11pt" font-style="normal" font-weight="normal" text-decoration="normal" x="142.45909251666663" y="917.7933974104999" text-anchor="start" dominant-baseline="alphabetic">Request for missing</text><text fill="black" stroke="none" font-family="sans-serif" font-size="11pt" font-style="normal" font-weight="normal" text-decoration="normal" x="142.45909251666663" y="934.1286007104999" text-anchor="start" dominant-baseline="alphabetic">data integration</text></g><g><path fill="none" stroke="black" paint-order="fill stroke markers" d=" M 309.7393635833333 940.6626820304999 L 108.90135533333333 940.6626820304999" stroke-miterlimit="10" stroke-width="1.3612669416666667" stroke-dasharray=""/><g transform="translate(106.17882144999999,940.6626820304999) translate(-106.17882144999999,-940.6626820304999)"><path fill="black" stroke="none" paint-order="stroke fill markers" d=" M 119.79149086666665 933.8563473221666 L 106.17882144999999 940.6626820304999 L 119.79149086666665 947.4690167388333 Z"/></g></g><g><g/><path fill="none" stroke="black" paint-order="fill stroke markers" d=" M 16.335203299999996 315.02439564049996 L 736.4209899833334 315.02439564049996 L 736.4209899833334 989.6682919305 L 16.335203299999996 989.6682919305 L 16.335203299999996 315.02439564049996 Z" stroke-miterlimit="10" stroke-width="2.3336004714285714" stroke-dasharray=""/><path fill="white" stroke="black" paint-order="fill stroke markers" d=" M 16.335203299999996 315.02439564049996 L 16.335203299999996 334.62663960049997 L 73.0056099 334.62663960049997 L 82.80673188 324.82551762049997 L 82.80673188 315.02439564049996 L 16.335203299999996 315.02439564049996" stroke-miterlimit="10" stroke-width="2.3336004714285714" stroke-dasharray=""/><text fill="black" stroke="none" font-family="sans-serif" font-size="8.8pt" font-style="normal" font-weight="bold" text-decoration="normal" x="32.67040659999999" y="328.0925582805" text-anchor="start" dominant-baseline="alphabetic">loop</text><text fill="black" stroke="none" font-family="sans-serif" font-size="8.8pt" font-style="normal" font-weight="bold" text-decoration="normal" x="99.14193518" y="328.0925582805" text-anchor="start" dominant-baseline="alphabetic">[Accounts in request]</text></g><g><g/><path fill="none" stroke="black" paint-order="fill stroke markers" d=" M 32.67040659999999 421.20321709049995 L 720.0857866833334 421.20321709049995 L 720.0857866833334 965.1654869805 L 32.67040659999999 965.1654869805 L 32.67040659999999 421.20321709049995 Z" stroke-miterlimit="10" stroke-width="2.3336004714285714" stroke-dasharray=""/><path fill="white" stroke="black" paint-order="fill stroke markers" d=" M 32.67040659999999 421.20321709049995 L 32.67040659999999 440.80546105049996 L 79.34081319999999 440.80546105049996 L 89.14193517999999 431.00433907049995 L 89.14193517999999 421.20321709049995 L 32.67040659999999 421.20321709049995" stroke-miterlimit="10" stroke-width="2.3336004714285714" stroke-dasharray=""/><text fill="black" stroke="none" font-family="sans-serif" font-size="8.8pt" font-style="normal" font-weight="bold" text-decoration="normal" x="49.005609899999996" y="434.2713797305" text-anchor="start" dominant-baseline="alphabetic">alt</text><text fill="black" stroke="none" font-family="sans-serif" font-size="8.8pt" font-style="normal" font-weight="bold" text-decoration="normal" x="105.47713848" y="434.2713797305" text-anchor="start" dominant-baseline="alphabetic">[Complete data]</text><g><path fill="none" stroke="black" paint-order="fill stroke markers" d=" M 32.67040659999999 858.9866655304999 L 720.0857866833334 858.9866655304999" stroke-miterlimit="10" stroke-width="2.3336004714285714" stroke-dasharray="4.083800825"/></g><g/><text fill="black" stroke="none" font-family="sans-serif" font-size="8.8pt" font-style="normal" font-weight="bold" text-decoration="normal" x="105.47713848" y="872.0548281704998" text-anchor="start" dominant-baseline="alphabetic">[Incomplete data]</text></g><g/></g><g/><g/><g/></g></svg>