<svg version="1.1" xmlns="http://www.w3.org/2000/svg" xmlns:xlink="http://www.w3.org/1999/xlink" width="474" height="863"><defs/><g><g/><g/><g/><g/><g/><g/><g/><g/><g/><g/><g><rect fill="white" stroke="none" x="0" y="0" width="474" height="863"/></g><g><text fill="black" stroke="none" font-family="sans-serif" font-size="16.5pt" font-style="normal" font-weight="normal" text-decoration="normal" x="163.2709535738281" y="24.50280495" text-anchor="start" dominant-baseline="alphabetic">Create a report</text></g><g/><g><path fill="none" stroke="black" paint-order="fill stroke markers" d=" M 98.01121979999999 128.80307802049998 L 98.01121979999999 863.8872265205001" stroke-miterlimit="10" stroke-width="1.3612669416666667" stroke-dasharray="12.565541,5.445067766666667"/><path fill="none" stroke="black" paint-order="fill stroke markers" d=" M 338.0745668833333 128.80307802049998 L 338.0745668833333 863.8872265205001" stroke-miterlimit="10" stroke-width="1.3612669416666667" stroke-dasharray="12.565541,5.445067766666667"/></g><g><g><path fill="white" stroke="black" paint-order="fill stroke markers" d=" M 107.322285681 59.70516806150002 A 9.311065881 9.311065881 0 1 1 107.32228102546743 59.69585699717086 M 98.01121979999999 69.01623394250002 L 98.01121979999999 88.94518196850002 M 86.24987342399999 76.20372339450002 L 109.772566176 76.20372339450002 M 98.01121979999999 88.94518196850002 L 86.24987342399999 107.56731373050002 M 98.01121979999999 88.94518196850002 L 109.772566176 107.56731373050002" stroke-miterlimit="10" stroke-width="2.7769845610000004" stroke-dasharray=""/></g><g><g/><text fill="black" stroke="none" font-family="sans-serif" font-size="11pt" font-style="normal" font-weight="normal" text-decoration="normal" x="46.01121979999999" y="123.90251703050001" text-anchor="start" dominant-baseline="alphabetic">Registered user</text></g><path fill="none" stroke="none"/><g><path fill="white" stroke="black" paint-order="fill stroke markers" d=" M 281.8508713028333 84.69802911050002 L 394.29826246383334 84.69802911050002 L 394.29826246383334 128.8030780205 L 281.8508713028333 128.8030780205 L 281.8508713028333 84.69802911050002 Z" stroke-miterlimit="10" stroke-width="2.613632528" stroke-dasharray=""/></g><g><g/><text fill="black" stroke="none" font-family="sans-serif" font-size="11pt" font-style="normal" font-weight="normal" text-decoration="normal" x="299.5745668833333" y="112.46787472049999" text-anchor="start" dominant-baseline="alphabetic">SafeStreets</text></g></g><g><path fill="white" stroke="black" paint-order="fill stroke markers" d=" M 89.84361815 136.97067967049998 L 106.17882144999999 136.97067967049998 L 106.17882144999999 847.5520232205001 L 89.84361815 847.5520232205001 L 89.84361815 136.97067967049998" stroke-miterlimit="10" stroke-width="1.3612669416666667" stroke-dasharray=""/><path fill="white" stroke="black" paint-order="fill stroke markers" d=" M 329.9069652333333 182.70924891049998 L 346.2421685333333 182.70924891049998 L 346.2421685333333 228.44781815049998 L 329.9069652333333 228.44781815049998 L 329.9069652333333 182.70924891049998" stroke-miterlimit="10" stroke-width="1.3612669416666667" stroke-dasharray=""/><path fill="white" stroke="black" paint-order="fill stroke markers" d=" M 98.01121979999999 334.62663960049997 L 114.34642309999998 334.62663960049997 L 114.34642309999998 375.4646478505 L 98.01121979999999 375.4646478505 L 98.01121979999999 334.62663960049997" stroke-miterlimit="10" stroke-width="1.3612669416666667" stroke-dasharray=""/><path fill="white" stroke="black" paint-order="fill stroke markers" d=" M 329.9069652333333 421.2032170905 L 346.2421685333333 421.2032170905 L 346.2421685333333 806.7140149705001 L 329.9069652333333 806.7140149705001 L 329.9069652333333 421.2032170905" stroke-miterlimit="10" stroke-width="1.3612669416666667" stroke-dasharray=""/><g><g><rect fill="white" stroke="none" x="144.59261284666667" y="161.4734846205" width="146.90056099" height="21.23576429"/></g><text fill="black" stroke="none" font-family="sans-serif" font-size="11pt" font-style="normal" font-weight="normal" text-decoration="normal" x="147.04289334166666" y="176.17516759049997" text-anchor="start" dominant-baseline="alphabetic">Clicks "Report" button</text></g><g><path fill="none" stroke="black" paint-order="fill stroke markers" d=" M 106.17882144999999 182.70924891049998 L 327.18443135 182.70924891049998" stroke-miterlimit="10" stroke-width="1.3612669416666667" stroke-dasharray=""/><g transform="translate(329.9069652333333,182.70924891049998) translate(-329.9069652333333,-182.70924891049998)"><path fill="black" stroke="none" paint-order="stroke fill markers" d=" M 316.29429581666665 175.90291420216664 L 329.9069652333333 182.70924891049998 L 316.29429581666665 189.51558361883332 Z"/></g></g><g><g><rect fill="white" stroke="none" x="145.59261284666667" y="207.2120538605" width="144.90056099" height="21.23576429"/></g><text fill="black" stroke="none" font-family="sans-serif" font-size="11pt" font-style="normal" font-weight="normal" text-decoration="normal" x="148.04289334166666" y="221.91373683049997" text-anchor="start" dominant-baseline="alphabetic">Prompts Report page</text></g><g><path fill="none" stroke="black" paint-order="fill stroke markers" d=" M 329.9069652333333 228.44781815049998 L 108.90135533333333 228.44781815049998" stroke-miterlimit="10" stroke-width="1.3612669416666667" stroke-dasharray="6.53408132"/><g transform="translate(106.17882144999999,228.44781815049998) translate(-106.17882144999999,-228.44781815049998)"><path fill="black" stroke="none" paint-order="stroke fill markers" d=" M 119.79149086666665 221.64148344216665 L 106.17882144999999 228.44781815049998 L 119.79149086666665 235.25415285883332 Z"/></g></g><g><g><rect fill="white" stroke="none" x="133.67641367166667" y="297.05567201049996" width="163.90056099" height="21.23576429"/></g><text fill="black" stroke="none" font-family="sans-serif" font-size="11pt" font-style="normal" font-weight="normal" text-decoration="normal" x="136.12669416666665" y="311.75735498049994" text-anchor="start" dominant-baseline="alphabetic">Fill form and take photos</text></g><g><path fill="none" stroke="black" paint-order="fill stroke markers" d=" M 106.17882144999999 318.2914363005 L 179.6872363 318.2914363005 L 179.6872363 334.62663960049997 L 117.06895698333332 334.62663960049997" stroke-miterlimit="10" stroke-width="1.3612669416666667" stroke-dasharray=""/><g transform="translate(114.3464231,334.62663960049997) translate(-114.3464231,-334.62663960049997)"><path fill="black" stroke="none" paint-order="stroke fill markers" d=" M 127.95909251666666 327.82030489216663 L 114.3464231 334.62663960049997 L 127.95909251666666 341.4329743088333 Z"/></g></g><g><g><rect fill="white" stroke="none" x="129.59261284666667" y="399.9674528005" width="176.90056099" height="21.23576429"/></g><text fill="black" stroke="none" font-family="sans-serif" font-size="11pt" font-style="normal" font-weight="normal" text-decoration="normal" x="132.04289334166666" y="414.66913577049996" text-anchor="start" dominant-baseline="alphabetic">Click "Send Report" button</text></g><g><path fill="none" stroke="black" paint-order="fill stroke markers" d=" M 106.17882144999999 421.2032170905 L 327.18443135 421.2032170905" stroke-miterlimit="10" stroke-width="1.3612669416666667" stroke-dasharray=""/><g transform="translate(329.9069652333333,421.2032170905) translate(-329.9069652333333,-421.2032170905)"><path fill="black" stroke="none" paint-order="stroke fill markers" d=" M 316.29429581666665 414.39688238216667 L 329.9069652333333 421.2032170905 L 316.29429581666665 428.00955179883334 Z"/></g></g><g><g><rect fill="white" stroke="none" x="365.57215910499997" y="445.7060220405" width="86.90056099" height="21.23576429"/></g><text fill="black" stroke="none" font-family="sans-serif" font-size="11pt" font-style="normal" font-weight="normal" text-decoration="normal" x="368.0224396" y="460.40770501049997" text-anchor="start" dominant-baseline="alphabetic">Checks data</text></g><g><path fill="none" stroke="black" paint-order="fill stroke markers" d=" M 346.2421685333333 466.9417863305 L 411.5829817333333 466.9417863305 L 411.5829817333333 483.2769896305 L 348.9647024166666 483.2769896305" stroke-miterlimit="10" stroke-width="1.3612669416666667" stroke-dasharray=""/><g transform="translate(346.2421685333333,483.2769896305) translate(-346.2421685333333,-483.2769896305)"><path fill="black" stroke="none" paint-order="stroke fill markers" d=" M 359.85483795 476.47065492216666 L 346.2421685333333 483.2769896305 L 359.85483795 490.08332433883334 Z"/></g></g><g><g><rect fill="white" stroke="none" x="157.59261284666667" y="551.8848434905" width="120.90056099" height="21.23576429"/></g><g><rect fill="white" stroke="none" x="157.59261284666667" y="568.2200467905" width="91.90056099" height="21.23576429"/></g><text fill="black" stroke="none" font-family="sans-serif" font-size="11pt" font-style="normal" font-weight="normal" text-decoration="normal" x="160.04289334166666" y="566.5865264605" text-anchor="start" dominant-baseline="alphabetic">[complete = false]</text><text fill="black" stroke="none" font-family="sans-serif" font-size="11pt" font-style="normal" font-weight="normal" text-decoration="normal" x="160.04289334166666" y="582.9217297604999" text-anchor="start" dominant-baseline="alphabetic">Missing fields</text></g><g><path fill="none" stroke="black" paint-order="fill stroke markers" d=" M 329.9069652333333 589.4558110805 L 108.90135533333333 589.4558110805" stroke-miterlimit="10" stroke-width="1.3612669416666667" stroke-dasharray="6.53408132"/><g transform="translate(106.17882144999999,589.4558110805) translate(-106.17882144999999,-589.4558110805)"><path fill="black" stroke="none" paint-order="stroke fill markers" d=" M 119.79149086666665 582.6494763721666 L 106.17882144999999 589.4558110805 L 119.79149086666665 596.2621457888333 Z"/></g></g><g><g><rect fill="white" stroke="none" x="160.59261284666667" y="658.0636649405" width="114.90056099" height="21.23576429"/></g><g><rect fill="white" stroke="none" x="160.59261284666667" y="674.3988682405" width="80.90056099" height="21.23576429"/></g><text fill="black" stroke="none" font-family="sans-serif" font-size="11pt" font-style="normal" font-weight="normal" text-decoration="normal" x="163.04289334166666" y="672.7653479104999" text-anchor="start" dominant-baseline="alphabetic">[complete = true]</text><text fill="black" stroke="none" font-family="sans-serif" font-size="11pt" font-style="normal" font-weight="normal" text-decoration="normal" x="163.04289334166666" y="689.1005512104999" text-anchor="start" dominant-baseline="alphabetic">Report sent</text></g><g><path fill="none" stroke="black" paint-order="fill stroke markers" d=" M 329.9069652333333 695.6346325305 L 108.90135533333333 695.6346325305" stroke-miterlimit="10" stroke-width="1.3612669416666667" stroke-dasharray="6.53408132"/><g transform="translate(106.17882144999999,695.6346325305) translate(-106.17882144999999,-695.6346325305)"><path fill="black" stroke="none" paint-order="stroke fill markers" d=" M 119.79149086666665 688.8282978221666 L 106.17882144999999 695.6346325305 L 119.79149086666665 702.4409672388333 Z"/></g></g><g><g><rect fill="white" stroke="none" x="365.57215910499997" y="769.1430473805001" width="77.90056099" height="21.23576429"/></g><text fill="black" stroke="none" font-family="sans-serif" font-size="11pt" font-style="normal" font-weight="normal" text-decoration="normal" x="368.0224396" y="783.8447303505001" text-anchor="start" dominant-baseline="alphabetic">Saves data</text></g><g><path fill="none" stroke="black" paint-order="fill stroke markers" d=" M 346.2421685333333 790.3788116705001 L 411.5829817333333 790.3788116705001 L 411.5829817333333 806.7140149705001 L 348.9647024166666 806.7140149705001" stroke-miterlimit="10" stroke-width="1.3612669416666667" stroke-dasharray=""/><g transform="translate(346.2421685333333,806.7140149705001) translate(-346.2421685333333,-806.7140149705001)"><path fill="black" stroke="none" paint-order="stroke fill markers" d=" M 359.85483795 799.9076802621668 L 346.2421685333333 806.7140149705001 L 359.85483795 813.5203496788334 Z"/></g></g><g><g/><path fill="none" stroke="black" paint-order="fill stroke markers" d=" M 16.335203299999996 252.95062310049997 L 458.19004125 252.95062310049997 L 458.19004125 744.6402424305 L 16.335203299999996 744.6402424305 L 16.335203299999996 252.95062310049997 Z" stroke-miterlimit="10" stroke-width="2.3336004714285714" stroke-dasharray=""/><path fill="white" stroke="black" paint-order="fill stroke markers" d=" M 16.335203299999996 252.95062310049997 L 16.335203299999996 272.5528670605 L 73.0056099 272.5528670605 L 82.80673188 262.7517450805 L 82.80673188 252.95062310049997 L 16.335203299999996 252.95062310049997" stroke-miterlimit="10" stroke-width="2.3336004714285714" stroke-dasharray=""/><text fill="black" stroke="none" font-family="sans-serif" font-size="8.8pt" font-style="normal" font-weight="bold" text-decoration="normal" x="32.67040659999999" y="266.0187857405" text-anchor="start" dominant-baseline="alphabetic">loop</text><text fill="black" stroke="none" font-family="sans-serif" font-size="8.8pt" font-style="normal" font-weight="bold" text-decoration="normal" x="99.14193518" y="266.0187857405" text-anchor="start" dominant-baseline="alphabetic">[complete == false]</text></g><g><g/><path fill="none" stroke="black" paint-order="fill stroke markers" d=" M 32.67040659999999 507.7797945804999 L 395.24777843333334 507.7797945804999 L 395.24777843333334 720.1374374805 L 32.67040659999999 720.1374374805 L 32.67040659999999 507.7797945804999 Z" stroke-miterlimit="10" stroke-width="2.3336004714285714" stroke-dasharray=""/><path fill="white" stroke="black" paint-order="fill stroke markers" d=" M 32.67040659999999 507.7797945804999 L 32.67040659999999 527.3820385404999 L 79.34081319999999 527.3820385404999 L 89.14193517999999 517.5809165604999 L 89.14193517999999 507.7797945804999 L 32.67040659999999 507.7797945804999" stroke-miterlimit="10" stroke-width="2.3336004714285714" stroke-dasharray=""/><text fill="black" stroke="none" font-family="sans-serif" font-size="8.8pt" font-style="normal" font-weight="bold" text-decoration="normal" x="49.005609899999996" y="520.8479572204999" text-anchor="start" dominant-baseline="alphabetic">alt</text><text fill="black" stroke="none" font-family="sans-serif" font-size="8.8pt" font-style="normal" font-weight="bold" text-decoration="normal" x="105.47713848" y="520.8479572204999" text-anchor="start" dominant-baseline="alphabetic">[Missing fields]</text><g><path fill="none" stroke="black" paint-order="fill stroke markers" d=" M 32.67040659999999 613.9586160304999 L 395.24777843333334 613.9586160304999" stroke-miterlimit="10" stroke-width="2.3336004714285714" stroke-dasharray="4.083800825"/></g><g/><text fill="black" stroke="none" font-family="sans-serif" font-size="8.8pt" font-style="normal" font-weight="bold" text-decoration="normal" x="105.47713848" y="627.0267786704999" text-anchor="start" dominant-baseline="alphabetic">[No missing fields]</text></g><g/></g><g/><g/></g></svg>