<?xml version="1.0" encoding="utf-8"?>
<!-- Generator: Adobe Illustrator 16.0.0, SVG Export Plug-In . SVG Version: 6.00 Build 0)  -->
<!DOCTYPE svg PUBLIC "-//W3C//DTD SVG 1.1//EN" "http://www.w3.org/Graphics/SVG/1.1/DTD/svg11.dtd">
<svg version="1.1" id="Layer_1" xmlns="http://www.w3.org/2000/svg" xmlns:xlink="http://www.w3.org/1999/xlink" x="0px" y="0px"
	 width="438px" height="801px" viewBox="0 0 438 801" enable-background="new 0 0 438 801" xml:space="preserve">
<g>
	<rect fill="#FFFFFF" width="438" height="801"/>
</g>
<g>
	<path fill="none" stroke="#000000" stroke-width="1.3613" stroke-miterlimit="10" stroke-dasharray="12.5655,5.4451" d="
		M98.011,128.803v673.01"/>
	<path fill="none" stroke="#000000" stroke-width="1.3613" stroke-miterlimit="10" stroke-dasharray="12.5655,5.4451" d="
		M310.074,128.803v673.01"/>
</g>
<g>
	<g>
		<path fill="#FFFFFF" stroke="#000000" stroke-width="2.777" stroke-miterlimit="10" d="M107.322,59.705
			c0.001,5.143-4.166,9.313-9.308,9.314c-5.142,0.002-9.313-4.166-9.314-9.308c-0.001-5.142,4.166-9.312,9.308-9.314
			c5.139-0.001,9.307,4.16,9.314,9.299 M98.011,69.016v19.929 M86.25,76.204h23.522 M98.011,88.945L86.25,107.567 M98.011,88.945
			l11.761,18.622"/>
	</g>
	<g>
		<text transform="matrix(1 0 0 1 76.0112 123.9023)" font-family="'ArialMT'" font-size="11">Officer</text>
	</g>
	<path d="M0,0"/>
	<g>
		<path fill="#FFFFFF" stroke="#000000" stroke-width="2.6136" stroke-miterlimit="10" d="M253.852,84.698h112.446v44.105H253.852
			V84.698z"/>
	</g>
	<g>
		<text transform="matrix(1 0 0 1 271.5742 112.4678)" font-family="'ArialMT'" font-size="11">SafeStreets</text>
	</g>
</g>
<g>
	<path fill="#FFFFFF" stroke="#000000" stroke-width="1.3613" stroke-miterlimit="10" d="M89.844,136.971h16.335v648.508H89.844
		V136.971"/>
	<path fill="#FFFFFF" stroke="#000000" stroke-width="1.3613" stroke-miterlimit="10" d="M301.907,182.709h16.335v45.739h-16.335
		V182.709"/>
	<path fill="#FFFFFF" stroke="#000000" stroke-width="1.3613" stroke-miterlimit="10" d="M98.011,334.626h16.335v40.838H98.011
		V334.626"/>
	<path fill="#FFFFFF" stroke="#000000" stroke-width="1.3613" stroke-miterlimit="10" d="M301.907,421.203h16.335v168.253h-16.335
		V421.203"/>
	<path fill="#FFFFFF" stroke="#000000" stroke-width="1.3613" stroke-miterlimit="10" d="M301.907,633.561h16.335v62.074h-16.335
		V633.561"/>
	<g>
		<g>
			<rect x="156.593" y="161.474" fill="#FFFFFF" width="94.9" height="21.235"/>
		</g>
		<text transform="matrix(1 0 0 1 159.043 176.1748)" font-family="'ArialMT'" font-size="11">Open website</text>
	</g>
	<g>
		<path fill="none" stroke="#000000" stroke-width="1.3613" stroke-miterlimit="10" d="M106.179,182.709h193.006"/>
		<g transform="translate(301.9069652333333,182.70924891049998) translate(-301.9069652333333,-182.70924891049998)">
			<path d="M288.295,175.903l13.612,6.806l-13.612,6.807V175.903z"/>
		</g>
	</g>
	<g>
		<g>
			<rect x="138.593" y="207.212" fill="#FFFFFF" width="130.9" height="21.236"/>
		</g>
		<text transform="matrix(1 0 0 1 141.043 221.9141)" font-family="'ArialMT'" font-size="11">Prompts login page</text>
	</g>
	<g>
		<path fill="none" stroke="#000000" stroke-width="1.3613" stroke-miterlimit="10" stroke-dasharray="6.5341" d="M301.907,228.448
			H108.901"/>
		<g transform="translate(106.17882144999999,228.44781815049998) translate(-106.17882144999999,-228.44781815049998)">
			<path d="M119.792,221.642l-13.613,6.806l13.613,6.806V221.642z"/>
		</g>
	</g>
	<g>
		<g>
			<rect x="133.676" y="297.056" fill="#FFFFFF" width="56.901" height="21.236"/>
		</g>
		<text transform="matrix(1 0 0 1 136.1265 311.7578)" font-family="'ArialMT'" font-size="11">Fill form</text>
	</g>
	<g>
		<path fill="none" stroke="#000000" stroke-width="1.3613" stroke-miterlimit="10" d="M106.179,318.292h73.508v16.335h-62.618"/>
		<g transform="translate(114.3464231,334.62663960049997) translate(-114.3464231,-334.62663960049997)">
			<path d="M127.959,327.82l-13.613,6.806l13.613,6.807V327.82z"/>
		</g>
	</g>
	<g>
		<g>
			<rect x="139.093" y="399.967" fill="#FFFFFF" width="129.9" height="21.236"/>
		</g>
		<text transform="matrix(1 0 0 1 141.543 414.6689)" font-family="'ArialMT'" font-size="11">Click &quot;Login&quot; button</text>
	</g>
	<g>
		<path fill="none" stroke="#000000" stroke-width="1.3613" stroke-miterlimit="10" d="M106.179,421.203h193.006"/>
		<g transform="translate(301.9069652333333,421.2032170905) translate(-301.9069652333333,-421.2032170905)">
			<path d="M288.295,414.396l13.612,6.807l-13.612,6.807V414.396z"/>
		</g>
	</g>
	<g>
		<g>
			<rect x="337.572" y="445.706" fill="#FFFFFF" width="78.9" height="21.235"/>
		</g>
		<text transform="matrix(1 0 0 1 340.0225 460.4072)" font-family="'ArialMT'" font-size="11">Check data</text>
	</g>
	<g>
		<path fill="none" stroke="#000000" stroke-width="1.3613" stroke-miterlimit="10" d="M318.242,466.941h65.341v16.336h-62.618"/>
		<g transform="translate(318.2421685333333,483.2769896305) translate(-318.2421685333333,-483.2769896305)">
			<path d="M331.854,476.471l-13.612,6.807l13.612,6.806V476.471z"/>
		</g>
	</g>
	<g>
		<g>
			<rect x="129.593" y="551.885" fill="#FFFFFF" width="114.9" height="21.235"/>
		</g>
		<g>
			<rect x="129.593" y="568.22" fill="#FFFFFF" width="148.9" height="21.236"/>
		</g>
		<text transform="matrix(1 0 0 1 132.043 566.5869)" font-family="'ArialMT'" font-size="11">[complete = true]</text>
		<text transform="matrix(1 0 0 1 132.043 582.9219)" font-family="'ArialMT'" font-size="11">Prompts to main page</text>
	</g>
	<g>
		<path fill="none" stroke="#000000" stroke-width="1.3613" stroke-miterlimit="10" stroke-dasharray="6.5341" d="M301.907,589.456
			H108.901"/>
		<g transform="translate(106.17882144999999,589.4558110805) translate(-106.17882144999999,-589.4558110805)">
			<path d="M119.792,582.649l-13.613,6.807l13.613,6.806V582.649z"/>
		</g>
	</g>
	<g>
		<g>
			<rect x="136.093" y="658.063" fill="#FFFFFF" width="120.9" height="21.236"/>
		</g>
		<g>
			<rect x="136.093" y="674.398" fill="#FFFFFF" width="135.9" height="21.236"/>
		</g>
		<text transform="matrix(1 0 0 1 138.543 672.7656)" font-family="'ArialMT'" font-size="11">[complete = false]</text>
		<text transform="matrix(1 0 0 1 138.543 689.1006)" font-family="'ArialMT'" font-size="11">Credentials not valid</text>
	</g>
	<g>
		<path fill="none" stroke="#000000" stroke-width="1.3613" stroke-miterlimit="10" stroke-dasharray="6.5341" d="M301.907,695.635
			H108.901"/>
		<g transform="translate(106.17882144999999,695.6346325305) translate(-106.17882144999999,-695.6346325305)">
			<path d="M119.792,688.828l-13.613,6.807l13.613,6.807V688.828z"/>
		</g>
	</g>
	<g>
		<path fill="none" stroke="#000000" stroke-width="2.3336" stroke-miterlimit="10" d="M16.335,252.951H422.19v491.69H16.335
			V252.951z"/>
		<path fill="#FFFFFF" stroke="#000000" stroke-width="2.3336" stroke-miterlimit="10" d="M16.335,252.951v19.602h56.67l9.801-9.801
			v-9.801H16.335"/>
		<text transform="matrix(1 0 0 1 32.6704 266.0186)" font-family="'Arial-BoldMT'" font-size="8.8">loop</text>
		<text transform="matrix(1 0 0 1 99.1421 266.0186)" font-family="'Arial-BoldMT'" font-size="8.8">[complete == false]</text>
	</g>
	<g>
		<path fill="none" stroke="#000000" stroke-width="2.3336" stroke-miterlimit="10" d="M32.67,507.78h334.578v212.357H32.67V507.78z
			"/>
		<path fill="#FFFFFF" stroke="#000000" stroke-width="2.3336" stroke-miterlimit="10" d="M32.67,507.78v19.602h46.67l9.801-9.801
			v-9.801H32.67"/>
		<text transform="matrix(1 0 0 1 49.0054 520.8477)" font-family="'Arial-BoldMT'" font-size="8.8">alt</text>
		<text transform="matrix(1 0 0 1 105.4771 520.8477)" font-family="'Arial-BoldMT'" font-size="8.8">[Valid credentials]</text>
		<g>
			<path fill="none" stroke="#000000" stroke-width="2.3336" stroke-miterlimit="10" stroke-dasharray="4.0838" d="M32.67,613.959
				h334.578"/>
		</g>
		<text transform="matrix(1 0 0 1 105.4771 627.0264)" font-family="'Arial-BoldMT'" font-size="8.8">[Invalid credentials]</text>
	</g>
</g>
</svg>
