<svg version="1.1" xmlns="http://www.w3.org/2000/svg" xmlns:xlink="http://www.w3.org/1999/xlink" width="438" height="801"><defs/><g><g/><g/><g/><g/><g/><g/><g/><g/><g/><g><rect fill="white" stroke="none" x="0" y="0" width="438" height="801"/></g><g><text fill="black" stroke="none" font-family="sans-serif" font-size="16.5pt" font-style="normal" font-weight="normal" text-decoration="normal" x="192.35637227499998" y="24.50280495" text-anchor="start" dominant-baseline="alphabetic">Login</text></g><g/><g><path fill="none" stroke="black" paint-order="fill stroke markers" d=" M 98.01121979999999 128.80307802049998 L 98.01121979999999 801.8134539805001" stroke-miterlimit="10" stroke-width="1.3612669416666667" stroke-dasharray="12.565541,5.445067766666667"/><path fill="none" stroke="black" paint-order="fill stroke markers" d=" M 310.0745668833333 128.80307802049998 L 310.0745668833333 801.8134539805001" stroke-miterlimit="10" stroke-width="1.3612669416666667" stroke-dasharray="12.565541,5.445067766666667"/></g><g><g><path fill="white" stroke="black" paint-order="fill stroke markers" d=" M 107.322285681 59.70516806150002 A 9.311065881 9.311065881 0 1 1 107.32228102546743 59.69585699717086 M 98.01121979999999 69.01623394250002 L 98.01121979999999 88.94518196850002 M 86.24987342399999 76.20372339450002 L 109.772566176 76.20372339450002 M 98.01121979999999 88.94518196850002 L 86.24987342399999 107.56731373050002 M 98.01121979999999 88.94518196850002 L 109.772566176 107.56731373050002" stroke-miterlimit="10" stroke-width="2.7769845610000004" stroke-dasharray=""/></g><g><g/><text fill="black" stroke="none" font-family="sans-serif" font-size="11pt" font-style="normal" font-weight="normal" text-decoration="normal" x="46.01121979999999" y="123.90251703050001" text-anchor="start" dominant-baseline="alphabetic">Registered user</text></g><path fill="none" stroke="none"/><g><path fill="white" stroke="black" paint-order="fill stroke markers" d=" M 253.8508713028333 84.69802911050002 L 366.29826246383334 84.69802911050002 L 366.29826246383334 128.8030780205 L 253.8508713028333 128.8030780205 L 253.8508713028333 84.69802911050002 Z" stroke-miterlimit="10" stroke-width="2.613632528" stroke-dasharray=""/></g><g><g/><text fill="black" stroke="none" font-family="sans-serif" font-size="11pt" font-style="normal" font-weight="normal" text-decoration="normal" x="271.5745668833333" y="112.46787472049999" text-anchor="start" dominant-baseline="alphabetic">SafeStreets</text></g></g><g><path fill="white" stroke="black" paint-order="fill stroke markers" d=" M 89.84361815 136.97067967049998 L 106.17882144999999 136.97067967049998 L 106.17882144999999 785.4782506805001 L 89.84361815 785.4782506805001 L 89.84361815 136.97067967049998" stroke-miterlimit="10" stroke-width="1.3612669416666667" stroke-dasharray=""/><path fill="white" stroke="black" paint-order="fill stroke markers" d=" M 301.9069652333333 182.70924891049998 L 318.2421685333333 182.70924891049998 L 318.2421685333333 228.44781815049998 L 301.9069652333333 228.44781815049998 L 301.9069652333333 182.70924891049998" stroke-miterlimit="10" stroke-width="1.3612669416666667" stroke-dasharray=""/><path fill="white" stroke="black" paint-order="fill stroke markers" d=" M 98.01121979999999 334.62663960049997 L 114.34642309999998 334.62663960049997 L 114.34642309999998 375.4646478505 L 98.01121979999999 375.4646478505 L 98.01121979999999 334.62663960049997" stroke-miterlimit="10" stroke-width="1.3612669416666667" stroke-dasharray=""/><path fill="white" stroke="black" paint-order="fill stroke markers" d=" M 301.9069652333333 421.2032170905 L 318.2421685333333 421.2032170905 L 318.2421685333333 589.4558110805 L 301.9069652333333 589.4558110805 L 301.9069652333333 421.2032170905" stroke-miterlimit="10" stroke-width="1.3612669416666667" stroke-dasharray=""/><path fill="white" stroke="black" paint-order="fill stroke markers" d=" M 301.9069652333333 633.5608599904999 L 318.2421685333333 633.5608599904999 L 318.2421685333333 695.6346325305 L 301.9069652333333 695.6346325305 L 301.9069652333333 633.5608599904999" stroke-miterlimit="10" stroke-width="1.3612669416666667" stroke-dasharray=""/><g><g><rect fill="white" stroke="none" x="147.09261284666667" y="161.4734846205" width="113.90056099" height="21.23576429"/></g><text fill="black" stroke="none" font-family="sans-serif" font-size="11pt" font-style="normal" font-weight="normal" text-decoration="normal" x="149.54289334166666" y="176.17516759049997" text-anchor="start" dominant-baseline="alphabetic">Open application</text></g><g><path fill="none" stroke="black" paint-order="fill stroke markers" d=" M 106.17882144999999 182.70924891049998 L 299.18443135 182.70924891049998" stroke-miterlimit="10" stroke-width="1.3612669416666667" stroke-dasharray=""/><g transform="translate(301.9069652333333,182.70924891049998) translate(-301.9069652333333,-182.70924891049998)"><path fill="black" stroke="none" paint-order="stroke fill markers" d=" M 288.29429581666665 175.90291420216664 L 301.9069652333333 182.70924891049998 L 288.29429581666665 189.51558361883332 Z"/></g></g><g><g><rect fill="white" stroke="none" x="138.59261284666667" y="207.2120538605" width="130.90056099" height="21.23576429"/></g><text fill="black" stroke="none" font-family="sans-serif" font-size="11pt" font-style="normal" font-weight="normal" text-decoration="normal" x="141.04289334166666" y="221.91373683049997" text-anchor="start" dominant-baseline="alphabetic">Prompts login page</text></g><g><path fill="none" stroke="black" paint-order="fill stroke markers" d=" M 301.9069652333333 228.44781815049998 L 108.90135533333333 228.44781815049998" stroke-miterlimit="10" stroke-width="1.3612669416666667" stroke-dasharray="6.53408132"/><g transform="translate(106.17882144999999,228.44781815049998) translate(-106.17882144999999,-228.44781815049998)"><path fill="black" stroke="none" paint-order="stroke fill markers" d=" M 119.79149086666665 221.64148344216665 L 106.17882144999999 228.44781815049998 L 119.79149086666665 235.25415285883332 Z"/></g></g><g><g><rect fill="white" stroke="none" x="133.67641367166667" y="297.05567201049996" width="56.90056099" height="21.23576429"/></g><text fill="black" stroke="none" font-family="sans-serif" font-size="11pt" font-style="normal" font-weight="normal" text-decoration="normal" x="136.12669416666665" y="311.75735498049994" text-anchor="start" dominant-baseline="alphabetic">Fill form</text></g><g><path fill="none" stroke="black" paint-order="fill stroke markers" d=" M 106.17882144999999 318.2914363005 L 179.6872363 318.2914363005 L 179.6872363 334.62663960049997 L 117.06895698333332 334.62663960049997" stroke-miterlimit="10" stroke-width="1.3612669416666667" stroke-dasharray=""/><g transform="translate(114.3464231,334.62663960049997) translate(-114.3464231,-334.62663960049997)"><path fill="black" stroke="none" paint-order="stroke fill markers" d=" M 127.95909251666666 327.82030489216663 L 114.3464231 334.62663960049997 L 127.95909251666666 341.4329743088333 Z"/></g></g><g><g><rect fill="white" stroke="none" x="139.09261284666667" y="399.9674528005" width="129.90056099" height="21.23576429"/></g><text fill="black" stroke="none" font-family="sans-serif" font-size="11pt" font-style="normal" font-weight="normal" text-decoration="normal" x="141.54289334166666" y="414.66913577049996" text-anchor="start" dominant-baseline="alphabetic">Click "Login" button</text></g><g><path fill="none" stroke="black" paint-order="fill stroke markers" d=" M 106.17882144999999 421.2032170905 L 299.18443135 421.2032170905" stroke-miterlimit="10" stroke-width="1.3612669416666667" stroke-dasharray=""/><g transform="translate(301.9069652333333,421.2032170905) translate(-301.9069652333333,-421.2032170905)"><path fill="black" stroke="none" paint-order="stroke fill markers" d=" M 288.29429581666665 414.39688238216667 L 301.9069652333333 421.2032170905 L 288.29429581666665 428.00955179883334 Z"/></g></g><g><g><rect fill="white" stroke="none" x="337.57215910499997" y="445.7060220405" width="78.90056099" height="21.23576429"/></g><text fill="black" stroke="none" font-family="sans-serif" font-size="11pt" font-style="normal" font-weight="normal" text-decoration="normal" x="340.0224396" y="460.40770501049997" text-anchor="start" dominant-baseline="alphabetic">Check data</text></g><g><path fill="none" stroke="black" paint-order="fill stroke markers" d=" M 318.2421685333333 466.9417863305 L 383.5829817333333 466.9417863305 L 383.5829817333333 483.2769896305 L 320.9647024166666 483.2769896305" stroke-miterlimit="10" stroke-width="1.3612669416666667" stroke-dasharray=""/><g transform="translate(318.2421685333333,483.2769896305) translate(-318.2421685333333,-483.2769896305)"><path fill="black" stroke="none" paint-order="stroke fill markers" d=" M 331.85483795 476.47065492216666 L 318.2421685333333 483.2769896305 L 331.85483795 490.08332433883334 Z"/></g></g><g><g><rect fill="white" stroke="none" x="129.59261284666667" y="551.8848434905" width="114.90056099" height="21.23576429"/></g><g><rect fill="white" stroke="none" x="129.59261284666667" y="568.2200467905" width="148.90056099" height="21.23576429"/></g><text fill="black" stroke="none" font-family="sans-serif" font-size="11pt" font-style="normal" font-weight="normal" text-decoration="normal" x="132.04289334166666" y="566.5865264605" text-anchor="start" dominant-baseline="alphabetic">[complete = true]</text><text fill="black" stroke="none" font-family="sans-serif" font-size="11pt" font-style="normal" font-weight="normal" text-decoration="normal" x="132.04289334166666" y="582.9217297604999" text-anchor="start" dominant-baseline="alphabetic">Prompts to main page</text></g><g><path fill="none" stroke="black" paint-order="fill stroke markers" d=" M 301.9069652333333 589.4558110805 L 108.90135533333333 589.4558110805" stroke-miterlimit="10" stroke-width="1.3612669416666667" stroke-dasharray="6.53408132"/><g transform="translate(106.17882144999999,589.4558110805) translate(-106.17882144999999,-589.4558110805)"><path fill="black" stroke="none" paint-order="stroke fill markers" d=" M 119.79149086666665 582.6494763721666 L 106.17882144999999 589.4558110805 L 119.79149086666665 596.2621457888333 Z"/></g></g><g><g><rect fill="white" stroke="none" x="136.09261284666667" y="658.0636649405" width="120.90056099" height="21.23576429"/></g><g><rect fill="white" stroke="none" x="136.09261284666667" y="674.3988682405" width="135.90056099" height="21.23576429"/></g><text fill="black" stroke="none" font-family="sans-serif" font-size="11pt" font-style="normal" font-weight="normal" text-decoration="normal" x="138.54289334166666" y="672.7653479104999" text-anchor="start" dominant-baseline="alphabetic">[complete = false]</text><text fill="black" stroke="none" font-family="sans-serif" font-size="11pt" font-style="normal" font-weight="normal" text-decoration="normal" x="138.54289334166666" y="689.1005512104999" text-anchor="start" dominant-baseline="alphabetic">Credentials not valid</text></g><g><path fill="none" stroke="black" paint-order="fill stroke markers" d=" M 301.9069652333333 695.6346325305 L 108.90135533333333 695.6346325305" stroke-miterlimit="10" stroke-width="1.3612669416666667" stroke-dasharray="6.53408132"/><g transform="translate(106.17882144999999,695.6346325305) translate(-106.17882144999999,-695.6346325305)"><path fill="black" stroke="none" paint-order="stroke fill markers" d=" M 119.79149086666665 688.8282978221666 L 106.17882144999999 695.6346325305 L 119.79149086666665 702.4409672388333 Z"/></g></g><g><g/><path fill="none" stroke="black" paint-order="fill stroke markers" d=" M 16.335203299999996 252.95062310049997 L 422.19004125 252.95062310049997 L 422.19004125 744.6402424305 L 16.335203299999996 744.6402424305 L 16.335203299999996 252.95062310049997 Z" stroke-miterlimit="10" stroke-width="2.3336004714285714" stroke-dasharray=""/><path fill="white" stroke="black" paint-order="fill stroke markers" d=" M 16.335203299999996 252.95062310049997 L 16.335203299999996 272.5528670605 L 73.0056099 272.5528670605 L 82.80673188 262.7517450805 L 82.80673188 252.95062310049997 L 16.335203299999996 252.95062310049997" stroke-miterlimit="10" stroke-width="2.3336004714285714" stroke-dasharray=""/><text fill="black" stroke="none" font-family="sans-serif" font-size="8.8pt" font-style="normal" font-weight="bold" text-decoration="normal" x="32.67040659999999" y="266.0187857405" text-anchor="start" dominant-baseline="alphabetic">loop</text><text fill="black" stroke="none" font-family="sans-serif" font-size="8.8pt" font-style="normal" font-weight="bold" text-decoration="normal" x="99.14193518" y="266.0187857405" text-anchor="start" dominant-baseline="alphabetic">[complete == false]</text></g><g><g/><path fill="none" stroke="black" paint-order="fill stroke markers" d=" M 32.67040659999999 507.7797945804999 L 367.24777843333334 507.7797945804999 L 367.24777843333334 720.1374374805 L 32.67040659999999 720.1374374805 L 32.67040659999999 507.7797945804999 Z" stroke-miterlimit="10" stroke-width="2.3336004714285714" stroke-dasharray=""/><path fill="white" stroke="black" paint-order="fill stroke markers" d=" M 32.67040659999999 507.7797945804999 L 32.67040659999999 527.3820385404999 L 79.34081319999999 527.3820385404999 L 89.14193517999999 517.5809165604999 L 89.14193517999999 507.7797945804999 L 32.67040659999999 507.7797945804999" stroke-miterlimit="10" stroke-width="2.3336004714285714" stroke-dasharray=""/><text fill="black" stroke="none" font-family="sans-serif" font-size="8.8pt" font-style="normal" font-weight="bold" text-decoration="normal" x="49.005609899999996" y="520.8479572204999" text-anchor="start" dominant-baseline="alphabetic">alt</text><text fill="black" stroke="none" font-family="sans-serif" font-size="8.8pt" font-style="normal" font-weight="bold" text-decoration="normal" x="105.47713848" y="520.8479572204999" text-anchor="start" dominant-baseline="alphabetic">[Valid credentials]</text><g><path fill="none" stroke="black" paint-order="fill stroke markers" d=" M 32.67040659999999 613.9586160304999 L 367.24777843333334 613.9586160304999" stroke-miterlimit="10" stroke-width="2.3336004714285714" stroke-dasharray="4.083800825"/></g><g/><text fill="black" stroke="none" font-family="sans-serif" font-size="8.8pt" font-style="normal" font-weight="bold" text-decoration="normal" x="105.47713848" y="627.0267786704999" text-anchor="start" dominant-baseline="alphabetic">[Invalid credentials]</text></g><g/></g><g/><g/></g></svg>