<svg version="1.1" xmlns="http://www.w3.org/2000/svg" xmlns:xlink="http://www.w3.org/1999/xlink" width="466" height="445"><defs/><g><g/><g/><g/><g/><g><rect fill="white" stroke="none" x="0" y="0" width="466" height="445"/></g><g><text fill="black" stroke="none" font-family="sans-serif" font-size="16.5pt" font-style="normal" font-weight="normal" text-decoration="normal" x="146.9572250931315" y="24.50280495" text-anchor="start" dominant-baseline="alphabetic">See Street Safety</text></g><g/><g><path fill="none" stroke="black" paint-order="fill stroke markers" d=" M 81.67601649999999 128.80307802049998 L 81.67601649999999 445.7060220405" stroke-miterlimit="10" stroke-width="1.3612669416666667" stroke-dasharray="12.565541,5.445067766666667"/><path fill="none" stroke="black" paint-order="fill stroke markers" d=" M 384.57176193333333 128.80307802049998 L 384.57176193333333 445.7060220405" stroke-miterlimit="10" stroke-width="1.3612669416666667" stroke-dasharray="12.565541,5.445067766666667"/></g><g><g><path fill="white" stroke="black" paint-order="fill stroke markers" d=" M 90.987082381 59.70516806150002 A 9.311065881 9.311065881 0 1 1 90.98707772546743 59.69585699717086 M 81.67601649999999 69.01623394250002 L 81.67601649999999 88.94518196850002 M 69.914670124 76.20372339450002 L 93.43736287599998 76.20372339450002 M 81.67601649999999 88.94518196850002 L 69.914670124 107.56731373050002 M 81.67601649999999 88.94518196850002 L 93.43736287599998 107.56731373050002" stroke-miterlimit="10" stroke-width="2.7769845610000004" stroke-dasharray=""/></g><g><g/><text fill="black" stroke="none" font-family="sans-serif" font-size="11pt" font-style="normal" font-weight="normal" text-decoration="normal" x="29.67601649999999" y="123.90251703050001" text-anchor="start" dominant-baseline="alphabetic">Registered user</text></g><path fill="none" stroke="none"/><g><path fill="white" stroke="black" paint-order="fill stroke markers" d=" M 328.3480663528333 84.69802911050002 L 440.7954575138333 84.69802911050002 L 440.7954575138333 128.8030780205 L 328.3480663528333 128.8030780205 L 328.3480663528333 84.69802911050002 Z" stroke-miterlimit="10" stroke-width="2.613632528" stroke-dasharray=""/></g><g><g/><text fill="black" stroke="none" font-family="sans-serif" font-size="11pt" font-style="normal" font-weight="normal" text-decoration="normal" x="346.07176193333333" y="112.46787472049999" text-anchor="start" dominant-baseline="alphabetic">SafeStreets</text></g></g><g><path fill="white" stroke="black" paint-order="fill stroke markers" d=" M 73.50841485 136.97067967049998 L 89.84361814999998 136.97067967049998 L 89.84361814999998 429.3708187405 L 73.50841485 429.3708187405 L 73.50841485 136.97067967049998" stroke-miterlimit="10" stroke-width="1.3612669416666667" stroke-dasharray=""/><path fill="white" stroke="black" paint-order="fill stroke markers" d=" M 376.40416028333334 182.70924891049998 L 392.73936358333333 182.70924891049998 L 392.73936358333333 228.44781815049998 L 376.40416028333334 228.44781815049998 L 376.40416028333334 182.70924891049998" stroke-miterlimit="10" stroke-width="1.3612669416666667" stroke-dasharray=""/><path fill="white" stroke="black" paint-order="fill stroke markers" d=" M 376.40416028333334 318.2914363005 L 392.73936358333333 318.2914363005 L 392.73936358333333 364.0300055405 L 376.40416028333334 364.0300055405 L 376.40416028333334 318.2914363005" stroke-miterlimit="10" stroke-width="1.3612669416666667" stroke-dasharray=""/><g><g><rect fill="white" stroke="none" x="139.67360872166668" y="161.4734846205" width="186.90056099" height="21.23576429"/></g><text fill="black" stroke="none" font-family="sans-serif" font-size="11pt" font-style="normal" font-weight="normal" text-decoration="normal" x="142.12388921666667" y="176.17516759049997" text-anchor="start" dominant-baseline="alphabetic">Clicks "Street Safety" button</text></g><g><path fill="none" stroke="black" paint-order="fill stroke markers" d=" M 89.84361814999998 182.70924891049998 L 373.6816264 182.70924891049998" stroke-miterlimit="10" stroke-width="1.3612669416666667" stroke-dasharray=""/><g transform="translate(376.40416028333334,182.70924891049998) translate(-376.40416028333334,-182.70924891049998)"><path fill="black" stroke="none" paint-order="stroke fill markers" d=" M 362.79149086666666 175.90291420216664 L 376.40416028333334 182.70924891049998 L 362.79149086666666 189.51558361883332 Z"/></g></g><g><g><rect fill="white" stroke="none" x="109.17360872166667" y="207.2120538605" width="247.90056099" height="21.23576429"/></g><text fill="black" stroke="none" font-family="sans-serif" font-size="11pt" font-style="normal" font-weight="normal" text-decoration="normal" x="111.62388921666667" y="221.91373683049997" text-anchor="start" dominant-baseline="alphabetic">Prompts Street Safety page with map</text></g><g><path fill="none" stroke="black" paint-order="fill stroke markers" d=" M 376.40416028333334 228.44781815049998 L 92.56615203333331 228.44781815049998" stroke-miterlimit="10" stroke-width="1.3612669416666667" stroke-dasharray="6.53408132"/><g transform="translate(89.84361814999998,228.44781815049998) translate(-89.84361814999998,-228.44781815049998)"><path fill="black" stroke="none" paint-order="stroke fill markers" d=" M 103.45628756666665 221.64148344216665 L 89.84361814999998 228.44781815049998 L 103.45628756666665 235.25415285883332 Z"/></g></g><g><g><rect fill="white" stroke="none" x="180.17360872166668" y="297.05567201049996" width="105.90056099" height="21.23576429"/></g><text fill="black" stroke="none" font-family="sans-serif" font-size="11pt" font-style="normal" font-weight="normal" text-decoration="normal" x="182.62388921666667" y="311.75735498049994" text-anchor="start" dominant-baseline="alphabetic">Clicks on street</text></g><g><path fill="none" stroke="black" paint-order="fill stroke markers" d=" M 89.84361814999998 318.2914363005 L 373.6816264 318.2914363005" stroke-miterlimit="10" stroke-width="1.3612669416666667" stroke-dasharray=""/><g transform="translate(376.40416028333334,318.2914363005) translate(-376.40416028333334,-318.2914363005)"><path fill="black" stroke="none" paint-order="stroke fill markers" d=" M 362.79149086666666 311.48510159216664 L 376.40416028333334 318.2914363005 L 362.79149086666666 325.0977710088333 Z"/></g></g><g><g><rect fill="white" stroke="none" x="116.17360872166667" y="342.79424125049997" width="233.90056099" height="21.23576429"/></g><text fill="black" stroke="none" font-family="sans-serif" font-size="11pt" font-style="normal" font-weight="normal" text-decoration="normal" x="118.62388921666667" y="357.49592422049994" text-anchor="start" dominant-baseline="alphabetic">Prompts a popup with street details</text></g><g><path fill="none" stroke="black" paint-order="fill stroke markers" d=" M 376.40416028333334 364.0300055405 L 92.56615203333331 364.0300055405" stroke-miterlimit="10" stroke-width="1.3612669416666667" stroke-dasharray="6.53408132"/><g transform="translate(89.84361814999998,364.0300055405) translate(-89.84361814999998,-364.0300055405)"><path fill="black" stroke="none" paint-order="stroke fill markers" d=" M 103.45628756666665 357.22367083216665 L 89.84361814999998 364.0300055405 L 103.45628756666665 370.8363402488333 Z"/></g></g><g><g/><path fill="none" stroke="black" paint-order="fill stroke markers" d=" M 16.33520329999999 252.95062310049997 L 441.74497348333335 252.95062310049997 L 441.74497348333335 388.53281049049997 L 16.33520329999999 388.53281049049997 L 16.33520329999999 252.95062310049997 Z" stroke-miterlimit="10" stroke-width="2.3336004714285714" stroke-dasharray=""/><path fill="white" stroke="black" paint-order="fill stroke markers" d=" M 16.33520329999999 252.95062310049997 L 16.33520329999999 272.5528670605 L 73.0056099 272.5528670605 L 82.80673188 262.7517450805 L 82.80673188 252.95062310049997 L 16.33520329999999 252.95062310049997" stroke-miterlimit="10" stroke-width="2.3336004714285714" stroke-dasharray=""/><text fill="black" stroke="none" font-family="sans-serif" font-size="8.8pt" font-style="normal" font-weight="bold" text-decoration="normal" x="32.67040659999999" y="266.0187857405" text-anchor="start" dominant-baseline="alphabetic">loop</text></g></g><g/><g/></g></svg>