<?xml version="1.0" encoding="utf-8"?>
<!-- Generator: Adobe Illustrator 16.0.0, SVG Export Plug-In . SVG Version: 6.00 Build 0)  -->
<!DOCTYPE svg PUBLIC "-//W3C//DTD SVG 1.1//EN" "http://www.w3.org/Graphics/SVG/1.1/DTD/svg11.dtd">
<svg version="1.1" id="Layer_1" xmlns="http://www.w3.org/2000/svg" xmlns:xlink="http://www.w3.org/1999/xlink" x="0px" y="0px"
	 width="401px" height="476px" viewBox="0 0 401 476" enable-background="new 0 0 401 476" xml:space="preserve">
<g>
	<rect fill="#FFFFFF" width="401" height="476"/>
</g>
<g>
	<path fill="none" stroke="#000000" stroke-width="1.3613" stroke-miterlimit="10" stroke-dasharray="12.5655,5.4451" d="
		M81.676,128.803v347.94"/>
	<path fill="none" stroke="#000000" stroke-width="1.3613" stroke-miterlimit="10" stroke-dasharray="12.5655,5.4451" d="
		M319.571,128.803v347.94"/>
</g>
<g>
	<g>
		<path fill="#FFFFFF" stroke="#000000" stroke-width="2.777" stroke-miterlimit="10" d="M90.987,59.705
			c0.001,5.143-4.166,9.313-9.308,9.314c-5.143,0.002-9.313-4.166-9.314-9.308c-0.001-5.142,4.166-9.312,9.308-9.314
			c5.139-0.001,9.308,4.16,9.314,9.299 M81.676,69.016v19.929 M69.915,76.204h23.523 M81.676,88.945l-11.761,18.622 M81.676,88.945
			l11.762,18.622"/>
	</g>
	<g>
		<text transform="matrix(1 0 0 1 29.6758 123.9023)" font-family="'ArialMT'" font-size="11">Registered user</text>
	</g>
	<path d="M0,0"/>
	<g>
		<path fill="#FFFFFF" stroke="#000000" stroke-width="2.6136" stroke-miterlimit="10" d="M263.348,84.698h112.448v44.105H263.348
			V84.698z"/>
	</g>
	<g>
		<text transform="matrix(1 0 0 1 281.0723 112.4678)" font-family="'ArialMT'" font-size="11">SafeStreets</text>
	</g>
</g>
<g>
	<path fill="#FFFFFF" stroke="#000000" stroke-width="1.3613" stroke-miterlimit="10" d="M73.508,136.971h16.335v323.437H73.508
		V136.971"/>
	<path fill="#FFFFFF" stroke="#000000" stroke-width="1.3613" stroke-miterlimit="10" d="M311.404,182.709h16.335v106.18h-16.335
		V182.709"/>
	<path fill="#FFFFFF" stroke="#000000" stroke-width="1.3613" stroke-miterlimit="10" d="M311.404,332.993h16.335v62.073h-16.335
		V332.993"/>
	<g>
		<g>
			<rect x="109.174" y="161.474" fill="#FFFFFF" width="182.9" height="21.235"/>
		</g>
		<text transform="matrix(1 0 0 1 111.624 176.1748)" font-family="'ArialMT'" font-size="11">Clicks &quot;Past reports&quot; button</text>
	</g>
	<g>
		<path fill="none" stroke="#000000" stroke-width="1.3613" stroke-miterlimit="10" d="M89.844,182.709h218.838"/>
		<g transform="translate(311.4041602833333,182.70924891049998) translate(-311.4041602833333,-182.70924891049998)">
			<path d="M297.791,175.903l13.613,6.806l-13.613,6.807V175.903z"/>
		</g>
	</g>
	<g>
		<g>
			<rect x="129.174" y="251.317" fill="#FFFFFF" width="142.9" height="21.235"/>
		</g>
		<g>
			<rect x="129.174" y="267.652" fill="#FFFFFF" width="58.9" height="21.236"/>
		</g>
		<text transform="matrix(1 0 0 1 131.624 266.0186)" font-family="'ArialMT'" font-size="11">Prompts past reports</text>
		<text transform="matrix(1 0 0 1 131.624 282.3545)" font-family="'ArialMT'" font-size="11">list page</text>
	</g>
	<g>
		<path fill="none" stroke="#000000" stroke-width="1.3613" stroke-miterlimit="10" stroke-dasharray="6.5341" d="M311.404,288.889
			H92.566"/>
		<g transform="translate(89.84361814999998,288.88807036049997) translate(-89.84361814999998,-288.88807036049997)">
			<path d="M103.456,282.082l-13.612,6.807l13.612,6.806V282.082z"/>
		</g>
	</g>
	<g>
		<g>
			<rect x="128.174" y="357.496" fill="#FFFFFF" width="144.9" height="21.235"/>
		</g>
		<g>
			<rect x="128.174" y="373.831" fill="#FFFFFF" width="73.9" height="21.235"/>
		</g>
		<text transform="matrix(1 0 0 1 130.624 372.1973)" font-family="'ArialMT'" font-size="11">No past reports found</text>
		<text transform="matrix(1 0 0 1 130.624 388.5332)" font-family="'ArialMT'" font-size="11">notification</text>
	</g>
	<g>
		<path fill="none" stroke="#000000" stroke-width="1.3613" stroke-miterlimit="10" stroke-dasharray="6.5341" d="M311.404,395.066
			H92.566"/>
		<g transform="translate(89.84361814999998,395.06689181049995) translate(-89.84361814999998,-395.06689181049995)">
			<path d="M103.456,388.261l-13.612,6.806l13.612,6.807V388.261z"/>
		</g>
	</g>
	<g>
		<path fill="none" stroke="#000000" stroke-width="2.3336" stroke-miterlimit="10" d="M16.335,207.212h360.41V419.57H16.335
			V207.212z"/>
		<path fill="#FFFFFF" stroke="#000000" stroke-width="2.3336" stroke-miterlimit="10" d="M16.335,207.212v19.603h46.671
			l9.801-9.801v-9.801H16.335"/>
		<text transform="matrix(1 0 0 1 32.6704 220.2803)" font-family="'Arial-BoldMT'" font-size="8.8">alt</text>
		<text transform="matrix(1 0 0 1 89.1421 220.2803)" font-family="'Arial-BoldMT'" font-size="8.8">[Presence of past reports]</text>
		<g>
			<path fill="none" stroke="#000000" stroke-width="2.3336" stroke-miterlimit="10" stroke-dasharray="4.0838" d="M16.335,313.391
				h360.41"/>
		</g>
		<text transform="matrix(1 0 0 1 89.1421 326.459)" font-family="'Arial-BoldMT'" font-size="8.8">[No past reports found]</text>
	</g>
</g>
</svg>
