<?xml version="1.0" encoding="utf-8"?>
<!-- Generator: Adobe Illustrator 16.0.0, SVG Export Plug-In . SVG Version: 6.00 Build 0)  -->
<!DOCTYPE svg PUBLIC "-//W3C//DTD SVG 1.1//EN" "http://www.w3.org/Graphics/SVG/1.1/DTD/svg11.dtd">
<svg version="1.1" id="Layer_1" xmlns="http://www.w3.org/2000/svg" xmlns:xlink="http://www.w3.org/1999/xlink" x="0px" y="0px"
	 width="466px" height="445px" viewBox="0 0 466 445" enable-background="new 0 0 466 445" xml:space="preserve">
<g>
	<rect fill="#FFFFFF" width="466" height="445"/>
</g>
<g>
	<path fill="none" stroke="#000000" stroke-width="1.3613" stroke-miterlimit="10" stroke-dasharray="12.5655,5.4451" d="
		M81.676,128.803v316.903"/>
	<path fill="none" stroke="#000000" stroke-width="1.3613" stroke-miterlimit="10" stroke-dasharray="12.5655,5.4451" d="
		M384.571,128.803v316.903"/>
</g>
<g>
	<g>
		<path fill="#FFFFFF" stroke="#000000" stroke-width="2.777" stroke-miterlimit="10" d="M90.987,59.705
			c0.001,5.143-4.166,9.313-9.308,9.314c-5.143,0.002-9.313-4.166-9.314-9.308c-0.001-5.142,4.166-9.312,9.308-9.314
			c5.139-0.001,9.308,4.16,9.314,9.299 M81.676,69.016v19.929 M69.915,76.204h23.523 M81.676,88.945l-11.761,18.622 M81.676,88.945
			l11.762,18.622"/>
	</g>
	<g>
		<text transform="matrix(1 0 0 1 29.6758 123.9023)" font-family="'ArialMT'" font-size="11">Registered user</text>
	</g>
	<path d="M0,0"/>
	<g>
		<path fill="#FFFFFF" stroke="#000000" stroke-width="2.6136" stroke-miterlimit="10" d="M328.348,84.698h112.448v44.105H328.348
			V84.698z"/>
	</g>
	<g>
		<text transform="matrix(1 0 0 1 346.0723 112.4678)" font-family="'ArialMT'" font-size="11">SafeStreets</text>
	</g>
</g>
<g>
	<path fill="#FFFFFF" stroke="#000000" stroke-width="1.3613" stroke-miterlimit="10" d="M73.508,136.971h16.335v292.4H73.508
		V136.971"/>
	<path fill="#FFFFFF" stroke="#000000" stroke-width="1.3613" stroke-miterlimit="10" d="M376.404,182.709h16.335v45.738h-16.335
		V182.709"/>
	<path fill="#FFFFFF" stroke="#000000" stroke-width="1.3613" stroke-miterlimit="10" d="M376.404,318.291h16.335v45.738h-16.335
		V318.291"/>
	<g>
		<g>
			<rect x="139.674" y="161.474" fill="#FFFFFF" width="186.9" height="21.235"/>
		</g>
		<text transform="matrix(1 0 0 1 142.124 176.1748)" font-family="'ArialMT'" font-size="11">Clicks &quot;Street Safety&quot; button</text>
	</g>
	<g>
		<path fill="none" stroke="#000000" stroke-width="1.3613" stroke-miterlimit="10" d="M89.844,182.709h283.838"/>
		<g transform="translate(376.40416028333334,182.70924891049998) translate(-376.40416028333334,-182.70924891049998)">
			<path d="M362.791,175.903l13.613,6.806l-13.613,6.807V175.903z"/>
		</g>
	</g>
	<g>
		<g>
			<rect x="109.174" y="207.212" fill="#FFFFFF" width="247.9" height="21.235"/>
		</g>
		<text transform="matrix(1 0 0 1 111.624 221.9141)" font-family="'ArialMT'" font-size="11">Prompts Street Safety page with map</text>
	</g>
	<g>
		<path fill="none" stroke="#000000" stroke-width="1.3613" stroke-miterlimit="10" stroke-dasharray="6.5341" d="M376.404,228.447
			H92.566"/>
		<g transform="translate(89.84361814999998,228.44781815049998) translate(-89.84361814999998,-228.44781815049998)">
			<path d="M103.456,221.642l-13.612,6.806l13.612,6.807V221.642z"/>
		</g>
	</g>
	<g>
		<g>
			<rect x="180.174" y="297.056" fill="#FFFFFF" width="105.9" height="21.235"/>
		</g>
		<text transform="matrix(1 0 0 1 182.624 311.7578)" font-family="'ArialMT'" font-size="11">Clicks on street</text>
	</g>
	<g>
		<path fill="none" stroke="#000000" stroke-width="1.3613" stroke-miterlimit="10" d="M89.844,318.291h283.838"/>
		<g transform="translate(376.40416028333334,318.2914363005) translate(-376.40416028333334,-318.2914363005)">
			<path d="M362.791,311.485l13.613,6.806l-13.613,6.807V311.485z"/>
		</g>
	</g>
	<g>
		<g>
			<rect x="116.174" y="342.795" fill="#FFFFFF" width="233.9" height="21.235"/>
		</g>
		<text transform="matrix(1 0 0 1 118.624 357.4961)" font-family="'ArialMT'" font-size="11">Prompts a popup with street details</text>
	</g>
	<g>
		<path fill="none" stroke="#000000" stroke-width="1.3613" stroke-miterlimit="10" stroke-dasharray="6.5341" d="M376.404,364.029
			H92.566"/>
		<g transform="translate(89.84361814999998,364.0300055405) translate(-89.84361814999998,-364.0300055405)">
			<path d="M103.456,357.224l-13.612,6.806l13.612,6.807V357.224z"/>
		</g>
	</g>
	<g>
		<path fill="none" stroke="#000000" stroke-width="2.3336" stroke-miterlimit="10" d="M16.335,252.951h425.41v135.582H16.335
			V252.951z"/>
		<path fill="#FFFFFF" stroke="#000000" stroke-width="2.3336" stroke-miterlimit="10" d="M16.335,252.951v19.602h56.67l9.801-9.801
			v-9.801H16.335"/>
		<text transform="matrix(1 0 0 1 32.6704 266.0186)" font-family="'Arial-BoldMT'" font-size="8.8">loop</text>
	</g>
</g>
</svg>
