<?xml version="1.0" encoding="utf-8"?>
<!-- Generator: Adobe Illustrator 16.0.0, SVG Export Plug-In . SVG Version: 6.00 Build 0)  -->
<!DOCTYPE svg PUBLIC "-//W3C//DTD SVG 1.1//EN" "http://www.w3.org/Graphics/SVG/1.1/DTD/svg11.dtd">
<svg version="1.1" id="Layer_1" xmlns="http://www.w3.org/2000/svg" xmlns:xlink="http://www.w3.org/1999/xlink" x="0px" y="0px"
	 width="953px" height="2211px" viewBox="0 0 953 2211" enable-background="new 0 0 953 2211" xml:space="preserve">
<g>
	<rect fill="#FFFFFF" width="953" height="2211"/>
</g>
<g>
	<path fill="none" stroke="#000000" stroke-width="1.3613" stroke-miterlimit="10" stroke-dasharray="12.5655,5.4451" d="
		M98.011,128.803v2082.739"/>
	<path fill="none" stroke="#000000" stroke-width="1.3613" stroke-miterlimit="10" stroke-dasharray="12.5655,5.4451" d="
		M328.074,128.803v2082.739"/>
	<path fill="none" stroke="#000000" stroke-width="1.3613" stroke-miterlimit="10" stroke-dasharray="12.5655,5.4451" d="
		M592.971,128.803v2082.739"/>
	<path fill="none" stroke="#000000" stroke-width="1.3613" stroke-miterlimit="10" stroke-dasharray="12.5655,5.4451" d="
		M872.033,128.803v2082.739"/>
</g>
<g>
	<g>
		<path fill="#FFFFFF" stroke="#000000" stroke-width="2.777" stroke-miterlimit="10" d="M107.322,59.705
			c0.001,5.143-4.166,9.313-9.308,9.314c-5.142,0.002-9.313-4.166-9.314-9.308c-0.001-5.142,4.166-9.312,9.308-9.314
			c5.139-0.001,9.307,4.16,9.314,9.299 M98.011,69.016v19.929 M86.25,76.204h23.522 M98.011,88.945L86.25,107.567 M98.011,88.945
			l11.761,18.622"/>
	</g>
	<g>
		<text transform="matrix(1 0 0 1 78.0112 123.9023)" font-family="'ArialMT'" font-size="11">Visitor</text>
	</g>
	<path d="M0,0"/>
	<g>
		<path fill="#FFFFFF" stroke="#000000" stroke-width="2.6136" stroke-miterlimit="10" d="M271.851,84.698h112.447v44.105H271.851
			V84.698z"/>
	</g>
	<g>
		<text transform="matrix(1 0 0 1 289.5747 112.4678)" font-family="'ArialMT'" font-size="11">SafeStreets</text>
	</g>
	<g>
		<path fill="#FFFFFF" stroke="#000000" stroke-width="2.777" stroke-miterlimit="10" d="M602.281,59.705
			c-0.002,5.143-4.173,9.309-9.315,9.307c-5.143-0.003-9.31-4.173-9.307-9.316c0.003-5.142,4.174-9.309,9.315-9.306
			c5.139,0.002,9.305,4.167,9.307,9.306 M592.971,69.016v19.929 M581.209,76.204h23.522 M592.971,88.945l-11.762,18.622
			 M592.971,88.945l11.761,18.622"/>
	</g>
	<g>
		<text transform="matrix(1 0 0 1 549.9707 123.9023)" font-family="'ArialMT'" font-size="11">Administrator</text>
	</g>
	<g>
		<path fill="#FFFFFF" stroke="#000000" stroke-width="2.777" stroke-miterlimit="10" d="M881.345,59.705
			c-0.003,5.143-4.173,9.309-9.315,9.307c-5.143-0.003-9.31-4.173-9.307-9.316c0.003-5.142,4.173-9.309,9.315-9.306
			c5.139,0.002,9.304,4.167,9.307,9.306 M872.033,69.016v19.929 M860.272,76.204h23.522 M872.033,88.945l-11.761,18.622
			 M872.033,88.945l11.762,18.622"/>
	</g>
	<g>
		<text transform="matrix(1 0 0 1 835.0332 123.9023)" font-family="'ArialMT'" font-size="11">Municipality</text>
	</g>
</g>
<g>
	<path fill="#FFFFFF" stroke="#000000" stroke-width="1.3613" stroke-miterlimit="10" d="M89.844,136.971h16.335v699.146H89.844
		V136.971"/>
	<path fill="#FFFFFF" stroke="#000000" stroke-width="1.3613" stroke-miterlimit="10" d="M319.907,182.709h16.335v45.739h-16.335
		V182.709"/>
	<path fill="#FFFFFF" stroke="#000000" stroke-width="1.3613" stroke-miterlimit="10" d="M319.907,274.187h16.335v45.738h-16.335
		V274.187"/>
	<path fill="#FFFFFF" stroke="#000000" stroke-width="1.3613" stroke-miterlimit="10" d="M98.011,426.104h16.335v40.838H98.011
		V426.104"/>
	<path fill="#FFFFFF" stroke="#000000" stroke-width="1.3613" stroke-miterlimit="10" d="M319.907,512.681h16.335v168.252h-16.335
		V512.681"/>
	<path fill="#FFFFFF" stroke="#000000" stroke-width="1.3613" stroke-miterlimit="10" d="M319.907,725.038h16.335v62.073h-16.335
		V725.038"/>
	<path fill="#FFFFFF" stroke="#000000" stroke-width="1.3613" stroke-miterlimit="10" d="M584.803,836.117h16.335v1318.251h-16.335
		V836.117"/>
	<path fill="#FFFFFF" stroke="#000000" stroke-width="1.3613" stroke-miterlimit="10" d="M319.907,881.856h16.335v45.738h-16.335
		V881.856"/>
	<path fill="#FFFFFF" stroke="#000000" stroke-width="1.3613" stroke-miterlimit="10" d="M319.907,973.333h16.335v45.738h-16.335
		V973.333"/>
	<path fill="#FFFFFF" stroke="#000000" stroke-width="1.3613" stroke-miterlimit="10" d="M319.907,1064.811h16.335v45.738h-16.335
		V1064.811"/>
	<path fill="#FFFFFF" stroke="#000000" stroke-width="1.3613" stroke-miterlimit="10" d="M319.907,1156.287h16.335v45.739h-16.335
		V1156.287"/>
	<path fill="#FFFFFF" stroke="#000000" stroke-width="1.3613" stroke-miterlimit="10" d="M592.971,1280.435h16.335v40.838h-16.335
		V1280.435"/>
	<path fill="#FFFFFF" stroke="#000000" stroke-width="1.3613" stroke-miterlimit="10" d="M863.866,1383.347h16.335v45.738h-16.335
		V1383.347"/>
	<path fill="#FFFFFF" stroke="#000000" stroke-width="1.3613" stroke-miterlimit="10" d="M319.907,1518.929h16.335v169.887h-16.335
		V1518.929"/>
	<path fill="#FFFFFF" stroke="#000000" stroke-width="1.3613" stroke-miterlimit="10" d="M319.907,1778.658h16.335v107.813h-16.335
		V1778.658"/>
	<path fill="#FFFFFF" stroke="#000000" stroke-width="1.3613" stroke-miterlimit="10" d="M319.907,1976.314h16.335v107.813h-16.335
		V1976.314"/>
	<g>
		<g>
			<rect x="156.093" y="161.474" fill="#FFFFFF" width="113.9" height="21.235"/>
		</g>
		<text transform="matrix(1 0 0 1 158.543 176.1748)" font-family="'ArialMT'" font-size="11">Open application</text>
	</g>
	<g>
		<path fill="none" stroke="#000000" stroke-width="1.3613" stroke-miterlimit="10" d="M106.179,182.709h211.006"/>
		<g transform="translate(319.9069652333333,182.70924891049998) translate(-319.9069652333333,-182.70924891049998)">
			<path d="M306.294,175.903l13.613,6.806l-13.613,6.807V175.903z"/>
		</g>
	</g>
	<g>
		<g>
			<rect x="147.593" y="207.212" fill="#FFFFFF" width="130.9" height="21.236"/>
		</g>
		<text transform="matrix(1 0 0 1 150.043 221.9141)" font-family="'ArialMT'" font-size="11">Prompts login page</text>
	</g>
	<g>
		<path fill="none" stroke="#000000" stroke-width="1.3613" stroke-miterlimit="10" stroke-dasharray="6.5341" d="M319.907,228.448
			H108.901"/>
		<g transform="translate(106.17882144999999,228.44781815049998) translate(-106.17882144999999,-228.44781815049998)">
			<path d="M119.792,221.642l-13.613,6.806l13.613,6.806V221.642z"/>
		</g>
	</g>
	<g>
		<g>
			<rect x="163.093" y="252.951" fill="#FFFFFF" width="99.9" height="21.236"/>
		</g>
		<text transform="matrix(1 0 0 1 165.543 267.6523)" font-family="'ArialMT'" font-size="11">Click &quot;Sign up&quot;</text>
	</g>
	<g>
		<path fill="none" stroke="#000000" stroke-width="1.3613" stroke-miterlimit="10" d="M106.179,274.187h211.006"/>
		<g transform="translate(319.9069652333333,274.1863873905) translate(-319.9069652333333,-274.1863873905)">
			<path d="M306.294,267.38l13.613,6.807l-13.613,6.806V267.38z"/>
		</g>
	</g>
	<g>
		<g>
			<rect x="138.093" y="298.689" fill="#FFFFFF" width="149.9" height="21.235"/>
		</g>
		<text transform="matrix(1 0 0 1 140.543 313.3906)" font-family="'ArialMT'" font-size="11">Prompts Sign up page</text>
	</g>
	<g>
		<path fill="none" stroke="#000000" stroke-width="1.3613" stroke-miterlimit="10" stroke-dasharray="6.5341" d="M319.907,319.925
			H108.901"/>
		<g transform="translate(106.17882144999999,319.9249566305) translate(-106.17882144999999,-319.9249566305)">
			<path d="M119.792,313.119l-13.613,6.806l13.613,6.807V313.119z"/>
		</g>
	</g>
	<g>
		<g>
			<rect x="133.676" y="388.533" fill="#FFFFFF" width="56.901" height="21.236"/>
		</g>
		<text transform="matrix(1 0 0 1 136.1265 403.2344)" font-family="'ArialMT'" font-size="11">Fill form</text>
	</g>
	<g>
		<path fill="none" stroke="#000000" stroke-width="1.3613" stroke-miterlimit="10" d="M106.179,409.769h73.508v16.335h-62.618"/>
		<g transform="translate(114.3464231,426.1037780805) translate(-114.3464231,-426.1037780805)">
			<path d="M127.959,419.297l-13.613,6.806l13.613,6.807V419.297z"/>
		</g>
	</g>
	<g>
		<g>
			<rect x="140.093" y="491.444" fill="#FFFFFF" width="145.9" height="21.236"/>
		</g>
		<text transform="matrix(1 0 0 1 142.543 506.1465)" font-family="'ArialMT'" font-size="11">Click &quot;Sign Up&quot; button</text>
	</g>
	<g>
		<path fill="none" stroke="#000000" stroke-width="1.3613" stroke-miterlimit="10" d="M106.179,512.681h211.006"/>
		<g transform="translate(319.9069652333333,512.6803555705) translate(-319.9069652333333,-512.6803555705)">
			<path d="M306.294,505.874l13.613,6.807l-13.613,6.806V505.874z"/>
		</g>
	</g>
	<g>
		<g>
			<rect x="355.572" y="537.184" fill="#FFFFFF" width="198.9" height="21.235"/>
		</g>
		<text transform="matrix(1 0 0 1 358.0225 551.8848)" font-family="'ArialMT'" font-size="11">Save data for admin validation</text>
	</g>
	<g>
		<path fill="none" stroke="#000000" stroke-width="1.3613" stroke-miterlimit="10" d="M336.242,558.419h65.341v16.335h-62.618"/>
		<g transform="translate(336.2421685333333,574.7541281105) translate(-336.2421685333333,-574.7541281105)">
			<path d="M349.854,567.948l-13.612,6.806l13.612,6.807V567.948z"/>
		</g>
	</g>
	<g>
		<g>
			<rect x="148.593" y="643.362" fill="#FFFFFF" width="114.9" height="21.235"/>
		</g>
		<g>
			<rect x="148.593" y="659.697" fill="#FFFFFF" width="128.9" height="21.235"/>
		</g>
		<text transform="matrix(1 0 0 1 151.043 658.0635)" font-family="'ArialMT'" font-size="11">[complete = true]</text>
		<text transform="matrix(1 0 0 1 151.043 674.3984)" font-family="'ArialMT'" font-size="11">Sign up successful</text>
	</g>
	<g>
		<path fill="none" stroke="#000000" stroke-width="1.3613" stroke-miterlimit="10" stroke-dasharray="6.5341" d="M319.907,680.933
			H108.901"/>
		<g transform="translate(106.17882144999999,680.9329495605001) translate(-106.17882144999999,-680.9329495605001)">
			<path d="M119.792,674.127l-13.613,6.806l13.613,6.807V674.127z"/>
		</g>
	</g>
	<g>
		<g>
			<rect x="135.093" y="749.541" fill="#FFFFFF" width="120.9" height="21.235"/>
		</g>
		<g>
			<rect x="135.093" y="765.876" fill="#FFFFFF" width="155.9" height="21.235"/>
		</g>
		<text transform="matrix(1 0 0 1 137.543 764.2422)" font-family="'ArialMT'" font-size="11">[complete = false]</text>
		<text transform="matrix(1 0 0 1 137.543 780.5781)" font-family="'ArialMT'" font-size="11">User already registered</text>
	</g>
	<g>
		<path fill="none" stroke="#000000" stroke-width="1.3613" stroke-miterlimit="10" stroke-dasharray="6.5341" d="M319.907,787.111
			H108.901"/>
		<g transform="translate(106.17882144999999,787.1117710105001) translate(-106.17882144999999,-787.1117710105001)">
			<path d="M119.792,780.306l-13.613,6.806l13.613,6.807V780.306z"/>
		</g>
	</g>
	<g>
		<g>
			<rect x="413.072" y="860.62" fill="#FFFFFF" width="94.9" height="21.236"/>
		</g>
		<text transform="matrix(1 0 0 1 415.5225 875.3223)" font-family="'ArialMT'" font-size="11">Open website</text>
	</g>
	<g>
		<path fill="none" stroke="#000000" stroke-width="1.3613" stroke-miterlimit="10" d="M584.803,881.856H338.965"/>
		<g transform="translate(336.2421685333333,881.8559501505001) translate(-336.2421685333333,-881.8559501505001)">
			<path d="M349.854,875.05l-13.612,6.807l13.612,6.806V875.05z"/>
		</g>
	</g>
	<g>
		<g>
			<rect x="395.072" y="906.358" fill="#FFFFFF" width="130.9" height="21.236"/>
		</g>
		<text transform="matrix(1 0 0 1 397.5225 921.0605)" font-family="'ArialMT'" font-size="11">Prompts login page</text>
	</g>
	<g>
		<path fill="none" stroke="#000000" stroke-width="1.3613" stroke-miterlimit="10" stroke-dasharray="6.5341" d="M336.242,927.595
			H582.08"/>
		<g transform="translate(584.8027106666666,927.5945193905001) translate(-584.8027106666666,-927.5945193905001)">
			<path d="M571.19,920.788l13.612,6.807l-13.612,6.807V920.788z"/>
		</g>
	</g>
	<g>
		<g>
			<rect x="424.072" y="952.098" fill="#FFFFFF" width="72.9" height="21.235"/>
		</g>
		<text transform="matrix(1 0 0 1 426.5225 966.7988)" font-family="'ArialMT'" font-size="11">Make login</text>
	</g>
	<g>
		<path fill="none" stroke="#000000" stroke-width="1.3613" stroke-miterlimit="10" d="M584.803,973.333H338.965"/>
		<g transform="translate(336.2421685333333,973.3330886305) translate(-336.2421685333333,-973.3330886305)">
			<path d="M349.854,966.526l-13.612,6.807l13.612,6.807V966.526z"/>
		</g>
	</g>
	<g>
		<g>
			<rect x="394.072" y="997.836" fill="#FFFFFF" width="132.9" height="21.235"/>
		</g>
		<text transform="matrix(1 0 0 1 396.5225 1012.5381)" font-family="'ArialMT'" font-size="11">Prompts main page</text>
	</g>
	<g>
		<path fill="none" stroke="#000000" stroke-width="1.3613" stroke-miterlimit="10" stroke-dasharray="6.5341" d="M336.242,1019.071
			H582.08"/>
		<g transform="translate(584.8027106666666,1019.0716578705) translate(-584.8027106666666,-1019.0716578705)">
			<path d="M571.19,1012.266l13.612,6.806l-13.612,6.807V1012.266z"/>
		</g>
	</g>
	<g>
		<g>
			<rect x="358.572" y="1043.574" fill="#FFFFFF" width="203.9" height="21.236"/>
		</g>
		<text transform="matrix(1 0 0 1 361.0225 1058.2764)" font-family="'ArialMT'" font-size="11">Click &quot;Accounts control&quot; button</text>
	</g>
	<g>
		<path fill="none" stroke="#000000" stroke-width="1.3613" stroke-miterlimit="10" d="M584.803,1064.811H338.965"/>
		<g transform="translate(336.2421685333333,1064.8102271105) translate(-336.2421685333333,-1064.8102271105)">
			<path d="M349.854,1058.004l-13.612,6.807l13.612,6.806V1058.004z"/>
		</g>
	</g>
	<g>
		<g>
			<rect x="355.572" y="1089.313" fill="#FFFFFF" width="209.9" height="21.235"/>
		</g>
		<text transform="matrix(1 0 0 1 358.0225 1104.0146)" font-family="'ArialMT'" font-size="11">Prompts Accounts control page</text>
	</g>
	<g>
		<path fill="none" stroke="#000000" stroke-width="1.3613" stroke-miterlimit="10" stroke-dasharray="6.5341" d="M336.242,1110.549
			H582.08"/>
		<g transform="translate(584.8027106666666,1110.5487963505) translate(-584.8027106666666,-1110.5487963505)">
			<path d="M571.19,1103.742l13.612,6.807l-13.612,6.807V1103.742z"/>
		</g>
	</g>
	<g>
		<g>
			<rect x="384.572" y="1135.052" fill="#FFFFFF" width="151.9" height="21.235"/>
		</g>
		<text transform="matrix(1 0 0 1 387.0225 1149.7529)" font-family="'ArialMT'" font-size="11">Clicks on new account</text>
	</g>
	<g>
		<path fill="none" stroke="#000000" stroke-width="1.3613" stroke-miterlimit="10" d="M584.803,1156.287H338.965"/>
		<g transform="translate(336.2421685333333,1156.2873655905) translate(-336.2421685333333,-1156.2873655905)">
			<path d="M349.854,1149.481l-13.612,6.806l13.612,6.807V1149.481z"/>
		</g>
	</g>
	<g>
		<g>
			<rect x="368.572" y="1180.79" fill="#FFFFFF" width="183.9" height="21.236"/>
		</g>
		<text transform="matrix(1 0 0 1 371.0225 1195.4922)" font-family="'ArialMT'" font-size="11">Prompts new account page</text>
	</g>
	<g>
		<path fill="none" stroke="#000000" stroke-width="1.3613" stroke-miterlimit="10" stroke-dasharray="6.5341" d="M336.242,1202.026
			H582.08"/>
		<g transform="translate(584.8027106666666,1202.0259348305) translate(-584.8027106666666,-1202.0259348305)">
			<path d="M571.19,1195.22l13.612,6.807l-13.612,6.806V1195.22z"/>
		</g>
	</g>
	<g>
		<g>
			<rect x="628.636" y="1226.528" fill="#FFFFFF" width="143.9" height="21.236"/>
		</g>
		<g>
			<rect x="628.636" y="1242.864" fill="#FFFFFF" width="82.9" height="21.235"/>
		</g>
		<text transform="matrix(1 0 0 1 631.0859 1241.2305)" font-family="'ArialMT'" font-size="11">Check for information</text>
		<text transform="matrix(1 0 0 1 631.0859 1257.5654)" font-family="'ArialMT'" font-size="11">correctness</text>
	</g>
	<g>
		<path fill="none" stroke="#000000" stroke-width="1.3613" stroke-miterlimit="10" d="M601.138,1264.1h73.509v16.335h-62.618"/>
		<g transform="translate(609.3055156166666,1280.4349106705001) translate(-609.3055156166666,-1280.4349106705001)">
			<path d="M622.918,1273.629l-13.612,6.806l13.612,6.807V1273.629z"/>
		</g>
	</g>
	<g>
		<g>
			<rect x="624.552" y="1345.775" fill="#FFFFFF" width="215.9" height="21.236"/>
		</g>
		<g>
			<rect x="624.552" y="1362.111" fill="#FFFFFF" width="98.9" height="21.235"/>
		</g>
		<text transform="matrix(1 0 0 1 627.002 1360.4775)" font-family="'ArialMT'" font-size="11">Check for belonging of applicant </text>
		<text transform="matrix(1 0 0 1 627.002 1376.8125)" font-family="'ArialMT'" font-size="11">to traffic police</text>
	</g>
	<g>
		<path fill="none" stroke="#000000" stroke-width="1.3613" stroke-miterlimit="10" d="M601.138,1383.347h260.006"/>
		<g transform="translate(863.86605775,1383.3466914605) translate(-863.86605775,-1383.3466914605)">
			<path d="M850.254,1376.54l13.612,6.807l-13.612,6.807V1376.54z"/>
		</g>
	</g>
	<g>
		<g>
			<rect x="672.052" y="1407.85" fill="#FFFFFF" width="120.9" height="21.235"/>
		</g>
		<text transform="matrix(1 0 0 1 674.502 1422.5508)" font-family="'ArialMT'" font-size="11">Belonging answer</text>
	</g>
	<g>
		<path fill="none" stroke="#000000" stroke-width="1.3613" stroke-miterlimit="10" stroke-dasharray="6.5341" d="M863.866,1429.085
			H603.86"/>
		<g transform="translate(601.1379139666667,1429.0852607005002) translate(-601.1379139666667,-1429.0852607005002)">
			<path d="M614.751,1422.279l-13.613,6.806l13.613,6.807V1422.279z"/>
		</g>
	</g>
	<g>
		<g>
			<rect x="393.072" y="1497.693" fill="#FFFFFF" width="134.9" height="21.235"/>
		</g>
		<text transform="matrix(1 0 0 1 395.5225 1512.3945)" font-family="'ArialMT'" font-size="11">Allow officer access</text>
	</g>
	<g>
		<path fill="none" stroke="#000000" stroke-width="1.3613" stroke-miterlimit="10" d="M584.803,1518.929H338.965"/>
		<g transform="translate(336.2421685333333,1518.9288788505003) translate(-336.2421685333333,-1518.9288788505003)">
			<path d="M349.854,1512.122l-13.612,6.807l13.612,6.807V1512.122z"/>
		</g>
	</g>
	<g>
		<g>
			<rect x="355.572" y="1543.432" fill="#FFFFFF" width="69.9" height="21.235"/>
		</g>
		<text transform="matrix(1 0 0 1 358.0225 1558.1328)" font-family="'ArialMT'" font-size="11">Save data</text>
	</g>
	<g>
		<path fill="none" stroke="#000000" stroke-width="1.3613" stroke-miterlimit="10" d="M336.242,1564.667h65.341v16.336h-62.618"/>
		<g transform="translate(336.2421685333333,1581.0026513905002) translate(-336.2421685333333,-1581.0026513905002)">
			<path d="M349.854,1574.196l-13.612,6.807l13.612,6.806V1574.196z"/>
		</g>
	</g>
	<g>
		<g>
			<rect x="125.509" y="1605.506" fill="#FFFFFF" width="166.9" height="21.235"/>
		</g>
		<g>
			<rect x="125.509" y="1621.841" fill="#FFFFFF" width="44.9" height="21.235"/>
		</g>
		<text transform="matrix(1 0 0 1 127.959 1620.207)" font-family="'ArialMT'" font-size="11">Registration confirmation</text>
		<text transform="matrix(1 0 0 1 127.959 1636.543)" font-family="'ArialMT'" font-size="11">e-mail</text>
	</g>
	<g>
		<path fill="none" stroke="#000000" stroke-width="1.3613" stroke-miterlimit="10" d="M319.907,1643.076H100.734"/>
		<g transform="translate(98.01121979999999,1643.0764239305001) translate(-98.01121979999999,-1643.0764239305001)">
			<path d="M111.624,1636.271l-13.613,6.806l13.613,6.807V1636.271z"/>
		</g>
	</g>
	<g>
		<g>
			<rect x="394.572" y="1667.579" fill="#FFFFFF" width="131.9" height="21.236"/>
		</g>
		<text transform="matrix(1 0 0 1 397.0225 1682.2813)" font-family="'ArialMT'" font-size="11">Process completed</text>
	</g>
	<g>
		<path fill="none" stroke="#000000" stroke-width="1.3613" stroke-miterlimit="10" stroke-dasharray="6.5341" d="M336.242,1688.815
			H582.08"/>
		<g transform="translate(584.8027106666666,1688.8149931705002) translate(-584.8027106666666,-1688.8149931705002)">
			<path d="M571.19,1682.009l13.612,6.807l-13.612,6.806V1682.009z"/>
		</g>
	</g>
	<g>
		<g>
			<rect x="398.572" y="1757.423" fill="#FFFFFF" width="123.9" height="21.235"/>
		</g>
		<text transform="matrix(1 0 0 1 401.0225 1772.125)" font-family="'ArialMT'" font-size="11">Deny user access</text>
	</g>
	<g>
		<path fill="none" stroke="#000000" stroke-width="1.3613" stroke-miterlimit="10" d="M584.803,1778.658H338.965"/>
		<g transform="translate(336.2421685333333,1778.6586113205003) translate(-336.2421685333333,-1778.6586113205003)">
			<path d="M349.854,1771.853l-13.612,6.806l13.612,6.807V1771.853z"/>
		</g>
	</g>
	<g>
		<g>
			<rect x="150.009" y="1803.161" fill="#FFFFFF" width="117.9" height="21.236"/>
		</g>
		<g>
			<rect x="150.009" y="1819.497" fill="#FFFFFF" width="73.9" height="21.235"/>
		</g>
		<text transform="matrix(1 0 0 1 152.459 1817.8633)" font-family="'ArialMT'" font-size="11">Registration error</text>
		<text transform="matrix(1 0 0 1 152.459 1834.1982)" font-family="'ArialMT'" font-size="11">notification</text>
	</g>
	<g>
		<path fill="none" stroke="#000000" stroke-width="1.3613" stroke-miterlimit="10" d="M319.907,1840.732H100.734"/>
		<g transform="translate(98.01121979999999,1840.7323838605002) translate(-98.01121979999999,-1840.7323838605002)">
			<path d="M111.624,1833.926l-13.613,6.807l13.613,6.807V1833.926z"/>
		</g>
	</g>
	<g>
		<g>
			<rect x="394.072" y="1865.235" fill="#FFFFFF" width="132.9" height="21.235"/>
		</g>
		<text transform="matrix(1 0 0 1 396.5225 1879.9375)" font-family="'ArialMT'" font-size="11">Process terminated</text>
	</g>
	<g>
		<path fill="none" stroke="#000000" stroke-width="1.3613" stroke-miterlimit="10" stroke-dasharray="6.5341" d="M336.242,1886.471
			H582.08"/>
		<g transform="translate(584.8027106666666,1886.4709531005003) translate(-584.8027106666666,-1886.4709531005003)">
			<path d="M571.19,1879.665l13.612,6.806l-13.612,6.807V1879.665z"/>
		</g>
	</g>
	<g>
		<g>
			<rect x="398.572" y="1955.079" fill="#FFFFFF" width="123.9" height="21.235"/>
		</g>
		<text transform="matrix(1 0 0 1 401.0225 1969.7803)" font-family="'ArialMT'" font-size="11">Deny user access</text>
	</g>
	<g>
		<path fill="none" stroke="#000000" stroke-width="1.3613" stroke-miterlimit="10" d="M584.803,1976.314H338.965"/>
		<g transform="translate(336.2421685333333,1976.3145712505004) translate(-336.2421685333333,-1976.3145712505004)">
			<path d="M349.854,1969.508l-13.612,6.807l13.612,6.807V1969.508z"/>
		</g>
	</g>
	<g>
		<g>
			<rect x="145.009" y="2000.817" fill="#FFFFFF" width="127.9" height="21.235"/>
		</g>
		<g>
			<rect x="145.009" y="2017.152" fill="#FFFFFF" width="73.9" height="21.236"/>
		</g>
		<text transform="matrix(1 0 0 1 147.459 2015.5195)" font-family="'ArialMT'" font-size="11">Not belonging error</text>
		<text transform="matrix(1 0 0 1 147.459 2031.8545)" font-family="'ArialMT'" font-size="11">notification</text>
	</g>
	<g>
		<path fill="none" stroke="#000000" stroke-width="1.3613" stroke-miterlimit="10" d="M319.907,2038.389H100.734"/>
		<g transform="translate(98.01121979999999,2038.3883437905004) translate(-98.01121979999999,-2038.3883437905004)">
			<path d="M111.624,2031.582l-13.613,6.807l13.613,6.806V2031.582z"/>
		</g>
	</g>
	<g>
		<g>
			<rect x="394.072" y="2062.892" fill="#FFFFFF" width="132.9" height="21.235"/>
		</g>
		<text transform="matrix(1 0 0 1 396.5225 2077.5928)" font-family="'ArialMT'" font-size="11">Process terminated</text>
	</g>
	<g>
		<path fill="none" stroke="#000000" stroke-width="1.3613" stroke-miterlimit="10" stroke-dasharray="6.5341" d="M336.242,2084.127
			H582.08"/>
		<g transform="translate(584.8027106666666,2084.1269130305004) translate(-584.8027106666666,-2084.1269130305004)">
			<path d="M571.19,2077.32l13.612,6.807l-13.612,6.807V2077.32z"/>
		</g>
	</g>
	<g>
		<g>
			<rect x="642.136" y="2108.63" fill="#FFFFFF" width="188.9" height="21.235"/>
		</g>
		<text transform="matrix(1 0 0 1 644.5859 2123.3311)" font-family="'ArialMT'" font-size="11">Fake access trial notification</text>
	</g>
	<g>
		<path fill="none" stroke="#000000" stroke-width="1.3613" stroke-miterlimit="10" d="M601.138,2129.865h268.174"/>
		<g transform="translate(872.0336594,2129.8654822705003) translate(-872.0336594,-2129.8654822705003)">
			<path d="M858.421,2123.06l13.612,6.806l-13.612,6.807V2123.06z"/>
		</g>
	</g>
	<g>
		<path fill="none" stroke="#000000" stroke-width="2.3336" stroke-miterlimit="10" d="M16.335,344.428H560.19v491.689H16.335
			V344.428z"/>
		<path fill="#FFFFFF" stroke="#000000" stroke-width="2.3336" stroke-miterlimit="10" d="M16.335,344.428v19.602h56.67l9.801-9.801
			v-9.801H16.335"/>
		<text transform="matrix(1 0 0 1 32.6704 357.4961)" font-family="'Arial-BoldMT'" font-size="8.8">loop</text>
		<text transform="matrix(1 0 0 1 99.1421 357.4961)" font-family="'Arial-BoldMT'" font-size="8.8">[complete == false]</text>
	</g>
	<g>
		<path fill="none" stroke="#000000" stroke-width="2.3336" stroke-miterlimit="10" d="M32.67,599.257h352.578v212.357H32.67
			V599.257z"/>
		<path fill="#FFFFFF" stroke="#000000" stroke-width="2.3336" stroke-miterlimit="10" d="M32.67,599.257v19.603h46.67l9.801-9.802
			v-9.801H32.67"/>
		<text transform="matrix(1 0 0 1 49.0054 612.3252)" font-family="'Arial-BoldMT'" font-size="8.8">alt</text>
		<text transform="matrix(1 0 0 1 105.4771 612.3252)" font-family="'Arial-BoldMT'" font-size="8.8">[Valid data]</text>
		<g>
			<path fill="none" stroke="#000000" stroke-width="2.3336" stroke-miterlimit="10" stroke-dasharray="4.0838" d="M32.67,705.436
				h352.578"/>
		</g>
		<text transform="matrix(1 0 0 1 105.4771 718.5039)" font-family="'Arial-BoldMT'" font-size="8.8">[Existing user]</text>
	</g>
	<g>
		<path fill="none" stroke="#000000" stroke-width="2.3336" stroke-miterlimit="10" d="M40.838,1453.588h888.369v700.78H40.838
			V1453.588z"/>
		<path fill="#FFFFFF" stroke="#000000" stroke-width="2.3336" stroke-miterlimit="10" d="M40.838,1453.588v19.603h46.67
			l9.801-9.801v-9.802H40.838"/>
		<text transform="matrix(1 0 0 1 57.1733 1466.6563)" font-family="'Arial-BoldMT'" font-size="8.8">alt</text>
		<text transform="matrix(1 0 0 1 113.6445 1466.6563)" font-family="'Arial-BoldMT'" font-size="8.8">[Data are correct, belonging confirmed]</text>
		<g>
			<path fill="none" stroke="#000000" stroke-width="2.3336" stroke-miterlimit="10" stroke-dasharray="4.0838" d="M40.838,1713.317
				h888.369"/>
		</g>
		<text transform="matrix(1 0 0 1 113.6445 1726.3857)" font-family="'Arial-BoldMT'" font-size="8.8">[Incorrect data]</text>
		<g>
			<path fill="none" stroke="#000000" stroke-width="2.3336" stroke-miterlimit="10" stroke-dasharray="4.0838" d="M40.838,1910.974
				h888.369"/>
		</g>
		<text transform="matrix(1 0 0 1 113.6445 1924.042)" font-family="'Arial-BoldMT'" font-size="8.8">[Belonging not confirmed]</text>
	</g>
</g>
</svg>
