<svg version="1.1" xmlns="http://www.w3.org/2000/svg" xmlns:xlink="http://www.w3.org/1999/xlink" width="953" height="2211"><defs/><g><g/><g/><g/><g/><g/><g/><g/><g/><g/><g/><g/><g/><g/><g/><g/><g/><g/><g/><g/><g/><g/><g/><g/><g/><g/><g/><g/><g/><g/><g/><g/><g/><g/><g/><g/><g/><g/><g/><g><rect fill="white" stroke="none" x="0" y="0" width="953" height="2211"/></g><g><text fill="black" stroke="none" font-family="sans-serif" font-size="16.5pt" font-style="normal" font-weight="normal" text-decoration="normal" x="387.0152154524414" y="24.50280495" text-anchor="start" dominant-baseline="alphabetic">Sign up (authority)</text></g><g/><g><path fill="none" stroke="black" paint-order="fill stroke markers" d=" M 98.01121979999999 128.80307802049998 L 98.01121979999999 2211.5414987705003" stroke-miterlimit="10" stroke-width="1.3612669416666667" stroke-dasharray="12.565541,5.445067766666667"/><path fill="none" stroke="black" paint-order="fill stroke markers" d=" M 328.0745668833333 128.80307802049998 L 328.0745668833333 2211.5414987705003" stroke-miterlimit="10" stroke-width="1.3612669416666667" stroke-dasharray="12.565541,5.445067766666667"/><path fill="none" stroke="black" paint-order="fill stroke markers" d=" M 592.9703123166667 128.80307802049998 L 592.9703123166667 2211.5414987705003" stroke-miterlimit="10" stroke-width="1.3612669416666667" stroke-dasharray="12.565541,5.445067766666667"/><path fill="none" stroke="black" paint-order="fill stroke markers" d=" M 872.0336594 128.80307802049998 L 872.0336594 2211.5414987705003" stroke-miterlimit="10" stroke-width="1.3612669416666667" stroke-dasharray="12.565541,5.445067766666667"/></g><g><g><path fill="white" stroke="black" paint-order="fill stroke markers" d=" M 107.322285681 59.70516806150002 A 9.311065881 9.311065881 0 1 1 107.32228102546743 59.69585699717086 M 98.01121979999999 69.01623394250002 L 98.01121979999999 88.94518196850002 M 86.24987342399999 76.20372339450002 L 109.772566176 76.20372339450002 M 98.01121979999999 88.94518196850002 L 86.24987342399999 107.56731373050002 M 98.01121979999999 88.94518196850002 L 109.772566176 107.56731373050002" stroke-miterlimit="10" stroke-width="2.7769845610000004" stroke-dasharray=""/></g><g><g/><text fill="black" stroke="none" font-family="sans-serif" font-size="11pt" font-style="normal" font-weight="normal" text-decoration="normal" x="78.01121979999999" y="123.90251703050001" text-anchor="start" dominant-baseline="alphabetic">Visitor</text></g><path fill="none" stroke="none"/><g><path fill="white" stroke="black" paint-order="fill stroke markers" d=" M 271.8508713028333 84.69802911050002 L 384.29826246383334 84.69802911050002 L 384.29826246383334 128.8030780205 L 271.8508713028333 128.8030780205 L 271.8508713028333 84.69802911050002 Z" stroke-miterlimit="10" stroke-width="2.613632528" stroke-dasharray=""/></g><g><g/><text fill="black" stroke="none" font-family="sans-serif" font-size="11pt" font-style="normal" font-weight="normal" text-decoration="normal" x="289.5745668833333" y="112.46787472049999" text-anchor="start" dominant-baseline="alphabetic">SafeStreets</text></g><g><path fill="white" stroke="black" paint-order="fill stroke markers" d=" M 602.2813781976666 59.70516806150002 A 9.311065881 9.311065881 0 1 1 602.2813735421341 59.69585699717086 M 592.9703123166667 69.01623394250002 L 592.9703123166667 88.94518196850002 M 581.2089659406666 76.20372339450002 L 604.7316586926667 76.20372339450002 M 592.9703123166667 88.94518196850002 L 581.2089659406666 107.56731373050002 M 592.9703123166667 88.94518196850002 L 604.7316586926667 107.56731373050002" stroke-miterlimit="10" stroke-width="2.7769845610000004" stroke-dasharray=""/></g><g><g/><text fill="black" stroke="none" font-family="sans-serif" font-size="11pt" font-style="normal" font-weight="normal" text-decoration="normal" x="549.9703123166667" y="123.90251703050001" text-anchor="start" dominant-baseline="alphabetic">Administrator</text></g><g><path fill="white" stroke="black" paint-order="fill stroke markers" d=" M 881.344725281 59.70516806150002 A 9.311065881 9.311065881 0 1 1 881.3447206254675 59.69585699717086 M 872.0336594 69.01623394250002 L 872.0336594 88.94518196850002 M 860.272313024 76.20372339450002 L 883.795005776 76.20372339450002 M 872.0336594 88.94518196850002 L 860.272313024 107.56731373050002 M 872.0336594 88.94518196850002 L 883.795005776 107.56731373050002" stroke-miterlimit="10" stroke-width="2.7769845610000004" stroke-dasharray=""/></g><g><g/><text fill="black" stroke="none" font-family="sans-serif" font-size="11pt" font-style="normal" font-weight="normal" text-decoration="normal" x="835.0336594" y="123.90251703050001" text-anchor="start" dominant-baseline="alphabetic">Municipality</text></g></g><g><path fill="white" stroke="black" paint-order="fill stroke markers" d=" M 89.84361815 136.97067967049998 L 106.17882144999999 136.97067967049998 L 106.17882144999999 836.1173809105002 L 89.84361815 836.1173809105002 L 89.84361815 136.97067967049998" stroke-miterlimit="10" stroke-width="1.3612669416666667" stroke-dasharray=""/><path fill="white" stroke="black" paint-order="fill stroke markers" d=" M 319.9069652333333 182.70924891049998 L 336.2421685333333 182.70924891049998 L 336.2421685333333 228.44781815049998 L 319.9069652333333 228.44781815049998 L 319.9069652333333 182.70924891049998" stroke-miterlimit="10" stroke-width="1.3612669416666667" stroke-dasharray=""/><path fill="white" stroke="black" paint-order="fill stroke markers" d=" M 319.9069652333333 274.1863873905 L 336.2421685333333 274.1863873905 L 336.2421685333333 319.9249566305 L 319.9069652333333 319.9249566305 L 319.9069652333333 274.1863873905" stroke-miterlimit="10" stroke-width="1.3612669416666667" stroke-dasharray=""/><path fill="white" stroke="black" paint-order="fill stroke markers" d=" M 98.01121979999999 426.1037780805 L 114.34642309999998 426.1037780805 L 114.34642309999998 466.9417863305 L 98.01121979999999 466.9417863305 L 98.01121979999999 426.1037780805" stroke-miterlimit="10" stroke-width="1.3612669416666667" stroke-dasharray=""/><path fill="white" stroke="black" paint-order="fill stroke markers" d=" M 319.9069652333333 512.6803555705 L 336.2421685333333 512.6803555705 L 336.2421685333333 680.9329495605001 L 319.9069652333333 680.9329495605001 L 319.9069652333333 512.6803555705" stroke-miterlimit="10" stroke-width="1.3612669416666667" stroke-dasharray=""/><path fill="white" stroke="black" paint-order="fill stroke markers" d=" M 319.9069652333333 725.0379984705 L 336.2421685333333 725.0379984705 L 336.2421685333333 787.1117710105001 L 319.9069652333333 787.1117710105001 L 319.9069652333333 725.0379984705" stroke-miterlimit="10" stroke-width="1.3612669416666667" stroke-dasharray=""/><path fill="white" stroke="black" paint-order="fill stroke markers" d=" M 584.8027106666666 836.1173809105002 L 601.1379139666667 836.1173809105002 L 601.1379139666667 2154.3682872205004 L 584.8027106666666 2154.3682872205004 L 584.8027106666666 836.1173809105002" stroke-miterlimit="10" stroke-width="1.3612669416666667" stroke-dasharray=""/><path fill="white" stroke="black" paint-order="fill stroke markers" d=" M 319.9069652333333 881.8559501505001 L 336.2421685333333 881.8559501505001 L 336.2421685333333 927.5945193905001 L 319.9069652333333 927.5945193905001 L 319.9069652333333 881.8559501505001" stroke-miterlimit="10" stroke-width="1.3612669416666667" stroke-dasharray=""/><path fill="white" stroke="black" paint-order="fill stroke markers" d=" M 319.9069652333333 973.3330886305 L 336.2421685333333 973.3330886305 L 336.2421685333333 1019.0716578705 L 319.9069652333333 1019.0716578705 L 319.9069652333333 973.3330886305" stroke-miterlimit="10" stroke-width="1.3612669416666667" stroke-dasharray=""/><path fill="white" stroke="black" paint-order="fill stroke markers" d=" M 319.9069652333333 1064.8102271105 L 336.2421685333333 1064.8102271105 L 336.2421685333333 1110.5487963505 L 319.9069652333333 1110.5487963505 L 319.9069652333333 1064.8102271105" stroke-miterlimit="10" stroke-width="1.3612669416666667" stroke-dasharray=""/><path fill="white" stroke="black" paint-order="fill stroke markers" d=" M 319.9069652333333 1156.2873655905 L 336.2421685333333 1156.2873655905 L 336.2421685333333 1202.0259348305 L 319.9069652333333 1202.0259348305 L 319.9069652333333 1156.2873655905" stroke-miterlimit="10" stroke-width="1.3612669416666667" stroke-dasharray=""/><path fill="white" stroke="black" paint-order="fill stroke markers" d=" M 592.9703123166667 1280.4349106705001 L 609.3055156166668 1280.4349106705001 L 609.3055156166668 1321.2729189205002 L 592.9703123166667 1321.2729189205002 L 592.9703123166667 1280.4349106705001" stroke-miterlimit="10" stroke-width="1.3612669416666667" stroke-dasharray=""/><path fill="white" stroke="black" paint-order="fill stroke markers" d=" M 863.86605775 1383.3466914605 L 880.2012610500001 1383.3466914605 L 880.2012610500001 1429.0852607005002 L 863.86605775 1429.0852607005002 L 863.86605775 1383.3466914605" stroke-miterlimit="10" stroke-width="1.3612669416666667" stroke-dasharray=""/><path fill="white" stroke="black" paint-order="fill stroke markers" d=" M 319.9069652333333 1518.9288788505003 L 336.2421685333333 1518.9288788505003 L 336.2421685333333 1688.8149931705002 L 319.9069652333333 1688.8149931705002 L 319.9069652333333 1518.9288788505003" stroke-miterlimit="10" stroke-width="1.3612669416666667" stroke-dasharray=""/><path fill="white" stroke="black" paint-order="fill stroke markers" d=" M 319.9069652333333 1778.6586113205003 L 336.2421685333333 1778.6586113205003 L 336.2421685333333 1886.4709531005003 L 319.9069652333333 1886.4709531005003 L 319.9069652333333 1778.6586113205003" stroke-miterlimit="10" stroke-width="1.3612669416666667" stroke-dasharray=""/><path fill="white" stroke="black" paint-order="fill stroke markers" d=" M 319.9069652333333 1976.3145712505004 L 336.2421685333333 1976.3145712505004 L 336.2421685333333 2084.1269130305004 L 319.9069652333333 2084.1269130305004 L 319.9069652333333 1976.3145712505004" stroke-miterlimit="10" stroke-width="1.3612669416666667" stroke-dasharray=""/><g><g><rect fill="white" stroke="none" x="156.09261284666667" y="161.4734846205" width="113.90056099" height="21.23576429"/></g><text fill="black" stroke="none" font-family="sans-serif" font-size="11pt" font-style="normal" font-weight="normal" text-decoration="normal" x="158.54289334166666" y="176.17516759049997" text-anchor="start" dominant-baseline="alphabetic">Open application</text></g><g><path fill="none" stroke="black" paint-order="fill stroke markers" d=" M 106.17882144999999 182.70924891049998 L 317.18443135 182.70924891049998" stroke-miterlimit="10" stroke-width="1.3612669416666667" stroke-dasharray=""/><g transform="translate(319.9069652333333,182.70924891049998) translate(-319.9069652333333,-182.70924891049998)"><path fill="black" stroke="none" paint-order="stroke fill markers" d=" M 306.29429581666665 175.90291420216664 L 319.9069652333333 182.70924891049998 L 306.29429581666665 189.51558361883332 Z"/></g></g><g><g><rect fill="white" stroke="none" x="147.59261284666667" y="207.2120538605" width="130.90056099" height="21.23576429"/></g><text fill="black" stroke="none" font-family="sans-serif" font-size="11pt" font-style="normal" font-weight="normal" text-decoration="normal" x="150.04289334166666" y="221.91373683049997" text-anchor="start" dominant-baseline="alphabetic">Prompts login page</text></g><g><path fill="none" stroke="black" paint-order="fill stroke markers" d=" M 319.9069652333333 228.44781815049998 L 108.90135533333333 228.44781815049998" stroke-miterlimit="10" stroke-width="1.3612669416666667" stroke-dasharray="6.53408132"/><g transform="translate(106.17882144999999,228.44781815049998) translate(-106.17882144999999,-228.44781815049998)"><path fill="black" stroke="none" paint-order="stroke fill markers" d=" M 119.79149086666665 221.64148344216665 L 106.17882144999999 228.44781815049998 L 119.79149086666665 235.25415285883332 Z"/></g></g><g><g><rect fill="white" stroke="none" x="163.09261284666667" y="252.9506231005" width="99.90056099" height="21.23576429"/></g><text fill="black" stroke="none" font-family="sans-serif" font-size="11pt" font-style="normal" font-weight="normal" text-decoration="normal" x="165.54289334166666" y="267.6523060705" text-anchor="start" dominant-baseline="alphabetic">Click "Sign up"</text></g><g><path fill="none" stroke="black" paint-order="fill stroke markers" d=" M 106.17882144999999 274.1863873905 L 317.18443135 274.1863873905" stroke-miterlimit="10" stroke-width="1.3612669416666667" stroke-dasharray=""/><g transform="translate(319.9069652333333,274.1863873905) translate(-319.9069652333333,-274.1863873905)"><path fill="black" stroke="none" paint-order="stroke fill markers" d=" M 306.29429581666665 267.38005268216665 L 319.9069652333333 274.1863873905 L 306.29429581666665 280.9927220988333 Z"/></g></g><g><g><rect fill="white" stroke="none" x="138.09261284666667" y="298.6891923405" width="149.90056099" height="21.23576429"/></g><text fill="black" stroke="none" font-family="sans-serif" font-size="11pt" font-style="normal" font-weight="normal" text-decoration="normal" x="140.54289334166666" y="313.39087531049995" text-anchor="start" dominant-baseline="alphabetic">Prompts Sign up page</text></g><g><path fill="none" stroke="black" paint-order="fill stroke markers" d=" M 319.9069652333333 319.9249566305 L 108.90135533333333 319.9249566305" stroke-miterlimit="10" stroke-width="1.3612669416666667" stroke-dasharray="6.53408132"/><g transform="translate(106.17882144999999,319.9249566305) translate(-106.17882144999999,-319.9249566305)"><path fill="black" stroke="none" paint-order="stroke fill markers" d=" M 119.79149086666665 313.11862192216665 L 106.17882144999999 319.9249566305 L 119.79149086666665 326.73129133883333 Z"/></g></g><g><g><rect fill="white" stroke="none" x="133.67641367166667" y="388.53281049049997" width="56.90056099" height="21.23576429"/></g><text fill="black" stroke="none" font-family="sans-serif" font-size="11pt" font-style="normal" font-weight="normal" text-decoration="normal" x="136.12669416666665" y="403.23449346049995" text-anchor="start" dominant-baseline="alphabetic">Fill form</text></g><g><path fill="none" stroke="black" paint-order="fill stroke markers" d=" M 106.17882144999999 409.7685747805 L 179.6872363 409.7685747805 L 179.6872363 426.1037780805 L 117.06895698333332 426.1037780805" stroke-miterlimit="10" stroke-width="1.3612669416666667" stroke-dasharray=""/><g transform="translate(114.3464231,426.1037780805) translate(-114.3464231,-426.1037780805)"><path fill="black" stroke="none" paint-order="stroke fill markers" d=" M 127.95909251666666 419.29744337216664 L 114.3464231 426.1037780805 L 127.95909251666666 432.9101127888333 Z"/></g></g><g><g><rect fill="white" stroke="none" x="140.09261284666667" y="491.44459128049994" width="145.90056099" height="21.23576429"/></g><text fill="black" stroke="none" font-family="sans-serif" font-size="11pt" font-style="normal" font-weight="normal" text-decoration="normal" x="142.54289334166666" y="506.1462742504999" text-anchor="start" dominant-baseline="alphabetic">Click "Sign Up" button</text></g><g><path fill="none" stroke="black" paint-order="fill stroke markers" d=" M 106.17882144999999 512.6803555705 L 317.18443135 512.6803555705" stroke-miterlimit="10" stroke-width="1.3612669416666667" stroke-dasharray=""/><g transform="translate(319.9069652333333,512.6803555705) translate(-319.9069652333333,-512.6803555705)"><path fill="black" stroke="none" paint-order="stroke fill markers" d=" M 306.29429581666665 505.8740208621666 L 319.9069652333333 512.6803555705 L 306.29429581666665 519.4866902788333 Z"/></g></g><g><g><rect fill="white" stroke="none" x="355.57215910499997" y="537.1831605205" width="198.90056099" height="21.23576429"/></g><text fill="black" stroke="none" font-family="sans-serif" font-size="11pt" font-style="normal" font-weight="normal" text-decoration="normal" x="358.0224396" y="551.8848434905" text-anchor="start" dominant-baseline="alphabetic">Save data for admin validation</text></g><g><path fill="none" stroke="black" paint-order="fill stroke markers" d=" M 336.2421685333333 558.4189248105 L 401.5829817333333 558.4189248105 L 401.5829817333333 574.7541281105 L 338.9647024166666 574.7541281105" stroke-miterlimit="10" stroke-width="1.3612669416666667" stroke-dasharray=""/><g transform="translate(336.2421685333333,574.7541281105) translate(-336.2421685333333,-574.7541281105)"><path fill="black" stroke="none" paint-order="stroke fill markers" d=" M 349.85483795 567.9477934021667 L 336.2421685333333 574.7541281105 L 349.85483795 581.5604628188333 Z"/></g></g><g><g><rect fill="white" stroke="none" x="148.59261284666667" y="643.3619819705001" width="114.90056099" height="21.23576429"/></g><g><rect fill="white" stroke="none" x="148.59261284666667" y="659.6971852705001" width="128.90056099" height="21.23576429"/></g><text fill="black" stroke="none" font-family="sans-serif" font-size="11pt" font-style="normal" font-weight="normal" text-decoration="normal" x="151.04289334166666" y="658.0636649405001" text-anchor="start" dominant-baseline="alphabetic">[complete = true]</text><text fill="black" stroke="none" font-family="sans-serif" font-size="11pt" font-style="normal" font-weight="normal" text-decoration="normal" x="151.04289334166666" y="674.3988682405001" text-anchor="start" dominant-baseline="alphabetic">Sign up successful</text></g><g><path fill="none" stroke="black" paint-order="fill stroke markers" d=" M 319.9069652333333 680.9329495605001 L 108.90135533333333 680.9329495605001" stroke-miterlimit="10" stroke-width="1.3612669416666667" stroke-dasharray="6.53408132"/><g transform="translate(106.17882144999999,680.9329495605001) translate(-106.17882144999999,-680.9329495605001)"><path fill="black" stroke="none" paint-order="stroke fill markers" d=" M 119.79149086666665 674.1266148521668 L 106.17882144999999 680.9329495605001 L 119.79149086666665 687.7392842688334 Z"/></g></g><g><g><rect fill="white" stroke="none" x="135.09261284666667" y="749.5408034205001" width="120.90056099" height="21.23576429"/></g><g><rect fill="white" stroke="none" x="135.09261284666667" y="765.8760067205001" width="155.90056099" height="21.23576429"/></g><text fill="black" stroke="none" font-family="sans-serif" font-size="11pt" font-style="normal" font-weight="normal" text-decoration="normal" x="137.54289334166666" y="764.2424863905001" text-anchor="start" dominant-baseline="alphabetic">[complete = false]</text><text fill="black" stroke="none" font-family="sans-serif" font-size="11pt" font-style="normal" font-weight="normal" text-decoration="normal" x="137.54289334166666" y="780.5776896905" text-anchor="start" dominant-baseline="alphabetic">User already registered</text></g><g><path fill="none" stroke="black" paint-order="fill stroke markers" d=" M 319.9069652333333 787.1117710105001 L 108.90135533333333 787.1117710105001" stroke-miterlimit="10" stroke-width="1.3612669416666667" stroke-dasharray="6.53408132"/><g transform="translate(106.17882144999999,787.1117710105001) translate(-106.17882144999999,-787.1117710105001)"><path fill="black" stroke="none" paint-order="stroke fill markers" d=" M 119.79149086666665 780.3054363021668 L 106.17882144999999 787.1117710105001 L 119.79149086666665 793.9181057188334 Z"/></g></g><g><g><rect fill="white" stroke="none" x="413.07215910499997" y="860.6201858605001" width="94.90056099" height="21.23576429"/></g><text fill="black" stroke="none" font-family="sans-serif" font-size="11pt" font-style="normal" font-weight="normal" text-decoration="normal" x="415.5224396" y="875.3218688305001" text-anchor="start" dominant-baseline="alphabetic">Open website</text></g><g><path fill="none" stroke="black" paint-order="fill stroke markers" d=" M 584.8027106666666 881.8559501505001 L 338.9647024166666 881.8559501505001" stroke-miterlimit="10" stroke-width="1.3612669416666667" stroke-dasharray=""/><g transform="translate(336.2421685333333,881.8559501505001) translate(-336.2421685333333,-881.8559501505001)"><path fill="black" stroke="none" paint-order="stroke fill markers" d=" M 349.85483795 875.0496154421668 L 336.2421685333333 881.8559501505001 L 349.85483795 888.6622848588335 Z"/></g></g><g><g><rect fill="white" stroke="none" x="395.07215910499997" y="906.3587551005" width="130.90056099" height="21.23576429"/></g><text fill="black" stroke="none" font-family="sans-serif" font-size="11pt" font-style="normal" font-weight="normal" text-decoration="normal" x="397.5224396" y="921.0604380705" text-anchor="start" dominant-baseline="alphabetic">Prompts login page</text></g><g><path fill="none" stroke="black" paint-order="fill stroke markers" d=" M 336.2421685333333 927.5945193905001 L 582.0801767833333 927.5945193905001" stroke-miterlimit="10" stroke-width="1.3612669416666667" stroke-dasharray="6.53408132"/><g transform="translate(584.8027106666666,927.5945193905001) translate(-584.8027106666666,-927.5945193905001)"><path fill="black" stroke="none" paint-order="stroke fill markers" d=" M 571.1900412499999 920.7881846821667 L 584.8027106666666 927.5945193905001 L 571.1900412499999 934.4008540988334 Z"/></g></g><g><g><rect fill="white" stroke="none" x="424.07215910499997" y="952.0973243405" width="72.90056099" height="21.23576429"/></g><text fill="black" stroke="none" font-family="sans-serif" font-size="11pt" font-style="normal" font-weight="normal" text-decoration="normal" x="426.5224396" y="966.7990073105" text-anchor="start" dominant-baseline="alphabetic">Make login</text></g><g><path fill="none" stroke="black" paint-order="fill stroke markers" d=" M 584.8027106666666 973.3330886305 L 338.9647024166666 973.3330886305" stroke-miterlimit="10" stroke-width="1.3612669416666667" stroke-dasharray=""/><g transform="translate(336.2421685333333,973.3330886305) translate(-336.2421685333333,-973.3330886305)"><path fill="black" stroke="none" paint-order="stroke fill markers" d=" M 349.85483795 966.5267539221667 L 336.2421685333333 973.3330886305 L 349.85483795 980.1394233388334 Z"/></g></g><g><g><rect fill="white" stroke="none" x="394.07215910499997" y="997.8358935804999" width="132.90056099" height="21.23576429"/></g><text fill="black" stroke="none" font-family="sans-serif" font-size="11pt" font-style="normal" font-weight="normal" text-decoration="normal" x="396.5224396" y="1012.5375765504999" text-anchor="start" dominant-baseline="alphabetic">Prompts main page</text></g><g><path fill="none" stroke="black" paint-order="fill stroke markers" d=" M 336.2421685333333 1019.0716578705 L 582.0801767833333 1019.0716578705" stroke-miterlimit="10" stroke-width="1.3612669416666667" stroke-dasharray="6.53408132"/><g transform="translate(584.8027106666666,1019.0716578705) translate(-584.8027106666666,-1019.0716578705)"><path fill="black" stroke="none" paint-order="stroke fill markers" d=" M 571.1900412499999 1012.2653231621666 L 584.8027106666666 1019.0716578705 L 571.1900412499999 1025.8779925788333 Z"/></g></g><g><g><rect fill="white" stroke="none" x="358.57215910499997" y="1043.5744628205" width="203.90056099" height="21.23576429"/></g><text fill="black" stroke="none" font-family="sans-serif" font-size="11pt" font-style="normal" font-weight="normal" text-decoration="normal" x="361.0224396" y="1058.2761457905" text-anchor="start" dominant-baseline="alphabetic">Click "Accounts control" button</text></g><g><path fill="none" stroke="black" paint-order="fill stroke markers" d=" M 584.8027106666666 1064.8102271105 L 338.9647024166666 1064.8102271105" stroke-miterlimit="10" stroke-width="1.3612669416666667" stroke-dasharray=""/><g transform="translate(336.2421685333333,1064.8102271105) translate(-336.2421685333333,-1064.8102271105)"><path fill="black" stroke="none" paint-order="stroke fill markers" d=" M 349.85483795 1058.0038924021667 L 336.2421685333333 1064.8102271105 L 349.85483795 1071.6165618188331 Z"/></g></g><g><g><rect fill="white" stroke="none" x="355.57215910499997" y="1089.3130320605" width="209.90056099" height="21.23576429"/></g><text fill="black" stroke="none" font-family="sans-serif" font-size="11pt" font-style="normal" font-weight="normal" text-decoration="normal" x="358.0224396" y="1104.0147150305002" text-anchor="start" dominant-baseline="alphabetic">Prompts Accounts control page</text></g><g><path fill="none" stroke="black" paint-order="fill stroke markers" d=" M 336.2421685333333 1110.5487963505 L 582.0801767833333 1110.5487963505" stroke-miterlimit="10" stroke-width="1.3612669416666667" stroke-dasharray="6.53408132"/><g transform="translate(584.8027106666666,1110.5487963505) translate(-584.8027106666666,-1110.5487963505)"><path fill="black" stroke="none" paint-order="stroke fill markers" d=" M 571.1900412499999 1103.7424616421667 L 584.8027106666666 1110.5487963505 L 571.1900412499999 1117.3551310588332 Z"/></g></g><g><g><rect fill="white" stroke="none" x="384.57215910499997" y="1135.0516013005001" width="151.90056099" height="21.23576429"/></g><text fill="black" stroke="none" font-family="sans-serif" font-size="11pt" font-style="normal" font-weight="normal" text-decoration="normal" x="387.0224396" y="1149.7532842705002" text-anchor="start" dominant-baseline="alphabetic">Clicks on new account</text></g><g><path fill="none" stroke="black" paint-order="fill stroke markers" d=" M 584.8027106666666 1156.2873655905 L 338.9647024166666 1156.2873655905" stroke-miterlimit="10" stroke-width="1.3612669416666667" stroke-dasharray=""/><g transform="translate(336.2421685333333,1156.2873655905) translate(-336.2421685333333,-1156.2873655905)"><path fill="black" stroke="none" paint-order="stroke fill markers" d=" M 349.85483795 1149.4810308821668 L 336.2421685333333 1156.2873655905 L 349.85483795 1163.0937002988333 Z"/></g></g><g><g><rect fill="white" stroke="none" x="368.57215910499997" y="1180.7901705405002" width="183.90056099" height="21.23576429"/></g><text fill="black" stroke="none" font-family="sans-serif" font-size="11pt" font-style="normal" font-weight="normal" text-decoration="normal" x="371.0224396" y="1195.4918535105003" text-anchor="start" dominant-baseline="alphabetic">Prompts new account page</text></g><g><path fill="none" stroke="black" paint-order="fill stroke markers" d=" M 336.2421685333333 1202.0259348305 L 582.0801767833333 1202.0259348305" stroke-miterlimit="10" stroke-width="1.3612669416666667" stroke-dasharray="6.53408132"/><g transform="translate(584.8027106666666,1202.0259348305) translate(-584.8027106666666,-1202.0259348305)"><path fill="black" stroke="none" paint-order="stroke fill markers" d=" M 571.1900412499999 1195.2196001221669 L 584.8027106666666 1202.0259348305 L 571.1900412499999 1208.8322695388333 Z"/></g></g><g><g><rect fill="white" stroke="none" x="628.6355061883334" y="1226.5287397805" width="143.90056099" height="21.23576429"/></g><g><rect fill="white" stroke="none" x="628.6355061883334" y="1242.8639430805001" width="82.90056099" height="21.23576429"/></g><text fill="black" stroke="none" font-family="sans-serif" font-size="11pt" font-style="normal" font-weight="normal" text-decoration="normal" x="631.0857866833334" y="1241.2304227505" text-anchor="start" dominant-baseline="alphabetic">Check for information</text><text fill="black" stroke="none" font-family="sans-serif" font-size="11pt" font-style="normal" font-weight="normal" text-decoration="normal" x="631.0857866833334" y="1257.5656260505002" text-anchor="start" dominant-baseline="alphabetic">correctness</text></g><g><path fill="none" stroke="black" paint-order="fill stroke markers" d=" M 601.1379139666667 1264.0997073705 L 674.6463288166666 1264.0997073705 L 674.6463288166666 1280.4349106705001 L 612.0280495 1280.4349106705001" stroke-miterlimit="10" stroke-width="1.3612669416666667" stroke-dasharray=""/><g transform="translate(609.3055156166666,1280.4349106705001) translate(-609.3055156166666,-1280.4349106705001)"><path fill="black" stroke="none" paint-order="stroke fill markers" d=" M 622.9181850333333 1273.628575962167 L 609.3055156166666 1280.4349106705001 L 622.9181850333333 1287.2412453788334 Z"/></g></g><g><g><rect fill="white" stroke="none" x="624.5517053633333" y="1345.7757238705" width="215.90056099" height="21.23576429"/></g><g><rect fill="white" stroke="none" x="624.5517053633333" y="1362.1109271705002" width="98.90056099" height="21.23576429"/></g><text fill="black" stroke="none" font-family="sans-serif" font-size="11pt" font-style="normal" font-weight="normal" text-decoration="normal" x="627.0019858583333" y="1360.4774068405002" text-anchor="start" dominant-baseline="alphabetic">Check for belonging of applicant </text><text fill="black" stroke="none" font-family="sans-serif" font-size="11pt" font-style="normal" font-weight="normal" text-decoration="normal" x="627.0019858583333" y="1376.8126101405003" text-anchor="start" dominant-baseline="alphabetic">to traffic police</text></g><g><path fill="none" stroke="black" paint-order="fill stroke markers" d=" M 601.1379139666667 1383.3466914605 L 861.1435238666667 1383.3466914605" stroke-miterlimit="10" stroke-width="1.3612669416666667" stroke-dasharray=""/><g transform="translate(863.86605775,1383.3466914605) translate(-863.86605775,-1383.3466914605)"><path fill="black" stroke="none" paint-order="stroke fill markers" d=" M 850.2533883333333 1376.5403567521669 L 863.86605775 1383.3466914605 L 850.2533883333333 1390.1530261688333 Z"/></g></g><g><g><rect fill="white" stroke="none" x="672.0517053633333" y="1407.8494964105003" width="120.90056099" height="21.23576429"/></g><text fill="black" stroke="none" font-family="sans-serif" font-size="11pt" font-style="normal" font-weight="normal" text-decoration="normal" x="674.5019858583333" y="1422.5511793805003" text-anchor="start" dominant-baseline="alphabetic">Belonging answer</text></g><g><path fill="none" stroke="black" paint-order="fill stroke markers" d=" M 863.86605775 1429.0852607005002 L 603.86044785 1429.0852607005002" stroke-miterlimit="10" stroke-width="1.3612669416666667" stroke-dasharray="6.53408132"/><g transform="translate(601.1379139666667,1429.0852607005002) translate(-601.1379139666667,-1429.0852607005002)"><path fill="black" stroke="none" paint-order="stroke fill markers" d=" M 614.7505833833334 1422.278925992167 L 601.1379139666667 1429.0852607005002 L 614.7505833833334 1435.8915954088334 Z"/></g></g><g><g><rect fill="white" stroke="none" x="393.07215910499997" y="1497.6931145605004" width="134.90056099" height="21.23576429"/></g><text fill="black" stroke="none" font-family="sans-serif" font-size="11pt" font-style="normal" font-weight="normal" text-decoration="normal" x="395.5224396" y="1512.3947975305005" text-anchor="start" dominant-baseline="alphabetic">Allow officer access</text></g><g><path fill="none" stroke="black" paint-order="fill stroke markers" d=" M 584.8027106666666 1518.9288788505003 L 338.9647024166666 1518.9288788505003" stroke-miterlimit="10" stroke-width="1.3612669416666667" stroke-dasharray=""/><g transform="translate(336.2421685333333,1518.9288788505003) translate(-336.2421685333333,-1518.9288788505003)"><path fill="black" stroke="none" paint-order="stroke fill markers" d=" M 349.85483795 1512.122544142167 L 336.2421685333333 1518.9288788505003 L 349.85483795 1525.7352135588335 Z"/></g></g><g><g><rect fill="white" stroke="none" x="355.57215910499997" y="1543.4316838005002" width="69.90056099" height="21.23576429"/></g><text fill="black" stroke="none" font-family="sans-serif" font-size="11pt" font-style="normal" font-weight="normal" text-decoration="normal" x="358.0224396" y="1558.1333667705003" text-anchor="start" dominant-baseline="alphabetic">Save data</text></g><g><path fill="none" stroke="black" paint-order="fill stroke markers" d=" M 336.2421685333333 1564.6674480905 L 401.5829817333333 1564.6674480905 L 401.5829817333333 1581.0026513905002 L 338.9647024166666 1581.0026513905002" stroke-miterlimit="10" stroke-width="1.3612669416666667" stroke-dasharray=""/><g transform="translate(336.2421685333333,1581.0026513905002) translate(-336.2421685333333,-1581.0026513905002)"><path fill="black" stroke="none" paint-order="stroke fill markers" d=" M 349.85483795 1574.196316682167 L 336.2421685333333 1581.0026513905002 L 349.85483795 1587.8089860988334 Z"/></g></g><g><g><rect fill="white" stroke="none" x="125.50881202166666" y="1605.5054563405001" width="166.90056099" height="21.23576429"/></g><g><rect fill="white" stroke="none" x="125.50881202166666" y="1621.8406596405002" width="44.90056099" height="21.23576429"/></g><text fill="black" stroke="none" font-family="sans-serif" font-size="11pt" font-style="normal" font-weight="normal" text-decoration="normal" x="127.95909251666666" y="1620.2071393105002" text-anchor="start" dominant-baseline="alphabetic">Registration confirmation</text><text fill="black" stroke="none" font-family="sans-serif" font-size="11pt" font-style="normal" font-weight="normal" text-decoration="normal" x="127.95909251666666" y="1636.5423426105003" text-anchor="start" dominant-baseline="alphabetic">e-mail</text></g><g><path fill="none" stroke="black" paint-order="fill stroke markers" d=" M 319.9069652333333 1643.0764239305001 L 100.73375368333333 1643.0764239305001" stroke-miterlimit="10" stroke-width="1.3612669416666667" stroke-dasharray=""/><g transform="translate(98.01121979999999,1643.0764239305001) translate(-98.01121979999999,-1643.0764239305001)"><path fill="black" stroke="none" paint-order="stroke fill markers" d=" M 111.62388921666665 1636.270089222167 L 98.01121979999999 1643.0764239305001 L 111.62388921666665 1649.8827586388334 Z"/></g></g><g><g><rect fill="white" stroke="none" x="394.57215910499997" y="1667.5792288805003" width="131.90056099" height="21.23576429"/></g><text fill="black" stroke="none" font-family="sans-serif" font-size="11pt" font-style="normal" font-weight="normal" text-decoration="normal" x="397.0224396" y="1682.2809118505004" text-anchor="start" dominant-baseline="alphabetic">Process completed</text></g><g><path fill="none" stroke="black" paint-order="fill stroke markers" d=" M 336.2421685333333 1688.8149931705002 L 582.0801767833333 1688.8149931705002" stroke-miterlimit="10" stroke-width="1.3612669416666667" stroke-dasharray="6.53408132"/><g transform="translate(584.8027106666666,1688.8149931705002) translate(-584.8027106666666,-1688.8149931705002)"><path fill="black" stroke="none" paint-order="stroke fill markers" d=" M 571.1900412499999 1682.008658462167 L 584.8027106666666 1688.8149931705002 L 571.1900412499999 1695.6213278788334 Z"/></g></g><g><g><rect fill="white" stroke="none" x="398.57215910499997" y="1757.4228470305004" width="123.90056099" height="21.23576429"/></g><text fill="black" stroke="none" font-family="sans-serif" font-size="11pt" font-style="normal" font-weight="normal" text-decoration="normal" x="401.0224396" y="1772.1245300005005" text-anchor="start" dominant-baseline="alphabetic">Deny user access</text></g><g><path fill="none" stroke="black" paint-order="fill stroke markers" d=" M 584.8027106666666 1778.6586113205003 L 338.9647024166666 1778.6586113205003" stroke-miterlimit="10" stroke-width="1.3612669416666667" stroke-dasharray=""/><g transform="translate(336.2421685333333,1778.6586113205003) translate(-336.2421685333333,-1778.6586113205003)"><path fill="black" stroke="none" paint-order="stroke fill markers" d=" M 349.85483795 1771.852276612167 L 336.2421685333333 1778.6586113205003 L 349.85483795 1785.4649460288335 Z"/></g></g><g><g><rect fill="white" stroke="none" x="150.00881202166667" y="1803.1614162705002" width="117.90056099" height="21.23576429"/></g><g><rect fill="white" stroke="none" x="150.00881202166667" y="1819.4966195705003" width="73.90056099" height="21.23576429"/></g><text fill="black" stroke="none" font-family="sans-serif" font-size="11pt" font-style="normal" font-weight="normal" text-decoration="normal" x="152.45909251666666" y="1817.8630992405003" text-anchor="start" dominant-baseline="alphabetic">Registration error</text><text fill="black" stroke="none" font-family="sans-serif" font-size="11pt" font-style="normal" font-weight="normal" text-decoration="normal" x="152.45909251666666" y="1834.1983025405004" text-anchor="start" dominant-baseline="alphabetic">notification</text></g><g><path fill="none" stroke="black" paint-order="fill stroke markers" d=" M 319.9069652333333 1840.7323838605002 L 100.73375368333333 1840.7323838605002" stroke-miterlimit="10" stroke-width="1.3612669416666667" stroke-dasharray=""/><g transform="translate(98.01121979999999,1840.7323838605002) translate(-98.01121979999999,-1840.7323838605002)"><path fill="black" stroke="none" paint-order="stroke fill markers" d=" M 111.62388921666665 1833.926049152167 L 98.01121979999999 1840.7323838605002 L 111.62388921666665 1847.5387185688335 Z"/></g></g><g><g><rect fill="white" stroke="none" x="394.07215910499997" y="1865.2351888105004" width="132.90056099" height="21.23576429"/></g><text fill="black" stroke="none" font-family="sans-serif" font-size="11pt" font-style="normal" font-weight="normal" text-decoration="normal" x="396.5224396" y="1879.9368717805005" text-anchor="start" dominant-baseline="alphabetic">Process terminated</text></g><g><path fill="none" stroke="black" paint-order="fill stroke markers" d=" M 336.2421685333333 1886.4709531005003 L 582.0801767833333 1886.4709531005003" stroke-miterlimit="10" stroke-width="1.3612669416666667" stroke-dasharray="6.53408132"/><g transform="translate(584.8027106666666,1886.4709531005003) translate(-584.8027106666666,-1886.4709531005003)"><path fill="black" stroke="none" paint-order="stroke fill markers" d=" M 571.1900412499999 1879.664618392167 L 584.8027106666666 1886.4709531005003 L 571.1900412499999 1893.2772878088335 Z"/></g></g><g><g><rect fill="white" stroke="none" x="398.57215910499997" y="1955.0788069605005" width="123.90056099" height="21.23576429"/></g><text fill="black" stroke="none" font-family="sans-serif" font-size="11pt" font-style="normal" font-weight="normal" text-decoration="normal" x="401.0224396" y="1969.7804899305006" text-anchor="start" dominant-baseline="alphabetic">Deny user access</text></g><g><path fill="none" stroke="black" paint-order="fill stroke markers" d=" M 584.8027106666666 1976.3145712505004 L 338.9647024166666 1976.3145712505004" stroke-miterlimit="10" stroke-width="1.3612669416666667" stroke-dasharray=""/><g transform="translate(336.2421685333333,1976.3145712505004) translate(-336.2421685333333,-1976.3145712505004)"><path fill="black" stroke="none" paint-order="stroke fill markers" d=" M 349.85483795 1969.5082365421672 L 336.2421685333333 1976.3145712505004 L 349.85483795 1983.1209059588336 Z"/></g></g><g><g><rect fill="white" stroke="none" x="145.00881202166667" y="2000.8173762005003" width="127.90056099" height="21.23576429"/></g><g><rect fill="white" stroke="none" x="145.00881202166667" y="2017.1525795005005" width="73.90056099" height="21.23576429"/></g><text fill="black" stroke="none" font-family="sans-serif" font-size="11pt" font-style="normal" font-weight="normal" text-decoration="normal" x="147.45909251666666" y="2015.5190591705004" text-anchor="start" dominant-baseline="alphabetic">Not belonging error</text><text fill="black" stroke="none" font-family="sans-serif" font-size="11pt" font-style="normal" font-weight="normal" text-decoration="normal" x="147.45909251666666" y="2031.8542624705005" text-anchor="start" dominant-baseline="alphabetic">notification</text></g><g><path fill="none" stroke="black" paint-order="fill stroke markers" d=" M 319.9069652333333 2038.3883437905004 L 100.73375368333333 2038.3883437905004" stroke-miterlimit="10" stroke-width="1.3612669416666667" stroke-dasharray=""/><g transform="translate(98.01121979999999,2038.3883437905004) translate(-98.01121979999999,-2038.3883437905004)"><path fill="black" stroke="none" paint-order="stroke fill markers" d=" M 111.62388921666665 2031.5820090821671 L 98.01121979999999 2038.3883437905004 L 111.62388921666665 2045.1946784988336 Z"/></g></g><g><g><rect fill="white" stroke="none" x="394.07215910499997" y="2062.8911487405003" width="132.90056099" height="21.23576429"/></g><text fill="black" stroke="none" font-family="sans-serif" font-size="11pt" font-style="normal" font-weight="normal" text-decoration="normal" x="396.5224396" y="2077.5928317105004" text-anchor="start" dominant-baseline="alphabetic">Process terminated</text></g><g><path fill="none" stroke="black" paint-order="fill stroke markers" d=" M 336.2421685333333 2084.1269130305004 L 582.0801767833333 2084.1269130305004" stroke-miterlimit="10" stroke-width="1.3612669416666667" stroke-dasharray="6.53408132"/><g transform="translate(584.8027106666666,2084.1269130305004) translate(-584.8027106666666,-2084.1269130305004)"><path fill="black" stroke="none" paint-order="stroke fill markers" d=" M 571.1900412499999 2077.320578322167 L 584.8027106666666 2084.1269130305004 L 571.1900412499999 2090.933247738834 Z"/></g></g><g><g><rect fill="white" stroke="none" x="642.1355061883334" y="2108.6297179805" width="188.90056099" height="21.23576429"/></g><text fill="black" stroke="none" font-family="sans-serif" font-size="11pt" font-style="normal" font-weight="normal" text-decoration="normal" x="644.5857866833334" y="2123.3314009505" text-anchor="start" dominant-baseline="alphabetic">Fake access trial notification</text></g><g><path fill="none" stroke="black" paint-order="fill stroke markers" d=" M 601.1379139666667 2129.8654822705003 L 869.3111255166667 2129.8654822705003" stroke-miterlimit="10" stroke-width="1.3612669416666667" stroke-dasharray=""/><g transform="translate(872.0336594,2129.8654822705003) translate(-872.0336594,-2129.8654822705003)"><path fill="black" stroke="none" paint-order="stroke fill markers" d=" M 858.4209899833334 2123.059147562167 L 872.0336594 2129.8654822705003 L 858.4209899833334 2136.6718169788337 Z"/></g></g><g><g/><path fill="none" stroke="black" paint-order="fill stroke markers" d=" M 16.335203299999996 344.4277615805 L 560.19004125 344.4277615805 L 560.19004125 836.1173809105002 L 16.335203299999996 836.1173809105002 L 16.335203299999996 344.4277615805 Z" stroke-miterlimit="10" stroke-width="2.3336004714285714" stroke-dasharray=""/><path fill="white" stroke="black" paint-order="fill stroke markers" d=" M 16.335203299999996 344.4277615805 L 16.335203299999996 364.0300055405 L 73.0056099 364.0300055405 L 82.80673188 354.2288835605 L 82.80673188 344.4277615805 L 16.335203299999996 344.4277615805" stroke-miterlimit="10" stroke-width="2.3336004714285714" stroke-dasharray=""/><text fill="black" stroke="none" font-family="sans-serif" font-size="8.8pt" font-style="normal" font-weight="bold" text-decoration="normal" x="32.67040659999999" y="357.4959242205" text-anchor="start" dominant-baseline="alphabetic">loop</text><text fill="black" stroke="none" font-family="sans-serif" font-size="8.8pt" font-style="normal" font-weight="bold" text-decoration="normal" x="99.14193518" y="357.4959242205" text-anchor="start" dominant-baseline="alphabetic">[complete == false]</text></g><g><g/><path fill="none" stroke="black" paint-order="fill stroke markers" d=" M 32.67040659999999 599.2569330605 L 385.24777843333334 599.2569330605 L 385.24777843333334 811.6145759605001 L 32.67040659999999 811.6145759605001 L 32.67040659999999 599.2569330605 Z" stroke-miterlimit="10" stroke-width="2.3336004714285714" stroke-dasharray=""/><path fill="white" stroke="black" paint-order="fill stroke markers" d=" M 32.67040659999999 599.2569330605 L 32.67040659999999 618.8591770205 L 79.34081319999999 618.8591770205 L 89.14193517999999 609.0580550405 L 89.14193517999999 599.2569330605 L 32.67040659999999 599.2569330605" stroke-miterlimit="10" stroke-width="2.3336004714285714" stroke-dasharray=""/><text fill="black" stroke="none" font-family="sans-serif" font-size="8.8pt" font-style="normal" font-weight="bold" text-decoration="normal" x="49.005609899999996" y="612.3250957005" text-anchor="start" dominant-baseline="alphabetic">alt</text><text fill="black" stroke="none" font-family="sans-serif" font-size="8.8pt" font-style="normal" font-weight="bold" text-decoration="normal" x="105.47713848" y="612.3250957005" text-anchor="start" dominant-baseline="alphabetic">[Valid data]</text><g><path fill="none" stroke="black" paint-order="fill stroke markers" d=" M 32.67040659999999 705.4357545105 L 385.24777843333334 705.4357545105" stroke-miterlimit="10" stroke-width="2.3336004714285714" stroke-dasharray="4.083800825"/></g><g/><text fill="black" stroke="none" font-family="sans-serif" font-size="8.8pt" font-style="normal" font-weight="bold" text-decoration="normal" x="105.47713848" y="718.5039171505" text-anchor="start" dominant-baseline="alphabetic">[Existing user]</text></g><g/><g><g/><path fill="none" stroke="black" paint-order="fill stroke markers" d=" M 40.838008249999994 1453.5880656505003 L 929.20687095 1453.5880656505003 L 929.20687095 2154.3682872205004 L 40.838008249999994 2154.3682872205004 L 40.838008249999994 1453.5880656505003 Z" stroke-miterlimit="10" stroke-width="2.3336004714285714" stroke-dasharray=""/><path fill="white" stroke="black" paint-order="fill stroke markers" d=" M 40.838008249999994 1453.5880656505003 L 40.838008249999994 1473.1903096105002 L 87.50841485 1473.1903096105002 L 97.30953683 1463.3891876305004 L 97.30953683 1453.5880656505003 L 40.838008249999994 1453.5880656505003" stroke-miterlimit="10" stroke-width="2.3336004714285714" stroke-dasharray=""/><text fill="black" stroke="none" font-family="sans-serif" font-size="8.8pt" font-style="normal" font-weight="bold" text-decoration="normal" x="57.17321154999999" y="1466.6562282905002" text-anchor="start" dominant-baseline="alphabetic">alt</text><text fill="black" stroke="none" font-family="sans-serif" font-size="8.8pt" font-style="normal" font-weight="bold" text-decoration="normal" x="113.64474013" y="1466.6562282905002" text-anchor="start" dominant-baseline="alphabetic">[Data are correct, belonging confirmed]</text><g><path fill="none" stroke="black" paint-order="fill stroke markers" d=" M 40.838008249999994 1713.3177981205004 L 929.20687095 1713.3177981205004" stroke-miterlimit="10" stroke-width="2.3336004714285714" stroke-dasharray="4.083800825"/></g><g/><text fill="black" stroke="none" font-family="sans-serif" font-size="8.8pt" font-style="normal" font-weight="bold" text-decoration="normal" x="113.64474013" y="1726.3859607605002" text-anchor="start" dominant-baseline="alphabetic">[Incorrect data]</text><g><path fill="none" stroke="black" paint-order="fill stroke markers" d=" M 40.838008249999994 1910.9737580505005 L 929.20687095 1910.9737580505005" stroke-miterlimit="10" stroke-width="2.3336004714285714" stroke-dasharray="4.083800825"/></g><g/><text fill="black" stroke="none" font-family="sans-serif" font-size="8.8pt" font-style="normal" font-weight="bold" text-decoration="normal" x="113.64474013" y="1924.0419206905003" text-anchor="start" dominant-baseline="alphabetic">[Belonging not confirmed]</text></g><g/><g/></g><g/><g/><g/><g/></g></svg>