<svg version="1.1" xmlns="http://www.w3.org/2000/svg" xmlns:xlink="http://www.w3.org/1999/xlink" width="778" height="1860"><defs/><g><g/><g/><g/><g/><g/><g/><g/><g/><g/><g/><g/><g/><g/><g/><g/><g/><g/><g/><g/><g/><g/><g/><g/><g/><g/><g/><g/><g/><g/><g/><g><rect fill="white" stroke="none" x="0" y="0" width="778" height="1860"/></g><g><text fill="black" stroke="none" font-family="sans-serif" font-size="16.5pt" font-style="normal" font-weight="normal" text-decoration="normal" x="320.0700916886393" y="24.50280495" text-anchor="start" dominant-baseline="alphabetic">Sign up (user)</text></g><g/><g><path fill="none" stroke="black" paint-order="fill stroke markers" d=" M 98.01121979999999 128.80307802049998 L 98.01121979999999 1860.3346278205001" stroke-miterlimit="10" stroke-width="1.3612669416666667" stroke-dasharray="12.565541,5.445067766666667"/><path fill="none" stroke="black" paint-order="fill stroke markers" d=" M 328.0745668833333 128.80307802049998 L 328.0745668833333 1860.3346278205001" stroke-miterlimit="10" stroke-width="1.3612669416666667" stroke-dasharray="12.565541,5.445067766666667"/><path fill="none" stroke="black" paint-order="fill stroke markers" d=" M 592.9703123166667 128.80307802049998 L 592.9703123166667 1860.3346278205001" stroke-miterlimit="10" stroke-width="1.3612669416666667" stroke-dasharray="12.565541,5.445067766666667"/></g><g><g><path fill="white" stroke="black" paint-order="fill stroke markers" d=" M 107.322285681 59.70516806150002 A 9.311065881 9.311065881 0 1 1 107.32228102546743 59.69585699717086 M 98.01121979999999 69.01623394250002 L 98.01121979999999 88.94518196850002 M 86.24987342399999 76.20372339450002 L 109.772566176 76.20372339450002 M 98.01121979999999 88.94518196850002 L 86.24987342399999 107.56731373050002 M 98.01121979999999 88.94518196850002 L 109.772566176 107.56731373050002" stroke-miterlimit="10" stroke-width="2.7769845610000004" stroke-dasharray=""/></g><g><g/><text fill="black" stroke="none" font-family="sans-serif" font-size="11pt" font-style="normal" font-weight="normal" text-decoration="normal" x="78.01121979999999" y="123.90251703050001" text-anchor="start" dominant-baseline="alphabetic">Visitor</text></g><path fill="none" stroke="none"/><g><path fill="white" stroke="black" paint-order="fill stroke markers" d=" M 271.8508713028333 84.69802911050002 L 384.29826246383334 84.69802911050002 L 384.29826246383334 128.8030780205 L 271.8508713028333 128.8030780205 L 271.8508713028333 84.69802911050002 Z" stroke-miterlimit="10" stroke-width="2.613632528" stroke-dasharray=""/></g><g><g/><text fill="black" stroke="none" font-family="sans-serif" font-size="11pt" font-style="normal" font-weight="normal" text-decoration="normal" x="289.5745668833333" y="112.46787472049999" text-anchor="start" dominant-baseline="alphabetic">SafeStreets</text></g><g><path fill="white" stroke="black" paint-order="fill stroke markers" d=" M 602.2813781976666 59.70516806150002 A 9.311065881 9.311065881 0 1 1 602.2813735421341 59.69585699717086 M 592.9703123166667 69.01623394250002 L 592.9703123166667 88.94518196850002 M 581.2089659406666 76.20372339450002 L 604.7316586926667 76.20372339450002 M 592.9703123166667 88.94518196850002 L 581.2089659406666 107.56731373050002 M 592.9703123166667 88.94518196850002 L 604.7316586926667 107.56731373050002" stroke-miterlimit="10" stroke-width="2.7769845610000004" stroke-dasharray=""/></g><g><g/><text fill="black" stroke="none" font-family="sans-serif" font-size="11pt" font-style="normal" font-weight="normal" text-decoration="normal" x="549.9703123166667" y="123.90251703050001" text-anchor="start" dominant-baseline="alphabetic">Administrator</text></g></g><g><path fill="white" stroke="black" paint-order="fill stroke markers" d=" M 89.84361815 136.97067967049998 L 106.17882144999999 136.97067967049998 L 106.17882144999999 836.1173809105002 L 89.84361815 836.1173809105002 L 89.84361815 136.97067967049998" stroke-miterlimit="10" stroke-width="1.3612669416666667" stroke-dasharray=""/><path fill="white" stroke="black" paint-order="fill stroke markers" d=" M 319.9069652333333 182.70924891049998 L 336.2421685333333 182.70924891049998 L 336.2421685333333 228.44781815049998 L 319.9069652333333 228.44781815049998 L 319.9069652333333 182.70924891049998" stroke-miterlimit="10" stroke-width="1.3612669416666667" stroke-dasharray=""/><path fill="white" stroke="black" paint-order="fill stroke markers" d=" M 319.9069652333333 274.1863873905 L 336.2421685333333 274.1863873905 L 336.2421685333333 319.9249566305 L 319.9069652333333 319.9249566305 L 319.9069652333333 274.1863873905" stroke-miterlimit="10" stroke-width="1.3612669416666667" stroke-dasharray=""/><path fill="white" stroke="black" paint-order="fill stroke markers" d=" M 98.01121979999999 426.1037780805 L 114.34642309999998 426.1037780805 L 114.34642309999998 466.9417863305 L 98.01121979999999 466.9417863305 L 98.01121979999999 426.1037780805" stroke-miterlimit="10" stroke-width="1.3612669416666667" stroke-dasharray=""/><path fill="white" stroke="black" paint-order="fill stroke markers" d=" M 319.9069652333333 512.6803555705 L 336.2421685333333 512.6803555705 L 336.2421685333333 680.9329495605001 L 319.9069652333333 680.9329495605001 L 319.9069652333333 512.6803555705" stroke-miterlimit="10" stroke-width="1.3612669416666667" stroke-dasharray=""/><path fill="white" stroke="black" paint-order="fill stroke markers" d=" M 319.9069652333333 725.0379984705 L 336.2421685333333 725.0379984705 L 336.2421685333333 787.1117710105001 L 319.9069652333333 787.1117710105001 L 319.9069652333333 725.0379984705" stroke-miterlimit="10" stroke-width="1.3612669416666667" stroke-dasharray=""/><path fill="white" stroke="black" paint-order="fill stroke markers" d=" M 584.8027106666666 836.1173809105002 L 601.1379139666667 836.1173809105002 L 601.1379139666667 1803.1614162705002 L 584.8027106666666 1803.1614162705002 L 584.8027106666666 836.1173809105002" stroke-miterlimit="10" stroke-width="1.3612669416666667" stroke-dasharray=""/><path fill="white" stroke="black" paint-order="fill stroke markers" d=" M 319.9069652333333 881.8559501505001 L 336.2421685333333 881.8559501505001 L 336.2421685333333 927.5945193905001 L 319.9069652333333 927.5945193905001 L 319.9069652333333 881.8559501505001" stroke-miterlimit="10" stroke-width="1.3612669416666667" stroke-dasharray=""/><path fill="white" stroke="black" paint-order="fill stroke markers" d=" M 319.9069652333333 973.3330886305 L 336.2421685333333 973.3330886305 L 336.2421685333333 1019.0716578705 L 319.9069652333333 1019.0716578705 L 319.9069652333333 973.3330886305" stroke-miterlimit="10" stroke-width="1.3612669416666667" stroke-dasharray=""/><path fill="white" stroke="black" paint-order="fill stroke markers" d=" M 319.9069652333333 1064.8102271105 L 336.2421685333333 1064.8102271105 L 336.2421685333333 1110.5487963505 L 319.9069652333333 1110.5487963505 L 319.9069652333333 1064.8102271105" stroke-miterlimit="10" stroke-width="1.3612669416666667" stroke-dasharray=""/><path fill="white" stroke="black" paint-order="fill stroke markers" d=" M 319.9069652333333 1156.2873655905 L 336.2421685333333 1156.2873655905 L 336.2421685333333 1202.0259348305 L 319.9069652333333 1202.0259348305 L 319.9069652333333 1156.2873655905" stroke-miterlimit="10" stroke-width="1.3612669416666667" stroke-dasharray=""/><path fill="white" stroke="black" paint-order="fill stroke markers" d=" M 592.9703123166667 1280.4349106705001 L 609.3055156166668 1280.4349106705001 L 609.3055156166668 1321.2729189205002 L 592.9703123166667 1321.2729189205002 L 592.9703123166667 1280.4349106705001" stroke-miterlimit="10" stroke-width="1.3612669416666667" stroke-dasharray=""/><path fill="white" stroke="black" paint-order="fill stroke markers" d=" M 319.9069652333333 1411.1165370705003 L 336.2421685333333 1411.1165370705003 L 336.2421685333333 1581.0026513905002 L 319.9069652333333 1581.0026513905002 L 319.9069652333333 1411.1165370705003" stroke-miterlimit="10" stroke-width="1.3612669416666667" stroke-dasharray=""/><path fill="white" stroke="black" paint-order="fill stroke markers" d=" M 319.9069652333333 1670.8462695405003 L 336.2421685333333 1670.8462695405003 L 336.2421685333333 1778.6586113205003 L 319.9069652333333 1778.6586113205003 L 319.9069652333333 1670.8462695405003" stroke-miterlimit="10" stroke-width="1.3612669416666667" stroke-dasharray=""/><g><g><rect fill="white" stroke="none" x="156.09261284666667" y="161.4734846205" width="113.90056099" height="21.23576429"/></g><text fill="black" stroke="none" font-family="sans-serif" font-size="11pt" font-style="normal" font-weight="normal" text-decoration="normal" x="158.54289334166666" y="176.17516759049997" text-anchor="start" dominant-baseline="alphabetic">Open application</text></g><g><path fill="none" stroke="black" paint-order="fill stroke markers" d=" M 106.17882144999999 182.70924891049998 L 317.18443135 182.70924891049998" stroke-miterlimit="10" stroke-width="1.3612669416666667" stroke-dasharray=""/><g transform="translate(319.9069652333333,182.70924891049998) translate(-319.9069652333333,-182.70924891049998)"><path fill="black" stroke="none" paint-order="stroke fill markers" d=" M 306.29429581666665 175.90291420216664 L 319.9069652333333 182.70924891049998 L 306.29429581666665 189.51558361883332 Z"/></g></g><g><g><rect fill="white" stroke="none" x="147.59261284666667" y="207.2120538605" width="130.90056099" height="21.23576429"/></g><text fill="black" stroke="none" font-family="sans-serif" font-size="11pt" font-style="normal" font-weight="normal" text-decoration="normal" x="150.04289334166666" y="221.91373683049997" text-anchor="start" dominant-baseline="alphabetic">Prompts login page</text></g><g><path fill="none" stroke="black" paint-order="fill stroke markers" d=" M 319.9069652333333 228.44781815049998 L 108.90135533333333 228.44781815049998" stroke-miterlimit="10" stroke-width="1.3612669416666667" stroke-dasharray="6.53408132"/><g transform="translate(106.17882144999999,228.44781815049998) translate(-106.17882144999999,-228.44781815049998)"><path fill="black" stroke="none" paint-order="stroke fill markers" d=" M 119.79149086666665 221.64148344216665 L 106.17882144999999 228.44781815049998 L 119.79149086666665 235.25415285883332 Z"/></g></g><g><g><rect fill="white" stroke="none" x="163.09261284666667" y="252.9506231005" width="99.90056099" height="21.23576429"/></g><text fill="black" stroke="none" font-family="sans-serif" font-size="11pt" font-style="normal" font-weight="normal" text-decoration="normal" x="165.54289334166666" y="267.6523060705" text-anchor="start" dominant-baseline="alphabetic">Click "Sign up"</text></g><g><path fill="none" stroke="black" paint-order="fill stroke markers" d=" M 106.17882144999999 274.1863873905 L 317.18443135 274.1863873905" stroke-miterlimit="10" stroke-width="1.3612669416666667" stroke-dasharray=""/><g transform="translate(319.9069652333333,274.1863873905) translate(-319.9069652333333,-274.1863873905)"><path fill="black" stroke="none" paint-order="stroke fill markers" d=" M 306.29429581666665 267.38005268216665 L 319.9069652333333 274.1863873905 L 306.29429581666665 280.9927220988333 Z"/></g></g><g><g><rect fill="white" stroke="none" x="138.09261284666667" y="298.6891923405" width="149.90056099" height="21.23576429"/></g><text fill="black" stroke="none" font-family="sans-serif" font-size="11pt" font-style="normal" font-weight="normal" text-decoration="normal" x="140.54289334166666" y="313.39087531049995" text-anchor="start" dominant-baseline="alphabetic">Prompts Sign up page</text></g><g><path fill="none" stroke="black" paint-order="fill stroke markers" d=" M 319.9069652333333 319.9249566305 L 108.90135533333333 319.9249566305" stroke-miterlimit="10" stroke-width="1.3612669416666667" stroke-dasharray="6.53408132"/><g transform="translate(106.17882144999999,319.9249566305) translate(-106.17882144999999,-319.9249566305)"><path fill="black" stroke="none" paint-order="stroke fill markers" d=" M 119.79149086666665 313.11862192216665 L 106.17882144999999 319.9249566305 L 119.79149086666665 326.73129133883333 Z"/></g></g><g><g><rect fill="white" stroke="none" x="133.67641367166667" y="388.53281049049997" width="56.90056099" height="21.23576429"/></g><text fill="black" stroke="none" font-family="sans-serif" font-size="11pt" font-style="normal" font-weight="normal" text-decoration="normal" x="136.12669416666665" y="403.23449346049995" text-anchor="start" dominant-baseline="alphabetic">Fill form</text></g><g><path fill="none" stroke="black" paint-order="fill stroke markers" d=" M 106.17882144999999 409.7685747805 L 179.6872363 409.7685747805 L 179.6872363 426.1037780805 L 117.06895698333332 426.1037780805" stroke-miterlimit="10" stroke-width="1.3612669416666667" stroke-dasharray=""/><g transform="translate(114.3464231,426.1037780805) translate(-114.3464231,-426.1037780805)"><path fill="black" stroke="none" paint-order="stroke fill markers" d=" M 127.95909251666666 419.29744337216664 L 114.3464231 426.1037780805 L 127.95909251666666 432.9101127888333 Z"/></g></g><g><g><rect fill="white" stroke="none" x="140.09261284666667" y="491.44459128049994" width="145.90056099" height="21.23576429"/></g><text fill="black" stroke="none" font-family="sans-serif" font-size="11pt" font-style="normal" font-weight="normal" text-decoration="normal" x="142.54289334166666" y="506.1462742504999" text-anchor="start" dominant-baseline="alphabetic">Click "Sign Up" button</text></g><g><path fill="none" stroke="black" paint-order="fill stroke markers" d=" M 106.17882144999999 512.6803555705 L 317.18443135 512.6803555705" stroke-miterlimit="10" stroke-width="1.3612669416666667" stroke-dasharray=""/><g transform="translate(319.9069652333333,512.6803555705) translate(-319.9069652333333,-512.6803555705)"><path fill="black" stroke="none" paint-order="stroke fill markers" d=" M 306.29429581666665 505.8740208621666 L 319.9069652333333 512.6803555705 L 306.29429581666665 519.4866902788333 Z"/></g></g><g><g><rect fill="white" stroke="none" x="355.57215910499997" y="537.1831605205" width="198.90056099" height="21.23576429"/></g><text fill="black" stroke="none" font-family="sans-serif" font-size="11pt" font-style="normal" font-weight="normal" text-decoration="normal" x="358.0224396" y="551.8848434905" text-anchor="start" dominant-baseline="alphabetic">Save data for admin validation</text></g><g><path fill="none" stroke="black" paint-order="fill stroke markers" d=" M 336.2421685333333 558.4189248105 L 401.5829817333333 558.4189248105 L 401.5829817333333 574.7541281105 L 338.9647024166666 574.7541281105" stroke-miterlimit="10" stroke-width="1.3612669416666667" stroke-dasharray=""/><g transform="translate(336.2421685333333,574.7541281105) translate(-336.2421685333333,-574.7541281105)"><path fill="black" stroke="none" paint-order="stroke fill markers" d=" M 349.85483795 567.9477934021667 L 336.2421685333333 574.7541281105 L 349.85483795 581.5604628188333 Z"/></g></g><g><g><rect fill="white" stroke="none" x="148.59261284666667" y="643.3619819705001" width="114.90056099" height="21.23576429"/></g><g><rect fill="white" stroke="none" x="148.59261284666667" y="659.6971852705001" width="128.90056099" height="21.23576429"/></g><text fill="black" stroke="none" font-family="sans-serif" font-size="11pt" font-style="normal" font-weight="normal" text-decoration="normal" x="151.04289334166666" y="658.0636649405001" text-anchor="start" dominant-baseline="alphabetic">[complete = true]</text><text fill="black" stroke="none" font-family="sans-serif" font-size="11pt" font-style="normal" font-weight="normal" text-decoration="normal" x="151.04289334166666" y="674.3988682405001" text-anchor="start" dominant-baseline="alphabetic">Sign up successful</text></g><g><path fill="none" stroke="black" paint-order="fill stroke markers" d=" M 319.9069652333333 680.9329495605001 L 108.90135533333333 680.9329495605001" stroke-miterlimit="10" stroke-width="1.3612669416666667" stroke-dasharray="6.53408132"/><g transform="translate(106.17882144999999,680.9329495605001) translate(-106.17882144999999,-680.9329495605001)"><path fill="black" stroke="none" paint-order="stroke fill markers" d=" M 119.79149086666665 674.1266148521668 L 106.17882144999999 680.9329495605001 L 119.79149086666665 687.7392842688334 Z"/></g></g><g><g><rect fill="white" stroke="none" x="135.09261284666667" y="749.5408034205001" width="120.90056099" height="21.23576429"/></g><g><rect fill="white" stroke="none" x="135.09261284666667" y="765.8760067205001" width="155.90056099" height="21.23576429"/></g><text fill="black" stroke="none" font-family="sans-serif" font-size="11pt" font-style="normal" font-weight="normal" text-decoration="normal" x="137.54289334166666" y="764.2424863905001" text-anchor="start" dominant-baseline="alphabetic">[complete = false]</text><text fill="black" stroke="none" font-family="sans-serif" font-size="11pt" font-style="normal" font-weight="normal" text-decoration="normal" x="137.54289334166666" y="780.5776896905" text-anchor="start" dominant-baseline="alphabetic">User already registered</text></g><g><path fill="none" stroke="black" paint-order="fill stroke markers" d=" M 319.9069652333333 787.1117710105001 L 108.90135533333333 787.1117710105001" stroke-miterlimit="10" stroke-width="1.3612669416666667" stroke-dasharray="6.53408132"/><g transform="translate(106.17882144999999,787.1117710105001) translate(-106.17882144999999,-787.1117710105001)"><path fill="black" stroke="none" paint-order="stroke fill markers" d=" M 119.79149086666665 780.3054363021668 L 106.17882144999999 787.1117710105001 L 119.79149086666665 793.9181057188334 Z"/></g></g><g><g><rect fill="white" stroke="none" x="413.07215910499997" y="860.6201858605001" width="94.90056099" height="21.23576429"/></g><text fill="black" stroke="none" font-family="sans-serif" font-size="11pt" font-style="normal" font-weight="normal" text-decoration="normal" x="415.5224396" y="875.3218688305001" text-anchor="start" dominant-baseline="alphabetic">Open website</text></g><g><path fill="none" stroke="black" paint-order="fill stroke markers" d=" M 584.8027106666666 881.8559501505001 L 338.9647024166666 881.8559501505001" stroke-miterlimit="10" stroke-width="1.3612669416666667" stroke-dasharray=""/><g transform="translate(336.2421685333333,881.8559501505001) translate(-336.2421685333333,-881.8559501505001)"><path fill="black" stroke="none" paint-order="stroke fill markers" d=" M 349.85483795 875.0496154421668 L 336.2421685333333 881.8559501505001 L 349.85483795 888.6622848588335 Z"/></g></g><g><g><rect fill="white" stroke="none" x="395.07215910499997" y="906.3587551005" width="130.90056099" height="21.23576429"/></g><text fill="black" stroke="none" font-family="sans-serif" font-size="11pt" font-style="normal" font-weight="normal" text-decoration="normal" x="397.5224396" y="921.0604380705" text-anchor="start" dominant-baseline="alphabetic">Prompts login page</text></g><g><path fill="none" stroke="black" paint-order="fill stroke markers" d=" M 336.2421685333333 927.5945193905001 L 582.0801767833333 927.5945193905001" stroke-miterlimit="10" stroke-width="1.3612669416666667" stroke-dasharray="6.53408132"/><g transform="translate(584.8027106666666,927.5945193905001) translate(-584.8027106666666,-927.5945193905001)"><path fill="black" stroke="none" paint-order="stroke fill markers" d=" M 571.1900412499999 920.7881846821667 L 584.8027106666666 927.5945193905001 L 571.1900412499999 934.4008540988334 Z"/></g></g><g><g><rect fill="white" stroke="none" x="424.07215910499997" y="952.0973243405" width="72.90056099" height="21.23576429"/></g><text fill="black" stroke="none" font-family="sans-serif" font-size="11pt" font-style="normal" font-weight="normal" text-decoration="normal" x="426.5224396" y="966.7990073105" text-anchor="start" dominant-baseline="alphabetic">Make login</text></g><g><path fill="none" stroke="black" paint-order="fill stroke markers" d=" M 584.8027106666666 973.3330886305 L 338.9647024166666 973.3330886305" stroke-miterlimit="10" stroke-width="1.3612669416666667" stroke-dasharray=""/><g transform="translate(336.2421685333333,973.3330886305) translate(-336.2421685333333,-973.3330886305)"><path fill="black" stroke="none" paint-order="stroke fill markers" d=" M 349.85483795 966.5267539221667 L 336.2421685333333 973.3330886305 L 349.85483795 980.1394233388334 Z"/></g></g><g><g><rect fill="white" stroke="none" x="394.07215910499997" y="997.8358935804999" width="132.90056099" height="21.23576429"/></g><text fill="black" stroke="none" font-family="sans-serif" font-size="11pt" font-style="normal" font-weight="normal" text-decoration="normal" x="396.5224396" y="1012.5375765504999" text-anchor="start" dominant-baseline="alphabetic">Prompts main page</text></g><g><path fill="none" stroke="black" paint-order="fill stroke markers" d=" M 336.2421685333333 1019.0716578705 L 582.0801767833333 1019.0716578705" stroke-miterlimit="10" stroke-width="1.3612669416666667" stroke-dasharray="6.53408132"/><g transform="translate(584.8027106666666,1019.0716578705) translate(-584.8027106666666,-1019.0716578705)"><path fill="black" stroke="none" paint-order="stroke fill markers" d=" M 571.1900412499999 1012.2653231621666 L 584.8027106666666 1019.0716578705 L 571.1900412499999 1025.8779925788333 Z"/></g></g><g><g><rect fill="white" stroke="none" x="358.57215910499997" y="1043.5744628205" width="203.90056099" height="21.23576429"/></g><text fill="black" stroke="none" font-family="sans-serif" font-size="11pt" font-style="normal" font-weight="normal" text-decoration="normal" x="361.0224396" y="1058.2761457905" text-anchor="start" dominant-baseline="alphabetic">Click "Accounts control" button</text></g><g><path fill="none" stroke="black" paint-order="fill stroke markers" d=" M 584.8027106666666 1064.8102271105 L 338.9647024166666 1064.8102271105" stroke-miterlimit="10" stroke-width="1.3612669416666667" stroke-dasharray=""/><g transform="translate(336.2421685333333,1064.8102271105) translate(-336.2421685333333,-1064.8102271105)"><path fill="black" stroke="none" paint-order="stroke fill markers" d=" M 349.85483795 1058.0038924021667 L 336.2421685333333 1064.8102271105 L 349.85483795 1071.6165618188331 Z"/></g></g><g><g><rect fill="white" stroke="none" x="355.57215910499997" y="1089.3130320605" width="209.90056099" height="21.23576429"/></g><text fill="black" stroke="none" font-family="sans-serif" font-size="11pt" font-style="normal" font-weight="normal" text-decoration="normal" x="358.0224396" y="1104.0147150305002" text-anchor="start" dominant-baseline="alphabetic">Prompts Accounts control page</text></g><g><path fill="none" stroke="black" paint-order="fill stroke markers" d=" M 336.2421685333333 1110.5487963505 L 582.0801767833333 1110.5487963505" stroke-miterlimit="10" stroke-width="1.3612669416666667" stroke-dasharray="6.53408132"/><g transform="translate(584.8027106666666,1110.5487963505) translate(-584.8027106666666,-1110.5487963505)"><path fill="black" stroke="none" paint-order="stroke fill markers" d=" M 571.1900412499999 1103.7424616421667 L 584.8027106666666 1110.5487963505 L 571.1900412499999 1117.3551310588332 Z"/></g></g><g><g><rect fill="white" stroke="none" x="384.57215910499997" y="1135.0516013005001" width="151.90056099" height="21.23576429"/></g><text fill="black" stroke="none" font-family="sans-serif" font-size="11pt" font-style="normal" font-weight="normal" text-decoration="normal" x="387.0224396" y="1149.7532842705002" text-anchor="start" dominant-baseline="alphabetic">Clicks on new account</text></g><g><path fill="none" stroke="black" paint-order="fill stroke markers" d=" M 584.8027106666666 1156.2873655905 L 338.9647024166666 1156.2873655905" stroke-miterlimit="10" stroke-width="1.3612669416666667" stroke-dasharray=""/><g transform="translate(336.2421685333333,1156.2873655905) translate(-336.2421685333333,-1156.2873655905)"><path fill="black" stroke="none" paint-order="stroke fill markers" d=" M 349.85483795 1149.4810308821668 L 336.2421685333333 1156.2873655905 L 349.85483795 1163.0937002988333 Z"/></g></g><g><g><rect fill="white" stroke="none" x="368.57215910499997" y="1180.7901705405002" width="183.90056099" height="21.23576429"/></g><text fill="black" stroke="none" font-family="sans-serif" font-size="11pt" font-style="normal" font-weight="normal" text-decoration="normal" x="371.0224396" y="1195.4918535105003" text-anchor="start" dominant-baseline="alphabetic">Prompts new account page</text></g><g><path fill="none" stroke="black" paint-order="fill stroke markers" d=" M 336.2421685333333 1202.0259348305 L 582.0801767833333 1202.0259348305" stroke-miterlimit="10" stroke-width="1.3612669416666667" stroke-dasharray="6.53408132"/><g transform="translate(584.8027106666666,1202.0259348305) translate(-584.8027106666666,-1202.0259348305)"><path fill="black" stroke="none" paint-order="stroke fill markers" d=" M 571.1900412499999 1195.2196001221669 L 584.8027106666666 1202.0259348305 L 571.1900412499999 1208.8322695388333 Z"/></g></g><g><g><rect fill="white" stroke="none" x="628.6355061883334" y="1226.5287397805" width="143.90056099" height="21.23576429"/></g><g><rect fill="white" stroke="none" x="628.6355061883334" y="1242.8639430805001" width="82.90056099" height="21.23576429"/></g><text fill="black" stroke="none" font-family="sans-serif" font-size="11pt" font-style="normal" font-weight="normal" text-decoration="normal" x="631.0857866833334" y="1241.2304227505" text-anchor="start" dominant-baseline="alphabetic">Check for information</text><text fill="black" stroke="none" font-family="sans-serif" font-size="11pt" font-style="normal" font-weight="normal" text-decoration="normal" x="631.0857866833334" y="1257.5656260505002" text-anchor="start" dominant-baseline="alphabetic">correctness</text></g><g><path fill="none" stroke="black" paint-order="fill stroke markers" d=" M 601.1379139666667 1264.0997073705 L 674.6463288166666 1264.0997073705 L 674.6463288166666 1280.4349106705001 L 612.0280495 1280.4349106705001" stroke-miterlimit="10" stroke-width="1.3612669416666667" stroke-dasharray=""/><g transform="translate(609.3055156166666,1280.4349106705001) translate(-609.3055156166666,-1280.4349106705001)"><path fill="black" stroke="none" paint-order="stroke fill markers" d=" M 622.9181850333333 1273.628575962167 L 609.3055156166666 1280.4349106705001 L 622.9181850333333 1287.2412453788334 Z"/></g></g><g><g><rect fill="white" stroke="none" x="398.57215910499997" y="1389.8807727805004" width="123.90056099" height="21.23576429"/></g><text fill="black" stroke="none" font-family="sans-serif" font-size="11pt" font-style="normal" font-weight="normal" text-decoration="normal" x="401.0224396" y="1404.5824557505005" text-anchor="start" dominant-baseline="alphabetic">Allow user access</text></g><g><path fill="none" stroke="black" paint-order="fill stroke markers" d=" M 584.8027106666666 1411.1165370705003 L 338.9647024166666 1411.1165370705003" stroke-miterlimit="10" stroke-width="1.3612669416666667" stroke-dasharray=""/><g transform="translate(336.2421685333333,1411.1165370705003) translate(-336.2421685333333,-1411.1165370705003)"><path fill="black" stroke="none" paint-order="stroke fill markers" d=" M 349.85483795 1404.310202362167 L 336.2421685333333 1411.1165370705003 L 349.85483795 1417.9228717788335 Z"/></g></g><g><g><rect fill="white" stroke="none" x="355.57215910499997" y="1435.6193420205002" width="69.90056099" height="21.23576429"/></g><text fill="black" stroke="none" font-family="sans-serif" font-size="11pt" font-style="normal" font-weight="normal" text-decoration="normal" x="358.0224396" y="1450.3210249905003" text-anchor="start" dominant-baseline="alphabetic">Save data</text></g><g><path fill="none" stroke="black" paint-order="fill stroke markers" d=" M 336.2421685333333 1456.8551063105 L 401.5829817333333 1456.8551063105 L 401.5829817333333 1473.1903096105002 L 338.9647024166666 1473.1903096105002" stroke-miterlimit="10" stroke-width="1.3612669416666667" stroke-dasharray=""/><g transform="translate(336.2421685333333,1473.1903096105002) translate(-336.2421685333333,-1473.1903096105002)"><path fill="black" stroke="none" paint-order="stroke fill markers" d=" M 349.85483795 1466.383974902167 L 336.2421685333333 1473.1903096105002 L 349.85483795 1479.9966443188334 Z"/></g></g><g><g><rect fill="white" stroke="none" x="125.50881202166666" y="1497.6931145605001" width="166.90056099" height="21.23576429"/></g><g><rect fill="white" stroke="none" x="125.50881202166666" y="1514.0283178605002" width="44.90056099" height="21.23576429"/></g><text fill="black" stroke="none" font-family="sans-serif" font-size="11pt" font-style="normal" font-weight="normal" text-decoration="normal" x="127.95909251666666" y="1512.3947975305002" text-anchor="start" dominant-baseline="alphabetic">Registration confirmation</text><text fill="black" stroke="none" font-family="sans-serif" font-size="11pt" font-style="normal" font-weight="normal" text-decoration="normal" x="127.95909251666666" y="1528.7300008305003" text-anchor="start" dominant-baseline="alphabetic">e-mail</text></g><g><path fill="none" stroke="black" paint-order="fill stroke markers" d=" M 319.9069652333333 1535.2640821505001 L 100.73375368333333 1535.2640821505001" stroke-miterlimit="10" stroke-width="1.3612669416666667" stroke-dasharray=""/><g transform="translate(98.01121979999999,1535.2640821505001) translate(-98.01121979999999,-1535.2640821505001)"><path fill="black" stroke="none" paint-order="stroke fill markers" d=" M 111.62388921666665 1528.457747442167 L 98.01121979999999 1535.2640821505001 L 111.62388921666665 1542.0704168588334 Z"/></g></g><g><g><rect fill="white" stroke="none" x="394.57215910499997" y="1559.7668871005003" width="131.90056099" height="21.23576429"/></g><text fill="black" stroke="none" font-family="sans-serif" font-size="11pt" font-style="normal" font-weight="normal" text-decoration="normal" x="397.0224396" y="1574.4685700705004" text-anchor="start" dominant-baseline="alphabetic">Process completed</text></g><g><path fill="none" stroke="black" paint-order="fill stroke markers" d=" M 336.2421685333333 1581.0026513905002 L 582.0801767833333 1581.0026513905002" stroke-miterlimit="10" stroke-width="1.3612669416666667" stroke-dasharray="6.53408132"/><g transform="translate(584.8027106666666,1581.0026513905002) translate(-584.8027106666666,-1581.0026513905002)"><path fill="black" stroke="none" paint-order="stroke fill markers" d=" M 571.1900412499999 1574.196316682167 L 584.8027106666666 1581.0026513905002 L 571.1900412499999 1587.8089860988334 Z"/></g></g><g><g><rect fill="white" stroke="none" x="398.57215910499997" y="1649.6105052505004" width="123.90056099" height="21.23576429"/></g><text fill="black" stroke="none" font-family="sans-serif" font-size="11pt" font-style="normal" font-weight="normal" text-decoration="normal" x="401.0224396" y="1664.3121882205005" text-anchor="start" dominant-baseline="alphabetic">Deny user access</text></g><g><path fill="none" stroke="black" paint-order="fill stroke markers" d=" M 584.8027106666666 1670.8462695405003 L 338.9647024166666 1670.8462695405003" stroke-miterlimit="10" stroke-width="1.3612669416666667" stroke-dasharray=""/><g transform="translate(336.2421685333333,1670.8462695405003) translate(-336.2421685333333,-1670.8462695405003)"><path fill="black" stroke="none" paint-order="stroke fill markers" d=" M 349.85483795 1664.039934832167 L 336.2421685333333 1670.8462695405003 L 349.85483795 1677.6526042488335 Z"/></g></g><g><g><rect fill="white" stroke="none" x="150.00881202166667" y="1695.3490744905002" width="117.90056099" height="21.23576429"/></g><g><rect fill="white" stroke="none" x="150.00881202166667" y="1711.6842777905003" width="73.90056099" height="21.23576429"/></g><text fill="black" stroke="none" font-family="sans-serif" font-size="11pt" font-style="normal" font-weight="normal" text-decoration="normal" x="152.45909251666666" y="1710.0507574605003" text-anchor="start" dominant-baseline="alphabetic">Registration error</text><text fill="black" stroke="none" font-family="sans-serif" font-size="11pt" font-style="normal" font-weight="normal" text-decoration="normal" x="152.45909251666666" y="1726.3859607605004" text-anchor="start" dominant-baseline="alphabetic">notification</text></g><g><path fill="none" stroke="black" paint-order="fill stroke markers" d=" M 319.9069652333333 1732.9200420805003 L 100.73375368333333 1732.9200420805003" stroke-miterlimit="10" stroke-width="1.3612669416666667" stroke-dasharray=""/><g transform="translate(98.01121979999999,1732.9200420805003) translate(-98.01121979999999,-1732.9200420805003)"><path fill="black" stroke="none" paint-order="stroke fill markers" d=" M 111.62388921666665 1726.113707372167 L 98.01121979999999 1732.9200420805003 L 111.62388921666665 1739.7263767888335 Z"/></g></g><g><g><rect fill="white" stroke="none" x="394.07215910499997" y="1757.4228470305004" width="132.90056099" height="21.23576429"/></g><text fill="black" stroke="none" font-family="sans-serif" font-size="11pt" font-style="normal" font-weight="normal" text-decoration="normal" x="396.5224396" y="1772.1245300005005" text-anchor="start" dominant-baseline="alphabetic">Process terminated</text></g><g><path fill="none" stroke="black" paint-order="fill stroke markers" d=" M 336.2421685333333 1778.6586113205003 L 582.0801767833333 1778.6586113205003" stroke-miterlimit="10" stroke-width="1.3612669416666667" stroke-dasharray="6.53408132"/><g transform="translate(584.8027106666666,1778.6586113205003) translate(-584.8027106666666,-1778.6586113205003)"><path fill="black" stroke="none" paint-order="stroke fill markers" d=" M 571.1900412499999 1771.852276612167 L 584.8027106666666 1778.6586113205003 L 571.1900412499999 1785.4649460288335 Z"/></g></g><g><g/><path fill="none" stroke="black" paint-order="fill stroke markers" d=" M 16.335203299999996 344.4277615805 L 560.19004125 344.4277615805 L 560.19004125 836.1173809105002 L 16.335203299999996 836.1173809105002 L 16.335203299999996 344.4277615805 Z" stroke-miterlimit="10" stroke-width="2.3336004714285714" stroke-dasharray=""/><path fill="white" stroke="black" paint-order="fill stroke markers" d=" M 16.335203299999996 344.4277615805 L 16.335203299999996 364.0300055405 L 73.0056099 364.0300055405 L 82.80673188 354.2288835605 L 82.80673188 344.4277615805 L 16.335203299999996 344.4277615805" stroke-miterlimit="10" stroke-width="2.3336004714285714" stroke-dasharray=""/><text fill="black" stroke="none" font-family="sans-serif" font-size="8.8pt" font-style="normal" font-weight="bold" text-decoration="normal" x="32.67040659999999" y="357.4959242205" text-anchor="start" dominant-baseline="alphabetic">loop</text><text fill="black" stroke="none" font-family="sans-serif" font-size="8.8pt" font-style="normal" font-weight="bold" text-decoration="normal" x="99.14193518" y="357.4959242205" text-anchor="start" dominant-baseline="alphabetic">[complete == false]</text></g><g><g/><path fill="none" stroke="black" paint-order="fill stroke markers" d=" M 32.67040659999999 599.2569330605 L 385.24777843333334 599.2569330605 L 385.24777843333334 811.6145759605001 L 32.67040659999999 811.6145759605001 L 32.67040659999999 599.2569330605 Z" stroke-miterlimit="10" stroke-width="2.3336004714285714" stroke-dasharray=""/><path fill="white" stroke="black" paint-order="fill stroke markers" d=" M 32.67040659999999 599.2569330605 L 32.67040659999999 618.8591770205 L 79.34081319999999 618.8591770205 L 89.14193517999999 609.0580550405 L 89.14193517999999 599.2569330605 L 32.67040659999999 599.2569330605" stroke-miterlimit="10" stroke-width="2.3336004714285714" stroke-dasharray=""/><text fill="black" stroke="none" font-family="sans-serif" font-size="8.8pt" font-style="normal" font-weight="bold" text-decoration="normal" x="49.005609899999996" y="612.3250957005" text-anchor="start" dominant-baseline="alphabetic">alt</text><text fill="black" stroke="none" font-family="sans-serif" font-size="8.8pt" font-style="normal" font-weight="bold" text-decoration="normal" x="105.47713848" y="612.3250957005" text-anchor="start" dominant-baseline="alphabetic">[Valid data]</text><g><path fill="none" stroke="black" paint-order="fill stroke markers" d=" M 32.67040659999999 705.4357545105 L 385.24777843333334 705.4357545105" stroke-miterlimit="10" stroke-width="2.3336004714285714" stroke-dasharray="4.083800825"/></g><g/><text fill="black" stroke="none" font-family="sans-serif" font-size="8.8pt" font-style="normal" font-weight="bold" text-decoration="normal" x="105.47713848" y="718.5039171505" text-anchor="start" dominant-baseline="alphabetic">[Existing user]</text></g><g/><g><g/><path fill="none" stroke="black" paint-order="fill stroke markers" d=" M 40.838008249999994 1345.7757238705003 L 650.1435238666667 1345.7757238705003 L 650.1435238666667 1803.1614162705002 L 40.838008249999994 1803.1614162705002 L 40.838008249999994 1345.7757238705003 Z" stroke-miterlimit="10" stroke-width="2.3336004714285714" stroke-dasharray=""/><path fill="white" stroke="black" paint-order="fill stroke markers" d=" M 40.838008249999994 1345.7757238705003 L 40.838008249999994 1365.3779678305002 L 87.50841485 1365.3779678305002 L 97.30953683 1355.5768458505004 L 97.30953683 1345.7757238705003 L 40.838008249999994 1345.7757238705003" stroke-miterlimit="10" stroke-width="2.3336004714285714" stroke-dasharray=""/><text fill="black" stroke="none" font-family="sans-serif" font-size="8.8pt" font-style="normal" font-weight="bold" text-decoration="normal" x="57.17321154999999" y="1358.8438865105002" text-anchor="start" dominant-baseline="alphabetic">alt</text><text fill="black" stroke="none" font-family="sans-serif" font-size="8.8pt" font-style="normal" font-weight="bold" text-decoration="normal" x="113.64474013" y="1358.8438865105002" text-anchor="start" dominant-baseline="alphabetic">[Data are correct]</text><g><path fill="none" stroke="black" paint-order="fill stroke markers" d=" M 40.838008249999994 1605.5054563405004 L 650.1435238666667 1605.5054563405004" stroke-miterlimit="10" stroke-width="2.3336004714285714" stroke-dasharray="4.083800825"/></g><g/><text fill="black" stroke="none" font-family="sans-serif" font-size="8.8pt" font-style="normal" font-weight="bold" text-decoration="normal" x="113.64474013" y="1618.5736189805002" text-anchor="start" dominant-baseline="alphabetic">[Incorrect data]</text></g><g/></g><g/><g/><g/></g></svg>