<?xml version="1.0" encoding="utf-8"?>
<!-- Generator: Adobe Illustrator 16.0.0, SVG Export Plug-In . SVG Version: 6.00 Build 0)  -->
<!DOCTYPE svg PUBLIC "-//W3C//DTD SVG 1.1//EN" "http://www.w3.org/Graphics/SVG/1.1/DTD/svg11.dtd">
<svg version="1.1" id="Layer_1" xmlns="http://www.w3.org/2000/svg" xmlns:xlink="http://www.w3.org/1999/xlink" x="0px" y="0px"
	 width="691px" height="576px" viewBox="0 0 691 576" enable-background="new 0 0 691 576" xml:space="preserve">
<g>
	<rect fill="#FFFFFF" width="691" height="576"/>
</g>
<g>
	<path fill="none" stroke="#000000" stroke-width="1.3613" stroke-miterlimit="10" stroke-dasharray="12.5655,5.4451" d="
		M45.167,128.803v447.584"/>
	<path fill="none" stroke="#000000" stroke-width="1.3613" stroke-miterlimit="10" stroke-dasharray="12.5655,5.4451" d="
		M351.063,128.803v447.584"/>
	<path fill="none" stroke="#000000" stroke-width="1.3613" stroke-miterlimit="10" stroke-dasharray="12.5655,5.4451" d="
		M626.959,128.803v447.584"/>
</g>
<g>
	<g>
		<path fill="#FFFFFF" stroke="#000000" stroke-width="2.777" stroke-miterlimit="10" d="M54.479,59.705
			c0,5.143-4.169,9.311-9.312,9.311c-5.143,0-9.311-4.17-9.311-9.312c0-5.143,4.169-9.311,9.312-9.311
			c5.139,0,9.306,4.164,9.31,9.303 M45.167,69.016v19.929 M33.406,76.204h23.522 M45.167,88.945l-11.761,18.622 M45.167,88.945
			l11.761,18.622"/>
	</g>
	<g>
		<text transform="matrix(1 0 0 1 8.1675 123.9023)" font-family="'ArialMT'" font-size="11">Municipality</text>
	</g>
	<g>
		<path fill="#FFFFFF" stroke="#000000" stroke-width="2.777" stroke-miterlimit="10" d="M360.374,59.705
			c-0.002,5.143-4.173,9.309-9.315,9.307c-5.143-0.003-9.309-4.173-9.307-9.316c0.003-5.142,4.174-9.309,9.316-9.306
			c5.139,0.002,9.304,4.167,9.306,9.306 M351.063,69.016v19.929 M339.302,76.204h23.522 M351.063,88.945l-11.762,18.622
			 M351.063,88.945l11.761,18.622"/>
	</g>
	<g>
		<text transform="matrix(1 0 0 1 308.0635 123.9023)" font-family="'ArialMT'" font-size="11">Administrator</text>
	</g>
	<path d="M0,0"/>
	<g>
		<path fill="#FFFFFF" stroke="#000000" stroke-width="2.6136" stroke-miterlimit="10" d="M570.735,84.698h112.447v44.105H570.735
			V84.698z"/>
	</g>
	<g>
		<text transform="matrix(1 0 0 1 588.459 112.4678)" font-family="'ArialMT'" font-size="11">SafeStreets</text>
	</g>
</g>
<g>
	<path fill="#FFFFFF" stroke="#000000" stroke-width="1.3613" stroke-miterlimit="10" d="M37,136.971h16.335v423.082H37V136.971"/>
	<path fill="#FFFFFF" stroke="#000000" stroke-width="1.3613" stroke-miterlimit="10" d="M342.896,199.044h16.335v320.17h-16.335
		V199.044"/>
	<path fill="#FFFFFF" stroke="#000000" stroke-width="1.3613" stroke-miterlimit="10" d="M618.791,244.783h16.336v45.738h-16.336
		V244.783"/>
	<path fill="#FFFFFF" stroke="#000000" stroke-width="1.3613" stroke-miterlimit="10" d="M618.791,336.26h16.336v45.738h-16.336
		V336.26"/>
	<path fill="#FFFFFF" stroke="#000000" stroke-width="1.3613" stroke-miterlimit="10" d="M618.791,427.737h16.336v45.738h-16.336
		V427.737"/>
	<g>
		<g>
			<rect x="91.165" y="161.474" fill="#FFFFFF" width="213.9" height="21.235"/>
		</g>
		<g>
			<rect x="91.165" y="177.809" fill="#FFFFFF" width="164.901" height="21.236"/>
		</g>
		<text transform="matrix(1 0 0 1 93.6152 176.1748)" font-family="'ArialMT'" font-size="11">Send formal request for account</text>
		<text transform="matrix(1 0 0 1 93.6152 192.5107)" font-family="'ArialMT'" font-size="11">suspension/rehabilitation</text>
	</g>
	<g>
		<path fill="none" stroke="#000000" stroke-width="1.3613" stroke-miterlimit="10" d="M53.335,199.044h286.838"/>
		<g transform="translate(342.89574543333333,199.04445221049997) translate(-342.89574543333333,-199.04445221049997)">
			<path d="M329.283,192.238l13.612,6.806l-13.612,6.806V192.238z"/>
		</g>
	</g>
	<g>
		<g>
			<rect x="383.061" y="223.547" fill="#FFFFFF" width="211.901" height="21.236"/>
		</g>
		<text transform="matrix(1 0 0 1 385.5117 238.249)" font-family="'ArialMT'" font-size="11">Clicks &quot;Accounts control&quot; button</text>
	</g>
	<g>
		<path fill="none" stroke="#000000" stroke-width="1.3613" stroke-miterlimit="10" d="M359.23,244.783h256.839"/>
		<g transform="translate(618.7914908666667,244.78302145049997) translate(-618.7914908666667,-244.78302145049997)">
			<path d="M605.179,237.977l13.612,6.807l-13.612,6.806V237.977z"/>
		</g>
	</g>
	<g>
		<g>
			<rect x="384.061" y="269.286" fill="#FFFFFF" width="209.901" height="21.236"/>
		</g>
		<text transform="matrix(1 0 0 1 386.5117 283.9873)" font-family="'ArialMT'" font-size="11">Prompts Accounts control page</text>
	</g>
	<g>
		<path fill="none" stroke="#000000" stroke-width="1.3613" stroke-miterlimit="10" stroke-dasharray="6.5341" d="M618.791,290.521
			H361.953"/>
		<g transform="translate(359.2309487333333,290.5215906905) translate(-359.2309487333333,-290.5215906905)">
			<path d="M372.844,283.715l-13.613,6.806l13.613,6.807V283.715z"/>
		</g>
	</g>
	<g>
		<g>
			<rect x="445.561" y="315.024" fill="#FFFFFF" width="86.901" height="21.235"/>
		</g>
		<text transform="matrix(1 0 0 1 448.0117 329.7256)" font-family="'ArialMT'" font-size="11">Selects user</text>
	</g>
	<g>
		<path fill="none" stroke="#000000" stroke-width="1.3613" stroke-miterlimit="10" d="M359.23,336.26h256.839"/>
		<g transform="translate(618.7914908666667,336.2601599305) translate(-618.7914908666667,-336.2601599305)">
			<path d="M605.179,329.453l13.612,6.807l-13.612,6.807V329.453z"/>
		</g>
	</g>
	<g>
		<g>
			<rect x="423.061" y="360.764" fill="#FFFFFF" width="131.901" height="21.234"/>
		</g>
		<text transform="matrix(1 0 0 1 425.5117 375.4648)" font-family="'ArialMT'" font-size="11">Prompts User page</text>
	</g>
	<g>
		<path fill="none" stroke="#000000" stroke-width="1.3613" stroke-miterlimit="10" stroke-dasharray="6.5341" d="M618.791,381.998
			H361.953"/>
		<g transform="translate(359.2309487333333,381.9987291705) translate(-359.2309487333333,-381.9987291705)">
			<path d="M372.844,375.192l-13.613,6.806l13.613,6.807V375.192z"/>
		</g>
	</g>
	<g>
		<g>
			<rect x="378.561" y="406.502" fill="#FFFFFF" width="220.901" height="21.235"/>
		</g>
		<text transform="matrix(1 0 0 1 381.0117 421.2031)" font-family="'ArialMT'" font-size="11">Clicks &quot;Suspend/Rehabilit&quot; button</text>
	</g>
	<g>
		<path fill="none" stroke="#000000" stroke-width="1.3613" stroke-miterlimit="10" d="M359.23,427.737h256.839"/>
		<g transform="translate(618.7914908666667,427.7372984105) translate(-618.7914908666667,-427.7372984105)">
			<path d="M605.179,420.932l13.612,6.806l-13.612,6.807V420.932z"/>
		</g>
	</g>
	<g>
		<g>
			<rect x="384.061" y="452.24" fill="#FFFFFF" width="209.901" height="21.235"/>
		</g>
		<text transform="matrix(1 0 0 1 386.5117 466.9414)" font-family="'ArialMT'" font-size="11">Prompts Accounts control page</text>
	</g>
	<g>
		<path fill="none" stroke="#000000" stroke-width="1.3613" stroke-miterlimit="10" stroke-dasharray="6.5341" d="M618.791,473.476
			H361.953"/>
		<g transform="translate(359.2309487333333,473.4758676505) translate(-359.2309487333333,-473.4758676505)">
			<path d="M372.844,466.67l-13.613,6.806l13.613,6.807V466.67z"/>
		</g>
	</g>
	<g>
		<g>
			<rect x="72.665" y="497.979" fill="#FFFFFF" width="250.9" height="21.236"/>
		</g>
		<text transform="matrix(1 0 0 1 75.1152 512.6807)" font-family="'ArialMT'" font-size="11">Suspension/rehabilitation confirmation</text>
	</g>
	<g>
		<path fill="none" stroke="#000000" stroke-width="1.3613" stroke-miterlimit="10" stroke-dasharray="6.5341" d="M342.896,519.215
			H56.058"/>
		<g transform="translate(53.3352033,519.2144368905) translate(-53.3352033,-519.2144368905)">
			<path d="M66.948,512.408l-13.613,6.807l13.613,6.806V512.408z"/>
		</g>
	</g>
</g>
</svg>
