<svg version="1.1" xmlns="http://www.w3.org/2000/svg" xmlns:xlink="http://www.w3.org/1999/xlink" width="691" height="576"><defs/><g><g/><g/><g/><g/><g/><g/><g/><g/><g/><g><rect fill="white" stroke="none" x="0" y="0" width="691" height="576"/></g><g><text fill="black" stroke="none" font-family="sans-serif" font-size="16.5pt" font-style="normal" font-weight="normal" text-decoration="normal" x="192.23769487358334" y="24.50280495" text-anchor="start" dominant-baseline="alphabetic">User suspension / rehabilitation</text></g><g/><g><path fill="none" stroke="black" paint-order="fill stroke markers" d=" M 45.16760165 128.80307802049998 L 45.16760165 576.3876484405" stroke-miterlimit="10" stroke-width="1.3612669416666667" stroke-dasharray="12.565541,5.445067766666667"/><path fill="none" stroke="black" paint-order="fill stroke markers" d=" M 351.0633470833333 128.80307802049998 L 351.0633470833333 576.3876484405" stroke-miterlimit="10" stroke-width="1.3612669416666667" stroke-dasharray="12.565541,5.445067766666667"/><path fill="none" stroke="black" paint-order="fill stroke markers" d=" M 626.9590925166667 128.80307802049998 L 626.9590925166667 576.3876484405" stroke-miterlimit="10" stroke-width="1.3612669416666667" stroke-dasharray="12.565541,5.445067766666667"/></g><g><g><path fill="white" stroke="black" paint-order="fill stroke markers" d=" M 54.478667531 59.70516806150002 A 9.311065881 9.311065881 0 1 1 54.47866287546745 59.69585699717086 M 45.16760165 69.01623394250002 L 45.16760165 88.94518196850002 M 33.406255274 76.20372339450002 L 56.928948026 76.20372339450002 M 45.16760165 88.94518196850002 L 33.406255274 107.56731373050002 M 45.16760165 88.94518196850002 L 56.928948026 107.56731373050002" stroke-miterlimit="10" stroke-width="2.7769845610000004" stroke-dasharray=""/></g><g><g/><text fill="black" stroke="none" font-family="sans-serif" font-size="11pt" font-style="normal" font-weight="normal" text-decoration="normal" x="8.167601650000002" y="123.90251703050001" text-anchor="start" dominant-baseline="alphabetic">Municipality</text></g><g><path fill="white" stroke="black" paint-order="fill stroke markers" d=" M 360.3744129643333 59.70516806150002 A 9.311065881 9.311065881 0 1 1 360.37440830880075 59.69585699717086 M 351.0633470833333 69.01623394250002 L 351.0633470833333 88.94518196850002 M 339.3020007073333 76.20372339450002 L 362.82469345933333 76.20372339450002 M 351.0633470833333 88.94518196850002 L 339.3020007073333 107.56731373050002 M 351.0633470833333 88.94518196850002 L 362.82469345933333 107.56731373050002" stroke-miterlimit="10" stroke-width="2.7769845610000004" stroke-dasharray=""/></g><g><g/><text fill="black" stroke="none" font-family="sans-serif" font-size="11pt" font-style="normal" font-weight="normal" text-decoration="normal" x="308.0633470833333" y="123.90251703050001" text-anchor="start" dominant-baseline="alphabetic">Administrator</text></g><path fill="none" stroke="none"/><g><path fill="white" stroke="black" paint-order="fill stroke markers" d=" M 570.7353969361667 84.69802911050002 L 683.1827880971667 84.69802911050002 L 683.1827880971667 128.8030780205 L 570.7353969361667 128.8030780205 L 570.7353969361667 84.69802911050002 Z" stroke-miterlimit="10" stroke-width="2.613632528" stroke-dasharray=""/></g><g><g/><text fill="black" stroke="none" font-family="sans-serif" font-size="11pt" font-style="normal" font-weight="normal" text-decoration="normal" x="588.4590925166667" y="112.46787472049999" text-anchor="start" dominant-baseline="alphabetic">SafeStreets</text></g></g><g><path fill="white" stroke="black" paint-order="fill stroke markers" d=" M 37 136.97067967049998 L 53.3352033 136.97067967049998 L 53.3352033 560.0524451405 L 37 560.0524451405 L 37 136.97067967049998" stroke-miterlimit="10" stroke-width="1.3612669416666667" stroke-dasharray=""/><path fill="white" stroke="black" paint-order="fill stroke markers" d=" M 342.89574543333333 199.04445221049997 L 359.2309487333333 199.04445221049997 L 359.2309487333333 519.2144368905 L 342.89574543333333 519.2144368905 L 342.89574543333333 199.04445221049997" stroke-miterlimit="10" stroke-width="1.3612669416666667" stroke-dasharray=""/><path fill="white" stroke="black" paint-order="fill stroke markers" d=" M 618.7914908666667 244.78302145049997 L 635.1266941666668 244.78302145049997 L 635.1266941666668 290.5215906905 L 618.7914908666667 290.5215906905 L 618.7914908666667 244.78302145049997" stroke-miterlimit="10" stroke-width="1.3612669416666667" stroke-dasharray=""/><path fill="white" stroke="black" paint-order="fill stroke markers" d=" M 618.7914908666667 336.2601599305 L 635.1266941666668 336.2601599305 L 635.1266941666668 381.9987291705 L 618.7914908666667 381.9987291705 L 618.7914908666667 336.2601599305" stroke-miterlimit="10" stroke-width="1.3612669416666667" stroke-dasharray=""/><path fill="white" stroke="black" paint-order="fill stroke markers" d=" M 618.7914908666667 427.7372984105 L 635.1266941666668 427.7372984105 L 635.1266941666668 473.4758676505 L 618.7914908666667 473.4758676505 L 618.7914908666667 427.7372984105" stroke-miterlimit="10" stroke-width="1.3612669416666667" stroke-dasharray=""/><g><g><rect fill="white" stroke="none" x="91.16519387166666" y="161.47348462049996" width="213.90056099" height="21.23576429"/></g><g><rect fill="white" stroke="none" x="91.16519387166666" y="177.80868792049995" width="164.90056099" height="21.23576429"/></g><text fill="black" stroke="none" font-family="sans-serif" font-size="11pt" font-style="normal" font-weight="normal" text-decoration="normal" x="93.61547436666666" y="176.17516759049994" text-anchor="start" dominant-baseline="alphabetic">Send formal request for account</text><text fill="black" stroke="none" font-family="sans-serif" font-size="11pt" font-style="normal" font-weight="normal" text-decoration="normal" x="93.61547436666666" y="192.51037089049993" text-anchor="start" dominant-baseline="alphabetic">suspension/rehabilitation</text></g><g><path fill="none" stroke="black" paint-order="fill stroke markers" d=" M 53.3352033 199.04445221049997 L 340.17321155 199.04445221049997" stroke-miterlimit="10" stroke-width="1.3612669416666667" stroke-dasharray=""/><g transform="translate(342.89574543333333,199.04445221049997) translate(-342.89574543333333,-199.04445221049997)"><path fill="black" stroke="none" paint-order="stroke fill markers" d=" M 329.28307601666666 192.23811750216663 L 342.89574543333333 199.04445221049997 L 329.28307601666666 205.8507869188333 Z"/></g></g><g><g><rect fill="white" stroke="none" x="383.060939305" y="223.54725716049998" width="211.90056099" height="21.23576429"/></g><text fill="black" stroke="none" font-family="sans-serif" font-size="11pt" font-style="normal" font-weight="normal" text-decoration="normal" x="385.5112198" y="238.24894013049996" text-anchor="start" dominant-baseline="alphabetic">Clicks "Accounts control" button</text></g><g><path fill="none" stroke="black" paint-order="fill stroke markers" d=" M 359.2309487333333 244.78302145049997 L 616.0689569833334 244.78302145049997" stroke-miterlimit="10" stroke-width="1.3612669416666667" stroke-dasharray=""/><g transform="translate(618.7914908666667,244.78302145049997) translate(-618.7914908666667,-244.78302145049997)"><path fill="black" stroke="none" paint-order="stroke fill markers" d=" M 605.17882145 237.97668674216663 L 618.7914908666667 244.78302145049997 L 605.17882145 251.5893561588333 Z"/></g></g><g><g><rect fill="white" stroke="none" x="384.060939305" y="269.28582640049996" width="209.90056099" height="21.23576429"/></g><text fill="black" stroke="none" font-family="sans-serif" font-size="11pt" font-style="normal" font-weight="normal" text-decoration="normal" x="386.5112198" y="283.98750937049994" text-anchor="start" dominant-baseline="alphabetic">Prompts Accounts control page</text></g><g><path fill="none" stroke="black" paint-order="fill stroke markers" d=" M 618.7914908666667 290.5215906905 L 361.95348261666663 290.5215906905" stroke-miterlimit="10" stroke-width="1.3612669416666667" stroke-dasharray="6.53408132"/><g transform="translate(359.2309487333333,290.5215906905) translate(-359.2309487333333,-290.5215906905)"><path fill="black" stroke="none" paint-order="stroke fill markers" d=" M 372.84361815 283.71525598216664 L 359.2309487333333 290.5215906905 L 372.84361815 297.3279253988333 Z"/></g></g><g><g><rect fill="white" stroke="none" x="445.560939305" y="315.02439564049996" width="86.90056099" height="21.23576429"/></g><text fill="black" stroke="none" font-family="sans-serif" font-size="11pt" font-style="normal" font-weight="normal" text-decoration="normal" x="448.0112198" y="329.72607861049994" text-anchor="start" dominant-baseline="alphabetic">Selects user</text></g><g><path fill="none" stroke="black" paint-order="fill stroke markers" d=" M 359.2309487333333 336.2601599305 L 616.0689569833334 336.2601599305" stroke-miterlimit="10" stroke-width="1.3612669416666667" stroke-dasharray=""/><g transform="translate(618.7914908666667,336.2601599305) translate(-618.7914908666667,-336.2601599305)"><path fill="black" stroke="none" paint-order="stroke fill markers" d=" M 605.17882145 329.45382522216664 L 618.7914908666667 336.2601599305 L 605.17882145 343.0664946388333 Z"/></g></g><g><g><rect fill="white" stroke="none" x="423.060939305" y="360.76296488049996" width="131.90056099" height="21.23576429"/></g><text fill="black" stroke="none" font-family="sans-serif" font-size="11pt" font-style="normal" font-weight="normal" text-decoration="normal" x="425.5112198" y="375.46464785049994" text-anchor="start" dominant-baseline="alphabetic">Prompts User page</text></g><g><path fill="none" stroke="black" paint-order="fill stroke markers" d=" M 618.7914908666667 381.9987291705 L 361.95348261666663 381.9987291705" stroke-miterlimit="10" stroke-width="1.3612669416666667" stroke-dasharray="6.53408132"/><g transform="translate(359.2309487333333,381.9987291705) translate(-359.2309487333333,-381.9987291705)"><path fill="black" stroke="none" paint-order="stroke fill markers" d=" M 372.84361815 375.19239446216665 L 359.2309487333333 381.9987291705 L 372.84361815 388.8050638788333 Z"/></g></g><g><g><rect fill="white" stroke="none" x="378.560939305" y="406.50153412049997" width="220.90056099" height="21.23576429"/></g><text fill="black" stroke="none" font-family="sans-serif" font-size="11pt" font-style="normal" font-weight="normal" text-decoration="normal" x="381.0112198" y="421.20321709049995" text-anchor="start" dominant-baseline="alphabetic">Clicks "Suspend/Rehabilit" button</text></g><g><path fill="none" stroke="black" paint-order="fill stroke markers" d=" M 359.2309487333333 427.7372984105 L 616.0689569833334 427.7372984105" stroke-miterlimit="10" stroke-width="1.3612669416666667" stroke-dasharray=""/><g transform="translate(618.7914908666667,427.7372984105) translate(-618.7914908666667,-427.7372984105)"><path fill="black" stroke="none" paint-order="stroke fill markers" d=" M 605.17882145 420.93096370216665 L 618.7914908666667 427.7372984105 L 605.17882145 434.5436331188333 Z"/></g></g><g><g><rect fill="white" stroke="none" x="384.060939305" y="452.2401033605" width="209.90056099" height="21.23576429"/></g><text fill="black" stroke="none" font-family="sans-serif" font-size="11pt" font-style="normal" font-weight="normal" text-decoration="normal" x="386.5112198" y="466.94178633049995" text-anchor="start" dominant-baseline="alphabetic">Prompts Accounts control page</text></g><g><path fill="none" stroke="black" paint-order="fill stroke markers" d=" M 618.7914908666667 473.4758676505 L 361.95348261666663 473.4758676505" stroke-miterlimit="10" stroke-width="1.3612669416666667" stroke-dasharray="6.53408132"/><g transform="translate(359.2309487333333,473.4758676505) translate(-359.2309487333333,-473.4758676505)"><path fill="black" stroke="none" paint-order="stroke fill markers" d=" M 372.84361815 466.66953294216665 L 359.2309487333333 473.4758676505 L 372.84361815 480.28220235883333 Z"/></g></g><g><g><rect fill="white" stroke="none" x="72.66519387166666" y="497.9786726005" width="250.90056099" height="21.23576429"/></g><text fill="black" stroke="none" font-family="sans-serif" font-size="11pt" font-style="normal" font-weight="normal" text-decoration="normal" x="75.11547436666666" y="512.6803555705" text-anchor="start" dominant-baseline="alphabetic">Suspension/rehabilitation confirmation</text></g><g><path fill="none" stroke="black" paint-order="fill stroke markers" d=" M 342.89574543333333 519.2144368905 L 56.05773718333334 519.2144368905" stroke-miterlimit="10" stroke-width="1.3612669416666667" stroke-dasharray="6.53408132"/><g transform="translate(53.3352033,519.2144368905) translate(-53.3352033,-519.2144368905)"><path fill="black" stroke="none" paint-order="stroke fill markers" d=" M 66.94787271666667 512.4081021821667 L 53.3352033 519.2144368905 L 66.94787271666667 526.0207715988333 Z"/></g></g></g><g/><g/><g/></g></svg>