<?xml version="1.0" encoding="utf-8"?>
<!-- Generator: Adobe Illustrator 16.0.0, SVG Export Plug-In . SVG Version: 6.00 Build 0)  -->
<!DOCTYPE svg PUBLIC "-//W3C//DTD SVG 1.1//EN" "http://www.w3.org/Graphics/SVG/1.1/DTD/svg11.dtd">
<svg version="1.1" xmlns="http://www.w3.org/2000/svg" xmlns:xlink="http://www.w3.org/1999/xlink" x="0px" y="0px"
	 width="337.067px" height="300.242px" viewBox="-12.501 -12.501 337.067 300.242"
	 enable-background="new -12.501 -12.501 337.067 300.242" xml:space="preserve">
<g id="Logo">
	<path fill="none" stroke="#FFFFFF" stroke-width="25" stroke-miterlimit="10" d="M307.231,148.219
		c-7.737-19.973-20.736-33.021-38.991-39.145c-18.257-6.122-42.368-7.962-72.332-5.517c-18.217-0.026-31.013-0.966-38.387-2.814
		c-7.375-1.844-12.379-6.169-15.014-12.969c-0.486-1.254-0.863-2.507-1.141-3.759l47.054-18.23l-0.052-1.08
		c-2.439-6.764-5.456-12.775-9.025-18.069c5.59-0.759,10.555-0.42,14.889,1.031c7.862,2.636,13.915,9.426,18.154,20.367
		l52.269-20.25l-0.052-1.08c-8.194-22.726-22.765-37.151-43.705-43.273c-20.946-6.119-44.644-4.057-71.097,6.191
		c-6.556,2.54-12.639,5.38-18.273,8.507c-19.664-4.411-41.644-1.927-65.961,7.493c-25.075,9.713-43.41,23.722-55.014,42.023
		c-11.603,18.303-13.64,37.174-6.107,56.615c7.698,19.868,20.578,32.381,38.643,37.538c2.395,0.685,4.925,1.303,7.572,1.864
		c0.145,0.043,0.283,0.095,0.428,0.136c18.066,5.161,43.306,6.838,75.719,5.031c11.818-0.381,21.21-0.002,28.197,1.129
		c6.481,2.509,11.232,7.656,14.252,15.448c0.183,0.471,0.349,0.939,0.503,1.407l-47.702,18.48l0.052,1.079
		c2.765,7.585,6.063,14.308,9.893,20.17c-5.072,1.026-9.716,1.31-13.925,0.842c-8.243-3.441-14.852-11.569-19.825-24.402
		l-6.148,2.382c-0.64-1.396-1.259-2.852-1.853-4.382l-52.429,20.312l0.052,1.079c9.757,26.768,26.144,42.811,49.159,48.125
		c0.971,0.225,1.949,0.415,2.925,0.612c1.656,0.521,3.345,0.989,5.076,1.389c23.015,5.319,47.644,2.896,73.884-7.271
		c6.562-2.542,12.66-5.317,18.3-8.324c18.35,1.391,37.658-1.821,57.935-9.678c26.346-10.205,45.257-24.158,56.726-41.86
		C313.349,187.666,315.133,168.616,307.231,148.219z M66.274,105.775c-2.717-7.012-2.188-13.998,1.593-20.961
		c3.57-6.58,9.822-11.739,18.75-15.483c-3.746,12.712-3.065,25.688,2.064,38.929c1.521,3.924,3.251,7.55,5.176,10.9
		c-6.367-0.31-11.659-0.801-15.861-1.475C72.406,115.474,68.494,111.508,66.274,105.775z M251.995,190.145
		c-3.253,5.656-9.255,10.488-17.987,14.501c3.162-12.229,2.177-25.034-3.011-38.425c-2.171-5.604-4.771-10.644-7.771-15.157
		c6.135,0.436,11.063,1.249,14.761,2.447c7.127,2.312,12.295,7.609,15.506,15.896C256.291,176.632,255.79,183.544,251.995,190.145z"
		/>
</g>
<g id="Layer_2">
	<g>
		<path fill="#33669A" d="M253.492,169.406c-3.211-8.286-8.379-13.584-15.506-15.896c-7.125-2.309-18.775-3.202-34.944-2.682
			c-32.413,1.807-57.651,0.13-75.718-5.031c-18.065-5.157-30.945-17.67-38.643-37.538c-7.532-19.441-5.495-38.312,6.106-56.615
			c11.604-18.301,29.939-32.31,55.014-42.023c26.453-10.248,50.15-12.31,71.097-6.191c20.94,6.122,35.511,20.547,43.705,43.273
			l0.052,1.08l-52.269,20.25c-4.239-10.941-10.292-17.731-18.154-20.367c-7.865-2.634-17.798-1.627-29.802,3.023
			c-9.775,3.787-16.553,9.161-20.329,16.123c-3.78,6.963-4.311,13.949-1.594,20.961c2.635,6.8,7.639,11.125,15.014,12.969
			c7.374,1.848,20.17,2.788,38.387,2.814c29.964-2.445,54.075-0.605,72.332,5.517c18.255,6.124,31.254,19.172,38.991,39.145
			c7.901,20.397,6.118,39.447-5.354,57.147c-11.469,17.702-30.38,31.655-56.726,41.86c-26.241,10.168-50.869,12.592-73.884,7.271
			c-23.017-5.314-39.402-21.357-49.159-48.125l-0.052-1.079l52.429-20.312c5.228,13.492,12.261,21.795,21.104,24.904
			c8.842,3.113,20.115,2.014,33.819-3.296c11.26-4.362,18.789-9.845,22.586-16.446C255.79,183.544,256.291,176.632,253.492,169.406z
			"/>
	</g>
	<g>
		<g opacity="0.4">
			<path d="M177.257,187.406c-3.211-8.286-8.379-13.584-15.506-15.896c-7.125-2.309-18.774-3.202-34.943-2.682
				c-32.413,1.807-57.652,0.13-75.719-5.031c-18.064-5.157-30.944-17.67-38.643-37.538c-7.531-19.44-5.494-38.31,6.108-56.614
				c11.604-18.301,29.938-32.31,55.014-42.023c26.453-10.248,50.149-12.31,71.096-6.191c20.941,6.122,35.511,20.547,43.705,43.273
				l0.052,1.08l-52.269,20.25c-4.239-10.941-10.292-17.731-18.154-20.367c-7.865-2.634-17.798-1.627-29.802,3.023
				c-9.775,3.787-16.552,9.161-20.329,16.123c-3.78,6.963-4.31,13.949-1.593,20.961c2.634,6.8,7.638,11.125,15.013,12.969
				c7.374,1.848,20.17,2.788,38.387,2.814c29.965-2.445,54.075-0.605,72.332,5.517c18.256,6.124,31.254,19.172,38.991,39.146
				c7.902,20.396,6.118,39.446-5.353,57.146c-11.47,17.701-30.38,31.654-56.727,41.861c-26.24,10.166-50.869,12.59-73.884,7.271
				c-23.016-5.315-39.402-21.358-49.159-48.125l-0.052-1.079l52.429-20.313c5.229,13.492,12.262,21.795,21.104,24.906
				c8.841,3.112,20.115,2.012,33.818-3.297c11.261-4.361,18.789-9.845,22.587-16.447
				C179.555,201.544,180.056,194.632,177.257,187.406z"/>
		</g>
		<g>
			<g>
				<path fill="#0A8345" d="M169.257,185.406c-3.211-8.286-8.379-13.584-15.506-15.896c-7.125-2.309-18.774-3.202-34.943-2.682
					c-32.413,1.807-57.652,0.13-75.719-5.031c-18.064-5.157-30.944-17.67-38.643-37.538c-7.532-19.441-5.495-38.312,6.107-56.615
					c11.604-18.301,29.938-32.31,55.014-42.023c26.453-10.248,50.149-12.31,71.096-6.191c20.941,6.122,35.511,20.547,43.705,43.273
					l0.052,1.08l-52.269,20.25c-4.239-10.941-10.292-17.731-18.154-20.367c-7.865-2.634-17.798-1.627-29.802,3.023
					c-9.775,3.787-16.552,9.161-20.329,16.123c-3.78,6.963-4.31,13.949-1.593,20.961c2.634,6.8,7.638,11.125,15.013,12.969
					c7.374,1.848,20.17,2.788,38.387,2.814c29.965-2.445,54.075-0.605,72.332,5.517c18.255,6.124,31.254,19.172,38.991,39.145
					c7.902,20.397,6.118,39.447-5.353,57.147c-11.47,17.702-30.38,31.655-56.727,41.86c-26.241,10.168-50.869,12.592-73.884,7.271
					c-23.016-5.314-39.402-21.357-49.159-48.125l-0.052-1.079l52.429-20.312c5.229,13.492,12.262,21.795,21.104,24.904
					c8.841,3.113,20.115,2.014,33.818-3.296c11.261-4.362,18.789-9.845,22.586-16.446
					C171.555,199.544,172.056,192.632,169.257,185.406z"/>
			</g>
		</g>
	</g>
</g>
</svg>
