<svg xmlns="http://www.w3.org/2000/svg" xmlns:xlink="http://www.w3.org/1999/xlink" xmlns:lucid="lucid" width="2148.41" height="1003.32"><g transform="translate(-106.55125038671834 -95.63690386700932)" lucid:page-tab-id="0_0"><path d="M0 0h2325.15v1165.7H0z" fill="#fff"/><path d="M661.75 115.64h1573.22v799.7H661.75z" stroke="#232f3e" stroke-width="2" fill="#fff" fill-opacity="0"/><path d="M661.75 115.64h56v56h-56v-56z" stroke="#fff" stroke-opacity="0" fill="#232f3e"/><path d="M702.63 156.85h-25c-4.13.06-7.57-3.08-7.9-7.2v-.63c-.15-3.4 1.97-6.38 5.25-7.36V141c.12-4.22 2.44-7.75 6.24-9.57 4.12-1.85 8.72-.95 11.8 2.32 1.08 1.08 1.84 2.2 2.44 3.58 1.2-1 2.72-1.3 4.24-.9 2.25.8 3.7 2.75 3.77 5.1 3.68.66 6.32 3.8 6.28 7.57 0 7.07-7.04 7.73-7.12 7.75zm-26.7-13.87c-2.83.6-4.75 3.14-4.6 6.04v.53c.3 3.32 3.1 5.83 6.4 5.75h24.98c3.05-.3 5.4-2.64 5.7-5.7.27-3.43-2.25-6.5-5.7-6.78-.43-.05-.7-.45-.63-.87.08-1.85-1-3.46-2.73-4.14-1.32-.36-2.64.14-3.44 1.25-.2.24-.44.37-.76.32-.28-.06-.48-.24-.6-.5-.6-1.62-1.4-2.85-2.6-4.04-2.68-2.8-6.6-3.6-10.12-2-3.24 1.6-5.2 4.64-5.32 8.25-.04.4-.04.74 0 1.13.04.4-.2.78-.6.86z" stroke="#fff" stroke-opacity="0" fill="#fff"/><use xlink:href="#a" transform="matrix(1,0,0,1,732.7465469018655,135.63690386700932) translate(0 14.4)"/><use xlink:href="#b" transform="matrix(1,0,0,1,732.7465469018655,135.63690386700932) translate(45.3 14.4)"/><path d="M1589.9 203.83h454.4v642.62h-454.4z" stroke="#d86613" stroke-width="2" fill="#fff" fill-opacity="0"/><path d="M1589.9 203.83h56v56h-56v-56z" stroke="#fff" stroke-opacity="0" fill="#d86613"/><path d="M1637.1 222.57V221h-3.75v-4.6h-4.8v-3.77h-1.62v3.76h-3.4v-3.77h-1.63v3.76h-3.37v-3.77h-1.62v3.76h-3.4v-3.77h-1.62v3.76h-3.42v-3.77h-1.57v3.76h-4.43v4.56h-3.76v1.6h3.77V226h-3.76v1.6h3.77v3.42h-3.76v1.6h3.77v3.43h-3.76v1.6h3.77v3.43h-3.76v1.6h3.77v4.58h4.42v3.77h1.56v-3.77h3.42v3.77h1.6v-3.77h3.43v3.77h1.63v-3.77h3.37v3.77h1.62v-3.77h3.4v3.77h1.63v-3.77h4.8v-4.57h3.76v-1.62h-3.75v-3.42h3.76v-1.6h-3.75v-3.43h3.76v-1.6h-3.75v-3.43h3.76V226h-3.75v-3.43zm-5.37 23.08h-27.64V218h27.63z" stroke="#fff" stroke-opacity="0" fill="#fff"/><use xlink:href="#c" transform="matrix(1,0,0,1,1660.9107927042069,223.8275388776279) translate(0 14.4)"/><use xlink:href="#d" transform="matrix(1,0,0,1,1660.9107927042069,223.8275388776279) translate(39.95 14.4)"/><use xlink:href="#e" transform="matrix(1,0,0,1,1660.9107927042069,223.8275388776279) translate(112.95 14.4)"/><path d="M1786.02 304.48h4.83v12.3h-4.83v-12.3zM1799.68 304.48h4.83v12.3h-4.82v-12.3zM1813.36 304.48h4.83v12.3h-4.84v-12.3zM1827.04 304.48h4.83v12.3h-4.83v-12.3zM1840.72 304.48h4.84v12.3h-4.84v-12.3zM1786.02 395.9h4.83v12.3h-4.83v-12.3zM1799.68 395.9h4.83v12.3h-4.82v-12.3zM1813.36 395.9h4.83v12.3h-4.84v-12.3zM1856.17 326.83h12.4v4.8h-12.4v-4.8zM1856.17 340.4h12.4v4.8h-12.4v-4.8z" stroke="#fff" stroke-opacity="0" fill="#d86613"/><path d="M1831.88 408.2h-4.83v-9.93H1774V314.4h84.54V354h10.03v4.78h-14.85v-39.6h-74.9v74.3h53.06v14.73z" stroke="#fff" stroke-opacity="0" fill="#d86613"/><path d="M1764.02 326.83h12.4v4.8h-12.4v-4.8zM1764.02 340.4h12.4v4.8h-12.4v-4.8zM1764.02 353.95h12.4v4.8h-12.4v-4.8zM1764.02 367.52h12.4v4.8h-12.4v-4.8zM1764.02 381.1h12.4v4.8h-12.4v-4.8zM1860.33 422.88c-10.58 0-22-2.9-22-9.3V374.1c0-6.4 11.42-9.3 22-9.3 10.63 0 22.1 2.9 22.1 9.3v39.5c0 6.44-11.47 9.28-22.1 9.28zm0-53.25c-11.24 0-17.15 3.3-17.15 4.47v39.5c0 1.15 5.9 4.46 17.15 4.46 11.3 0 17.24-3.3 17.24-4.47v-39.5c0-1.16-5.95-4.4-17.24-4.4z" stroke="#fff" stroke-opacity="0" fill="#d86613"/><path d="M1860.33 382.22c-10.58 0-22-2.92-22-9.3h4.85c0 1.15 5.9 4.5 17.15 4.5 11.3 0 17.24-3.35 17.24-4.5h4.85c0 6.35-11.46 9.3-22.1 9.3z" stroke="#fff" stroke-opacity="0" fill="#d86613"/><path d="M1776.76 317h77.86v78.5h-77.86V317z" stroke="#fff" stroke-opacity="0" stroke-width=".38" fill="#fff" fill-opacity="0"/><use xlink:href="#f" transform="matrix(1,0,0,1,1734.0199450707355,431.8820605421099) translate(28.025 14.4)"/><use xlink:href="#g" transform="matrix(1,0,0,1,1734.0199450707355,431.8820605421099) translate(57.975 14.4)"/><use xlink:href="#h" transform="matrix(1,0,0,1,1734.0199450707355,431.8820605421099) translate(82.975 14.4)"/><g filter="url(#i)" stroke="#fff" stroke-opacity="0"><path d="M1778 599.13h102.54V701.7H1778z" fill="#3f8624"/><path d="M1878.7 600.97v98.87h-98.87v-98.87h98.87m3.72-3.72h-106.3v106.3h106.3v-106.3z" fill="#fff"/><path d="M1857.4 652.28h-8.75v-15.13c0-.12 0-.25-.12-.37 0-.13-.1-.25-.23-.38l-17.55-16.26c-.23-.25-.5-.37-.86-.37h-17.5c-.7 0-1.26.56-1.26 1.25v31.26h-8.75c-.7 0-1.28.57-1.28 1.26v24.26c0 2.5 2.02 4.5 4.5 4.5h48.55c2.47 0 4.5-2 4.5-4.5v-24.26c0-.7-.6-1.26-1.28-1.26zm-26.24-28.4l13 12.15h-13zm-17.55-1.6h15.03v16.25h17.54v13.75h-32.56zm42.58 55.52c0 1.06-.86 2-1.95 2H1805.6c-1.08 0-1.94-.88-2-1.94V654.8h52.58z" fill="#fff"/><path d="M1818.63 636.03h5v2.48h-5zm0-7.5h5v2.5h-5zm0 16.25h22.52v2.52h-22.52zm22.52 22c0 1.65-1.35 3-3 3h-16.52c-1.64 0-2.97-1.35-3-3v-4c.03-1.65 1.36-2.97 3-2.97h16.52c1.65 0 3 1.33 3 2.98zm-20.02-4v4c0 .3.23.5.5.5h16.52c.27 0 .5-.2.5-.5v-4c0-.25-.23-.5-.5-.5h-16.52c-.27 0-.5.25-.5.5z" fill="#fff"/></g><path d="M958.86 203.83h470.78v642.62H958.86z" stroke="#d86613" stroke-width="2" fill="#fff" fill-opacity="0"/><path d="M958.86 203.83h56v56h-56v-56z" stroke="#fff" stroke-opacity="0" fill="#d86613"/><path d="M1006.06 222.57V221h-3.77v-4.6h-4.8v-3.77h-1.62v3.76h-3.42v-3.77h-1.6v3.76h-3.4v-3.77h-1.6v3.76h-3.42v-3.77h-1.6v3.76h-3.43v-3.77h-1.57v3.76h-4.4v4.56h-3.77v1.6h3.76V226h-3.76v1.6h3.76v3.42h-3.76v1.6h3.76v3.43h-3.76v1.6h3.76v3.43h-3.76v1.6h3.76v4.58h4.4v3.77h1.6v-3.77h3.4v3.77h1.62v-3.77h3.42v3.77h1.6v-3.77h3.4v3.77h1.6v-3.77h3.42v3.77h1.6v-3.77h4.8v-4.57h3.78v-1.62h-3.77v-3.42h3.76v-1.6h-3.77v-3.43h3.76v-1.6h-3.77v-3.43h3.76V226h-3.77v-3.43zm-5.38 23.08h-27.65V218h27.65z" stroke="#fff" stroke-opacity="0" fill="#fff"/><use xlink:href="#c" transform="matrix(1,0,0,1,1029.8555033231241,223.8275388776279) translate(0 14.4)"/><use xlink:href="#d" transform="matrix(1,0,0,1,1029.8555033231241,223.8275388776279) translate(39.95 14.4)"/><use xlink:href="#e" transform="matrix(1,0,0,1,1029.8555033231241,223.8275388776279) translate(112.95 14.4)"/><path d="M1703.22 697.47h240v60h-240z" stroke="#000" stroke-opacity="0" stroke-width="2" fill="#fff" fill-opacity="0"/><use xlink:href="#j" transform="matrix(1,0,0,1,1708.2199668782132,702.4650424503411) translate(49.5 28.5)"/><use xlink:href="#k" transform="matrix(1,0,0,1,1708.2199668782132,702.4650424503411) translate(110.55555555555556 28.5)"/><path d="M1310.7 604.93l51.46-29.16v-58.14l-51.45 29.07v58.23z" fill="#fff"/><path d="M1259.37 575.74l51.38 29.13V546.7l-51.38-29.03v58.07zM1361.8 517.65l-51.05-28.88-51.05 28.88 51.05 28.88 51.06-28.88z" fill="#fff"/><path d="M1310.75 544.82l48.08-27.17-.05-.02-48.03 27.2z" fill="#fff"/><path d="M1262.7 517.63l-.04.02 48.1 27.17-48.05-27.2z" fill="#fff"/><path d="M1362.02 515.8l-51.3-29.04-51.3 29.04-1.6.96v60l51.4 29.04 1.6.96 1.6-.96 51.4-29.04v-60zm-1.6 59.04l-48 27.24V547.6l48.1-27.12zm-51.3 27.24L1261 574.84v-54.36l48.12 27.12zm-46.42-84.48l48-27.12 48.14 27.12-48.13 27.24-48-27.24z" fill="#444"/><path d="M1310.96 578.1l27.63-15.65v-31.2l-27.64 15.6v31.24zM1282.9 562.45l27.63 15.64v-31.25l-27.63-15.6v31.2zM1338.3 530.83l-27.55-15.57-27.55 15.57 27.55 15.62 27.54-15.62z" fill="#5a69a4"/><path d="M1310.75 544.85l24.77-14-.03-.02-24.75 14v.02zM1286 530.83l-.04.03 24.77 14v-.02l-24.74-14z" fill="#96bf3d"/><path d="M1338.77 528.94l-28-15.8-28.08 15.8-1.6.94v33.68l28 15.86 1.66.94 1.6-.94 28.08-15.86v-33.68zm-1.6 32.73l-24.8 14.05v-28.1l24.8-13.98zm-28.07 14.05l-24.8-14.05v-28.03l24.8 13.98zm-23.1-44.9l24.76-13.98 24.75 13.98-24.74 14.05-24.8-13.98z" fill="#fff"/><use xlink:href="#l" transform="matrix(1,0,0,1,1257.8196786041372,606.7629910401297) translate(34.525 14.4)"/><g filter="url(#m)" stroke="#fff" stroke-opacity="0"><path d="M1075.6 296.32h124.44v124.45H1075.6z" fill="#d86613"/><path d="M1197.8 298.56v119.97h-119.97V298.56h119.97m4.52-4.5h-129v129h129v-129z" fill="#fff"/><path d="M1176.52 342.6v-3.03h-6.07v-6.6c0-3.03-2.5-5.54-5.54-5.54h-6.6v-6.07h-3.03v6.07h-6.07v-6.07h-3.03v6.07h-6.07v-6.07h-3.04v6.07H1131v-6.07h-3.05v6.07h-6.07v-6.07h-3.03v6.07h-6.6c-3.04 0-5.54 2.5-5.54 5.54v6.6h-6.06v3.04h6.07v6.08h-6.06v3.04h6.07v6.07h-6.06v3.02h6.07v6.07h-6.06v3.03h6.07V376h-6.06v3.03h6.07v6.6c0 3.04 2.5 5.54 5.55 5.54h6.6v6.08h3.03v-6.08h6.07v6.08h3.04v-6.08h6.06v6.08h3.04v-6.08h6.07v6.08h3.03v-6.08h6.07v6.08h3.04v-6.08h6.6c3.04 0 5.55-2.5 5.55-5.53v-6.6h6.07V376h-6.07v-6.07h6.07v-3.04h-6.07v-6.08h6.07v-3.03h-6.07v-6.08h6.07v-3.04h-6.07v-6.07zm-9.1 43.04c0 1.36-1.14 2.5-2.5 2.5h-52.67c-1.37 0-2.5-1.14-2.5-2.5v-52.67c0-1.36 1.13-2.5 2.5-2.5h52.66c1.38 0 2.5 1.14 2.5 2.5z" fill="#fff"/><path d="M1153.18 341.1h-29.2c-1.97 0-3.6 1.63-3.6 3.6v29.2c0 1.98 1.63 3.62 3.6 3.62h29.2c1.97 0 3.6-1.64 3.6-3.6V344.7c0-1.97-1.63-3.6-3.6-3.6zm.6 32.8c0 .34-.27.6-.6.6h-29.2c-.34 0-.6-.26-.6-.6v-29.2c0-.33.26-.58.6-.58h29.2c.33 0 .6.25.6.58z" fill="#fff"/></g><path d="M1017.82 435.75h240v60h-240z" stroke="#000" stroke-opacity="0" stroke-width="2" fill="#fff" fill-opacity="0"/><use xlink:href="#n" transform="matrix(1,0,0,1,1022.8196786041372,440.74616527093167) translate(34.75 30.025)"/><use xlink:href="#o" transform="matrix(1,0,0,1,1022.8196786041372,440.74616527093167) translate(100.75 30.025)"/><use xlink:href="#p" transform="matrix(1,0,0,1,1022.8196786041372,440.74616527093167) translate(142.35 30.025)"/><path d="M747.64 398.04h120v120h-120v-120z" stroke="#fff" stroke-opacity="0" fill="#d6242d"/><path d="M823.33 459.4c-.47-.24-.98-.24-1.5 0-.47.28-.8.68-.85 1.26-.17 1.62-.43 2.95-.9 4.52-.22-6.43-2.53-11.87-7.03-16.44-2.27-2.26-4.54-3.88-7.46-5.27-2.58-1.97-5.2-3.07-8.37-3.6-.73-.1-1.4.3-1.75.94-.3.7-.13 1.45.47 1.92 4.1 4.1 5.65 9.55 4.28 15.22-2.05-2.78-5.48-6.42-9.6-6.42-.5.05-.98.28-1.28.75-.3.4-.4.92-.17 1.45 0 .1 3.77 10 .12 15.74-.17.3-.34.58-.55.87-4.07 7.52-1.93 16.73 5.05 21.65 3.7 2.43 7.03 4.1 11.23 5.55l.22.12v-.12l.5.23h.14c1.96-.17 18.9-2.08 22.4-15.33 4.5-17.6-4.58-22.8-4.97-23.04zm-27.68 29.9c-5.66-3.92-7.42-11.33-4.07-17.4.12-.24.25-.53.42-.76 3.22-4.98 2.06-11.87 1.08-15.75 2.78 1.96 4.75 4.16 6.38 7.17.3.58.86.93 1.5.87.7-.06 1.2-.46 1.42-1.1 2.82-8.1 1.1-14.07-.95-17.7.73.33 1.33.74 1.97 1.2.1.12.13.18.22.18.73.58 1.33 1.1 1.93 1.8.17.22.34.4.5.63 2.28 3 3.3 6.25 3.18 9.95-.04 4.34-1.02 8-3.17 11.75-.34.64-.64 1.22-.94 1.86-3.04 7.07-3.6 14-1.76 21.48-2.87-1.16-5.14-2.43-7.7-4.17zm29.48-7.63c-2.48 9.55-14.52 12.22-18.3 12.8-2.18-7.24-1.84-14.07 1.12-21.07.26-.53.5-1.05.8-1.57 2.46-4.28 3.57-8.45 3.6-13.3.06-2.5-.3-4.58-1.1-6.9 3.6 3.82 6.77 10.13 5.18 19.8-.08.46.05.87.35 1.27.55.7 1.58.75 2.27.23.13-.1 3.17-2.66 4.58-8.9 1.9 2.42 4.08 7.63 1.55 17.64z" stroke="#fff" stroke-opacity="0" fill="#fff"/><path d="M805.24 497.56v.1c.18.07.36.1.56.1zM771.9 458.32v-.82c2.88.05 5.3-1.48 6.54-4.07 1.74-3.54.25-7.84-3.34-9.6 2.4-5.3 5.48-9.32 10-12.92l-2.03-2.46c-5.14 4.06-8.62 8.66-11.2 14.67-2.8.07-5.17 1.55-6.4 4.08-1.76 3.54-.27 7.9 3.3 9.6v1.6c0 11.55 4.5 21.46 13.2 29l2.14-2.42c-8.04-6.95-12.2-16.03-12.2-26.64zm-4-8.02c0-2.18 1.8-4 4-4 2.22 0 4.02 1.82 4.02 4 0 2.24-1.8 4-4.02 4-2.2 0-4-1.76-4-4zM843.36 444.72h-.33c-.9-2.45-1.85-4.43-3.2-6.62l-2.7 1.68c1.18 1.93 2.04 3.65 2.86 5.76-2.07 1.12-3.37 2.97-3.7 5.3-.6 3.95 2.13 7.6 6.06 8.16-.12 7.6-2.3 14.07-6.85 20.17l2.55 1.94c5.05-6.74 7.46-13.93 7.5-22.4 3.1-.95 5.08-3.65 5.08-6.88 0-3.96-3.22-7.18-7.2-7.18zm0 11.2c-2.2 0-4-1.82-4-4 0-2.2 1.8-4 4-4s4 1.8 4 4c0 2.18-1.8 4-4 4zM823.7 427.27c-7-3.73-14-4.95-21.84-3.76l-.48-3.2c8.56-1.28 16.2.04 23.84 4.12zM831.9 439.1c-3.97 0-7.2-3.22-7.2-7.2 0-3.97 3.23-7.2 7.2-7.2 3.98 0 7.2 3.23 7.2 7.2 0 3.98-3.22 7.2-7.2 7.2zm0-11.2c-2.2 0-4 1.8-4 4s1.8 4 4 4 4-1.8 4-4-1.8-3.98-4-4zM792.7 432.7c-3.97 0-7.2-3.22-7.2-7.2 0-3.97 3.23-7.2 7.2-7.2 3.98 0 7.2 3.23 7.2 7.2 0 3.98-3.22 7.2-7.2 7.2zm0-11.2c-2.2 0-4 1.8-4 4s1.8 4 4 4 4-1.8 4-4-1.8-3.98-4-4z" stroke="#fff" stroke-opacity="0" fill="#fff"/><use xlink:href="#q" transform="matrix(1,0,0,1,717.6373945353553,527.0362932575664) translate(36.5 14.4)"/><use xlink:href="#r" transform="matrix(1,0,0,1,717.6373945353553,527.0362932575664) translate(81.8 14.4)"/><use xlink:href="#s" transform="matrix(1,0,0,1,717.6373945353553,527.0362932575664) translate(54.55 36)"/><path d="M303.35 710.24v-83.16c0-4.08-3.67-10.92-8.3-10.92h-144c-4.62 0-9.06 6.84-9.06 10.92v83.16c-16.22 17.28-15.45 17.28-15.45 17.28 0 4.92 4.44 8.64 10.23 8.64h172.55c5.8 0 10.23-4.08 10.23-8.64l-16.2-17.28zm-66.98 18.72h-30.1c-1.55 0-3.1-.72-3.1-1.44l3.48-5.64c0-.72 1.16-1.2 2.7-1.2h23.93c1.16 0 2.32.48 2.32 1.2l3.86 5.64c0 1.08-1.54 1.44-3.1 1.44zm59.83-19.2H149.13V627.8c0-1.92 1.93-4.56 4.06-4.56h139.34c2.12 0 3.66 2.64 3.66 4.56v81.96z" stroke="#000" stroke-opacity="0" fill="#2a3282"/><use xlink:href="#t" transform="matrix(1,0,0,1,96.55125038671834,745.1586861064253) translate(87.57499999999999 14.4)"/><path d="M868.64 458.04h101.84v-99.5h84.34" stroke="#000" stroke-width="2" fill="none"/><path d="M868.66 459.04h-1.02v-2h1.02z"/><path d="M1070.08 358.55l-14.26 4.63v-9.27z" stroke="#000" stroke-width="2"/><path d="M258.13 175.35h-70.15c-4.6 0-8.33 4.7-8.33 10.44V316.3c0 5.75 3.73 10.44 8.33 10.44h70.15c4.6 0 8.33-4.7 8.33-10.44V185.8c0-5.76-3.73-10.45-8.33-10.45zm-48.1 6.8h26.3c2.27 0 3.83.3 3.83 2.13 0 2.12-1.56 2.12-3.82 2.12h-26.3c-2.18 0-3.74 0-3.74-2.12 0-1.82 1.82-2.12 3.73-2.12zm20.75 133.56h-14.93c-1.48 0-2.78-1.5-2.78-3.62 0-1.82 1.3-3.64 2.78-3.64h14.93c1.56 0 2.78 1.82 2.78 3.64 0 1.8-1.22 3.63-2.78 3.63zm26.4-14.37h-68.24V193.36h68.23v107.97z" stroke="#000" stroke-opacity="0" fill="#2a3282"/><use xlink:href="#u" transform="matrix(1,0,0,1,149.6465653883932,335.7641210843383) translate(24.549999999999997 14.4)"/><path d="M507.36 398.04c-33.24 0-60 26.76-60 60 0 33.24 26.76 60 60 60 33.24 0 60-26.76 60-60 0-33.24-26.76-60-60-60zm51.36 55.8h-11.76c-.6-9.24-2.52-17.88-5.88-25.44 1.92-1.08 3.96-2.16 5.64-3.6 6.72 7.8 11.16 17.88 12 29.04zm-16.68-34.08c-1.2.84-2.52 1.68-3.96 2.52-2.16-3.84-5.04-7.44-7.8-10.56 4.2 2.28 8.04 4.68 11.76 8.04zm-30.48-10.8c8.04 1.56 15.36 7.44 20.4 16.08-6.12 2.52-13.2 4.2-20.4 4.8v-20.88zm0 27.84c8.28-.6 16.44-2.16 23.4-5.64 2.76 6.72 4.44 14.28 5.04 22.44h-28.44v-16.8zM540 462.24c-.48 8.28-2.16 16.2-5.28 22.56-6.96-3.12-14.76-5.28-23.16-5.88V462H540v.24zm-65.28 0h28.44v16.92c-8.28.6-16.44 2.28-23.4 5.64-2.88-6.72-4.44-14.4-5.04-22.56zm0-8.4c.6-8.28 2.16-16.2 5.28-22.56 6.96 3.12 14.76 5.28 23.16 5.88v16.92h-28.44v-.24zm28.44-44.88v20.88c-7.2-.48-13.92-2.16-20.04-5.04 5.04-8.4 12.24-14.16 20.04-15.84zm-18.72 2.76c-2.76 2.76-5.28 6.12-7.56 10.08-1.32-.84-2.52-1.68-3.6-2.52 3.36-2.88 7.32-5.64 11.16-7.56zm-16.2 12.48c1.68 1.44 3.6 2.64 5.28 3.6-3.36 7.56-5.52 16.56-6.12 26.04h-11.64c1.08-11.16 5.52-21.48 12.48-29.64zm-.48 38.04c.6 9.24 2.52 17.88 5.88 25.44-2.04 1.08-3.96 2.16-5.64 3.6-6.72-8.16-11.16-18.24-12-29.04h11.76zm4.92 34.08c1.2-.84 2.52-1.68 3.96-2.52 2.16 3.84 5.04 7.44 7.8 10.56-4.2-2.16-8.04-5.04-11.76-8.04zm10.08-5.64c6.12-2.52 13.2-4.08 20.4-4.68v20.88c-8.16-1.44-15-7.2-20.4-16.2zm28.8 16.44v-20.88c7.2.6 13.92 2.16 20.04 5.04-4.92 8.4-12.24 14.16-20.04 15.84zm26.28-12.72c1.32.84 2.52 1.56 3.6 2.52-3.36 3-7.32 5.52-11.16 7.44 2.76-2.76 5.28-6.36 7.56-9.96zm8.64-2.52c-1.68-1.44-3.6-2.52-5.4-3.6 3.36-7.56 5.64-16.56 6.12-26.04h12.12c-1.44 11.16-5.88 21.48-12.84 29.64z" stroke="#000" stroke-opacity="0" fill="#00188f"/><path d="M304.35 675.8h204.2V536.5" stroke="#000" stroke-width="2" fill="none"/><path d="M304.37 676.8h-1.02v-2h1.02z"/><path d="M508.56 521.22l4.63 14.27h-9.28z" stroke="#000" stroke-width="2"/><path d="M267.46 253.02H507.6v126.52" stroke="#000" stroke-width="2" fill="none"/><path d="M267.5 254.02h-1.04v-2h1.03z"/><path d="M507.6 394.8l-4.64-14.26h9.27z" stroke="#000" stroke-width="2"/><path d="M568.33 458.88h160.8" stroke="#000" stroke-width="2" fill="none"/><path d="M568.35 459.88h-1.06l.06-1.84v-.16h1z"/><path d="M744.4 458.88l-14.26 4.63v-9.26z" stroke="#000" stroke-width="2"/><path d="M359.36 428.04h73.06v60h-73.06z" stroke="#000" stroke-opacity="0" stroke-width="2" fill="#fff" fill-opacity="0"/><use xlink:href="#v" transform="matrix(1,0,0,1,364.36458844899573,433.0362932575664) translate(6.575000000000003 30.025)"/><path d="M144.75 1025.55h1974.93M144.77 1025.55h-1.02" stroke="#000" stroke-width="2" fill="none"/><path d="M2134.95 1025.55l-14.27 4.64v-9.28z" stroke="#000" stroke-width="2"/><path d="M667.2 1086.95V981.8M667.2 1086.93v1.02" stroke="#000" stroke-width="2" fill="none"/><path d="M667.2 966.53l4.63 14.26h-9.27z" stroke="#000" stroke-width="2"/><path d="M1520 1084.88V979.72M1520 1084.86v1.02" stroke="#000" stroke-width="2" fill="none"/><path d="M1520 964.46l4.63 14.26h-9.27z" stroke="#000" stroke-width="2"/><path d="M192.42 961.22h240v68.67h-240z" stroke="#000" stroke-opacity="0" stroke-width="2" fill="#fff" fill-opacity="0"/><use xlink:href="#w" transform="matrix(1,0,0,1,197.42244383436628,966.219917795194) translate(22.586419753086403 34.30555555555556)"/><use xlink:href="#x" transform="matrix(1,0,0,1,197.42244383436628,966.219917795194) translate(166.40123456790124 34.30555555555556)"/><path d="M951.24 961.22h240v68.67h-240z" stroke="#000" stroke-opacity="0" stroke-width="2" fill="#fff" fill-opacity="0"/><use xlink:href="#y" transform="matrix(1,0,0,1,956.2379720492058,966.219917795194) translate(9.00617283950615 34.30555555555556)"/><use xlink:href="#z" transform="matrix(1,0,0,1,956.2379720492058,966.219917795194) translate(114.86419753086419 34.30555555555556)"/><use xlink:href="#x" transform="matrix(1,0,0,1,956.2379720492058,966.219917795194) translate(179.9814814814815 34.30555555555556)"/><path d="M1684.4 961.22h265.42v68.67h-265.4z" stroke="#000" stroke-opacity="0" stroke-width="2" fill="#fff" fill-opacity="0"/><use xlink:href="#A" transform="matrix(1,0,0,1,1689.4051321537463,966.219917795194) translate(3.70679012345677 34.30555555555556)"/><use xlink:href="#B" transform="matrix(1,0,0,1,1689.4051321537463,966.219917795194) translate(62.03395061728394 34.30555555555556)"/><use xlink:href="#x" transform="matrix(1,0,0,1,1689.4051321537463,966.219917795194) translate(211.2808641975309 34.30555555555556)"/><path d="M1310.7 808.97l51.46-29.15v-58.15l-51.45 29.07v58.23z" fill="#fff"/><path d="M1259.37 779.8l51.38 29.1v-58.14l-51.38-29.04v58.07zM1361.8 721.7l-51.05-28.9-51.05 28.9 51.05 28.88 51.06-28.88z" fill="#fff"/><path d="M1310.75 748.87l48.08-27.17-.05-.03-48.03 27.2z" fill="#fff"/><path d="M1262.7 721.67l-.04.03 48.1 27.17-48.05-27.2z" fill="#fff"/><path d="M1362.02 719.85l-51.3-29.04-51.3 29.05-1.6.96v60l51.4 29.05 1.6.96 1.6-.95 51.4-29.04v-60zm-1.6 59.04l-48 27.23v-54.48l48.1-27.12zm-51.3 27.23L1261 778.9v-54.37l48.12 27.12zm-46.42-84.48l48-27.12 48.14 27.12-48.13 27.24-48-27.25z" fill="#444"/><path d="M1310.96 782.14l27.63-15.65v-31.2l-27.64 15.6v31.24zM1282.9 766.5l27.63 15.64V750.9l-27.63-15.6v31.2zM1338.3 734.87l-27.55-15.56-27.55 15.57 27.55 15.63 27.54-15.63z" fill="#ffd44f"/><path d="M1310.75 748.9l24.77-14-.03-.03-24.75 14.02zM1286 734.87l-.04.03 24.77 14-24.74-14.03z" fill="#96bf3d"/><path d="M1338.77 732.98l-28-15.8-28.08 15.8-1.6.94v33.68l28 15.87 1.66.94 1.6-.93 28.08-15.87v-33.68zm-1.6 32.74l-24.8 14.05v-28.1l24.8-13.98zm-28.07 14.05l-24.8-14.05V737.7l24.8 13.97zm-23.1-44.9l24.76-14 24.75 14-24.74 14.05-24.8-14z" fill="#fff"/><use xlink:href="#C" transform="matrix(1,0,0,1,1257.8196786041372,810.8097021611424) translate(25 14.4)"/><path d="M1137.82 496.75V760.8h101.5" stroke="#000" stroke-width="2" fill="none"/><path d="M1138.82 496.77h-2v-1.02h2z"/><path d="M1254.58 760.8l-14.26 4.64v-9.27z" stroke="#000" stroke-width="2"/><path d="M1137.82 496.75v60h101.5" stroke="#000" stroke-width="2" fill="none"/><path d="M1138.82 496.77h-2v-1.02h2z"/><path d="M1254.58 556.76l-14.26 4.64v-9.27z" stroke="#000" stroke-width="2"/><path d="M1310.82 485.82V363.68h444.68" stroke="#000" stroke-width="2" fill="none"/><path d="M1311.82 487.4l-1.1-.64-.9.5v-1.46h2z"/><path d="M1770.77 363.68l-14.27 4.64v-9.27z" stroke="#000" stroke-width="2"/><path d="M1364.82 556.76h464.45v22" stroke="#000" stroke-width="2" fill="none"/><path d="M1364.85 557.76h-1.03v-2h1.03z"/><path d="M1829.27 594.02l-4.64-14.27h9.27z" stroke="#000" stroke-width="2"/><path d="M1310.82 689.87v-19.6h159.73v-184.8h352.67v-12.76" stroke="#000" stroke-width="2" fill="none"/><path d="M1311.82 691.44l-1.1-.63-.9.52v-1.48h2z"/><path d="M1823.22 457.44l4.64 14.27h-9.28z" stroke="#000" stroke-width="2"/><path d="M1364.82 760.8h175.55V650.4h217.24" stroke="#000" stroke-width="2" fill="none"/><path d="M1364.85 761.8h-1.03v-2h1.03z"/><path d="M1772.87 650.4l-14.26 4.64v-9.27z" stroke="#000" stroke-width="2"/><defs><path fill="#232f3e" d="M205 0l-28-72H64L36 0H1l101-248h38L239 0h-34zm-38-99l-47-123c-12 45-31 82-46 123h93" id="D"/><path fill="#232f3e" d="M266 0h-40l-56-210L115 0H75L2-248h35L96-30l15-64 43-154h32l59 218 59-218h35" id="E"/><path fill="#232f3e" d="M185-189c-5-48-123-54-124 2 14 75 158 14 163 119 3 78-121 87-175 55-17-10-28-26-33-46l33-7c5 56 141 63 141-1 0-78-155-14-162-118-5-82 145-84 179-34 5 7 8 16 11 25" id="F"/><g id="a"><use transform="matrix(0.05,0,0,0.05,0,0)" xlink:href="#D"/><use transform="matrix(0.05,0,0,0.05,11.35,0)" xlink:href="#E"/><use transform="matrix(0.05,0,0,0.05,28.299999999999997,0)" xlink:href="#F"/></g><path fill="#232f3e" d="M212-179c-10-28-35-45-73-45-59 0-87 40-87 99 0 60 29 101 89 101 43 0 62-24 78-52l27 14C228-24 195 4 139 4 59 4 22-46 18-125c-6-104 99-153 187-111 19 9 31 26 39 46" id="G"/><path fill="#232f3e" d="M24 0v-261h32V0H24" id="H"/><path fill="#232f3e" d="M100-194c62-1 85 37 85 99 1 63-27 99-86 99S16-35 15-95c0-66 28-99 85-99zM99-20c44 1 53-31 53-75 0-43-8-75-51-75s-53 32-53 75 10 74 51 75" id="I"/><path fill="#232f3e" d="M84 4C-5 8 30-112 23-190h32v120c0 31 7 50 39 49 72-2 45-101 50-169h31l1 190h-30c-1-10 1-25-2-33-11 22-28 36-60 37" id="J"/><path fill="#232f3e" d="M85-194c31 0 48 13 60 33l-1-100h32l1 261h-30c-2-10 0-23-3-31C134-8 116 4 85 4 32 4 16-35 15-94c0-66 23-100 70-100zm9 24c-40 0-46 34-46 75 0 40 6 74 45 74 42 0 51-32 51-76 0-42-9-74-50-73" id="K"/><g id="b"><use transform="matrix(0.05,0,0,0.05,0,0)" xlink:href="#G"/><use transform="matrix(0.05,0,0,0.05,12.950000000000001,0)" xlink:href="#H"/><use transform="matrix(0.05,0,0,0.05,16.900000000000002,0)" xlink:href="#I"/><use transform="matrix(0.05,0,0,0.05,26.900000000000002,0)" xlink:href="#J"/><use transform="matrix(0.05,0,0,0.05,36.900000000000006,0)" xlink:href="#K"/></g><path fill="#d86613" d="M30 0v-248h187v28H63v79h144v27H63v87h162V0H30" id="L"/><path fill="#d86613" d="M212-179c-10-28-35-45-73-45-59 0-87 40-87 99 0 60 29 101 89 101 43 0 62-24 78-52l27 14C228-24 195 4 139 4 59 4 22-46 18-125c-6-104 99-153 187-111 19 9 31 26 39 46" id="M"/><path fill="#d86613" d="M101-251c82-7 93 87 43 132L82-64C71-53 59-42 53-27h129V0H18c2-99 128-94 128-182 0-28-16-43-45-43s-46 15-49 41l-32-3c6-41 34-60 81-64" id="N"/><g id="c"><use transform="matrix(0.05,0,0,0.05,0,0)" xlink:href="#L"/><use transform="matrix(0.05,0,0,0.05,12,0)" xlink:href="#M"/><use transform="matrix(0.05,0,0,0.05,24.950000000000003,0)" xlink:href="#N"/></g><path fill="#d86613" d="M33 0v-248h34V0H33" id="O"/><path fill="#d86613" d="M117-194c89-4 53 116 60 194h-32v-121c0-31-8-49-39-48C34-167 62-67 57 0H25l-1-190h30c1 10-1 24 2 32 11-22 29-35 61-36" id="P"/><path fill="#d86613" d="M135-143c-3-34-86-38-87 0 15 53 115 12 119 90S17 21 10-45l28-5c4 36 97 45 98 0-10-56-113-15-118-90-4-57 82-63 122-42 12 7 21 19 24 35" id="Q"/><path fill="#d86613" d="M59-47c-2 24 18 29 38 22v24C64 9 27 4 27-40v-127H5v-23h24l9-43h21v43h35v23H59v120" id="R"/><path fill="#d86613" d="M141-36C126-15 110 5 73 4 37 3 15-17 15-53c-1-64 63-63 125-63 3-35-9-54-41-54-24 1-41 7-42 31l-33-3c5-37 33-52 76-52 45 0 72 20 72 64v82c-1 20 7 32 28 27v20c-31 9-61-2-59-35zM48-53c0 20 12 33 32 33 41-3 63-29 60-74-43 2-92-5-92 41" id="S"/><path fill="#d86613" d="M96-169c-40 0-48 33-48 73s9 75 48 75c24 0 41-14 43-38l32 2c-6 37-31 61-74 61-59 0-76-41-82-99-10-93 101-131 147-64 4 7 5 14 7 22l-32 3c-4-21-16-35-41-35" id="T"/><path fill="#d86613" d="M100-194c63 0 86 42 84 106H49c0 40 14 67 53 68 26 1 43-12 49-29l28 8c-11 28-37 45-77 45C44 4 14-33 15-96c1-61 26-98 85-98zm52 81c6-60-76-77-97-28-3 7-6 17-6 28h103" id="U"/><g id="d"><use transform="matrix(0.05,0,0,0.05,0,0)" xlink:href="#O"/><use transform="matrix(0.05,0,0,0.05,5,0)" xlink:href="#P"/><use transform="matrix(0.05,0,0,0.05,15,0)" xlink:href="#Q"/><use transform="matrix(0.05,0,0,0.05,24,0)" xlink:href="#R"/><use transform="matrix(0.05,0,0,0.05,29,0)" xlink:href="#S"/><use transform="matrix(0.05,0,0,0.05,39,0)" xlink:href="#P"/><use transform="matrix(0.05,0,0,0.05,49,0)" xlink:href="#T"/><use transform="matrix(0.05,0,0,0.05,58,0)" xlink:href="#U"/></g><path fill="#d86613" d="M100-194c62-1 85 37 85 99 1 63-27 99-86 99S16-35 15-95c0-66 28-99 85-99zM99-20c44 1 53-31 53-75 0-43-8-75-51-75s-53 32-53 75 10 74 51 75" id="V"/><g id="e"><use transform="matrix(0.05,0,0,0.05,0,0)" xlink:href="#M"/><use transform="matrix(0.05,0,0,0.05,12.950000000000001,0)" xlink:href="#V"/><use transform="matrix(0.05,0,0,0.05,22.950000000000003,0)" xlink:href="#P"/><use transform="matrix(0.05,0,0,0.05,32.95,0)" xlink:href="#R"/><use transform="matrix(0.05,0,0,0.05,37.95,0)" xlink:href="#U"/><use transform="matrix(0.05,0,0,0.05,47.95,0)" xlink:href="#P"/><use transform="matrix(0.05,0,0,0.05,57.95,0)" xlink:href="#R"/><use transform="matrix(0.05,0,0,0.05,62.95,0)" xlink:href="#Q"/></g><path d="M30-248c118-7 216 8 213 122C240-48 200 0 122 0H30v-248zM63-27c89 8 146-16 146-99s-60-101-146-95v194" id="W"/><path d="M160-131c35 5 61 23 61 61C221 17 115-2 30 0v-248c76 3 177-17 177 60 0 33-19 50-47 57zm-97-11c50-1 110 9 110-42 0-47-63-36-110-37v79zm0 115c55-2 124 14 124-45 0-56-70-42-124-44v89" id="X"/><g id="f"><use transform="matrix(0.05,0,0,0.05,0,0)" xlink:href="#W"/><use transform="matrix(0.05,0,0,0.05,12.950000000000001,0)" xlink:href="#X"/></g><path d="M100-194c62-1 85 37 85 99 1 63-27 99-86 99S16-35 15-95c0-66 28-99 85-99zM99-20c44 1 53-31 53-75 0-43-8-75-51-75s-53 32-53 75 10 74 51 75" id="Y"/><path d="M117-194c89-4 53 116 60 194h-32v-121c0-31-8-49-39-48C34-167 62-67 57 0H25l-1-190h30c1 10-1 24 2 32 11-22 29-35 61-36" id="Z"/><g id="g"><use transform="matrix(0.05,0,0,0.05,0,0)" xlink:href="#Y"/><use transform="matrix(0.05,0,0,0.05,10,0)" xlink:href="#Z"/></g><path d="M33 0v-248h34V0H33" id="aa"/><path d="M135-143c-3-34-86-38-87 0 15 53 115 12 119 90S17 21 10-45l28-5c4 36 97 45 98 0-10-56-113-15-118-90-4-57 82-63 122-42 12 7 21 19 24 35" id="ab"/><path d="M59-47c-2 24 18 29 38 22v24C64 9 27 4 27-40v-127H5v-23h24l9-43h21v43h35v23H59v120" id="ac"/><path d="M141-36C126-15 110 5 73 4 37 3 15-17 15-53c-1-64 63-63 125-63 3-35-9-54-41-54-24 1-41 7-42 31l-33-3c5-37 33-52 76-52 45 0 72 20 72 64v82c-1 20 7 32 28 27v20c-31 9-61-2-59-35zM48-53c0 20 12 33 32 33 41-3 63-29 60-74-43 2-92-5-92 41" id="ad"/><path d="M96-169c-40 0-48 33-48 73s9 75 48 75c24 0 41-14 43-38l32 2c-6 37-31 61-74 61-59 0-76-41-82-99-10-93 101-131 147-64 4 7 5 14 7 22l-32 3c-4-21-16-35-41-35" id="ae"/><path d="M100-194c63 0 86 42 84 106H49c0 40 14 67 53 68 26 1 43-12 49-29l28 8c-11 28-37 45-77 45C44 4 14-33 15-96c1-61 26-98 85-98zm52 81c6-60-76-77-97-28-3 7-6 17-6 28h103" id="af"/><g id="h"><use transform="matrix(0.05,0,0,0.05,0,0)" xlink:href="#aa"/><use transform="matrix(0.05,0,0,0.05,5,0)" xlink:href="#Z"/><use transform="matrix(0.05,0,0,0.05,15,0)" xlink:href="#ab"/><use transform="matrix(0.05,0,0,0.05,24,0)" xlink:href="#ac"/><use transform="matrix(0.05,0,0,0.05,29,0)" xlink:href="#ad"/><use transform="matrix(0.05,0,0,0.05,39,0)" xlink:href="#Z"/><use transform="matrix(0.05,0,0,0.05,49,0)" xlink:href="#ae"/><use transform="matrix(0.05,0,0,0.05,58,0)" xlink:href="#af"/></g><filter id="i" filterUnits="objectBoundingBox" x="-.07" y="-.05" width="1.13" height="1.13"><feOffset result="offOut" in="SourceAlpha" dy="2"/><feGaussianBlur result="blurOut" in="offOut" stdDeviation="3.5"/><feColorMatrix result="colorOut" in="blurOut" values="0 0 0 0 0 0 0 0 0 0 0 0 0 0 0 0 0 0 0.5019607843137255 0"/><feBlend in="SourceGraphic" in2="colorOut"/></filter><path d="M210-169c-67 3-38 105-44 169h-31v-121c0-29-5-50-35-48C34-165 62-65 56 0H25l-1-190h30c1 10-1 24 2 32 10-44 99-50 107 0 11-21 27-35 58-36 85-2 47 119 55 194h-31v-121c0-29-5-49-35-48" id="ag"/><path d="M177-190C167-65 218 103 67 71c-23-6-38-20-44-43l32-5c15 47 100 32 89-28v-30C133-14 115 1 83 1 29 1 15-40 15-95c0-56 16-97 71-98 29-1 48 16 59 35 1-10 0-23 2-32h30zM94-22c36 0 50-32 50-73 0-42-14-75-50-75-39 0-46 34-46 75s6 73 46 73" id="ah"/><g id="j"><use transform="matrix(0.05555555555555555,0,0,0.05555555555555555,0,0)" xlink:href="#aa"/><use transform="matrix(0.05555555555555555,0,0,0.05555555555555555,5.555555555555555,0)" xlink:href="#ag"/><use transform="matrix(0.05555555555555555,0,0,0.05555555555555555,22.166666666666664,0)" xlink:href="#ad"/><use transform="matrix(0.05555555555555555,0,0,0.05555555555555555,33.27777777777777,0)" xlink:href="#ah"/><use transform="matrix(0.05555555555555555,0,0,0.05555555555555555,44.388888888888886,0)" xlink:href="#af"/></g><path d="M185-189c-5-48-123-54-124 2 14 75 158 14 163 119 3 78-121 87-175 55-17-10-28-26-33-46l33-7c5 56 141 63 141-1 0-78-155-14-162-118-5-82 145-84 179-34 5 7 8 16 11 25" id="ai"/><path d="M114-163C36-179 61-72 57 0H25l-1-190h30c1 12-1 29 2 39 6-27 23-49 58-41v29" id="aj"/><g id="k"><use transform="matrix(0.05555555555555555,0,0,0.05555555555555555,0,0)" xlink:href="#ai"/><use transform="matrix(0.05555555555555555,0,0,0.05555555555555555,13.333333333333332,0)" xlink:href="#ac"/><use transform="matrix(0.05555555555555555,0,0,0.05555555555555555,18.888888888888886,0)" xlink:href="#Y"/><use transform="matrix(0.05555555555555555,0,0,0.05555555555555555,30,0)" xlink:href="#aj"/><use transform="matrix(0.05555555555555555,0,0,0.05555555555555555,36.61111111111111,0)" xlink:href="#ad"/><use transform="matrix(0.05555555555555555,0,0,0.05555555555555555,47.722222222222214,0)" xlink:href="#ah"/><use transform="matrix(0.05555555555555555,0,0,0.05555555555555555,58.83333333333333,0)" xlink:href="#af"/></g><path d="M30-248c87 1 191-15 191 75 0 78-77 80-158 76V0H30v-248zm33 125c57 0 124 11 124-50 0-59-68-47-124-48v98" id="ak"/><path d="M197 0v-115H63V0H30v-248h33v105h134v-105h34V0h-34" id="al"/><g id="l"><use transform="matrix(0.05,0,0,0.05,0,0)" xlink:href="#ak"/><use transform="matrix(0.05,0,0,0.05,12,0)" xlink:href="#al"/><use transform="matrix(0.05,0,0,0.05,24.950000000000003,0)" xlink:href="#ak"/></g><filter id="m" filterUnits="objectBoundingBox" x="-.05" y="-.04" width="1.11" height="1.11"><feOffset result="offOut" in="SourceAlpha" dy="2"/><feGaussianBlur result="blurOut" in="offOut" stdDeviation="3.5"/><feColorMatrix result="colorOut" in="blurOut" values="0 0 0 0 0 0 0 0 0 0 0 0 0 0 0 0 0 0 0.5019607843137255 0"/><feBlend in="SourceGraphic" in2="colorOut"/></filter><path d="M205 0l-28-72H64L36 0H1l101-248h38L239 0h-34zm-38-99l-47-123c-12 45-31 82-46 123h93" id="am"/><path d="M115-194c55 1 70 41 70 98S169 2 115 4C84 4 66-9 55-30l1 105H24l-1-265h31l2 30c10-21 28-34 59-34zm-8 174c40 0 45-34 45-75s-6-73-45-74c-42 0-51 32-51 76 0 43 10 73 51 73" id="an"/><path d="M106-169C34-169 62-67 57 0H25v-261h32l-1 103c12-21 28-36 61-36 89 0 53 116 60 194h-32v-121c2-32-8-49-39-48" id="ao"/><g id="n"><use transform="matrix(0.05,0,0,0.05,0,0)" xlink:href="#am"/><use transform="matrix(0.05,0,0,0.05,12,0)" xlink:href="#an"/><use transform="matrix(0.05,0,0,0.05,22,0)" xlink:href="#ad"/><use transform="matrix(0.05,0,0,0.05,32,0)" xlink:href="#ae"/><use transform="matrix(0.05,0,0,0.05,41,0)" xlink:href="#ao"/><use transform="matrix(0.05,0,0,0.05,51,0)" xlink:href="#af"/></g><path d="M266 0h-40l-56-210L115 0H75L2-248h35L96-30l15-64 43-154h32l59 218 59-218h35" id="ap"/><path d="M115-194c53 0 69 39 70 98 0 66-23 100-70 100C84 3 66-7 56-30L54 0H23l1-261h32v101c10-23 28-34 59-34zm-8 174c40 0 45-34 45-75 0-40-5-75-45-74-42 0-51 32-51 76 0 43 10 73 51 73" id="aq"/><g id="o"><use transform="matrix(0.05,0,0,0.05,0,0)" xlink:href="#ap"/><use transform="matrix(0.05,0,0,0.05,16.599999999999998,0)" xlink:href="#af"/><use transform="matrix(0.05,0,0,0.05,26.599999999999994,0)" xlink:href="#aq"/></g><path d="M108 0H70L1-190h34L89-25l56-165h34" id="ar"/><g id="p"><use transform="matrix(0.05,0,0,0.05,0,0)" xlink:href="#ai"/><use transform="matrix(0.05,0,0,0.05,12,0)" xlink:href="#af"/><use transform="matrix(0.05,0,0,0.05,22,0)" xlink:href="#aj"/><use transform="matrix(0.05,0,0,0.05,27.950000000000003,0)" xlink:href="#ar"/><use transform="matrix(0.05,0,0,0.05,36.95,0)" xlink:href="#af"/><use transform="matrix(0.05,0,0,0.05,46.95,0)" xlink:href="#aj"/></g><g id="q"><use transform="matrix(0.05,0,0,0.05,0,0)" xlink:href="#am"/><use transform="matrix(0.05,0,0,0.05,11.35,0)" xlink:href="#ap"/><use transform="matrix(0.05,0,0,0.05,28.299999999999997,0)" xlink:href="#ai"/></g><path d="M63-220v92h138v28H63V0H30v-248h175v28H63" id="as"/><path d="M24-231v-30h32v30H24zM24 0v-190h32V0H24" id="at"/><path d="M206 0h-36l-40-164L89 0H53L-1-190h32L70-26l43-164h34l41 164 42-164h31" id="au"/><path d="M24 0v-261h32V0H24" id="av"/><g id="r"><use transform="matrix(0.05,0,0,0.05,0,0)" xlink:href="#as"/><use transform="matrix(0.05,0,0,0.05,10.950000000000001,0)" xlink:href="#at"/><use transform="matrix(0.05,0,0,0.05,14.9,0)" xlink:href="#aj"/><use transform="matrix(0.05,0,0,0.05,20.85,0)" xlink:href="#af"/><use transform="matrix(0.05,0,0,0.05,30.85,0)" xlink:href="#au"/><use transform="matrix(0.05,0,0,0.05,43.800000000000004,0)" xlink:href="#ad"/><use transform="matrix(0.05,0,0,0.05,53.800000000000004,0)" xlink:href="#av"/><use transform="matrix(0.05,0,0,0.05,57.75,0)" xlink:href="#av"/></g><path d="M240 0l2-218c-23 76-54 145-80 218h-23L58-218 59 0H30v-248h44l77 211c21-75 51-140 76-211h43V0h-30" id="aw"/><g id="s"><use transform="matrix(0.05,0,0,0.05,0,0)" xlink:href="#aw"/><use transform="matrix(0.05,0,0,0.05,14.950000000000001,0)" xlink:href="#ad"/><use transform="matrix(0.05,0,0,0.05,24.950000000000003,0)" xlink:href="#Z"/><use transform="matrix(0.05,0,0,0.05,34.95,0)" xlink:href="#ad"/><use transform="matrix(0.05,0,0,0.05,44.95,0)" xlink:href="#ah"/><use transform="matrix(0.05,0,0,0.05,54.95,0)" xlink:href="#af"/><use transform="matrix(0.05,0,0,0.05,64.95,0)" xlink:href="#aj"/></g><path d="M212-179c-10-28-35-45-73-45-59 0-87 40-87 99 0 60 29 101 89 101 43 0 62-24 78-52l27 14C228-24 195 4 139 4 59 4 22-46 18-125c-6-104 99-153 187-111 19 9 31 26 39 46" id="ax"/><path d="M84 4C-5 8 30-112 23-190h32v120c0 31 7 50 39 49 72-2 45-101 50-169h31l1 190h-30c-1-10 1-25-2-33-11 22-28 36-60 37" id="ay"/><g id="t"><use transform="matrix(0.05,0,0,0.05,0,0)" xlink:href="#ax"/><use transform="matrix(0.05,0,0,0.05,12.950000000000001,0)" xlink:href="#Y"/><use transform="matrix(0.05,0,0,0.05,22.950000000000003,0)" xlink:href="#ag"/><use transform="matrix(0.05,0,0,0.05,37.900000000000006,0)" xlink:href="#an"/><use transform="matrix(0.05,0,0,0.05,47.900000000000006,0)" xlink:href="#ay"/><use transform="matrix(0.05,0,0,0.05,57.900000000000006,0)" xlink:href="#ac"/><use transform="matrix(0.05,0,0,0.05,62.900000000000006,0)" xlink:href="#af"/><use transform="matrix(0.05,0,0,0.05,72.9,0)" xlink:href="#aj"/></g><g id="u"><use transform="matrix(0.05,0,0,0.05,0,0)" xlink:href="#ai"/><use transform="matrix(0.05,0,0,0.05,12,0)" xlink:href="#ag"/><use transform="matrix(0.05,0,0,0.05,26.950000000000003,0)" xlink:href="#ad"/><use transform="matrix(0.05,0,0,0.05,36.95,0)" xlink:href="#aj"/><use transform="matrix(0.05,0,0,0.05,42.900000000000006,0)" xlink:href="#ac"/><use transform="matrix(0.05,0,0,0.05,47.900000000000006,0)" xlink:href="#an"/><use transform="matrix(0.05,0,0,0.05,57.900000000000006,0)" xlink:href="#ao"/><use transform="matrix(0.05,0,0,0.05,67.9,0)" xlink:href="#Y"/><use transform="matrix(0.05,0,0,0.05,77.9,0)" xlink:href="#Z"/><use transform="matrix(0.05,0,0,0.05,87.9,0)" xlink:href="#af"/></g><g id="v"><use transform="matrix(0.05,0,0,0.05,0,0)" xlink:href="#ap"/><use transform="matrix(0.05,0,0,0.05,16.95,0)" xlink:href="#ap"/><use transform="matrix(0.05,0,0,0.05,33.9,0)" xlink:href="#ap"/></g><g id="w"><use transform="matrix(0.06790123456790124,0,0,0.06790123456790124,0,0)" xlink:href="#ak"/><use transform="matrix(0.06790123456790124,0,0,0.06790123456790124,16.296296296296298,0)" xlink:href="#aj"/><use transform="matrix(0.06790123456790124,0,0,0.06790123456790124,24.376543209876544,0)" xlink:href="#af"/><use transform="matrix(0.06790123456790124,0,0,0.06790123456790124,37.95679012345679,0)" xlink:href="#ab"/><use transform="matrix(0.06790123456790124,0,0,0.06790123456790124,50.17901234567901,0)" xlink:href="#af"/><use transform="matrix(0.06790123456790124,0,0,0.06790123456790124,63.75925925925926,0)" xlink:href="#Z"/><use transform="matrix(0.06790123456790124,0,0,0.06790123456790124,77.3395061728395,0)" xlink:href="#ac"/><use transform="matrix(0.06790123456790124,0,0,0.06790123456790124,84.12962962962963,0)" xlink:href="#ad"/><use transform="matrix(0.06790123456790124,0,0,0.06790123456790124,97.70987654320989,0)" xlink:href="#ac"/><use transform="matrix(0.06790123456790124,0,0,0.06790123456790124,104.50000000000001,0)" xlink:href="#at"/><use transform="matrix(0.06790123456790124,0,0,0.06790123456790124,109.86419753086422,0)" xlink:href="#Y"/><use transform="matrix(0.06790123456790124,0,0,0.06790123456790124,123.44444444444447,0)" xlink:href="#Z"/></g><path d="M127-220V0H93v-220H8v-28h204v28h-85" id="az"/><g id="x"><use transform="matrix(0.06790123456790124,0,0,0.06790123456790124,0,0)" xlink:href="#az"/><use transform="matrix(0.06790123456790124,0,0,0.06790123456790124,13.987654320987655,0)" xlink:href="#at"/><use transform="matrix(0.06790123456790124,0,0,0.06790123456790124,19.351851851851855,0)" xlink:href="#af"/><use transform="matrix(0.06790123456790124,0,0,0.06790123456790124,32.9320987654321,0)" xlink:href="#aj"/></g><g id="y"><use transform="matrix(0.06790123456790124,0,0,0.06790123456790124,0,0)" xlink:href="#X"/><use transform="matrix(0.06790123456790124,0,0,0.06790123456790124,16.296296296296298,0)" xlink:href="#ay"/><use transform="matrix(0.06790123456790124,0,0,0.06790123456790124,29.876543209876544,0)" xlink:href="#ab"/><use transform="matrix(0.06790123456790124,0,0,0.06790123456790124,42.098765432098766,0)" xlink:href="#at"/><use transform="matrix(0.06790123456790124,0,0,0.06790123456790124,47.46296296296296,0)" xlink:href="#Z"/><use transform="matrix(0.06790123456790124,0,0,0.06790123456790124,61.04320987654321,0)" xlink:href="#af"/><use transform="matrix(0.06790123456790124,0,0,0.06790123456790124,74.62345679012346,0)" xlink:href="#ab"/><use transform="matrix(0.06790123456790124,0,0,0.06790123456790124,86.84567901234567,0)" xlink:href="#ab"/></g><path d="M30 0v-248h33v221h125V0H30" id="aA"/><g id="z"><use transform="matrix(0.06790123456790124,0,0,0.06790123456790124,0,0)" xlink:href="#aA"/><use transform="matrix(0.06790123456790124,0,0,0.06790123456790124,13.580246913580249,0)" xlink:href="#Y"/><use transform="matrix(0.06790123456790124,0,0,0.06790123456790124,27.160493827160497,0)" xlink:href="#ah"/><use transform="matrix(0.06790123456790124,0,0,0.06790123456790124,40.74074074074075,0)" xlink:href="#at"/><use transform="matrix(0.06790123456790124,0,0,0.06790123456790124,46.104938271604944,0)" xlink:href="#ae"/></g><g id="A"><use transform="matrix(0.06790123456790124,0,0,0.06790123456790124,0,0)" xlink:href="#W"/><use transform="matrix(0.06790123456790124,0,0,0.06790123456790124,17.58641975308642,0)" xlink:href="#ad"/><use transform="matrix(0.06790123456790124,0,0,0.06790123456790124,31.16666666666667,0)" xlink:href="#ac"/><use transform="matrix(0.06790123456790124,0,0,0.06790123456790124,37.9567901234568,0)" xlink:href="#ad"/></g><g id="B"><use transform="matrix(0.06790123456790124,0,0,0.06790123456790124,0,0)" xlink:href="#aw"/><use transform="matrix(0.06790123456790124,0,0,0.06790123456790124,20.302469135802472,0)" xlink:href="#ad"/><use transform="matrix(0.06790123456790124,0,0,0.06790123456790124,33.88271604938272,0)" xlink:href="#Z"/><use transform="matrix(0.06790123456790124,0,0,0.06790123456790124,47.46296296296297,0)" xlink:href="#ad"/><use transform="matrix(0.06790123456790124,0,0,0.06790123456790124,61.043209876543216,0)" xlink:href="#ah"/><use transform="matrix(0.06790123456790124,0,0,0.06790123456790124,74.62345679012347,0)" xlink:href="#af"/><use transform="matrix(0.06790123456790124,0,0,0.06790123456790124,88.20370370370372,0)" xlink:href="#ag"/><use transform="matrix(0.06790123456790124,0,0,0.06790123456790124,108.50617283950619,0)" xlink:href="#af"/><use transform="matrix(0.06790123456790124,0,0,0.06790123456790124,122.08641975308646,0)" xlink:href="#Z"/><use transform="matrix(0.06790123456790124,0,0,0.06790123456790124,135.66666666666669,0)" xlink:href="#ac"/></g><path d="M179-190L93 31C79 59 56 82 12 73V49c39 6 53-20 64-50L1-190h34L92-34l54-156h33" id="aB"/><g id="C"><use transform="matrix(0.05,0,0,0.05,0,0)" xlink:href="#ak"/><use transform="matrix(0.05,0,0,0.05,12,0)" xlink:href="#aB"/><use transform="matrix(0.05,0,0,0.05,21,0)" xlink:href="#ac"/><use transform="matrix(0.05,0,0,0.05,26,0)" xlink:href="#ao"/><use transform="matrix(0.05,0,0,0.05,36,0)" xlink:href="#Y"/><use transform="matrix(0.05,0,0,0.05,46,0)" xlink:href="#Z"/></g></defs></g></svg>