<svg xmlns="http://www.w3.org/2000/svg" xmlns:xlink="http://www.w3.org/1999/xlink" xmlns:lucid="lucid" width="1092.57" height="580"><g transform="translate(-213.33333333333331 -220)" lucid:page-tab-id="LHwz4.T1mWLy"><path d="M341.5 492.8c0 3.96-3.23 7.2-7.2 7.2h-68.45c-3.97 0-7.2-3.24-7.2-7.2V387.3c0-3.95 3.23-7.2 7.2-7.2h68.44c3.97 0 7.2 3.25 7.2 7.2V492.8z" stroke="#000" stroke-opacity="0" fill="#3e3e3e"/><path d="M264 392.08h72.16v84.47H264v-84.47z" stroke="#000" stroke-opacity="0" fill="#59b4d9"/><path d="M307.02 488.27c0 3.83-3.1 6.93-6.95 6.93-3.83 0-6.95-3.1-6.95-6.93 0-3.82 3.12-6.93 6.95-6.93 3.84 0 6.95 3.1 6.95 6.93" stroke="#000" stroke-opacity="0" fill="#fff"/><path d="M304.63 488.27c0 2.5-2.04 4.55-4.56 4.55-2.5 0-4.55-2.04-4.55-4.55 0-2.5 2.04-4.54 4.55-4.54 2.52 0 4.56 2.04 4.56 4.54" stroke="#000" stroke-opacity="0" fill="#b8d432"/><path d="M263.97 476.5v-84.42h54.8l4.87-12h-57.78c-3.97 0-7.22 3.25-7.22 7.2V492.8c0 3.96 3.25 7.2 7.22 7.2h8.9l9.56-23.5h-20.35z" stroke="#000" stroke-opacity="0" fill="#fff" fill-opacity=".15"/><path d="M312.37 386.84c0 .98-.8 1.77-1.77 1.77h-21.05c-.98 0-1.77-.78-1.77-1.76 0-.97.8-1.77 1.77-1.77h21.05c.98 0 1.77.8 1.77 1.77" stroke="#000" stroke-opacity="0" fill="#1e1e1e"/><path d="M312.37 386.84c0 .98-.8 1.77-1.77 1.77h-21.05c-.98 0-1.77-.78-1.77-1.76 0-.97.8-1.77 1.77-1.77h21.05c.98 0 1.77.8 1.77 1.77M300.16 431.2c-.13 0-.22-.03-.35-.1l-21.17-12.18c-.18-.13-.3-.33-.3-.56 0-.23.12-.44.3-.54l21.05-12.12c.22-.1.44-.1.65 0l21.2 12.2c.16.1.3.33.3.56 0 .23-.14.43-.3.54l-21.07 12.1c-.08.07-.2.1-.3.1" stroke="#000" stroke-opacity="0" fill="#fff"/><path d="M297.1 460.82c-.13 0-.22-.04-.33-.08l-21.1-12.17c-.22-.1-.33-.3-.33-.53v-24.4c0-.22.1-.44.33-.56.18-.1.43-.1.63 0l21.12 12.18c.18.1.3.3.3.53v24.38c0 .22-.12.45-.3.56-.1.04-.22.08-.3.08" stroke="#000" stroke-opacity="0" fill="#fff" fill-opacity=".7"/><path d="M303.08 460.82c-.1 0-.22-.04-.33-.08-.2-.1-.32-.33-.32-.56v-24.2c0-.24.12-.46.32-.58l21.1-12.16c.2-.1.45-.1.63 0 .22.12.34.34.34.57v24.22c0 .26-.12.45-.34.56l-21.08 12.16c-.1.04-.2.08-.32.08" stroke="#000" stroke-opacity="0" fill="#fff" fill-opacity=".4"/><path d="M267.5 380h64.9c.94 0 1.42.48 1.42 1.44v117.12c0 .96-.48 1.44-1.43 1.44h-64.9c-.96 0-1.43-.48-1.43-1.44V381.44c0-.96.47-1.44 1.42-1.44z" stroke="#000" stroke-opacity="0" stroke-width="0" fill-opacity="0"/><path d="M259.9 387.9h80.2c.9 0 1.4.53 1.4 1.47v101.97c0 .94-.5 1.47-1.4 1.47h-80.2c-.9 0-1.4-.52-1.4-1.46V389.37c0-.94.5-1.47 1.4-1.47z" stroke="#000" stroke-opacity="0" stroke-width="0" fill-opacity="0"/><use xlink:href="#a" transform="matrix(1,0,0,1,228.5,509) translate(6.833333333333329 14.222222222222223)"/><use xlink:href="#b" transform="matrix(1,0,0,1,228.5,509) translate(104.56172839506173 14.222222222222223)"/><path d="M498.5 300h540v480h-540z" stroke="#000" stroke-width="2" fill="#fff"/><path d="M956.72 269.95h-.12c-.84-16.7-14.64-29.95-31.56-29.95-12.36 0-23.04 7.12-28.32 17.47-2.16-.54-4.44-.85-6.72-.85-16.56 0-30 13.5-30 30.04s13.44 29.95 30 29.95h66.72c12.84 0 23.28-10.4 23.28-23.28 0-12.87-10.44-23.37-23.28-23.37z" stroke="#000" stroke-opacity="0" fill="#59b4d9"/><path d="M956.72 269.95h-.12c-.84-16.7-14.64-29.95-31.56-29.95-12.36 0-23.04 7.12-28.32 17.47-2.16-.54-4.44-.85-6.72-.85-16.56 0-30 13.5-30 30.04s13.44 29.95 30 29.95h66.72c12.84 0 23.28-10.4 23.28-23.28 0-12.87-10.44-23.37-23.28-23.37z" stroke="#000" stroke-opacity="0" fill="#fff" fill-opacity=".2"/><path d="M890 316.6h37.23v-34.77c0-3.3-2.75-6.05-6.18-6.05h-33.42c-3.44 0-6.18 2.74-6.18 6.05v33.5c2.7.83 5.58 1.28 8.56 1.28z" stroke="#000" stroke-opacity="0" fill="#fff" fill-opacity=".4"/><path d="M924.82 349c0 2-1.68 3.63-3.77 3.63h-33.43c-2.1 0-3.76-1.63-3.76-3.64v-67.17c0-2 1.67-3.65 3.76-3.65h33.43c2.1 0 3.77 1.64 3.77 3.65V349z" stroke="#000" stroke-opacity="0" fill="#7a7a7a"/><path d="M889.16 319c0-2.53 2.06-4.6 4.6-4.6h21.14c2.55 0 4.62 2.07 4.62 4.6 0 2.55-2.07 4.6-4.62 4.6h-21.13c-2.55 0-4.6-2.05-4.6-4.6z" stroke="#000" stroke-opacity="0" fill="#1e1e1e"/><path d="M897.8 319c0 1.72-1.4 3.1-3.1 3.1-1.7 0-3.1-1.38-3.1-3.1 0-1.7 1.4-3.07 3.1-3.07 1.7 0 3.1 1.38 3.1 3.08z" stroke="#000" stroke-opacity="0" fill="#b8d432"/><path d="M889.16 304.6c0-2.54 2.06-4.6 4.6-4.6h21.14c2.55 0 4.62 2.06 4.62 4.6 0 2.54-2.07 4.6-4.62 4.6h-21.13c-2.55 0-4.6-2.06-4.6-4.6z" stroke="#000" stroke-opacity="0" fill="#1e1e1e"/><path d="M897.8 304.6c0 1.7-1.4 3.1-3.1 3.1-1.7 0-3.1-1.4-3.1-3.1 0-1.7 1.4-3.08 3.1-3.08 1.7 0 3.1 1.38 3.1 3.08z" stroke="#000" stroke-opacity="0" fill="#b8d432"/><path d="M889.16 290.2c0-2.55 2.06-4.6 4.6-4.6h21.14c2.55 0 4.62 2.05 4.62 4.6 0 2.53-2.07 4.6-4.62 4.6h-21.13c-2.55 0-4.6-2.07-4.6-4.6z" stroke="#000" stroke-opacity="0" fill="#1e1e1e"/><path d="M897.8 290.2c0 1.7-1.4 3.08-3.1 3.08-1.7 0-3.1-1.38-3.1-3.1 0-1.7 1.4-3.07 3.1-3.07 1.7 0 3.1 1.4 3.1 3.1z" stroke="#000" stroke-opacity="0" fill="#b8d432"/><path d="M940.48 306.54h-22.9v44.17c0 4.52 10.08 8.25 22.58 8.3h.32c12.64 0 22.9-3.72 22.9-8.3v-44.16h-22.9z" stroke="#000" stroke-opacity="0" fill="#59b4d9"/><path d="M940.17 359c12.64 0 23.2-3.73 23.2-8.3v-44.16l-23.2.58V359z" stroke="#000" stroke-opacity="0" fill="#3999c6"/><path d="M963.37 306.55c0 4.58-10.25 8.9-22.9 8.9-12.62 0-22.88-4.32-22.88-8.9 0-4.6 10.25-8.3 22.88-8.3 12.64 0 22.9 3.7 22.9 8.3" stroke="#000" stroke-opacity="0" fill="#fff"/><path d="M958.7 306.44c0 2.8-8.17 5.1-18.22 5.1-10.05 0-18.2-2.3-18.2-5.1 0-2.82 8.15-5.1 18.2-5.1 10.05 0 18.2 2.28 18.2 5.1" stroke="#000" stroke-opacity="0" fill="#59b4d9"/><use xlink:href="#c" transform="matrix(1,0,0,1,830,368) translate(10.913580246913568 14.222222222222223)"/><use xlink:href="#d" transform="matrix(1,0,0,1,830,368) translate(55.654320987654316 14.222222222222223)"/><use xlink:href="#e" transform="matrix(1,0,0,1,830,368) translate(116.83950617283952 14.222222222222223)"/><path d="M587.46 458.3h-21.24c-10.56 0-19.08-8.6-19.08-19.4 0-10.8 8.04-19.4 19.08-19.4 1.92 0 4.08.5 6.48.7l4.08 1.2 1.2-4.1c3.84-12.4 15.72-20.1 29.4-20.1 16.44 0 29.16 12.7 29.16 29.3 0 2.6-.48 5.2-1.2 7.9l-1.68 6 6.48-.8h1.2c4.68 0 8.52 4.1 8.52 8.7 0 4.5-3.36 7.9-7.32 8.6h-21.36c-.72-6-3.84-11.3-7.8-15.3-5.28-5.3-12.48-8.4-19.92-8.4-5.28 0-10.44 1.4-14.52 4l4.56 7.2c3.24-1.9 6.6-2.6 10.44-2.6 5.28 0 10.56 1.9 13.92 6 3.84 3.8 5.88 8.6 5.88 13.9 0 5.3-1.8 10.6-5.88 13.9-3.84 4.1-8.64 6-13.92 6-3.84 0-7.44-1.2-10.44-3.4l-4.56 7.2c4.56 2.7 9.72 4.6 14.52 4.6 7.44 0 14.64-2.6 19.92-8.2 4.44-4.5 7.08-10.5 7.8-16.7h22.32c8.52-.8 15-8.2 15-17.3 0-7.2-6.72-13.9-14.64-15.4.48-1.4.48-2.1.48-4.5 0-21.1-14.76-37.9-38.4-37.9-15.12 0-28.44 8.6-33.96 22.5-1.92 0-3.36-.7-5.52-.7-15.48-.2-27.96 11.8-27.96 27.1 0 15.1 12.48 27.1 27.24 27.1h23.4l-1.68-7.7z" stroke="#000" stroke-opacity="0" fill="#59b4d9"/><path d="M606.4 461.46c0 7.42-6 13.43-13.4 13.43s-13.38-6.02-13.38-13.44c0-7.4 6-13.43 13.38-13.43 7.4 0 13.4 6.02 13.4 13.43z" stroke="#000" stroke-opacity="0" fill="#68217a"/><path d="M583.4 478.3l4.22-6.7-7.63-7.08-21.42-1.4-16.63-12.37-1.48-17.2 12.75-17.5 21.07-.2 12.52-17.58 20.27-4.84 18.44 5.03 11.4 10.05 4.2 15.64-.57 12.93 13.78 4.84-3.42 14.8-13.1 5.22-18.9.83-6.5 12.56-9.33 9.88-13.43 1.3z" stroke="#000" stroke-opacity="0" stroke-width="0" fill-opacity="0"/><use xlink:href="#f" transform="matrix(1,0,0,1,508.5,499.00000000001984) translate(18.04938271604938 14.222222222222223)"/><use xlink:href="#g" transform="matrix(1,0,0,1,508.5,499.00000000001984) translate(75.18518518518519 14.222222222222223)"/><use xlink:href="#h" transform="matrix(1,0,0,1,508.5,499.00000000001984) translate(45.60493827160494 35.55555555555556)"/><use xlink:href="#i" transform="matrix(1,0,0,1,508.5,499.00000000001984) translate(105.75308641975309 35.55555555555556)"/><path d="M360 440h162.52" stroke="#666" stroke-width="2" fill="none"/><path d="M344.74 440l14.26-4.64v9.28z" stroke="#666" stroke-width="2" fill="#666"/><path d="M537.8 440l-14.28 4.64v-9.28z" fill="#666"/><path d="M538.53 439.2l.14 1.57-16.15 5.24v-12zm-14 4.06l10.02-3.26-10.03-3.26z" fill="#666"/><path d="M587.46 668.3h-21.24c-10.56 0-19.08-8.6-19.08-19.4 0-10.8 8.04-19.4 19.08-19.4 1.92 0 4.08.5 6.48.7l4.08 1.2 1.2-4.1c3.84-12.4 15.72-20.1 29.4-20.1 16.44 0 29.16 12.7 29.16 29.3 0 2.6-.48 5.2-1.2 7.9l-1.68 6 6.48-.8h1.2c4.68 0 8.52 4.1 8.52 8.7 0 4.5-3.36 7.9-7.32 8.6h-21.36c-.72-6-3.84-11.3-7.8-15.3-5.28-5.3-12.48-8.4-19.92-8.4-5.28 0-10.44 1.4-14.52 4l4.56 7.2c3.24-1.9 6.6-2.6 10.44-2.6 5.28 0 10.56 1.9 13.92 6 3.84 3.8 5.88 8.6 5.88 13.9 0 5.3-1.8 10.6-5.88 13.9-3.84 4.1-8.64 6-13.92 6-3.84 0-7.44-1.2-10.44-3.4l-4.56 7.2c4.56 2.7 9.72 4.6 14.52 4.6 7.44 0 14.64-2.6 19.92-8.2 4.44-4.5 7.08-10.5 7.8-16.7h22.32c8.52-.8 15-8.2 15-17.3 0-7.2-6.72-13.9-14.64-15.4.48-1.4.48-2.1.48-4.5 0-21.1-14.76-37.9-38.4-37.9-15.12 0-28.44 8.6-33.96 22.5-1.92 0-3.36-.7-5.52-.7-15.48-.2-27.96 11.8-27.96 27.1 0 15.1 12.48 27.1 27.24 27.1h23.4l-1.68-7.7z" stroke="#000" stroke-opacity="0" fill="#59b4d9"/><path d="M606.4 671.46c0 7.42-6 13.43-13.4 13.43s-13.38-6.02-13.38-13.44c0-7.4 6-13.43 13.38-13.43 7.4 0 13.4 6.02 13.4 13.43z" stroke="#000" stroke-opacity="0" fill="#68217a"/><path d="M583.4 688.3l4.22-6.7-7.63-7.08-21.42-1.4-16.63-12.37-1.48-17.2 12.75-17.5 21.07-.2 12.52-17.58 20.27-4.84 18.44 5.03 11.4 10.05 4.2 15.64-.57 12.93 13.78 4.84-3.42 14.8-13.1 5.22-18.9.83-6.5 12.56-9.33 9.88-13.43 1.3z" stroke="#000" stroke-opacity="0" stroke-width="0" fill-opacity="0"/><use xlink:href="#j" transform="matrix(1,0,0,1,508.5,709) translate(34.888888888888886 14.222222222222223)"/><use xlink:href="#k" transform="matrix(1,0,0,1,508.5,709) translate(75.97530864197532 14.222222222222223)"/><path d="M240 697.2c0 2.65 2.16 4.8 4.8 4.8h110.4c2.64 0 4.8-2.15 4.8-4.8v-74.95H240v74.96z" stroke="#000" stroke-opacity="0" fill="#0072c6"/><path d="M355.2 600H244.8c-2.64 0-4.8 2.15-4.8 4.8v25.43h120V604.8c0-2.65-2.16-4.8-4.8-4.8" stroke="#000" stroke-opacity="0" fill="#a0a1a2"/><path d="M244.83 600c-2.62 0-4.8 2.14-4.8 4.8v92.39c0 2.66 2.18 4.8 4.8 4.8h5.24l94.62-102h-99.87z" stroke="#000" stroke-opacity="0" fill="#fff" fill-opacity=".2"/><path d="M270.86 611.43h80.8v9.43h-80.8v-9.43z" stroke="#000" stroke-opacity="0" fill="#fff"/><path d="M267.14 616c0 6.43-5.24 11.66-11.7 11.66-6.47 0-11.7-5.23-11.7-11.67 0-6.46 5.23-11.68 11.7-11.68 6.46 0 11.7 5.22 11.7 11.67" stroke="#000" stroke-opacity="0" fill="#59b4d9"/><path d="M254.2 617.3l5.3 5.6h-2.88l-7.1-6.75 7.1-6.74h2.86l-5.3 5.56h12.96v2.35H254.2zM281.5 654.13l-6.35 21.1h-3.52l-4.35-15.1c-.18-.58-.3-1.23-.35-1.97h-.06c-.06.5-.2 1.14-.45 1.92l-4.73 15.14h-3.4l-6.4-21.1h3.55l4.38 15.87c.14.48.23 1.1.3 1.9h.17c.03-.62.15-1.25.35-1.95l4.9-15.82h3.1l4.37 15.9c.12.5.24 1.14.3 1.9h.18c.03-.55.14-1.18.35-1.9l4.3-15.9h3.34zM314.18 654.13l-6.33 21.1h-3.52l-4.35-15.1c-.18-.58-.3-1.23-.35-1.97h-.1c-.02.5-.17 1.14-.4 1.92l-4.74 15.14H291l-6.4-21.1h3.55l4.37 15.87c.15.48.24 1.1.3 1.9h.18c.03-.62.15-1.25.35-1.95l4.9-15.82h3.1l4.37 15.9c.12.5.24 1.14.3 1.9h.17c.02-.55.14-1.18.35-1.9l4.3-15.9h3.33zM346.88 654.13l-6.33 21.1h-3.52l-4.35-15.1c-.18-.58-.3-1.23-.36-1.97h-.06c-.05.5-.2 1.14-.44 1.92l-4.73 15.14h-3.42l-6.4-21.1h3.56l4.38 15.87c.15.48.24 1.1.3 1.9h.17c.02-.62.14-1.25.35-1.95l4.88-15.82h3.1l4.4 15.9c.1.5.23 1.14.3 1.9h.16c.02-.55.14-1.18.35-1.9l4.3-15.9h3.33z" stroke="#000" stroke-opacity="0" fill="#fff"/><use xlink:href="#l" transform="matrix(1,0,0,1,210,711) translate(46.275000000000006 14.4)"/><use xlink:href="#m" transform="matrix(1,0,0,1,210,711) translate(87.875 14.4)"/><path d="M378.5 651h150.4" stroke="#666" stroke-width="2" fill="none"/><path d="M363.24 651l14.26-4.64v9.28zM544.16 651l-14.27 4.64v-9.28z" stroke="#666" stroke-width="2" fill="#666"/><path d="M862.54 554.2c.48-2.15.72-4.2.72-6.33 0-15.92-12.96-28.87-28.92-28.87-11.16 0-21.12 6.32-25.92 16.22-3.96-3.88-9.12-6.12-14.76-6.12-11.4 0-20.64 9.38-20.64 20.8 0 1.54.12 3.07.48 4.7-9.36 3.87-15 11.83-15 21.52 0 13.06 10.68 23.26 24.24 23.26h1.56c.24 12.03 10.08 21.62 21.96 21.62 8.16 0 15.36-4.4 19.2-11.22 3 2.45 6.6 3.88 10.56 3.88 8.16 0 15-6.23 15.96-14.28h2.28c13.56 0 24.24-10.2 24.24-23.26 0-10.1-6.12-18.36-15.96-21.93" stroke="#000" stroke-opacity="0" fill="#3e3e3e"/><path d="M853.14 565.14l1.78-4.2-.5-.44-3.87-3.36v-3.4l4.37-3.87-1.7-4.2-.7.03-5.1.35-2.38-2.4.34-5.84-4.16-1.76-.47.5-3.36 3.86H834l-3.86-4.36-4.2 1.7.03.7.35 5.1-2.4 2.35-5.82-.32-1.78 4.18.5.46 3.86 3.36v3.4l-4.36 3.87 1.7 4.2.7-.03 5.1-.34 2.38 2.4-.34 5.83 4.2 1.8.43-.52 3.34-3.86h3.4l3.86 4.37 4.2-1.7-.03-.7-.35-5.1 2.4-2.4 5.82.34zm-21.15-1.2c-4.72-2-6.96-7.46-4.95-12.2 2-4.73 7.45-6.97 12.2-4.96 4.7 2 6.94 7.46 4.94 12.2-2.02 4.73-7.46 6.97-12.2 4.96M826.56 586.18v-4.55l-.64-.2-4.87-1.6-1.27-3.12 2.47-5.3-3.2-3.2-.6.32-4.54 2.28-3.14-1.28-1.95-5.5h-4.54l-.2.63-1.6 4.87-3.15 1.28-5.25-2.48-3.2 3.2.28.6 2.32 4.6-1.28 3.1-5.5 1.97v4.54l.63.2 4.87 1.6 1.28 3.16-2.48 5.27 3.2 3.2.6-.28 4.58-2.33 3.1 1.28 1.97 5.5h4.55l.2-.63 1.6-4.87 3.14-1.28 5.28 2.48 3.2-3.2-.3-.6-2.3-4.55 1.27-3.16 5.5-1.96zm-19.95 7.1c-5.13 0-9.28-4.14-9.28-9.3 0-5.15 4.2-9.3 9.3-9.3 5.14 0 9.3 4.2 9.3 9.3 0 5.16-4.16 9.3-9.3 9.3" stroke="#000" stroke-opacity="0" fill="#fff"/><path d="M841.18 557.7c-1.3 3.08-4.84 4.52-7.9 3.22-3.08-1.3-4.5-4.84-3.2-7.9 1.28-3.08 4.82-4.53 7.88-3.23 3.08 1.3 4.5 4.83 3.22 7.9M812.65 584c0 3.32-2.7 6.03-6.03 6.03-3.35 0-6.04-2.7-6.04-6.04 0-3.35 2.7-6.06 6.04-6.06 3.32 0 6.03 2.7 6.03 6.05" stroke="#000" stroke-opacity="0" fill="#b8d432"/><use xlink:href="#n" transform="matrix(1,0,0,1,728.5,630) translate(19.049999999999997 14.4)"/><use xlink:href="#o" transform="matrix(1,0,0,1,728.5,630) translate(118 14.4)"/><path d="M674.18 440h21.33c6.64 0 12 5.37 12 12v106c0 6.63 5.38 12 12 12h21.34" stroke="#666" stroke-width="2" fill="none"/><path d="M658.92 440l14.26-4.64v9.28zM756.1 570l-14.26 4.64v-9.28z" stroke="#666" stroke-width="2" fill="#666"/><path d="M674.18 650h21.33c6.64 0 12-5.37 12-12v-56c0-6.63 5.38-12 12-12h21.34" stroke="#666" stroke-width="2" fill="none"/><path d="M658.92 650l14.26-4.64v9.28zM756.1 570l-14.26 4.64v-9.28z" stroke="#666" stroke-width="2" fill="#666"/><path d="M1233.76 422.5c3.63 0 7.02.68 10.23 2.1 3.13 1.36 5.93 3.25 8.33 5.62 2.3 2.36 4.2 5.14 5.6 8.3 1.4 3.2 2.07 6.6 2.07 10.23 0 3.62-.66 7.03-2.06 10.24-1.4 3.14-3.3 5.92-5.6 8.28-2.4 2.36-5.2 4.25-8.35 5.62-3.22 1.42-6.6 2.1-10.24 2.1h-30.03c-3.63 0-7-.68-10.23-2.1-3.13-1.37-5.94-3.26-8.33-5.62-2.3-2.36-4.2-5.14-5.6-8.3-1.4-3.2-2.07-6.6-2.07-10.23 0-3.62.66-7.04 2.06-10.24 1.4-3.14 3.3-5.92 5.6-8.28 2.4-2.37 5.2-4.26 8.34-5.62 3.22-1.42 6.6-2.1 10.23-2.1h3.8v7.5c-2.97 0-5.86.32-8.58 1-2.72.7-5.12 1.8-7.18 3.3-2.06 1.48-3.7 3.42-4.95 5.8-1.24 2.35-1.8 5.24-1.8 8.65 0 2.57.48 5 1.47 7.24.98 2.25 2.3 4.25 4.03 5.98 1.74 1.68 3.72 3.04 5.94 4.04 2.3 1 4.7 1.47 7.26 1.47h30.03c2.56 0 4.95-.48 7.26-1.48 2.23-1 4.2-2.36 5.94-4.04 1.74-1.73 3.06-3.73 4.05-6 1-2.24 1.5-4.66 1.5-7.23 0-3.4-.6-6.3-1.82-8.66-1.24-2.38-2.9-4.27-4.95-5.8-2.07-1.5-4.46-2.6-7.18-3.3-2.72-.68-5.6-1-8.58-1v-7.5h3.8z" stroke="#000" stroke-opacity="0" stroke-width="3" fill="#7fba00"/><path d="M1192.47 452.5V445c2.97 0 5.86-.32 8.58-1 2.72-.7 5.12-1.8 7.18-3.3 2.06-1.53 3.7-3.42 4.95-5.8 1.24-2.35 1.8-5.24 1.8-8.65 0-2.57-.48-5-1.47-7.24-.98-2.3-2.3-4.25-4.03-5.98-1.74-1.68-3.72-3.04-5.94-4.04-2.3-1-4.7-1.47-7.26-1.47h-30.03c-2.56 0-4.95.48-7.26 1.48-2.23 1-4.2 2.36-5.94 4.04-1.74 1.73-3.06 3.68-4.05 6-1 2.24-1.5 4.66-1.5 7.23 0 3.4.6 6.3 1.82 8.66 1.24 2.38 2.9 4.27 4.95 5.8 2.07 1.5 4.46 2.6 7.18 3.3 2.72.68 5.6 1 8.58 1v7.5h-3.8c-3.62 0-7-.68-10.22-2.1-3.13-1.36-5.93-3.25-8.33-5.62-2.3-2.36-4.2-5.14-5.6-8.3-1.4-3.2-2.07-6.6-2.07-10.23 0-3.62.66-7.03 2.06-10.24 1.4-3.14 3.3-5.92 5.6-8.28 2.4-2.36 5.2-4.25 8.35-5.62 3.22-1.42 6.6-2.1 10.24-2.1h30.03c3.63 0 7 .68 10.23 2.1 3.13 1.37 5.94 3.26 8.33 5.62 2.3 2.36 4.2 5.14 5.6 8.3 1.4 3.2 2.07 6.6 2.07 10.23 0 3.62-.66 7.04-2.06 10.24-1.4 3.14-3.3 5.92-5.6 8.28-2.4 2.37-5.2 4.26-8.34 5.62-3.22 1.42-6.6 2.1-10.23 2.1h-3.8z" stroke="#000" stroke-opacity="0" stroke-width="3" fill="#59b4d9"/><path d="M1166.62 451.48h28.93s24.4-.9 25.62-25.62c0 0 .97-21.48-24.82-24.8h-33.68s-17.4 2.3-21.92 21.88c0 0-2.9 18.65 15.23 26.37 0 0 2.5 1.97 10.64 2.18z" stroke="#000" stroke-opacity="0" stroke-width="0" fill-opacity="0"/><path d="M1206.52 423.58h24.2s23.4-3.03 28.14 23.57c0 0 3.05 14.38-15.3 24.48 0 0-3.6 1.96-8.82 2.32h-32.55s-21.4-1.82-23.25-23.27c0 0-2.48-27.15 27.57-27.1z" stroke="#000" stroke-opacity="0" stroke-width="0" fill-opacity="0"/><use xlink:href="#p" transform="matrix(1,0,0,1,1110,484) translate(6.1499999999999915 14.4)"/><use xlink:href="#q" transform="matrix(1,0,0,1,1110,484) translate(104.9 14.4)"/><use xlink:href="#r" transform="matrix(1,0,0,1,1110,484) translate(17.450000000000003 36)"/><use xlink:href="#s" transform="matrix(1,0,0,1,1110,484) translate(52.45 36)"/><use xlink:href="#t" transform="matrix(1,0,0,1,1110,484) translate(106.3 36)"/><use xlink:href="#u" transform="matrix(1,0,0,1,1110,484) translate(48.525 57.6)"/><use xlink:href="#v" transform="matrix(1,0,0,1,1110,484) translate(102.475 57.6)"/><path d="M1233.76 615c3.63 0 7.02.68 10.23 2.1 3.13 1.36 5.93 3.25 8.33 5.62 2.3 2.36 4.2 5.14 5.6 8.3 1.4 3.2 2.07 6.6 2.07 10.23 0 3.62-.66 7.03-2.06 10.24-1.4 3.14-3.3 5.92-5.6 8.28-2.4 2.36-5.2 4.25-8.35 5.62-3.22 1.42-6.6 2.1-10.24 2.1h-30.03c-3.63 0-7-.68-10.23-2.1-3.13-1.37-5.94-3.26-8.33-5.62-2.3-2.36-4.2-5.14-5.6-8.3-1.4-3.2-2.07-6.6-2.07-10.23 0-3.62.66-7.04 2.06-10.24 1.4-3.14 3.3-5.92 5.6-8.28 2.4-2.37 5.2-4.26 8.34-5.62 3.22-1.42 6.6-2.1 10.23-2.1h3.8v7.5c-2.97 0-5.86.32-8.58 1-2.72.7-5.12 1.8-7.18 3.3-2.06 1.48-3.7 3.42-4.95 5.8-1.24 2.35-1.8 5.24-1.8 8.65 0 2.57.48 5 1.47 7.24.98 2.25 2.3 4.25 4.03 5.98 1.74 1.68 3.72 3.04 5.94 4.04 2.3 1 4.7 1.47 7.26 1.47h30.03c2.56 0 4.95-.48 7.26-1.48 2.23-1 4.2-2.36 5.94-4.04 1.74-1.73 3.06-3.73 4.05-6 1-2.24 1.5-4.66 1.5-7.23 0-3.4-.6-6.3-1.82-8.66-1.24-2.38-2.9-4.27-4.95-5.8-2.07-1.5-4.46-2.6-7.18-3.3-2.72-.68-5.6-1-8.58-1V615h3.8z" stroke="#000" stroke-opacity="0" stroke-width="3" fill="#7fba00"/><path d="M1192.47 645v-7.5c2.97 0 5.86-.32 8.58-1 2.72-.7 5.12-1.8 7.18-3.3 2.06-1.53 3.7-3.42 4.95-5.8 1.24-2.35 1.8-5.24 1.8-8.65 0-2.57-.48-5-1.47-7.24-.98-2.3-2.3-4.25-4.03-5.98-1.74-1.68-3.72-3.04-5.94-4.04-2.3-1-4.7-1.47-7.26-1.47h-30.03c-2.56 0-4.95.48-7.26 1.48-2.23 1-4.2 2.36-5.94 4.04-1.74 1.73-3.06 3.68-4.05 6-1 2.24-1.5 4.66-1.5 7.23 0 3.4.6 6.3 1.82 8.66 1.24 2.38 2.9 4.27 4.95 5.8 2.07 1.5 4.46 2.6 7.18 3.3 2.72.68 5.6 1 8.58 1v7.5h-3.8c-3.62 0-7-.68-10.22-2.1-3.13-1.36-5.93-3.25-8.33-5.62-2.3-2.36-4.2-5.14-5.6-8.3-1.4-3.2-2.07-6.6-2.07-10.23 0-3.62.66-7.03 2.06-10.24 1.4-3.14 3.3-5.92 5.6-8.28 2.4-2.36 5.2-4.25 8.35-5.62 3.22-1.42 6.6-2.1 10.24-2.1h30.03c3.63 0 7 .68 10.23 2.1 3.13 1.37 5.94 3.26 8.33 5.62 2.3 2.36 4.2 5.14 5.6 8.3 1.4 3.2 2.07 6.6 2.07 10.23 0 3.62-.66 7.04-2.06 10.24-1.4 3.14-3.3 5.92-5.6 8.28-2.4 2.37-5.2 4.26-8.34 5.62-3.22 1.42-6.6 2.1-10.23 2.1h-3.8z" stroke="#000" stroke-opacity="0" stroke-width="3" fill="#59b4d9"/><path d="M1166.62 643.98h28.93s24.4-.9 25.62-25.62c0 0 .97-21.48-24.82-24.8h-33.68s-17.4 2.3-21.92 21.88c0 0-2.9 18.65 15.23 26.37 0 0 2.5 1.97 10.64 2.18z" stroke="#000" stroke-opacity="0" stroke-width="0" fill-opacity="0"/><path d="M1206.52 616.08h24.2s23.4-3.03 28.14 23.57c0 0 3.05 14.38-15.3 24.48 0 0-3.6 1.96-8.82 2.32h-32.55s-21.4-1.82-23.25-23.27c0 0-2.48-27.15 27.57-27.1z" stroke="#000" stroke-opacity="0" stroke-width="0" fill-opacity="0"/><g><use xlink:href="#p" transform="matrix(1,0,0,1,1110,676.5) translate(13.674999999999983 14.4)"/><use xlink:href="#w" transform="matrix(1,0,0,1,1110,676.5) translate(112.425 14.4)"/><use xlink:href="#x" transform="matrix(1,0,0,1,1110,676.5) translate(29.574999999999996 36)"/><use xlink:href="#v" transform="matrix(1,0,0,1,1110,676.5) translate(121.42500000000001 36)"/></g><path d="M818.5 505.22V449.5c0-6.63 5.37-12 12-12h293.56" stroke="#666" stroke-width="2" fill="none"/><path d="M818.5 520.5l-4.64-14.28h9.28zM1139.33 437.5l-14.27 4.64v-9.28z" stroke="#666" stroke-width="2" fill="#666"/><path d="M878.62 570H998.1c6.62 0 12 5.37 12 12v36c0 6.63 5.37 12 12 12h101.96" stroke="#666" stroke-width="2" fill="none"/><path d="M878.65 571h-.73l-.02-.23-.63-1.77h1.38z" fill="#666"/><path d="M1139.33 630l-14.27 4.64v-9.28z" stroke="#666" stroke-width="2" fill="#666"/><defs><path d="M185-189c-5-48-123-54-124 2 14 75 158 14 163 119 3 78-121 87-175 55-17-10-28-26-33-46l33-7c5 56 141 63 141-1 0-78-155-14-162-118-5-82 145-84 179-34 5 7 8 16 11 25" id="y"/><path d="M141-36C126-15 110 5 73 4 37 3 15-17 15-53c-1-64 63-63 125-63 3-35-9-54-41-54-24 1-41 7-42 31l-33-3c5-37 33-52 76-52 45 0 72 20 72 64v82c-1 20 7 32 28 27v20c-31 9-61-2-59-35zM48-53c0 20 12 33 32 33 41-3 63-29 60-74-43 2-92-5-92 41" id="z"/><path d="M101-234c-31-9-42 10-38 44h38v23H63V0H32v-167H5v-23h27c-7-52 17-82 69-68v24" id="A"/><path d="M100-194c63 0 86 42 84 106H49c0 40 14 67 53 68 26 1 43-12 49-29l28 8c-11 28-37 45-77 45C44 4 14-33 15-96c1-61 26-98 85-98zm52 81c6-60-76-77-97-28-3 7-6 17-6 28h103" id="B"/><path d="M59-47c-2 24 18 29 38 22v24C64 9 27 4 27-40v-127H5v-23h24l9-43h21v43h35v23H59v120" id="C"/><path d="M114-163C36-179 61-72 57 0H25l-1-190h30c1 12-1 29 2 39 6-27 23-49 58-41v29" id="D"/><path d="M135-143c-3-34-86-38-87 0 15 53 115 12 119 90S17 21 10-45l28-5c4 36 97 45 98 0-10-56-113-15-118-90-4-57 82-63 122-42 12 7 21 19 24 35" id="E"/><g id="a"><use transform="matrix(0.04938271604938272,0,0,0.04938271604938272,0,0)" xlink:href="#y"/><use transform="matrix(0.04938271604938272,0,0,0.04938271604938272,11.851851851851853,0)" xlink:href="#z"/><use transform="matrix(0.04938271604938272,0,0,0.04938271604938272,21.7283950617284,0)" xlink:href="#A"/><use transform="matrix(0.04938271604938272,0,0,0.04938271604938272,26.666666666666668,0)" xlink:href="#B"/><use transform="matrix(0.04938271604938272,0,0,0.04938271604938272,36.543209876543216,0)" xlink:href="#y"/><use transform="matrix(0.04938271604938272,0,0,0.04938271604938272,48.39506172839507,0)" xlink:href="#C"/><use transform="matrix(0.04938271604938272,0,0,0.04938271604938272,53.333333333333336,0)" xlink:href="#D"/><use transform="matrix(0.04938271604938272,0,0,0.04938271604938272,59.209876543209894,0)" xlink:href="#B"/><use transform="matrix(0.04938271604938272,0,0,0.04938271604938272,69.08641975308643,0)" xlink:href="#B"/><use transform="matrix(0.04938271604938272,0,0,0.04938271604938272,78.96296296296298,0)" xlink:href="#C"/><use transform="matrix(0.04938271604938272,0,0,0.04938271604938272,83.90123456790124,0)" xlink:href="#E"/></g><path d="M205 0l-28-72H64L36 0H1l101-248h38L239 0h-34zm-38-99l-47-123c-12 45-31 82-46 123h93" id="F"/><path d="M115-194c55 1 70 41 70 98S169 2 115 4C84 4 66-9 55-30l1 105H24l-1-265h31l2 30c10-21 28-34 59-34zm-8 174c40 0 45-34 45-75s-6-73-45-74c-42 0-51 32-51 76 0 43 10 73 51 73" id="G"/><g id="b"><use transform="matrix(0.04938271604938272,0,0,0.04938271604938272,0,0)" xlink:href="#F"/><use transform="matrix(0.04938271604938272,0,0,0.04938271604938272,11.851851851851853,0)" xlink:href="#G"/><use transform="matrix(0.04938271604938272,0,0,0.04938271604938272,21.7283950617284,0)" xlink:href="#G"/></g><path d="M266 0h-40l-56-210L115 0H75L2-248h35L96-30l15-64 43-154h32l59 218 59-218h35" id="H"/><g id="c"><use transform="matrix(0.04938271604938272,0,0,0.04938271604938272,0,0)" xlink:href="#F"/><use transform="matrix(0.04938271604938272,0,0,0.04938271604938272,11.209876543209878,0)" xlink:href="#H"/><use transform="matrix(0.04938271604938272,0,0,0.04938271604938272,27.95061728395062,0)" xlink:href="#y"/></g><path d="M197 0v-115H63V0H30v-248h33v105h134v-105h34V0h-34" id="I"/><path d="M100-194c62-1 85 37 85 99 1 63-27 99-86 99S16-35 15-95c0-66 28-99 85-99zM99-20c44 1 53-31 53-75 0-43-8-75-51-75s-53 32-53 75 10 74 51 75" id="J"/><path d="M85-194c31 0 48 13 60 33l-1-100h32l1 261h-30c-2-10 0-23-3-31C134-8 116 4 85 4 32 4 16-35 15-94c0-66 23-100 70-100zm9 24c-40 0-46 34-46 75 0 40 6 74 45 74 42 0 51-32 51-76 0-42-9-74-50-73" id="K"/><g id="d"><use transform="matrix(0.04938271604938272,0,0,0.04938271604938272,0,0)" xlink:href="#I"/><use transform="matrix(0.04938271604938272,0,0,0.04938271604938272,12.790123456790125,0)" xlink:href="#J"/><use transform="matrix(0.04938271604938272,0,0,0.04938271604938272,22.66666666666667,0)" xlink:href="#E"/><use transform="matrix(0.04938271604938272,0,0,0.04938271604938272,31.555555555555557,0)" xlink:href="#C"/><use transform="matrix(0.04938271604938272,0,0,0.04938271604938272,36.49382716049384,0)" xlink:href="#B"/><use transform="matrix(0.04938271604938272,0,0,0.04938271604938272,46.37037037037038,0)" xlink:href="#K"/></g><path d="M108 0H70L1-190h34L89-25l56-165h34" id="L"/><g id="e"><use transform="matrix(0.04938271604938272,0,0,0.04938271604938272,0,0)" xlink:href="#y"/><use transform="matrix(0.04938271604938272,0,0,0.04938271604938272,11.851851851851853,0)" xlink:href="#B"/><use transform="matrix(0.04938271604938272,0,0,0.04938271604938272,21.7283950617284,0)" xlink:href="#D"/><use transform="matrix(0.04938271604938272,0,0,0.04938271604938272,27.604938271604947,0)" xlink:href="#L"/><use transform="matrix(0.04938271604938272,0,0,0.04938271604938272,36.49382716049384,0)" xlink:href="#B"/><use transform="matrix(0.04938271604938272,0,0,0.04938271604938272,46.37037037037038,0)" xlink:href="#D"/></g><path d="M240 0l2-218c-23 76-54 145-80 218h-23L58-218 59 0H30v-248h44l77 211c21-75 51-140 76-211h43V0h-30" id="M"/><path d="M115-194c53 0 69 39 70 98 0 66-23 100-70 100C84 3 66-7 56-30L54 0H23l1-261h32v101c10-23 28-34 59-34zm-8 174c40 0 45-34 45-75 0-40-5-75-45-74-42 0-51 32-51 76 0 43 10 73 51 73" id="N"/><path d="M24-231v-30h32v30H24zM24 0v-190h32V0H24" id="O"/><path d="M24 0v-261h32V0H24" id="P"/><g id="f"><use transform="matrix(0.04938271604938272,0,0,0.04938271604938272,0,0)" xlink:href="#M"/><use transform="matrix(0.04938271604938272,0,0,0.04938271604938272,14.765432098765434,0)" xlink:href="#J"/><use transform="matrix(0.04938271604938272,0,0,0.04938271604938272,24.641975308641978,0)" xlink:href="#N"/><use transform="matrix(0.04938271604938272,0,0,0.04938271604938272,34.51851851851852,0)" xlink:href="#O"/><use transform="matrix(0.04938271604938272,0,0,0.04938271604938272,38.41975308641975,0)" xlink:href="#P"/><use transform="matrix(0.04938271604938272,0,0,0.04938271604938272,42.32098765432099,0)" xlink:href="#B"/></g><path d="M96-169c-40 0-48 33-48 73s9 75 48 75c24 0 41-14 43-38l32 2c-6 37-31 61-74 61-59 0-76-41-82-99-10-93 101-131 147-64 4 7 5 14 7 22l-32 3c-4-21-16-35-41-35" id="Q"/><path d="M117-194c89-4 53 116 60 194h-32v-121c0-31-8-49-39-48C34-167 62-67 57 0H25l-1-190h30c1 10-1 24 2 32 11-22 29-35 61-36" id="R"/><g id="g"><use transform="matrix(0.04938271604938272,0,0,0.04938271604938272,0,0)" xlink:href="#F"/><use transform="matrix(0.04938271604938272,0,0,0.04938271604938272,11.851851851851853,0)" xlink:href="#G"/><use transform="matrix(0.04938271604938272,0,0,0.04938271604938272,21.7283950617284,0)" xlink:href="#G"/><use transform="matrix(0.04938271604938272,0,0,0.04938271604938272,31.60493827160494,0)" xlink:href="#P"/><use transform="matrix(0.04938271604938272,0,0,0.04938271604938272,35.50617283950618,0)" xlink:href="#O"/><use transform="matrix(0.04938271604938272,0,0,0.04938271604938272,39.40740740740741,0)" xlink:href="#Q"/><use transform="matrix(0.04938271604938272,0,0,0.04938271604938272,48.296296296296305,0)" xlink:href="#z"/><use transform="matrix(0.04938271604938272,0,0,0.04938271604938272,58.17283950617284,0)" xlink:href="#C"/><use transform="matrix(0.04938271604938272,0,0,0.04938271604938272,63.111111111111114,0)" xlink:href="#O"/><use transform="matrix(0.04938271604938272,0,0,0.04938271604938272,67.01234567901236,0)" xlink:href="#J"/><use transform="matrix(0.04938271604938272,0,0,0.04938271604938272,76.8888888888889,0)" xlink:href="#R"/></g><path d="M30-248c87 1 191-15 191 75 0 78-77 80-158 76V0H30v-248zm33 125c57 0 124 11 124-50 0-59-68-47-124-48v98" id="S"/><g id="h"><use transform="matrix(0.04938271604938272,0,0,0.04938271604938272,0,0)" xlink:href="#S"/><use transform="matrix(0.04938271604938272,0,0,0.04938271604938272,11.851851851851853,0)" xlink:href="#D"/><use transform="matrix(0.04938271604938272,0,0,0.04938271604938272,17.728395061728396,0)" xlink:href="#O"/><use transform="matrix(0.04938271604938272,0,0,0.04938271604938272,21.62962962962963,0)" xlink:href="#L"/><use transform="matrix(0.04938271604938272,0,0,0.04938271604938272,30.518518518518523,0)" xlink:href="#z"/><use transform="matrix(0.04938271604938272,0,0,0.04938271604938272,40.39506172839506,0)" xlink:href="#C"/><use transform="matrix(0.04938271604938272,0,0,0.04938271604938272,45.333333333333336,0)" xlink:href="#B"/></g><path d="M33 0v-248h34V0H33" id="T"/><g id="i"><use transform="matrix(0.04938271604938272,0,0,0.04938271604938272,0,0)" xlink:href="#F"/><use transform="matrix(0.04938271604938272,0,0,0.04938271604938272,11.851851851851853,0)" xlink:href="#S"/><use transform="matrix(0.04938271604938272,0,0,0.04938271604938272,23.703703703703706,0)" xlink:href="#T"/></g><g id="j"><use transform="matrix(0.04938271604938272,0,0,0.04938271604938272,0,0)" xlink:href="#H"/><use transform="matrix(0.04938271604938272,0,0,0.04938271604938272,16.39506172839506,0)" xlink:href="#B"/><use transform="matrix(0.04938271604938272,0,0,0.04938271604938272,26.271604938271608,0)" xlink:href="#N"/></g><path d="M160-131c35 5 61 23 61 61C221 17 115-2 30 0v-248c76 3 177-17 177 60 0 33-19 50-47 57zm-97-11c50-1 110 9 110-42 0-47-63-36-110-37v79zm0 115c55-2 124 14 124-45 0-56-70-42-124-44v89" id="U"/><path d="M143 0L79-87 56-68V0H24v-261h32v163l83-92h37l-77 82L181 0h-38" id="V"/><g id="k"><use transform="matrix(0.04938271604938272,0,0,0.04938271604938272,0,0)" xlink:href="#U"/><use transform="matrix(0.04938271604938272,0,0,0.04938271604938272,11.851851851851853,0)" xlink:href="#z"/><use transform="matrix(0.04938271604938272,0,0,0.04938271604938272,21.7283950617284,0)" xlink:href="#Q"/><use transform="matrix(0.04938271604938272,0,0,0.04938271604938272,30.617283950617285,0)" xlink:href="#V"/><use transform="matrix(0.04938271604938272,0,0,0.04938271604938272,39.50617283950618,0)" xlink:href="#B"/><use transform="matrix(0.04938271604938272,0,0,0.04938271604938272,49.38271604938272,0)" xlink:href="#R"/><use transform="matrix(0.04938271604938272,0,0,0.04938271604938272,59.25925925925927,0)" xlink:href="#K"/></g><g id="l"><use transform="matrix(0.05,0,0,0.05,0,0)" xlink:href="#H"/><use transform="matrix(0.05,0,0,0.05,16.599999999999998,0)" xlink:href="#B"/><use transform="matrix(0.05,0,0,0.05,26.599999999999994,0)" xlink:href="#N"/></g><path d="M212-179c-10-28-35-45-73-45-59 0-87 40-87 99 0 60 29 101 89 101 43 0 62-24 78-52l27 14C228-24 195 4 139 4 59 4 22-46 18-125c-6-104 99-153 187-111 19 9 31 26 39 46" id="W"/><g id="m"><use transform="matrix(0.05,0,0,0.05,0,0)" xlink:href="#W"/><use transform="matrix(0.05,0,0,0.05,12.950000000000001,0)" xlink:href="#P"/><use transform="matrix(0.05,0,0,0.05,16.900000000000002,0)" xlink:href="#O"/><use transform="matrix(0.05,0,0,0.05,20.85,0)" xlink:href="#B"/><use transform="matrix(0.05,0,0,0.05,30.85,0)" xlink:href="#R"/><use transform="matrix(0.05,0,0,0.05,40.85,0)" xlink:href="#C"/></g><g id="n"><use transform="matrix(0.05,0,0,0.05,0,0)" xlink:href="#y"/><use transform="matrix(0.05,0,0,0.05,12,0)" xlink:href="#z"/><use transform="matrix(0.05,0,0,0.05,22,0)" xlink:href="#A"/><use transform="matrix(0.05,0,0,0.05,27,0)" xlink:href="#B"/><use transform="matrix(0.05,0,0,0.05,37,0)" xlink:href="#y"/><use transform="matrix(0.05,0,0,0.05,49,0)" xlink:href="#C"/><use transform="matrix(0.05,0,0,0.05,54,0)" xlink:href="#D"/><use transform="matrix(0.05,0,0,0.05,59.95,0)" xlink:href="#B"/><use transform="matrix(0.05,0,0,0.05,69.95,0)" xlink:href="#B"/><use transform="matrix(0.05,0,0,0.05,79.95,0)" xlink:href="#C"/><use transform="matrix(0.05,0,0,0.05,84.95,0)" xlink:href="#E"/></g><path d="M30 0v-248h33v221h125V0H30" id="X"/><path d="M177-190C167-65 218 103 67 71c-23-6-38-20-44-43l32-5c15 47 100 32 89-28v-30C133-14 115 1 83 1 29 1 15-40 15-95c0-56 16-97 71-98 29-1 48 16 59 35 1-10 0-23 2-32h30zM94-22c36 0 50-32 50-73 0-42-14-75-50-75-39 0-46 34-46 75s6 73 46 73" id="Y"/><g id="o"><use transform="matrix(0.05,0,0,0.05,0,0)" xlink:href="#X"/><use transform="matrix(0.05,0,0,0.05,10,0)" xlink:href="#J"/><use transform="matrix(0.05,0,0,0.05,20,0)" xlink:href="#Y"/><use transform="matrix(0.05,0,0,0.05,30,0)" xlink:href="#O"/><use transform="matrix(0.05,0,0,0.05,33.95,0)" xlink:href="#Q"/></g><path d="M84 4C-5 8 30-112 23-190h32v120c0 31 7 50 39 49 72-2 45-101 50-169h31l1 190h-30c-1-10 1-25-2-33-11 22-28 36-60 37" id="Z"/><path d="M179-190L93 31C79 59 56 82 12 73V49c39 6 53-20 64-50L1-190h34L92-34l54-156h33" id="aa"/><g id="p"><use transform="matrix(0.05,0,0,0.05,0,0)" xlink:href="#M"/><use transform="matrix(0.05,0,0,0.05,14.950000000000001,0)" xlink:href="#Z"/><use transform="matrix(0.05,0,0,0.05,24.950000000000003,0)" xlink:href="#R"/><use transform="matrix(0.05,0,0,0.05,34.95,0)" xlink:href="#O"/><use transform="matrix(0.05,0,0,0.05,38.900000000000006,0)" xlink:href="#Q"/><use transform="matrix(0.05,0,0,0.05,47.900000000000006,0)" xlink:href="#O"/><use transform="matrix(0.05,0,0,0.05,51.85,0)" xlink:href="#G"/><use transform="matrix(0.05,0,0,0.05,61.85,0)" xlink:href="#z"/><use transform="matrix(0.05,0,0,0.05,71.85000000000001,0)" xlink:href="#P"/><use transform="matrix(0.05,0,0,0.05,75.80000000000001,0)" xlink:href="#O"/><use transform="matrix(0.05,0,0,0.05,79.75000000000001,0)" xlink:href="#C"/><use transform="matrix(0.05,0,0,0.05,84.75000000000001,0)" xlink:href="#aa"/></g><g id="q"><use transform="matrix(0.05,0,0,0.05,0,0)" xlink:href="#F"/><use transform="matrix(0.05,0,0,0.05,12,0)" xlink:href="#Q"/><use transform="matrix(0.05,0,0,0.05,21,0)" xlink:href="#Q"/><use transform="matrix(0.05,0,0,0.05,30,0)" xlink:href="#O"/><use transform="matrix(0.05,0,0,0.05,33.95,0)" xlink:href="#K"/><use transform="matrix(0.05,0,0,0.05,43.95,0)" xlink:href="#B"/><use transform="matrix(0.05,0,0,0.05,53.95,0)" xlink:href="#R"/><use transform="matrix(0.05,0,0,0.05,63.95,0)" xlink:href="#C"/></g><g id="r"><use transform="matrix(0.05,0,0,0.05,0,0)" xlink:href="#z"/><use transform="matrix(0.05,0,0,0.05,10,0)" xlink:href="#R"/><use transform="matrix(0.05,0,0,0.05,20,0)" xlink:href="#K"/></g><path d="M127-220V0H93v-220H8v-28h204v28h-85" id="ab"/><g id="s"><use transform="matrix(0.05,0,0,0.05,0,0)" xlink:href="#ab"/><use transform="matrix(0.05,0,0,0.05,10.3,0)" xlink:href="#D"/><use transform="matrix(0.05,0,0,0.05,16.25,0)" xlink:href="#z"/><use transform="matrix(0.05,0,0,0.05,26.25,0)" xlink:href="#A"/><use transform="matrix(0.05,0,0,0.05,30.899999999999995,0)" xlink:href="#A"/><use transform="matrix(0.05,0,0,0.05,35.9,0)" xlink:href="#O"/><use transform="matrix(0.05,0,0,0.05,39.85,0)" xlink:href="#Q"/></g><g id="t"><use transform="matrix(0.05,0,0,0.05,0,0)" xlink:href="#ab"/><use transform="matrix(0.05,0,0,0.05,10.3,0)" xlink:href="#O"/><use transform="matrix(0.05,0,0,0.05,14.25,0)" xlink:href="#Q"/><use transform="matrix(0.05,0,0,0.05,23.25,0)" xlink:href="#V"/><use transform="matrix(0.05,0,0,0.05,32.25,0)" xlink:href="#B"/><use transform="matrix(0.05,0,0,0.05,42.25,0)" xlink:href="#C"/><use transform="matrix(0.05,0,0,0.05,47.25,0)" xlink:href="#E"/></g><path d="M140-251c81 0 123 46 123 126C263-53 228-8 163 1c7 30 30 48 69 40v23c-55 16-95-15-103-61C56-3 17-48 17-125c0-80 42-126 123-126zm0 227c63 0 89-41 89-101s-29-99-89-99c-61 0-89 39-89 99S79-25 140-24" id="ac"/><g id="u"><use transform="matrix(0.05,0,0,0.05,0,0)" xlink:href="#ac"/><use transform="matrix(0.05,0,0,0.05,14,0)" xlink:href="#Z"/><use transform="matrix(0.05,0,0,0.05,24,0)" xlink:href="#B"/><use transform="matrix(0.05,0,0,0.05,34,0)" xlink:href="#D"/><use transform="matrix(0.05,0,0,0.05,39.95,0)" xlink:href="#aa"/></g><g id="v"><use transform="matrix(0.05,0,0,0.05,0,0)" xlink:href="#F"/><use transform="matrix(0.05,0,0,0.05,12,0)" xlink:href="#S"/><use transform="matrix(0.05,0,0,0.05,24,0)" xlink:href="#T"/></g><path d="M233-177c-1 41-23 64-60 70L243 0h-38l-65-103H63V0H30v-248c88 3 205-21 203 71zM63-129c60-2 137 13 137-47 0-61-80-42-137-45v92" id="ad"/><g id="w"><use transform="matrix(0.05,0,0,0.05,0,0)" xlink:href="#ad"/><use transform="matrix(0.05,0,0,0.05,12.950000000000001,0)" xlink:href="#B"/><use transform="matrix(0.05,0,0,0.05,22.950000000000003,0)" xlink:href="#G"/><use transform="matrix(0.05,0,0,0.05,32.95,0)" xlink:href="#J"/><use transform="matrix(0.05,0,0,0.05,42.95,0)" xlink:href="#D"/><use transform="matrix(0.05,0,0,0.05,48.900000000000006,0)" xlink:href="#C"/></g><path d="M145-31C134-9 116 4 85 4 32 4 16-35 15-94c0-59 17-99 70-100 32-1 48 14 60 33 0-11-1-24 2-32h30l-1 268h-32zM93-21c41 0 51-33 51-76s-8-73-50-73c-40 0-46 35-46 75s5 74 45 74" id="ae"/><g id="x"><use transform="matrix(0.05,0,0,0.05,0,0)" xlink:href="#F"/><use transform="matrix(0.05,0,0,0.05,12,0)" xlink:href="#Q"/><use transform="matrix(0.05,0,0,0.05,21,0)" xlink:href="#ae"/><use transform="matrix(0.05,0,0,0.05,31,0)" xlink:href="#Z"/><use transform="matrix(0.05,0,0,0.05,41,0)" xlink:href="#O"/><use transform="matrix(0.05,0,0,0.05,44.95,0)" xlink:href="#E"/><use transform="matrix(0.05,0,0,0.05,53.95,0)" xlink:href="#O"/><use transform="matrix(0.05,0,0,0.05,57.900000000000006,0)" xlink:href="#C"/><use transform="matrix(0.05,0,0,0.05,62.900000000000006,0)" xlink:href="#O"/><use transform="matrix(0.05,0,0,0.05,66.85000000000001,0)" xlink:href="#J"/><use transform="matrix(0.05,0,0,0.05,76.85000000000001,0)" xlink:href="#R"/></g></defs></g></svg>