<?xml version="1.0" encoding="utf-8"?>
<!-- Generator: Adobe Illustrator 16.0.0, SVG Export Plug-In . SVG Version: 6.00 Build 0)  -->
<!DOCTYPE svg PUBLIC "-//W3C//DTD SVG 1.1//EN" "http://www.w3.org/Graphics/SVG/1.1/DTD/svg11.dtd">
<svg version="1.1" id="Layer_1" xmlns="http://www.w3.org/2000/svg" xmlns:xlink="http://www.w3.org/1999/xlink" x="0px" y="0px"
	 width="1819px" height="886px" viewBox="0 0 1819 886" enable-background="new 0 0 1819 886" xml:space="preserve">
<g>
	<rect fill="#FFFFFF" width="1819" height="886"/>
</g>
<g>
	<path fill="none" stroke="#000000" stroke-width="1.3613" stroke-miterlimit="10" stroke-dasharray="12.5655,5.4451" d="
		M81.676,128.803v757.954"/>
	<path fill="none" stroke="#000000" stroke-width="1.3613" stroke-miterlimit="10" stroke-dasharray="12.5655,5.4451" d="
		M411.571,128.803v757.954"/>
	<path fill="none" stroke="#000000" stroke-width="1.3613" stroke-miterlimit="10" stroke-dasharray="12.5655,5.4451" d="
		M858.468,128.803v757.954"/>
	<path fill="none" stroke="#000000" stroke-width="1.3613" stroke-miterlimit="10" stroke-dasharray="12.5655,5.4451" d="
		M1306.363,128.803v757.954"/>
	<path fill="none" stroke="#000000" stroke-width="1.3613" stroke-miterlimit="10" stroke-dasharray="12.5655,5.4451" d="
		M1738.259,128.803v757.954"/>
</g>
<g>
	<g>
		<path fill="#FFFFFF" stroke="#000000" stroke-width="2.777" stroke-miterlimit="10" d="M90.987,59.705
			c0.001,5.143-4.166,9.313-9.308,9.314c-5.143,0.002-9.313-4.166-9.314-9.308c-0.001-5.142,4.166-9.312,9.308-9.314
			c5.139-0.001,9.308,4.16,9.314,9.299 M81.676,69.016v19.929 M69.915,76.204h23.523 M81.676,88.945l-11.761,18.622 M81.676,88.945
			l11.762,18.622"/>
	</g>
	<g>
		<text transform="matrix(1 0 0 1 29.6758 123.9023)" font-family="'ArialMT'" font-size="11">Registered user</text>
	</g>
	<path d="M0,0"/>
	<g>
		<path fill="#FFFFFF" stroke="#000000" stroke-width="2.6136" stroke-miterlimit="10" d="M342.848,84.698h137.448v44.105H342.848
			V84.698z"/>
	</g>
	<g>
		<text transform="matrix(1 0 0 1 360.5718 112.4678)" font-family="'ArialMT'" font-size="11">SafeStreetsApp</text>
	</g>
	<path d="M0,0"/>
	<g>
		<path fill="#FFFFFF" stroke="#000000" stroke-width="2.6136" stroke-miterlimit="10" d="M788.744,84.698h139.447v44.105H788.744
			V84.698z"/>
	</g>
	<g>
		<text transform="matrix(1 0 0 1 806.4678 112.4678)" font-family="'ArialMT'" font-size="11">Reports module</text>
	</g>
	<path d="M0,0"/>
	<g>
		<path fill="#FFFFFF" stroke="#000000" stroke-width="2.6136" stroke-miterlimit="10" d="M1230.64,84.698h151.447v44.105H1230.64
			V84.698z"/>
	</g>
	<g>
		<text transform="matrix(1 0 0 1 1248.3633 112.4678)" font-family="'ArialMT'" font-size="11">Reports database</text>
	</g>
	<path d="M0,0"/>
	<g>
		<path fill="#FFFFFF" stroke="#000000" stroke-width="2.6136" stroke-miterlimit="10" d="M1670.035,84.698h136.447v44.105h-136.447
			V84.698z"/>
	</g>
	<g>
		<text transform="matrix(1 0 0 1 1687.7588 112.4678)" font-family="'ArialMT'" font-size="11">Reports pusher</text>
	</g>
</g>
<g>
	<path fill="#FFFFFF" stroke="#000000" stroke-width="1.3613" stroke-miterlimit="10" d="M73.508,136.971h16.335v733.45H73.508
		V136.971"/>
	<path fill="#FFFFFF" stroke="#000000" stroke-width="1.3613" stroke-miterlimit="10" d="M403.404,199.044h16.335V396.7h-16.335
		V199.044"/>
	<path fill="#FFFFFF" stroke="#000000" stroke-width="1.3613" stroke-miterlimit="10" d="M850.3,261.118h16.335v89.844H850.3
		V261.118"/>
	<path fill="#FFFFFF" stroke="#000000" stroke-width="1.3613" stroke-miterlimit="10" d="M403.404,440.806h16.335V805.08h-16.335
		V440.806"/>
	<path fill="#FFFFFF" stroke="#000000" stroke-width="1.3613" stroke-miterlimit="10" d="M850.3,440.806h16.335v318.536H850.3
		V440.806"/>
	<path fill="#FFFFFF" stroke="#000000" stroke-width="1.3613" stroke-miterlimit="10" d="M1298.195,502.879h16.336v210.725h-16.336
		V502.879"/>
	<path fill="#FFFFFF" stroke="#000000" stroke-width="1.3613" stroke-miterlimit="10" d="M1730.092,627.026h16.335v40.839h-16.335
		V627.026"/>
	<g>
		<g>
			<rect x="109.174" y="161.474" fill="#FFFFFF" width="274.9" height="21.235"/>
		</g>
		<g>
			<rect x="109.174" y="177.809" fill="#FFFFFF" width="269.9" height="21.236"/>
		</g>
		<text transform="matrix(1 0 0 1 111.624 176.1748)" font-family="'ArialMT'" font-size="11">SendReport(violation: String, plate: String,</text>
		<text transform="matrix(1 0 0 1 111.624 192.5107)" font-family="'ArialMT'" font-size="11">position: Location, photos: List&lt;Picture&gt;)</text>
	</g>
	<g>
		<path fill="none" stroke="#000000" stroke-width="1.3613" stroke-miterlimit="10" d="M89.844,199.044h310.838"/>
		<g transform="translate(403.40416028333334,199.04445221049997) translate(-403.40416028333334,-199.04445221049997)">
			<path d="M389.791,192.238l13.613,6.806l-13.613,6.806V192.238z"/>
		</g>
	</g>
	<g>
		<g>
			<rect x="439.069" y="223.547" fill="#FFFFFF" width="391.9" height="21.236"/>
		</g>
		<g>
			<rect x="439.069" y="239.882" fill="#FFFFFF" width="269.9" height="21.236"/>
		</g>
		<text transform="matrix(1 0 0 1 441.5195 238.249)" font-family="'ArialMT'" font-size="11">ForwardReport(userID: String, violation: String, plate: String,</text>
		<text transform="matrix(1 0 0 1 441.5195 254.584)" font-family="'ArialMT'" font-size="11">position: Location, photos: List&lt;Picture&gt;)</text>
	</g>
	<g>
		<path fill="none" stroke="#000000" stroke-width="1.3613" stroke-miterlimit="10" d="M419.739,261.118h427.838"/>
		<g transform="translate(850.2999057166667,261.11822475049996) translate(-850.2999057166667,-261.11822475049996)">
			<path d="M836.688,254.312l13.612,6.806l-13.612,6.807V254.312z"/>
		</g>
	</g>
	<g>
		<g>
			<rect x="554.069" y="329.726" fill="#FFFFFF" width="161.9" height="21.236"/>
		</g>
		<text transform="matrix(1 0 0 1 556.5195 344.4277)" font-family="'ArialMT'" font-size="11">notificationMissingFields</text>
	</g>
	<g>
		<path fill="none" stroke="#000000" stroke-width="1.3613" stroke-miterlimit="10" stroke-dasharray="6.5341" d="M850.3,350.962
			H422.462"/>
		<g transform="translate(419.73936358333333,350.96184290049996) translate(-419.73936358333333,-350.96184290049996)">
			<path d="M433.352,344.155l-13.612,6.807l13.612,6.806V344.155z"/>
		</g>
	</g>
	<g>
		<g>
			<rect x="165.674" y="375.465" fill="#FFFFFF" width="161.9" height="21.235"/>
		</g>
		<text transform="matrix(1 0 0 1 168.124 390.166)" font-family="'ArialMT'" font-size="11">notificationMissingFields</text>
	</g>
	<g>
		<path fill="none" stroke="#000000" stroke-width="1.3613" stroke-miterlimit="10" stroke-dasharray="6.5341" d="M403.404,396.7
			H92.566"/>
		<g transform="translate(89.84361814999998,396.70041214049996) translate(-89.84361814999998,-396.70041214049996)">
			<path d="M103.456,389.894L89.844,396.7l13.612,6.807V389.894z"/>
		</g>
	</g>
	<g>
		<g>
			<rect x="885.965" y="465.309" fill="#FFFFFF" width="392.9" height="21.235"/>
		</g>
		<g>
			<rect x="885.965" y="481.644" fill="#FFFFFF" width="269.9" height="21.235"/>
		</g>
		<text transform="matrix(1 0 0 1 888.4155 480.0098)" font-family="'ArialMT'" font-size="11">RegisterReport(userID: String, violation: String, plate: String,</text>
		<text transform="matrix(1 0 0 1 888.4155 496.3447)" font-family="'ArialMT'" font-size="11">position: Location, photos: List&lt;Picture&gt;)</text>
	</g>
	<g>
		<path fill="none" stroke="#000000" stroke-width="1.3613" stroke-miterlimit="10" d="M866.635,502.879h428.838"/>
		<g transform="translate(1298.19565115,502.87923359049995) translate(-1298.19565115,-502.87923359049995)">
			<path d="M1284.583,496.073l13.612,6.806l-13.612,6.807V496.073z"/>
		</g>
	</g>
	<g>
		<g>
			<rect x="1333.861" y="527.382" fill="#FFFFFF" width="81.9" height="21.236"/>
		</g>
		<text transform="matrix(1 0 0 1 1336.3105 542.084)" font-family="'ArialMT'" font-size="11">save_data()</text>
	</g>
	<g>
		<path fill="none" stroke="#000000" stroke-width="1.3613" stroke-miterlimit="10" d="M1314.531,548.618h65.341v16.335h-62.618"/>
		<g transform="translate(1314.53085445,564.9530061305) translate(-1314.53085445,-564.9530061305)">
			<path d="M1328.144,558.146l-13.612,6.807l13.612,6.807V558.146z"/>
		</g>
	</g>
	<g>
		<g>
			<rect x="1333.861" y="589.456" fill="#FFFFFF" width="376.9" height="21.235"/>
		</g>
		<g>
			<rect x="1333.861" y="605.791" fill="#FFFFFF" width="354.9" height="21.235"/>
		</g>
		<text transform="matrix(1 0 0 1 1336.3105 604.1572)" font-family="'ArialMT'" font-size="11">ForwardMunicipalityReport(userID: String, violation: String</text>
		<text transform="matrix(1 0 0 1 1336.3105 620.4932)" font-family="'ArialMT'" font-size="11">plate: String, position: Location, photos: List&lt;Picture&gt;)</text>
	</g>
	<g>
		<path fill="none" stroke="#000000" stroke-width="1.3613" stroke-miterlimit="10" d="M1314.531,627.026h412.838"/>
		<g transform="translate(1730.0913965833333,627.0267786705) translate(-1730.0913965833333,-627.0267786705)">
			<path d="M1716.479,620.221l13.613,6.806l-13.613,6.807V620.221z"/>
		</g>
	</g>
	<g>
		<g>
			<rect x="1008.465" y="692.367" fill="#FFFFFF" width="147.9" height="21.236"/>
		</g>
		<text transform="matrix(1 0 0 1 1010.916 707.0693)" font-family="'ArialMT'" font-size="11">notificationReportSent</text>
	</g>
	<g>
		<path fill="none" stroke="#000000" stroke-width="1.3613" stroke-miterlimit="10" stroke-dasharray="6.5341" d="M1298.195,713.604
			H869.357"/>
		<g transform="translate(866.6351090166668,713.6033561605) translate(-866.6351090166668,-713.6033561605)">
			<path d="M880.248,706.797l-13.613,6.807l13.613,6.806V706.797z"/>
		</g>
	</g>
	<g>
		<g>
			<rect x="561.069" y="738.106" fill="#FFFFFF" width="147.9" height="21.235"/>
		</g>
		<text transform="matrix(1 0 0 1 563.5195 752.8076)" font-family="'ArialMT'" font-size="11">notificationReportSent</text>
	</g>
	<g>
		<path fill="none" stroke="#000000" stroke-width="1.3613" stroke-miterlimit="10" stroke-dasharray="6.5341" d="M850.3,759.342
			H422.462"/>
		<g transform="translate(419.73936358333333,759.3419254004999) translate(-419.73936358333333,-759.3419254004999)">
			<path d="M433.352,752.535l-13.612,6.807l13.612,6.807V752.535z"/>
		</g>
	</g>
	<g>
		<g>
			<rect x="172.674" y="783.845" fill="#FFFFFF" width="147.9" height="21.235"/>
		</g>
		<text transform="matrix(1 0 0 1 175.124 798.5459)" font-family="'ArialMT'" font-size="11">notificationReportSent</text>
	</g>
	<g>
		<path fill="none" stroke="#000000" stroke-width="1.3613" stroke-miterlimit="10" stroke-dasharray="6.5341" d="M403.404,805.08
			H92.566"/>
		<g transform="translate(89.84361814999998,805.0804946404999) translate(-89.84361814999998,-805.0804946404999)">
			<path d="M103.456,798.274l-13.612,6.806l13.612,6.807V798.274z"/>
		</g>
	</g>
	<g>
		<path fill="none" stroke="#000000" stroke-width="2.3336" stroke-miterlimit="10" d="M16.335,285.621h1779.098v543.962H16.335
			V285.621z"/>
		<path fill="#FFFFFF" stroke="#000000" stroke-width="2.3336" stroke-miterlimit="10" d="M16.335,285.621v19.602h46.671
			l9.801-9.801v-9.801H16.335"/>
		<text transform="matrix(1 0 0 1 32.6704 298.6895)" font-family="'Arial-BoldMT'" font-size="8.8">alt</text>
		<text transform="matrix(1 0 0 1 89.1421 298.6895)" font-family="'Arial-BoldMT'" font-size="8.8">[Missing fields]</text>
		<g>
			<path fill="none" stroke="#000000" stroke-width="2.3336" stroke-miterlimit="10" stroke-dasharray="4.0838" d="M16.335,421.203
				h1779.098"/>
		</g>
		<text transform="matrix(1 0 0 1 89.1421 434.2715)" font-family="'Arial-BoldMT'" font-size="8.8">[No missing fields]</text>
	</g>
</g>
</svg>
