<svg version="1.1" xmlns="http://www.w3.org/2000/svg" xmlns:xlink="http://www.w3.org/1999/xlink" width="1063" height="694"><defs/><g><g/><g/><g/><g/><g/><g/><g/><g/><g/><g/><g><rect fill="white" stroke="none" x="0" y="0" width="1063" height="694"/></g><g/><g><path fill="none" stroke="black" paint-order="fill stroke markers" d=" M 81.67601649999999 87.9650697705 L 81.67601649999999 694.0011122004998" stroke-miterlimit="10" stroke-width="1.3612669416666667" stroke-dasharray="12.565541,5.445067766666667"/><path fill="none" stroke="black" paint-order="fill stroke markers" d=" M 311.5717619333333 87.9650697705 L 311.5717619333333 694.0011122004998" stroke-miterlimit="10" stroke-width="1.3612669416666667" stroke-dasharray="12.565541,5.445067766666667"/><path fill="none" stroke="black" paint-order="fill stroke markers" d=" M 684.4675073666666 87.9650697705 L 684.4675073666666 694.0011122004998" stroke-miterlimit="10" stroke-width="1.3612669416666667" stroke-dasharray="12.565541,5.445067766666667"/><path fill="none" stroke="black" paint-order="fill stroke markers" d=" M 979.3632527999999 87.9650697705 L 979.3632527999999 694.0011122004998" stroke-miterlimit="10" stroke-width="1.3612669416666667" stroke-dasharray="12.565541,5.445067766666667"/></g><g><g><path fill="white" stroke="black" paint-order="fill stroke markers" d=" M 90.987082381 18.867159811499988 A 9.311065881 9.311065881 0 1 1 90.98707772546743 18.857848747170827 M 81.67601649999999 28.17822569249999 L 81.67601649999999 48.10717371849999 M 69.914670124 35.36571514449999 L 93.43736287599998 35.36571514449999 M 81.67601649999999 48.10717371849999 L 69.914670124 66.72930548049999 M 81.67601649999999 48.10717371849999 L 93.43736287599998 66.72930548049999" stroke-miterlimit="10" stroke-width="2.7769845610000004" stroke-dasharray=""/></g><g><g/><text fill="black" stroke="none" font-family="sans-serif" font-size="11pt" font-style="normal" font-weight="normal" text-decoration="normal" x="29.67601649999999" y="83.06450878049999" text-anchor="start" dominant-baseline="alphabetic">Registered user</text></g><path fill="none" stroke="none"/><g><path fill="white" stroke="black" paint-order="fill stroke markers" d=" M 242.84806635283326 43.8600208605 L 380.2954575138333 43.8600208605 L 380.2954575138333 87.9650697705 L 242.84806635283326 87.9650697705 L 242.84806635283326 43.8600208605 Z" stroke-miterlimit="10" stroke-width="2.613632528" stroke-dasharray=""/></g><g><g/><text fill="black" stroke="none" font-family="sans-serif" font-size="11pt" font-style="normal" font-weight="normal" text-decoration="normal" x="260.5717619333333" y="71.62986647049999" text-anchor="start" dominant-baseline="alphabetic">SafeStreetsApp</text></g><path fill="none" stroke="none"/><g><path fill="white" stroke="black" paint-order="fill stroke markers" d=" M 614.7438117861666 43.8600208605 L 754.1912029471666 43.8600208605 L 754.1912029471666 87.9650697705 L 614.7438117861666 87.9650697705 L 614.7438117861666 43.8600208605 Z" stroke-miterlimit="10" stroke-width="2.613632528" stroke-dasharray=""/></g><g><g/><text fill="black" stroke="none" font-family="sans-serif" font-size="11pt" font-style="normal" font-weight="normal" text-decoration="normal" x="632.4675073666666" y="71.62986647049999" text-anchor="start" dominant-baseline="alphabetic">Reports module</text></g><path fill="none" stroke="none"/><g><path fill="white" stroke="black" paint-order="fill stroke markers" d=" M 903.6395572194999 43.8600208605 L 1055.0869483805 43.8600208605 L 1055.0869483805 87.9650697705 L 903.6395572194999 87.9650697705 L 903.6395572194999 43.8600208605 Z" stroke-miterlimit="10" stroke-width="2.613632528" stroke-dasharray=""/></g><g><g/><text fill="black" stroke="none" font-family="sans-serif" font-size="11pt" font-style="normal" font-weight="normal" text-decoration="normal" x="921.3632527999999" y="71.62986647049999" text-anchor="start" dominant-baseline="alphabetic">Reports database</text></g></g><g><path fill="white" stroke="black" paint-order="fill stroke markers" d=" M 73.50841485 96.13267142049999 L 89.84361814999998 96.13267142049999 L 89.84361814999998 677.6659089004999 L 73.50841485 677.6659089004999 L 73.50841485 96.13267142049999" stroke-miterlimit="10" stroke-width="1.3612669416666667" stroke-dasharray=""/><path fill="white" stroke="black" paint-order="fill stroke markers" d=" M 303.4041602833333 141.87124066049998 L 319.7393635833333 141.87124066049998 L 319.7393635833333 431.00433907049995 L 303.4041602833333 431.00433907049995 L 303.4041602833333 141.87124066049998" stroke-miterlimit="10" stroke-width="1.3612669416666667" stroke-dasharray=""/><path fill="white" stroke="black" paint-order="fill stroke markers" d=" M 676.2999057166666 187.60980990049998 L 692.6351090166667 187.60980990049998 L 692.6351090166667 368.93056653049996 L 676.2999057166666 368.93056653049996 L 676.2999057166666 187.60980990049998" stroke-miterlimit="10" stroke-width="1.3612669416666667" stroke-dasharray=""/><path fill="white" stroke="black" paint-order="fill stroke markers" d=" M 971.1956511499999 233.3483791405 L 987.53085445 233.3483791405 L 987.53085445 323.19199729049996 L 971.1956511499999 323.19199729049996 L 971.1956511499999 233.3483791405" stroke-miterlimit="10" stroke-width="1.3612669416666667" stroke-dasharray=""/><path fill="white" stroke="black" paint-order="fill stroke markers" d=" M 303.4041602833333 475.10938798049995 L 319.7393635833333 475.10938798049995 L 319.7393635833333 612.3250957004998 L 303.4041602833333 612.3250957004998 L 303.4041602833333 475.10938798049995" stroke-miterlimit="10" stroke-width="1.3612669416666667" stroke-dasharray=""/><path fill="white" stroke="black" paint-order="fill stroke markers" d=" M 676.2999057166666 475.10938798049995 L 692.6351090166667 475.10938798049995 L 692.6351090166667 566.5865264604998 L 676.2999057166666 566.5865264604998 L 676.2999057166666 475.10938798049995" stroke-miterlimit="10" stroke-width="1.3612669416666667" stroke-dasharray=""/><path fill="white" stroke="black" paint-order="fill stroke markers" d=" M 971.1956511499999 475.10938798049995 L 987.53085445 475.10938798049995 L 987.53085445 520.8479572204999 L 971.1956511499999 520.8479572204999 L 971.1956511499999 475.10938798049995" stroke-miterlimit="10" stroke-width="1.3612669416666667" stroke-dasharray=""/><g><g><rect fill="white" stroke="none" x="109.17360872166661" y="120.63547637049999" width="174.90056099" height="21.23576429"/></g><text fill="black" stroke="none" font-family="sans-serif" font-size="11pt" font-style="normal" font-weight="normal" text-decoration="normal" x="111.62388921666661" y="135.3371593405" text-anchor="start" dominant-baseline="alphabetic">PastReportsListRequest()</text></g><g><path fill="none" stroke="black" paint-order="fill stroke markers" d=" M 89.84361814999998 141.87124066049998 L 300.68162639999997 141.87124066049998" stroke-miterlimit="10" stroke-width="1.3612669416666667" stroke-dasharray=""/><g transform="translate(303.4041602833333,141.87124066049998) translate(-303.4041602833333,-141.87124066049998)"><path fill="black" stroke="none" paint-order="stroke fill markers" d=" M 289.7914908666666 135.06490595216664 L 303.4041602833333 141.87124066049998 L 289.7914908666666 148.67757536883332 Z"/></g></g><g><g><rect fill="white" stroke="none" x="339.0693541549999" y="166.3740456105" width="317.90056099" height="21.23576429"/></g><text fill="black" stroke="none" font-family="sans-serif" font-size="11pt" font-style="normal" font-weight="normal" text-decoration="normal" x="341.51963464999994" y="181.07572858049997" text-anchor="start" dominant-baseline="alphabetic">ForwardPastReportsListRequest(userID: String)</text></g><g><path fill="none" stroke="black" paint-order="fill stroke markers" d=" M 319.7393635833333 187.60980990049998 L 673.5773718333332 187.60980990049998" stroke-miterlimit="10" stroke-width="1.3612669416666667" stroke-dasharray=""/><g transform="translate(676.2999057166666,187.60980990049998) translate(-676.2999057166666,-187.60980990049998)"><path fill="black" stroke="none" paint-order="stroke fill markers" d=" M 662.6872362999999 180.80347519216664 L 676.2999057166666 187.60980990049998 L 662.6872362999999 194.41614460883332 Z"/></g></g><g><g><rect fill="white" stroke="none" x="711.9650995883333" y="212.1126148505" width="239.90056099" height="21.23576429"/></g><text fill="black" stroke="none" font-family="sans-serif" font-size="11pt" font-style="normal" font-weight="normal" text-decoration="normal" x="714.4153800833333" y="226.81429782049997" text-anchor="start" dominant-baseline="alphabetic">GetUserPastReports(userID: String)</text></g><g><path fill="none" stroke="black" paint-order="fill stroke markers" d=" M 692.6351090166667 233.3483791405 L 968.4731172666666 233.3483791405" stroke-miterlimit="10" stroke-width="1.3612669416666667" stroke-dasharray=""/><g transform="translate(971.1956511499999,233.3483791405) translate(-971.1956511499999,-233.3483791405)"><path fill="black" stroke="none" paint-order="stroke fill markers" d=" M 957.5829817333332 226.54204443216665 L 971.1956511499999 233.3483791405 L 957.5829817333332 240.15471384883332 Z"/></g></g><g><g><rect fill="white" stroke="none" x="756.4650995883333" y="301.95623300049994" width="150.90056099" height="21.23576429"/></g><text fill="black" stroke="none" font-family="sans-serif" font-size="11pt" font-style="normal" font-weight="normal" text-decoration="normal" x="758.9153800833333" y="316.6579159704999" text-anchor="start" dominant-baseline="alphabetic">user past reports' data</text></g><g><path fill="none" stroke="black" paint-order="fill stroke markers" d=" M 971.1956511499999 323.19199729049996 L 695.3576429 323.19199729049996" stroke-miterlimit="10" stroke-width="1.3612669416666667" stroke-dasharray="6.53408132"/><g transform="translate(692.6351090166667,323.19199729049996) translate(-692.6351090166667,-323.19199729049996)"><path fill="black" stroke="none" paint-order="stroke fill markers" d=" M 706.2477784333333 316.3856625821666 L 692.6351090166667 323.19199729049996 L 706.2477784333333 329.9983319988333 Z"/></g></g><g><g><rect fill="white" stroke="none" x="422.5693541549999" y="347.69480224049994" width="150.90056099" height="21.23576429"/></g><text fill="black" stroke="none" font-family="sans-serif" font-size="11pt" font-style="normal" font-weight="normal" text-decoration="normal" x="425.01963464999994" y="362.3964852104999" text-anchor="start" dominant-baseline="alphabetic">user past reports' data</text></g><g><path fill="none" stroke="black" paint-order="fill stroke markers" d=" M 676.2999057166666 368.93056653049996 L 322.4618974666666 368.93056653049996" stroke-miterlimit="10" stroke-width="1.3612669416666667" stroke-dasharray="6.53408132"/><g transform="translate(319.7393635833333,368.93056653049996) translate(-319.7393635833333,-368.93056653049996)"><path fill="black" stroke="none" paint-order="stroke fill markers" d=" M 333.35203299999995 362.1242318221666 L 319.7393635833333 368.93056653049996 L 333.35203299999995 375.7369012388333 Z"/></g></g><g><g><rect fill="white" stroke="none" x="125.17360872166661" y="393.43337148049994" width="142.90056099" height="21.23576429"/></g><g><rect fill="white" stroke="none" x="125.17360872166661" y="409.76857478049993" width="58.90056099" height="21.23576429"/></g><text fill="black" stroke="none" font-family="sans-serif" font-size="11pt" font-style="normal" font-weight="normal" text-decoration="normal" x="127.62388921666661" y="408.1350544504999" text-anchor="start" dominant-baseline="alphabetic">Prompts past reports</text><text fill="black" stroke="none" font-family="sans-serif" font-size="11pt" font-style="normal" font-weight="normal" text-decoration="normal" x="127.62388921666661" y="424.4702577504999" text-anchor="start" dominant-baseline="alphabetic">list page</text></g><g><path fill="none" stroke="black" paint-order="fill stroke markers" d=" M 303.4041602833333 431.00433907049995 L 92.56615203333331 431.00433907049995" stroke-miterlimit="10" stroke-width="1.3612669416666667" stroke-dasharray="6.53408132"/><g transform="translate(89.84361814999998,431.00433907049995) translate(-89.84361814999998,-431.00433907049995)"><path fill="black" stroke="none" paint-order="stroke fill markers" d=" M 103.45628756666665 424.1980043621666 L 89.84361814999998 431.00433907049995 L 103.45628756666665 437.8106737788333 Z"/></g></g><g><g><rect fill="white" stroke="none" x="746.9650995883333" y="499.6121929304999" width="169.90056099" height="21.23576429"/></g><text fill="black" stroke="none" font-family="sans-serif" font-size="11pt" font-style="normal" font-weight="normal" text-decoration="normal" x="749.4153800833333" y="514.3138759004999" text-anchor="start" dominant-baseline="alphabetic">notificationUserEmptyList</text></g><g><path fill="none" stroke="black" paint-order="fill stroke markers" d=" M 971.1956511499999 520.8479572204999 L 695.3576429 520.8479572204999" stroke-miterlimit="10" stroke-width="1.3612669416666667" stroke-dasharray="6.53408132"/><g transform="translate(692.6351090166667,520.8479572204999) translate(-692.6351090166667,-520.8479572204999)"><path fill="black" stroke="none" paint-order="stroke fill markers" d=" M 706.2477784333333 514.0416225121666 L 692.6351090166667 520.8479572204999 L 706.2477784333333 527.6542919288332 Z"/></g></g><g><g><rect fill="white" stroke="none" x="413.0693541549999" y="545.3507621704998" width="169.90056099" height="21.23576429"/></g><text fill="black" stroke="none" font-family="sans-serif" font-size="11pt" font-style="normal" font-weight="normal" text-decoration="normal" x="415.51963464999994" y="560.0524451404998" text-anchor="start" dominant-baseline="alphabetic">notificationUserEmptyList</text></g><g><path fill="none" stroke="black" paint-order="fill stroke markers" d=" M 676.2999057166666 566.5865264604998 L 322.4618974666666 566.5865264604998" stroke-miterlimit="10" stroke-width="1.3612669416666667" stroke-dasharray="6.53408132"/><g transform="translate(319.7393635833333,566.5865264604998) translate(-319.7393635833333,-566.5865264604998)"><path fill="black" stroke="none" paint-order="stroke fill markers" d=" M 333.35203299999995 559.7801917521665 L 319.7393635833333 566.5865264604998 L 333.35203299999995 573.3928611688332 Z"/></g></g><g><g><rect fill="white" stroke="none" x="127.17360872166661" y="591.0893314104998" width="138.90056099" height="21.23576429"/></g><text fill="black" stroke="none" font-family="sans-serif" font-size="11pt" font-style="normal" font-weight="normal" text-decoration="normal" x="129.6238892166666" y="605.7910143804997" text-anchor="start" dominant-baseline="alphabetic">notificationEmptyList</text></g><g><path fill="none" stroke="black" paint-order="fill stroke markers" d=" M 303.4041602833333 612.3250957004998 L 92.56615203333331 612.3250957004998" stroke-miterlimit="10" stroke-width="1.3612669416666667" stroke-dasharray="6.53408132"/><g transform="translate(89.84361814999998,612.3250957004998) translate(-89.84361814999998,-612.3250957004998)"><path fill="black" stroke="none" paint-order="stroke fill markers" d=" M 103.45628756666665 605.5187609921664 L 89.84361814999998 612.3250957004998 L 103.45628756666665 619.1314304088331 Z"/></g></g><g><g/><path fill="none" stroke="black" paint-order="fill stroke markers" d=" M 16.33520329999999 257.85118409049994 L 1036.53646435 257.85118409049994 L 1036.53646435 636.8279006504998 L 16.33520329999999 636.8279006504998 L 16.33520329999999 257.85118409049994 Z" stroke-miterlimit="10" stroke-width="2.3336004714285714" stroke-dasharray=""/><path fill="white" stroke="black" paint-order="fill stroke markers" d=" M 16.33520329999999 257.85118409049994 L 16.33520329999999 277.45342805049995 L 63.00560989999999 277.45342805049995 L 72.80673187999999 267.65230607049995 L 72.80673187999999 257.85118409049994 L 16.33520329999999 257.85118409049994" stroke-miterlimit="10" stroke-width="2.3336004714285714" stroke-dasharray=""/><text fill="black" stroke="none" font-family="sans-serif" font-size="8.8pt" font-style="normal" font-weight="bold" text-decoration="normal" x="32.67040659999999" y="270.91934673049997" text-anchor="start" dominant-baseline="alphabetic">alt</text><text fill="black" stroke="none" font-family="sans-serif" font-size="8.8pt" font-style="normal" font-weight="bold" text-decoration="normal" x="89.14193517999999" y="270.91934673049997" text-anchor="start" dominant-baseline="alphabetic">[Presence of past reports]</text><g><path fill="none" stroke="black" paint-order="fill stroke markers" d=" M 16.33520329999999 455.50714402049994 L 1036.53646435 455.50714402049994" stroke-miterlimit="10" stroke-width="2.3336004714285714" stroke-dasharray="4.083800825"/></g><g/><text fill="black" stroke="none" font-family="sans-serif" font-size="8.8pt" font-style="normal" font-weight="bold" text-decoration="normal" x="89.14193517999999" y="468.57530666049996" text-anchor="start" dominant-baseline="alphabetic">[No past reports found]</text></g><g/></g><g/><g/><g/><g/></g></svg>