<?xml version="1.0" encoding="utf-8"?>
<!-- Generator: Adobe Illustrator 16.0.0, SVG Export Plug-In . SVG Version: 6.00 Build 0)  -->
<!DOCTYPE svg PUBLIC "-//W3C//DTD SVG 1.1//EN" "http://www.w3.org/Graphics/SVG/1.1/DTD/svg11.dtd">
<svg version="1.1" id="Layer_1" xmlns="http://www.w3.org/2000/svg" xmlns:xlink="http://www.w3.org/1999/xlink" x="0px" y="0px"
	 width="1063px" height="734.839px" viewBox="0 0 1063 734.839" enable-background="new 0 0 1063 734.839" xml:space="preserve">
<g>
	<rect fill="#FFFFFF" width="1063" height="734"/>
</g>
<g>
	<path fill="none" stroke="#000000" stroke-width="1.3613" stroke-miterlimit="10" stroke-dasharray="12.5655,5.4451" d="
		M81.676,128.803v606.036"/>
	<path fill="none" stroke="#000000" stroke-width="1.3613" stroke-miterlimit="10" stroke-dasharray="12.5655,5.4451" d="
		M311.571,128.803v606.036"/>
	<path fill="none" stroke="#000000" stroke-width="1.3613" stroke-miterlimit="10" stroke-dasharray="12.5655,5.4451" d="
		M684.468,128.803v606.036"/>
	<path fill="none" stroke="#000000" stroke-width="1.3613" stroke-miterlimit="10" stroke-dasharray="12.5655,5.4451" d="
		M979.363,128.803v606.036"/>
</g>
<g>
	<g>
		<path fill="#FFFFFF" stroke="#000000" stroke-width="2.777" stroke-miterlimit="10" d="M90.987,59.705
			c0.001,5.143-4.166,9.313-9.308,9.314c-5.143,0.002-9.313-4.166-9.314-9.308c-0.001-5.142,4.166-9.312,9.308-9.314
			c5.139-0.001,9.308,4.16,9.314,9.299 M81.676,69.016v19.929 M69.915,76.204h23.523 M81.676,88.945l-11.761,18.622 M81.676,88.945
			l11.762,18.622"/>
	</g>
	<g>
		<text transform="matrix(1 0 0 1 29.6758 123.9023)" font-family="'ArialMT'" font-size="11">Registered user</text>
	</g>
	<path d="M0,0"/>
	<g>
		<path fill="#FFFFFF" stroke="#000000" stroke-width="2.6136" stroke-miterlimit="10" d="M242.848,84.698h137.448v44.105H242.848
			V84.698z"/>
	</g>
	<g>
		<text transform="matrix(1 0 0 1 260.5718 112.4678)" font-family="'ArialMT'" font-size="11">SafeStreetsApp</text>
	</g>
	<path d="M0,0"/>
	<g>
		<path fill="#FFFFFF" stroke="#000000" stroke-width="2.6136" stroke-miterlimit="10" d="M614.744,84.698h139.447v44.105H614.744
			V84.698z"/>
	</g>
	<g>
		<text transform="matrix(1 0 0 1 632.4678 112.4678)" font-family="'ArialMT'" font-size="11">Reports module</text>
	</g>
	<path d="M0,0"/>
	<g>
		<path fill="#FFFFFF" stroke="#000000" stroke-width="2.6136" stroke-miterlimit="10" d="M903.64,84.698h151.447v44.105H903.64
			V84.698z"/>
	</g>
	<g>
		<text transform="matrix(1 0 0 1 921.3633 112.4678)" font-family="'ArialMT'" font-size="11">Reports database</text>
	</g>
</g>
<g>
	<path fill="#FFFFFF" stroke="#000000" stroke-width="1.3613" stroke-miterlimit="10" d="M73.508,136.971h16.335v581.533H73.508
		V136.971"/>
	<path fill="#FFFFFF" stroke="#000000" stroke-width="1.3613" stroke-miterlimit="10" d="M303.404,182.709h16.335v289.134h-16.335
		V182.709"/>
	<path fill="#FFFFFF" stroke="#000000" stroke-width="1.3613" stroke-miterlimit="10" d="M676.3,228.448h16.335v181.321H676.3
		V228.448"/>
	<path fill="#FFFFFF" stroke="#000000" stroke-width="1.3613" stroke-miterlimit="10" d="M971.195,274.187h16.336v89.843h-16.336
		V274.187"/>
	<path fill="#FFFFFF" stroke="#000000" stroke-width="1.3613" stroke-miterlimit="10" d="M303.404,515.947h16.335v137.216h-16.335
		V515.947"/>
	<path fill="#FFFFFF" stroke="#000000" stroke-width="1.3613" stroke-miterlimit="10" d="M676.3,515.947h16.335v91.478H676.3
		V515.947"/>
	<path fill="#FFFFFF" stroke="#000000" stroke-width="1.3613" stroke-miterlimit="10" d="M971.195,515.947h16.336v45.738h-16.336
		V515.947"/>
	<g>
		<g>
			<rect x="109.174" y="161.474" fill="#FFFFFF" width="174.9" height="21.235"/>
		</g>
		<text transform="matrix(1 0 0 1 111.624 176.1748)" font-family="'ArialMT'" font-size="11">PastReportsListRequest()</text>
	</g>
	<g>
		<path fill="none" stroke="#000000" stroke-width="1.3613" stroke-miterlimit="10" d="M89.844,182.709h210.838"/>
		<g transform="translate(303.4041602833333,182.70924891049998) translate(-303.4041602833333,-182.70924891049998)">
			<path d="M289.792,175.903l13.613,6.806l-13.613,6.807V175.903z"/>
		</g>
	</g>
	<g>
		<g>
			<rect x="339.069" y="207.212" fill="#FFFFFF" width="317.9" height="21.236"/>
		</g>
		<text transform="matrix(1 0 0 1 341.5195 221.9141)" font-family="'ArialMT'" font-size="11">ForwardPastReportsListRequest(userID: String)</text>
	</g>
	<g>
		<path fill="none" stroke="#000000" stroke-width="1.3613" stroke-miterlimit="10" d="M319.739,228.448h353.838"/>
		<g transform="translate(676.2999057166666,228.44781815049998) translate(-676.2999057166666,-228.44781815049998)">
			<path d="M662.688,221.642l13.612,6.806l-13.612,6.806V221.642z"/>
		</g>
	</g>
	<g>
		<g>
			<rect x="711.965" y="252.951" fill="#FFFFFF" width="239.9" height="21.236"/>
		</g>
		<text transform="matrix(1 0 0 1 714.416 267.6523)" font-family="'ArialMT'" font-size="11">GetUserPastReports(userID: String)</text>
	</g>
	<g>
		<path fill="none" stroke="#000000" stroke-width="1.3613" stroke-miterlimit="10" d="M692.635,274.187h275.838"/>
		<g transform="translate(971.1956511499999,274.1863873905) translate(-971.1956511499999,-274.1863873905)">
			<path d="M957.583,267.38l13.612,6.807l-13.612,6.806V267.38z"/>
		</g>
	</g>
	<g>
		<g>
			<rect x="756.465" y="342.794" fill="#FFFFFF" width="150.9" height="21.236"/>
		</g>
		<text transform="matrix(1 0 0 1 758.916 357.4961)" font-family="'ArialMT'" font-size="11">user past reports&apos; data</text>
	</g>
	<g>
		<path fill="none" stroke="#000000" stroke-width="1.3613" stroke-miterlimit="10" stroke-dasharray="6.5341" d="M971.195,364.03
			H695.357"/>
		<g transform="translate(692.6351090166667,364.0300055405) translate(-692.6351090166667,-364.0300055405)">
			<path d="M706.248,357.224l-13.613,6.806l13.613,6.806V357.224z"/>
		</g>
	</g>
	<g>
		<g>
			<rect x="422.569" y="388.533" fill="#FFFFFF" width="150.9" height="21.235"/>
		</g>
		<text transform="matrix(1 0 0 1 425.0195 403.2344)" font-family="'ArialMT'" font-size="11">user past reports&apos; data</text>
	</g>
	<g>
		<path fill="none" stroke="#000000" stroke-width="1.3613" stroke-miterlimit="10" stroke-dasharray="6.5341" d="M676.3,409.769
			H322.462"/>
		<g transform="translate(319.7393635833333,409.7685747805) translate(-319.7393635833333,-409.7685747805)">
			<path d="M333.352,402.963l-13.612,6.806l13.612,6.806V402.963z"/>
		</g>
	</g>
	<g>
		<g>
			<rect x="125.174" y="434.271" fill="#FFFFFF" width="142.9" height="21.235"/>
		</g>
		<g>
			<rect x="125.174" y="450.606" fill="#FFFFFF" width="58.9" height="21.236"/>
		</g>
		<text transform="matrix(1 0 0 1 127.624 448.9727)" font-family="'ArialMT'" font-size="11">Prompts past reports</text>
		<text transform="matrix(1 0 0 1 127.624 465.3086)" font-family="'ArialMT'" font-size="11">list page</text>
	</g>
	<g>
		<path fill="none" stroke="#000000" stroke-width="1.3613" stroke-miterlimit="10" stroke-dasharray="6.5341" d="M303.404,471.843
			H92.566"/>
		<g transform="translate(89.84361814999998,471.8423473205) translate(-89.84361814999998,-471.8423473205)">
			<path d="M103.456,465.036l-13.612,6.807l13.612,6.806V465.036z"/>
		</g>
	</g>
	<g>
		<g>
			<rect x="746.965" y="540.45" fill="#FFFFFF" width="169.9" height="21.235"/>
		</g>
		<text transform="matrix(1 0 0 1 749.416 555.1514)" font-family="'ArialMT'" font-size="11">notificationUserEmptyList</text>
	</g>
	<g>
		<path fill="none" stroke="#000000" stroke-width="1.3613" stroke-miterlimit="10" stroke-dasharray="6.5341" d="M971.195,561.686
			H695.357"/>
		<g transform="translate(692.6351090166667,561.6859654704999) translate(-692.6351090166667,-561.6859654704999)">
			<path d="M706.248,554.88l-13.613,6.806l13.613,6.807V554.88z"/>
		</g>
	</g>
	<g>
		<g>
			<rect x="413.069" y="586.188" fill="#FFFFFF" width="169.9" height="21.236"/>
		</g>
		<text transform="matrix(1 0 0 1 415.5195 600.8906)" font-family="'ArialMT'" font-size="11">notificationUserEmptyList</text>
	</g>
	<g>
		<path fill="none" stroke="#000000" stroke-width="1.3613" stroke-miterlimit="10" stroke-dasharray="6.5341" d="M676.3,607.425
			H322.462"/>
		<g transform="translate(319.7393635833333,607.4245347104999) translate(-319.7393635833333,-607.4245347104999)">
			<path d="M333.352,600.618l-13.612,6.807l13.612,6.806V600.618z"/>
		</g>
	</g>
	<g>
		<g>
			<rect x="127.174" y="631.928" fill="#FFFFFF" width="138.9" height="21.235"/>
		</g>
		<text transform="matrix(1 0 0 1 129.624 646.6289)" font-family="'ArialMT'" font-size="11">notificationEmptyList</text>
	</g>
	<g>
		<path fill="none" stroke="#000000" stroke-width="1.3613" stroke-miterlimit="10" stroke-dasharray="6.5341" d="M303.404,653.163
			H92.566"/>
		<g transform="translate(89.84361814999998,653.1631039504998) translate(-89.84361814999998,-653.1631039504998)">
			<path d="M103.456,646.356l-13.612,6.807l13.612,6.807V646.356z"/>
		</g>
	</g>
	<g>
		<path fill="none" stroke="#000000" stroke-width="2.3336" stroke-miterlimit="10" d="M16.335,298.689h1020.201v378.977H16.335
			V298.689z"/>
		<path fill="#FFFFFF" stroke="#000000" stroke-width="2.3336" stroke-miterlimit="10" d="M16.335,298.689v19.602h46.671
			l9.801-9.801v-9.801H16.335"/>
		<text transform="matrix(1 0 0 1 32.6704 311.7578)" font-family="'Arial-BoldMT'" font-size="8.8">alt</text>
		<text transform="matrix(1 0 0 1 89.1421 311.7578)" font-family="'Arial-BoldMT'" font-size="8.8">[Presence of past reports]</text>
		<g>
			<path fill="none" stroke="#000000" stroke-width="2.3336" stroke-miterlimit="10" stroke-dasharray="4.0838" d="M16.335,496.345
				h1020.201"/>
		</g>
		<text transform="matrix(1 0 0 1 89.1421 509.4131)" font-family="'Arial-BoldMT'" font-size="8.8">[No past reports found]</text>
	</g>
</g>
</svg>
