<?xml version="1.0" encoding="utf-8"?>
<!-- Generator: Adobe Illustrator 16.0.0, SVG Export Plug-In . SVG Version: 6.00 Build 0)  -->
<!DOCTYPE svg PUBLIC "-//W3C//DTD SVG 1.1//EN" "http://www.w3.org/Graphics/SVG/1.1/DTD/svg11.dtd">
<svg version="1.1" id="Layer_1" xmlns="http://www.w3.org/2000/svg" xmlns:xlink="http://www.w3.org/1999/xlink" x="0px" y="0px"
	 width="1215px" height="811px" viewBox="0 0 1215 811" enable-background="new 0 0 1215 811" xml:space="preserve">
<g>
	<g>
		<rect fill="#FFFFFF" width="1215" height="811"/>
	</g>
	<g>
		<path fill="none" stroke="#000000" stroke-width="1.3613" stroke-miterlimit="10" stroke-dasharray="12.5655,5.4451" d="
			M81.676,128.803v682.811"/>
		<path fill="none" stroke="#000000" stroke-width="1.3613" stroke-miterlimit="10" stroke-dasharray="12.5655,5.4451" d="
			M369.571,128.803v682.811"/>
		<path fill="none" stroke="#000000" stroke-width="1.3613" stroke-miterlimit="10" stroke-dasharray="12.5655,5.4451" d="
			M804.468,128.803v682.811"/>
		<path fill="none" stroke="#000000" stroke-width="1.3613" stroke-miterlimit="10" stroke-dasharray="12.5655,5.4451" d="
			M1091.363,128.803v682.811"/>
	</g>
	<g>
		<g>
			<path fill="#FFFFFF" stroke="#000000" stroke-width="2.777" stroke-miterlimit="10" d="M90.987,59.705
				c0.001,5.143-4.166,9.313-9.308,9.314c-5.143,0.002-9.313-4.166-9.314-9.308c-0.001-5.142,4.166-9.312,9.308-9.314
				c5.139-0.001,9.308,4.16,9.314,9.299 M81.676,69.016v19.929 M69.915,76.204h23.523 M81.676,88.945l-11.761,18.622 M81.676,88.945
				l11.762,18.622"/>
		</g>
		<g>
			<text transform="matrix(1 0 0 1 29.6758 123.9023)" font-family="'ArialMT'" font-size="11">Registered user</text>
		</g>
		<path d="M0,0"/>
		<g>
			<path fill="#FFFFFF" stroke="#000000" stroke-width="2.6136" stroke-miterlimit="10" d="M300.848,84.698h137.448v44.105H300.848
				V84.698z"/>
		</g>
		<g>
			<text transform="matrix(1 0 0 1 318.5718 112.4678)" font-family="'ArialMT'" font-size="11">SafeStreetsApp</text>
		</g>
		<path d="M0,0"/>
		<g>
			<path fill="#FFFFFF" stroke="#000000" stroke-width="2.6136" stroke-miterlimit="10" d="M719.744,84.698h169.447v44.105H719.744
				V84.698z"/>
		</g>
		<g>
			<text transform="matrix(1 0 0 1 737.4678 112.4678)" font-family="'ArialMT'" font-size="11">Street safety module</text>
		</g>
		<path d="M0,0"/>
		<g>
			<path fill="#FFFFFF" stroke="#000000" stroke-width="2.6136" stroke-miterlimit="10" d="M975.64,84.698h231.447v44.105H975.64
				V84.698z"/>
		</g>
		<g>
			<text transform="matrix(1 0 0 1 993.3633 112.4678)" font-family="'ArialMT'" font-size="11">Safety&amp;Suggestions database</text>
		</g>
	</g>
	<g>
		<path fill="#FFFFFF" stroke="#000000" stroke-width="1.3613" stroke-miterlimit="10" d="M73.508,136.971h16.335v658.309H73.508
			V136.971"/>
		<path fill="#FFFFFF" stroke="#000000" stroke-width="1.3613" stroke-miterlimit="10" d="M361.404,182.709h16.335v228.693h-16.335
			V182.709"/>
		<path fill="#FFFFFF" stroke="#000000" stroke-width="1.3613" stroke-miterlimit="10" d="M796.3,228.448h16.335v137.216H796.3
			V228.448"/>
		<path fill="#FFFFFF" stroke="#000000" stroke-width="1.3613" stroke-miterlimit="10" d="M1083.195,274.187h16.336v45.738h-16.336
			V274.187"/>
		<path fill="#FFFFFF" stroke="#000000" stroke-width="1.3613" stroke-miterlimit="10" d="M361.404,501.246h16.335v228.692h-16.335
			V501.246"/>
		<path fill="#FFFFFF" stroke="#000000" stroke-width="1.3613" stroke-miterlimit="10" d="M796.3,546.984h16.335V684.2H796.3
			V546.984"/>
		<path fill="#FFFFFF" stroke="#000000" stroke-width="1.3613" stroke-miterlimit="10" d="M1083.195,592.723h16.336v45.739h-16.336
			V592.723"/>
		<g>
			<g>
				<rect x="150.674" y="161.474" fill="#FFFFFF" width="149.9" height="21.235"/>
			</g>
			<text transform="matrix(1 0 0 1 153.124 176.1748)" font-family="'ArialMT'" font-size="11">StreetSafetyRequest()</text>
		</g>
		<g>
			<path fill="none" stroke="#000000" stroke-width="1.3613" stroke-miterlimit="10" d="M89.844,182.709h268.838"/>
			<g transform="translate(361.40416028333334,182.70924891049998) translate(-361.40416028333334,-182.70924891049998)">
				<path d="M347.791,175.903l13.613,6.806l-13.613,6.807V175.903z"/>
			</g>
		</g>
		<g>
			<g>
				<rect x="440.569" y="207.212" fill="#FFFFFF" width="292.9" height="21.236"/>
			</g>
			<text transform="matrix(1 0 0 1 443.0195 221.9141)" font-family="'ArialMT'" font-size="11">ForwardStreetSafetyRequest(userID: String)</text>
		</g>
		<g>
			<path fill="none" stroke="#000000" stroke-width="1.3613" stroke-miterlimit="10" d="M377.739,228.448h415.838"/>
			<g transform="translate(796.2999057166667,228.44781815049998) translate(-796.2999057166667,-228.44781815049998)">
				<path d="M782.688,221.642l13.612,6.806l-13.612,6.806V221.642z"/>
			</g>
		</g>
		<g>
			<g>
				<rect x="873.465" y="252.951" fill="#FFFFFF" width="148.9" height="21.236"/>
			</g>
			<text transform="matrix(1 0 0 1 875.916 267.6523)" font-family="'ArialMT'" font-size="11">GetStreetSafetyData()</text>
		</g>
		<g>
			<path fill="none" stroke="#000000" stroke-width="1.3613" stroke-miterlimit="10" d="M812.635,274.187h267.838"/>
			<g transform="translate(1083.19565115,274.1863873905) translate(-1083.19565115,-274.1863873905)">
				<path d="M1069.583,267.38l13.612,6.807l-13.612,6.806V267.38z"/>
			</g>
		</g>
		<g>
			<g>
				<rect x="881.965" y="298.689" fill="#FFFFFF" width="131.9" height="21.235"/>
			</g>
			<text transform="matrix(1 0 0 1 884.416 313.3906)" font-family="'ArialMT'" font-size="11">Street Safety&apos;s data</text>
		</g>
		<g>
			<path fill="none" stroke="#000000" stroke-width="1.3613" stroke-miterlimit="10" stroke-dasharray="6.5341" d="
				M1083.195,319.925H815.357"/>
			<g transform="translate(812.6351090166668,319.9249566305) translate(-812.6351090166668,-319.9249566305)">
				<path d="M826.248,313.119l-13.613,6.806l13.613,6.807V313.119z"/>
			</g>
		</g>
		<g>
			<g>
				<rect x="521.069" y="344.428" fill="#FFFFFF" width="131.9" height="21.236"/>
			</g>
			<text transform="matrix(1 0 0 1 523.5195 359.1299)" font-family="'ArialMT'" font-size="11">Street Safety&apos;s data</text>
		</g>
		<g>
			<path fill="none" stroke="#000000" stroke-width="1.3613" stroke-miterlimit="10" stroke-dasharray="6.5341" d="M796.3,365.664
				H380.462"/>
			<g transform="translate(377.73936358333333,365.6635258705) translate(-377.73936358333333,-365.6635258705)">
				<path d="M391.352,358.857l-13.612,6.806l13.612,6.806V358.857z"/>
			</g>
		</g>
		<g>
			<g>
				<rect x="133.174" y="390.167" fill="#FFFFFF" width="184.9" height="21.236"/>
			</g>
			<text transform="matrix(1 0 0 1 135.624 404.8682)" font-family="'ArialMT'" font-size="11">Prompts Street Safety page</text>
		</g>
		<g>
			<path fill="none" stroke="#000000" stroke-width="1.3613" stroke-miterlimit="10" stroke-dasharray="6.5341" d="M361.404,411.402
				H92.566"/>
			<g transform="translate(89.84361814999998,411.4020951105) translate(-89.84361814999998,-411.4020951105)">
				<path d="M103.456,404.596l-13.612,6.807l13.612,6.807V404.596z"/>
			</g>
		</g>
		<g>
			<g>
				<rect x="109.174" y="480.01" fill="#FFFFFF" width="232.9" height="21.236"/>
			</g>
			<text transform="matrix(1 0 0 1 111.624 494.7119)" font-family="'ArialMT'" font-size="11">StreetSafetyRequest(street: String)</text>
		</g>
		<g>
			<path fill="none" stroke="#000000" stroke-width="1.3613" stroke-miterlimit="10" d="M89.844,501.246h268.838"/>
			<g transform="translate(361.40416028333334,501.2457132605) translate(-361.40416028333334,-501.2457132605)">
				<path d="M347.791,494.439l13.613,6.807l-13.613,6.806V494.439z"/>
			</g>
		</g>
		<g>
			<g>
				<rect x="397.069" y="525.749" fill="#FFFFFF" width="379.9" height="21.235"/>
			</g>
			<text transform="matrix(1 0 0 1 399.5195 540.4502)" font-family="'ArialMT'" font-size="11">ForwardStreetSafetyRequest(userID: String,street: String)</text>
		</g>
		<g>
			<path fill="none" stroke="#000000" stroke-width="1.3613" stroke-miterlimit="10" d="M377.739,546.984h415.838"/>
			<g transform="translate(796.2999057166667,546.9842825005) translate(-796.2999057166667,-546.9842825005)">
				<path d="M782.688,540.178l13.612,6.807l-13.612,6.807V540.178z"/>
			</g>
		</g>
		<g>
			<g>
				<rect x="831.965" y="571.487" fill="#FFFFFF" width="231.9" height="21.235"/>
			</g>
			<text transform="matrix(1 0 0 1 834.416 586.1885)" font-family="'ArialMT'" font-size="11">GetStreetSafetyData(street: String)</text>
		</g>
		<g>
			<path fill="none" stroke="#000000" stroke-width="1.3613" stroke-miterlimit="10" d="M812.635,592.723h267.838"/>
			<g transform="translate(1083.19565115,592.7228517404999) translate(-1083.19565115,-592.7228517404999)">
				<path d="M1069.583,585.917l13.612,6.806l-13.612,6.807V585.917z"/>
			</g>
		</g>
		<g>
			<g>
				<rect x="861.465" y="617.226" fill="#FFFFFF" width="172.9" height="21.236"/>
			</g>
			<text transform="matrix(1 0 0 1 863.916 631.9277)" font-family="'ArialMT'" font-size="11">Street Safety&apos;s street data</text>
		</g>
		<g>
			<path fill="none" stroke="#000000" stroke-width="1.3613" stroke-miterlimit="10" stroke-dasharray="6.5341" d="
				M1083.195,638.462H815.357"/>
			<g transform="translate(812.6351090166668,638.4614209804998) translate(-812.6351090166668,-638.4614209804998)">
				<path d="M826.248,631.655l-13.613,6.807l13.613,6.806V631.655z"/>
			</g>
		</g>
		<g>
			<g>
				<rect x="500.569" y="662.964" fill="#FFFFFF" width="172.9" height="21.236"/>
			</g>
			<text transform="matrix(1 0 0 1 503.0195 677.666)" font-family="'ArialMT'" font-size="11">Street Safety&apos;s street data</text>
		</g>
		<g>
			<path fill="none" stroke="#000000" stroke-width="1.3613" stroke-miterlimit="10" stroke-dasharray="6.5341" d="M796.3,684.2
				H380.462"/>
			<g transform="translate(377.73936358333333,684.1999902204998) translate(-377.73936358333333,-684.1999902204998)">
				<path d="M391.352,677.394l-13.612,6.807l13.612,6.807V677.394z"/>
			</g>
		</g>
		<g>
			<g>
				<rect x="114.674" y="708.703" fill="#FFFFFF" width="221.9" height="21.235"/>
			</g>
			<text transform="matrix(1 0 0 1 117.124 723.4043)" font-family="'ArialMT'" font-size="11">Prompts popup with street details</text>
		</g>
		<g>
			<path fill="none" stroke="#000000" stroke-width="1.3613" stroke-miterlimit="10" stroke-dasharray="6.5341" d="M361.404,729.938
				H92.566"/>
			<g transform="translate(89.84361814999998,729.9385594604997) translate(-89.84361814999998,-729.9385594604997)">
				<path d="M103.456,723.132l-13.612,6.807l13.612,6.807V723.132z"/>
			</g>
		</g>
		<g>
			<path fill="none" stroke="#000000" stroke-width="2.3336" stroke-miterlimit="10" d="M16.335,435.905h1132.201v318.536H16.335
				V435.905z"/>
			<path fill="#FFFFFF" stroke="#000000" stroke-width="2.3336" stroke-miterlimit="10" d="M16.335,435.905v19.602h56.67
				l9.801-9.801v-9.801H16.335"/>
			<text transform="matrix(1 0 0 1 32.6704 448.9727)" font-family="'Arial-BoldMT'" font-size="8.8">loop</text>
		</g>
	</g>
</g>
</svg>
