<svg version="1.1" xmlns="http://www.w3.org/2000/svg" xmlns:xlink="http://www.w3.org/1999/xlink" width="1215" height="770"><defs/><g><g/><g/><g/><g/><g/><g/><g/><g/><g/><g/><g/><g/><g><rect fill="white" stroke="none" x="0" y="0" width="1215" height="770"/></g><g/><g><path fill="none" stroke="black" paint-order="fill stroke markers" d=" M 81.67601649999999 87.9650697705 L 81.67601649999999 770.7765677104999" stroke-miterlimit="10" stroke-width="1.3612669416666667" stroke-dasharray="12.565541,5.445067766666667"/><path fill="none" stroke="black" paint-order="fill stroke markers" d=" M 369.57176193333333 87.9650697705 L 369.57176193333333 770.7765677104999" stroke-miterlimit="10" stroke-width="1.3612669416666667" stroke-dasharray="12.565541,5.445067766666667"/><path fill="none" stroke="black" paint-order="fill stroke markers" d=" M 804.4675073666667 87.9650697705 L 804.4675073666667 770.7765677104999" stroke-miterlimit="10" stroke-width="1.3612669416666667" stroke-dasharray="12.565541,5.445067766666667"/><path fill="none" stroke="black" paint-order="fill stroke markers" d=" M 1091.3632528 87.9650697705 L 1091.3632528 770.7765677104999" stroke-miterlimit="10" stroke-width="1.3612669416666667" stroke-dasharray="12.565541,5.445067766666667"/></g><g><g><path fill="white" stroke="black" paint-order="fill stroke markers" d=" M 90.987082381 18.867159811499988 A 9.311065881 9.311065881 0 1 1 90.98707772546743 18.857848747170827 M 81.67601649999999 28.17822569249999 L 81.67601649999999 48.10717371849999 M 69.914670124 35.36571514449999 L 93.43736287599998 35.36571514449999 M 81.67601649999999 48.10717371849999 L 69.914670124 66.72930548049999 M 81.67601649999999 48.10717371849999 L 93.43736287599998 66.72930548049999" stroke-miterlimit="10" stroke-width="2.7769845610000004" stroke-dasharray=""/></g><g><g/><text fill="black" stroke="none" font-family="sans-serif" font-size="11pt" font-style="normal" font-weight="normal" text-decoration="normal" x="29.67601649999999" y="83.06450878049999" text-anchor="start" dominant-baseline="alphabetic">Registered user</text></g><path fill="none" stroke="none"/><g><path fill="white" stroke="black" paint-order="fill stroke markers" d=" M 300.8480663528333 43.8600208605 L 438.2954575138333 43.8600208605 L 438.2954575138333 87.9650697705 L 300.8480663528333 87.9650697705 L 300.8480663528333 43.8600208605 Z" stroke-miterlimit="10" stroke-width="2.613632528" stroke-dasharray=""/></g><g><g/><text fill="black" stroke="none" font-family="sans-serif" font-size="11pt" font-style="normal" font-weight="normal" text-decoration="normal" x="318.57176193333333" y="71.62986647049999" text-anchor="start" dominant-baseline="alphabetic">SafeStreetsApp</text></g><path fill="none" stroke="none"/><g><path fill="white" stroke="black" paint-order="fill stroke markers" d=" M 719.7438117861667 43.8600208605 L 889.1912029471667 43.8600208605 L 889.1912029471667 87.9650697705 L 719.7438117861667 87.9650697705 L 719.7438117861667 43.8600208605 Z" stroke-miterlimit="10" stroke-width="2.613632528" stroke-dasharray=""/></g><g><g/><text fill="black" stroke="none" font-family="sans-serif" font-size="11pt" font-style="normal" font-weight="normal" text-decoration="normal" x="737.4675073666667" y="71.62986647049999" text-anchor="start" dominant-baseline="alphabetic">Street safety module</text></g><path fill="none" stroke="none"/><g><path fill="white" stroke="black" paint-order="fill stroke markers" d=" M 975.6395572195 43.8600208605 L 1207.0869483805 43.8600208605 L 1207.0869483805 87.9650697705 L 975.6395572195 87.9650697705 L 975.6395572195 43.8600208605 Z" stroke-miterlimit="10" stroke-width="2.613632528" stroke-dasharray=""/></g><g><g/><text fill="black" stroke="none" font-family="sans-serif" font-size="11pt" font-style="normal" font-weight="normal" text-decoration="normal" x="993.3632528" y="71.62986647049999" text-anchor="start" dominant-baseline="alphabetic">Safety&amp;Suggestions database</text></g></g><g><path fill="white" stroke="black" paint-order="fill stroke markers" d=" M 73.50841485 96.13267142049999 L 89.84361814999998 96.13267142049999 L 89.84361814999998 754.4413644104999 L 73.50841485 754.4413644104999 L 73.50841485 96.13267142049999" stroke-miterlimit="10" stroke-width="1.3612669416666667" stroke-dasharray=""/><path fill="white" stroke="black" paint-order="fill stroke markers" d=" M 361.40416028333334 141.87124066049998 L 377.73936358333333 141.87124066049998 L 377.73936358333333 370.56408686049997 L 361.40416028333334 370.56408686049997 L 361.40416028333334 141.87124066049998" stroke-miterlimit="10" stroke-width="1.3612669416666667" stroke-dasharray=""/><path fill="white" stroke="black" paint-order="fill stroke markers" d=" M 796.2999057166667 187.60980990049998 L 812.6351090166668 187.60980990049998 L 812.6351090166668 324.82551762049997 L 796.2999057166667 324.82551762049997 L 796.2999057166667 187.60980990049998" stroke-miterlimit="10" stroke-width="1.3612669416666667" stroke-dasharray=""/><path fill="white" stroke="black" paint-order="fill stroke markers" d=" M 1083.19565115 233.3483791405 L 1099.53085445 233.3483791405 L 1099.53085445 279.08694838049996 L 1083.19565115 279.08694838049996 L 1083.19565115 233.3483791405" stroke-miterlimit="10" stroke-width="1.3612669416666667" stroke-dasharray=""/><path fill="white" stroke="black" paint-order="fill stroke markers" d=" M 361.40416028333334 460.40770501049997 L 377.73936358333333 460.40770501049997 L 377.73936358333333 689.1005512104998 L 361.40416028333334 689.1005512104998 L 361.40416028333334 460.40770501049997" stroke-miterlimit="10" stroke-width="1.3612669416666667" stroke-dasharray=""/><path fill="white" stroke="black" paint-order="fill stroke markers" d=" M 796.2999057166667 506.14627425049997 L 812.6351090166668 506.14627425049997 L 812.6351090166668 643.3619819704999 L 796.2999057166667 643.3619819704999 L 796.2999057166667 506.14627425049997" stroke-miterlimit="10" stroke-width="1.3612669416666667" stroke-dasharray=""/><path fill="white" stroke="black" paint-order="fill stroke markers" d=" M 1083.19565115 551.8848434905 L 1099.53085445 551.8848434905 L 1099.53085445 597.6234127304999 L 1083.19565115 597.6234127304999 L 1083.19565115 551.8848434905" stroke-miterlimit="10" stroke-width="1.3612669416666667" stroke-dasharray=""/><g><g><rect fill="white" stroke="none" x="150.67360872166668" y="120.63547637049999" width="149.90056099" height="21.23576429"/></g><text fill="black" stroke="none" font-family="sans-serif" font-size="11pt" font-style="normal" font-weight="normal" text-decoration="normal" x="153.12388921666667" y="135.3371593405" text-anchor="start" dominant-baseline="alphabetic">StreetSafetyRequest()</text></g><g><path fill="none" stroke="black" paint-order="fill stroke markers" d=" M 89.84361814999998 141.87124066049998 L 358.6816264 141.87124066049998" stroke-miterlimit="10" stroke-width="1.3612669416666667" stroke-dasharray=""/><g transform="translate(361.40416028333334,141.87124066049998) translate(-361.40416028333334,-141.87124066049998)"><path fill="black" stroke="none" paint-order="stroke fill markers" d=" M 347.79149086666666 135.06490595216664 L 361.40416028333334 141.87124066049998 L 347.79149086666666 148.67757536883332 Z"/></g></g><g><g><rect fill="white" stroke="none" x="440.5693541549999" y="166.3740456105" width="292.90056099" height="21.23576429"/></g><text fill="black" stroke="none" font-family="sans-serif" font-size="11pt" font-style="normal" font-weight="normal" text-decoration="normal" x="443.01963464999994" y="181.07572858049997" text-anchor="start" dominant-baseline="alphabetic">ForwardStreetSafetyRequest(userID: String)</text></g><g><path fill="none" stroke="black" paint-order="fill stroke markers" d=" M 377.73936358333333 187.60980990049998 L 793.5773718333334 187.60980990049998" stroke-miterlimit="10" stroke-width="1.3612669416666667" stroke-dasharray=""/><g transform="translate(796.2999057166667,187.60980990049998) translate(-796.2999057166667,-187.60980990049998)"><path fill="black" stroke="none" paint-order="stroke fill markers" d=" M 782.6872363 180.80347519216664 L 796.2999057166667 187.60980990049998 L 782.6872363 194.41614460883332 Z"/></g></g><g><g><rect fill="white" stroke="none" x="873.4650995883334" y="212.1126148505" width="148.90056099" height="21.23576429"/></g><text fill="black" stroke="none" font-family="sans-serif" font-size="11pt" font-style="normal" font-weight="normal" text-decoration="normal" x="875.9153800833334" y="226.81429782049997" text-anchor="start" dominant-baseline="alphabetic">GetStreetSafetyData()</text></g><g><path fill="none" stroke="black" paint-order="fill stroke markers" d=" M 812.6351090166668 233.3483791405 L 1080.4731172666666 233.3483791405" stroke-miterlimit="10" stroke-width="1.3612669416666667" stroke-dasharray=""/><g transform="translate(1083.19565115,233.3483791405) translate(-1083.19565115,-233.3483791405)"><path fill="black" stroke="none" paint-order="stroke fill markers" d=" M 1069.5829817333333 226.54204443216665 L 1083.19565115 233.3483791405 L 1069.5829817333333 240.15471384883332 Z"/></g></g><g><g><rect fill="white" stroke="none" x="881.9650995883334" y="257.85118409049994" width="131.90056099" height="21.23576429"/></g><text fill="black" stroke="none" font-family="sans-serif" font-size="11pt" font-style="normal" font-weight="normal" text-decoration="normal" x="884.4153800833334" y="272.5528670604999" text-anchor="start" dominant-baseline="alphabetic">Street Safety's data</text></g><g><path fill="none" stroke="black" paint-order="fill stroke markers" d=" M 1083.19565115 279.08694838049996 L 815.3576429000001 279.08694838049996" stroke-miterlimit="10" stroke-width="1.3612669416666667" stroke-dasharray="6.53408132"/><g transform="translate(812.6351090166668,279.08694838049996) translate(-812.6351090166668,-279.08694838049996)"><path fill="black" stroke="none" paint-order="stroke fill markers" d=" M 826.2477784333335 272.2806136721666 L 812.6351090166668 279.08694838049996 L 826.2477784333335 285.8932830888333 Z"/></g></g><g><g><rect fill="white" stroke="none" x="521.0693541549999" y="303.58975333049995" width="131.90056099" height="21.23576429"/></g><text fill="black" stroke="none" font-family="sans-serif" font-size="11pt" font-style="normal" font-weight="normal" text-decoration="normal" x="523.51963465" y="318.2914363004999" text-anchor="start" dominant-baseline="alphabetic">Street Safety's data</text></g><g><path fill="none" stroke="black" paint-order="fill stroke markers" d=" M 796.2999057166667 324.82551762049997 L 380.46189746666664 324.82551762049997" stroke-miterlimit="10" stroke-width="1.3612669416666667" stroke-dasharray="6.53408132"/><g transform="translate(377.73936358333333,324.82551762049997) translate(-377.73936358333333,-324.82551762049997)"><path fill="black" stroke="none" paint-order="stroke fill markers" d=" M 391.352033 318.0191829121666 L 377.73936358333333 324.82551762049997 L 391.352033 331.6318523288333 Z"/></g></g><g><g><rect fill="white" stroke="none" x="133.17360872166668" y="349.32832257049995" width="184.90056099" height="21.23576429"/></g><text fill="black" stroke="none" font-family="sans-serif" font-size="11pt" font-style="normal" font-weight="normal" text-decoration="normal" x="135.62388921666667" y="364.03000554049993" text-anchor="start" dominant-baseline="alphabetic">Prompts Street Safety page</text></g><g><path fill="none" stroke="black" paint-order="fill stroke markers" d=" M 361.40416028333334 370.56408686049997 L 92.56615203333331 370.56408686049997" stroke-miterlimit="10" stroke-width="1.3612669416666667" stroke-dasharray="6.53408132"/><g transform="translate(89.84361814999998,370.56408686049997) translate(-89.84361814999998,-370.56408686049997)"><path fill="black" stroke="none" paint-order="stroke fill markers" d=" M 103.45628756666665 363.75775215216663 L 89.84361814999998 370.56408686049997 L 103.45628756666665 377.3704215688333 Z"/></g></g><g><g><rect fill="white" stroke="none" x="109.17360872166667" y="439.17194072049995" width="232.90056099" height="21.23576429"/></g><text fill="black" stroke="none" font-family="sans-serif" font-size="11pt" font-style="normal" font-weight="normal" text-decoration="normal" x="111.62388921666667" y="453.8736236904999" text-anchor="start" dominant-baseline="alphabetic">StreetSafetyRequest(street: String)</text></g><g><path fill="none" stroke="black" paint-order="fill stroke markers" d=" M 89.84361814999998 460.40770501049997 L 358.6816264 460.40770501049997" stroke-miterlimit="10" stroke-width="1.3612669416666667" stroke-dasharray=""/><g transform="translate(361.40416028333334,460.40770501049997) translate(-361.40416028333334,-460.40770501049997)"><path fill="black" stroke="none" paint-order="stroke fill markers" d=" M 347.79149086666666 453.60137030216663 L 361.40416028333334 460.40770501049997 L 347.79149086666666 467.2140397188333 Z"/></g></g><g><g><rect fill="white" stroke="none" x="397.0693541549999" y="484.91050996049995" width="379.90056099" height="21.23576429"/></g><text fill="black" stroke="none" font-family="sans-serif" font-size="11pt" font-style="normal" font-weight="normal" text-decoration="normal" x="399.51963464999994" y="499.61219293049993" text-anchor="start" dominant-baseline="alphabetic">ForwardStreetSafetyRequest(userID: String,street: String)</text></g><g><path fill="none" stroke="black" paint-order="fill stroke markers" d=" M 377.73936358333333 506.14627425049997 L 793.5773718333334 506.14627425049997" stroke-miterlimit="10" stroke-width="1.3612669416666667" stroke-dasharray=""/><g transform="translate(796.2999057166667,506.14627425049997) translate(-796.2999057166667,-506.14627425049997)"><path fill="black" stroke="none" paint-order="stroke fill markers" d=" M 782.6872363 499.33993954216663 L 796.2999057166667 506.14627425049997 L 782.6872363 512.9526089588333 Z"/></g></g><g><g><rect fill="white" stroke="none" x="831.9650995883334" y="530.6490792005" width="231.90056099" height="21.23576429"/></g><text fill="black" stroke="none" font-family="sans-serif" font-size="11pt" font-style="normal" font-weight="normal" text-decoration="normal" x="834.4153800833334" y="545.3507621704999" text-anchor="start" dominant-baseline="alphabetic">GetStreetSafetyData(street: String)</text></g><g><path fill="none" stroke="black" paint-order="fill stroke markers" d=" M 812.6351090166668 551.8848434905 L 1080.4731172666666 551.8848434905" stroke-miterlimit="10" stroke-width="1.3612669416666667" stroke-dasharray=""/><g transform="translate(1083.19565115,551.8848434905) translate(-1083.19565115,-551.8848434905)"><path fill="black" stroke="none" paint-order="stroke fill markers" d=" M 1069.5829817333333 545.0785087821666 L 1083.19565115 551.8848434905 L 1069.5829817333333 558.6911781988333 Z"/></g></g><g><g><rect fill="white" stroke="none" x="861.4650995883334" y="576.3876484404999" width="172.90056099" height="21.23576429"/></g><text fill="black" stroke="none" font-family="sans-serif" font-size="11pt" font-style="normal" font-weight="normal" text-decoration="normal" x="863.9153800833334" y="591.0893314104999" text-anchor="start" dominant-baseline="alphabetic">Street Safety's street data</text></g><g><path fill="none" stroke="black" paint-order="fill stroke markers" d=" M 1083.19565115 597.6234127304999 L 815.3576429000001 597.6234127304999" stroke-miterlimit="10" stroke-width="1.3612669416666667" stroke-dasharray="6.53408132"/><g transform="translate(812.6351090166668,597.6234127304999) translate(-812.6351090166668,-597.6234127304999)"><path fill="black" stroke="none" paint-order="stroke fill markers" d=" M 826.2477784333335 590.8170780221666 L 812.6351090166668 597.6234127304999 L 826.2477784333335 604.4297474388333 Z"/></g></g><g><g><rect fill="white" stroke="none" x="500.5693541549999" y="622.1262176804998" width="172.90056099" height="21.23576429"/></g><text fill="black" stroke="none" font-family="sans-serif" font-size="11pt" font-style="normal" font-weight="normal" text-decoration="normal" x="503.01963464999994" y="636.8279006504998" text-anchor="start" dominant-baseline="alphabetic">Street Safety's street data</text></g><g><path fill="none" stroke="black" paint-order="fill stroke markers" d=" M 796.2999057166667 643.3619819704999 L 380.46189746666664 643.3619819704999" stroke-miterlimit="10" stroke-width="1.3612669416666667" stroke-dasharray="6.53408132"/><g transform="translate(377.73936358333333,643.3619819704999) translate(-377.73936358333333,-643.3619819704999)"><path fill="black" stroke="none" paint-order="stroke fill markers" d=" M 391.352033 636.5556472621665 L 377.73936358333333 643.3619819704999 L 391.352033 650.1683166788332 Z"/></g></g><g><g><rect fill="white" stroke="none" x="114.67360872166667" y="667.8647869204998" width="221.90056099" height="21.23576429"/></g><text fill="black" stroke="none" font-family="sans-serif" font-size="11pt" font-style="normal" font-weight="normal" text-decoration="normal" x="117.12388921666667" y="682.5664698904998" text-anchor="start" dominant-baseline="alphabetic">Prompts popup with street details</text></g><g><path fill="none" stroke="black" paint-order="fill stroke markers" d=" M 361.40416028333334 689.1005512104998 L 92.56615203333331 689.1005512104998" stroke-miterlimit="10" stroke-width="1.3612669416666667" stroke-dasharray="6.53408132"/><g transform="translate(89.84361814999998,689.1005512104998) translate(-89.84361814999998,-689.1005512104998)"><path fill="black" stroke="none" paint-order="stroke fill markers" d=" M 103.45628756666665 682.2942165021665 L 89.84361814999998 689.1005512104998 L 103.45628756666665 695.9068859188332 Z"/></g></g><g><g/><path fill="none" stroke="black" paint-order="fill stroke markers" d=" M 16.33520329999999 395.06689181049995 L 1148.5364643500002 395.06689181049995 L 1148.5364643500002 713.6033561604999 L 16.33520329999999 713.6033561604999 L 16.33520329999999 395.06689181049995 Z" stroke-miterlimit="10" stroke-width="2.3336004714285714" stroke-dasharray=""/><path fill="white" stroke="black" paint-order="fill stroke markers" d=" M 16.33520329999999 395.06689181049995 L 16.33520329999999 414.66913577049996 L 73.0056099 414.66913577049996 L 82.80673188 404.86801379049996 L 82.80673188 395.06689181049995 L 16.33520329999999 395.06689181049995" stroke-miterlimit="10" stroke-width="2.3336004714285714" stroke-dasharray=""/><text fill="black" stroke="none" font-family="sans-serif" font-size="8.8pt" font-style="normal" font-weight="bold" text-decoration="normal" x="32.67040659999999" y="408.1350544505" text-anchor="start" dominant-baseline="alphabetic">loop</text></g></g><g/><g/><g/><g/></g></svg>