<svg version="1.1" xmlns="http://www.w3.org/2000/svg" xmlns:xlink="http://www.w3.org/1999/xlink" width="1215" height="811"><defs/><g><g/><g/><g/><g/><g/><g/><g/><g/><g/><g/><g/><g/><g><rect fill="white" stroke="none" x="0" y="0" width="1215" height="811"/></g><g><text fill="black" stroke="none" font-family="sans-serif" font-size="16.5pt" font-style="normal" font-weight="normal" text-decoration="normal" x="521.410607839957" y="24.50280495" text-anchor="start" dominant-baseline="alphabetic">See Street Safety</text></g><g/><g><path fill="none" stroke="black" paint-order="fill stroke markers" d=" M 81.67601649999999 128.80307802049998 L 81.67601649999999 811.6145759604998" stroke-miterlimit="10" stroke-width="1.3612669416666667" stroke-dasharray="12.565541,5.445067766666667"/><path fill="none" stroke="black" paint-order="fill stroke markers" d=" M 369.57176193333333 128.80307802049998 L 369.57176193333333 811.6145759604998" stroke-miterlimit="10" stroke-width="1.3612669416666667" stroke-dasharray="12.565541,5.445067766666667"/><path fill="none" stroke="black" paint-order="fill stroke markers" d=" M 804.4675073666667 128.80307802049998 L 804.4675073666667 811.6145759604998" stroke-miterlimit="10" stroke-width="1.3612669416666667" stroke-dasharray="12.565541,5.445067766666667"/><path fill="none" stroke="black" paint-order="fill stroke markers" d=" M 1091.3632528 128.80307802049998 L 1091.3632528 811.6145759604998" stroke-miterlimit="10" stroke-width="1.3612669416666667" stroke-dasharray="12.565541,5.445067766666667"/></g><g><g><path fill="white" stroke="black" paint-order="fill stroke markers" d=" M 90.987082381 59.70516806150002 A 9.311065881 9.311065881 0 1 1 90.98707772546743 59.69585699717086 M 81.67601649999999 69.01623394250002 L 81.67601649999999 88.94518196850002 M 69.914670124 76.20372339450002 L 93.43736287599998 76.20372339450002 M 81.67601649999999 88.94518196850002 L 69.914670124 107.56731373050002 M 81.67601649999999 88.94518196850002 L 93.43736287599998 107.56731373050002" stroke-miterlimit="10" stroke-width="2.7769845610000004" stroke-dasharray=""/></g><g><g/><text fill="black" stroke="none" font-family="sans-serif" font-size="11pt" font-style="normal" font-weight="normal" text-decoration="normal" x="29.67601649999999" y="123.90251703050001" text-anchor="start" dominant-baseline="alphabetic">Registered user</text></g><path fill="none" stroke="none"/><g><path fill="white" stroke="black" paint-order="fill stroke markers" d=" M 300.8480663528333 84.69802911050002 L 438.2954575138333 84.69802911050002 L 438.2954575138333 128.8030780205 L 300.8480663528333 128.8030780205 L 300.8480663528333 84.69802911050002 Z" stroke-miterlimit="10" stroke-width="2.613632528" stroke-dasharray=""/></g><g><g/><text fill="black" stroke="none" font-family="sans-serif" font-size="11pt" font-style="normal" font-weight="normal" text-decoration="normal" x="318.57176193333333" y="112.46787472049999" text-anchor="start" dominant-baseline="alphabetic">SafeStreetsApp</text></g><path fill="none" stroke="none"/><g><path fill="white" stroke="black" paint-order="fill stroke markers" d=" M 719.7438117861667 84.69802911050002 L 889.1912029471667 84.69802911050002 L 889.1912029471667 128.8030780205 L 719.7438117861667 128.8030780205 L 719.7438117861667 84.69802911050002 Z" stroke-miterlimit="10" stroke-width="2.613632528" stroke-dasharray=""/></g><g><g/><text fill="black" stroke="none" font-family="sans-serif" font-size="11pt" font-style="normal" font-weight="normal" text-decoration="normal" x="737.4675073666667" y="112.46787472049999" text-anchor="start" dominant-baseline="alphabetic">Street safety module</text></g><path fill="none" stroke="none"/><g><path fill="white" stroke="black" paint-order="fill stroke markers" d=" M 975.6395572195 84.69802911050002 L 1207.0869483805 84.69802911050002 L 1207.0869483805 128.8030780205 L 975.6395572195 128.8030780205 L 975.6395572195 84.69802911050002 Z" stroke-miterlimit="10" stroke-width="2.613632528" stroke-dasharray=""/></g><g><g/><text fill="black" stroke="none" font-family="sans-serif" font-size="11pt" font-style="normal" font-weight="normal" text-decoration="normal" x="993.3632528" y="112.46787472049999" text-anchor="start" dominant-baseline="alphabetic">Safety&amp;Suggestions database</text></g></g><g><path fill="white" stroke="black" paint-order="fill stroke markers" d=" M 73.50841485 136.97067967049998 L 89.84361814999998 136.97067967049998 L 89.84361814999998 795.2793726604998 L 73.50841485 795.2793726604998 L 73.50841485 136.97067967049998" stroke-miterlimit="10" stroke-width="1.3612669416666667" stroke-dasharray=""/><path fill="white" stroke="black" paint-order="fill stroke markers" d=" M 361.40416028333334 182.70924891049998 L 377.73936358333333 182.70924891049998 L 377.73936358333333 411.4020951105 L 361.40416028333334 411.4020951105 L 361.40416028333334 182.70924891049998" stroke-miterlimit="10" stroke-width="1.3612669416666667" stroke-dasharray=""/><path fill="white" stroke="black" paint-order="fill stroke markers" d=" M 796.2999057166667 228.44781815049998 L 812.6351090166668 228.44781815049998 L 812.6351090166668 365.6635258705 L 796.2999057166667 365.6635258705 L 796.2999057166667 228.44781815049998" stroke-miterlimit="10" stroke-width="1.3612669416666667" stroke-dasharray=""/><path fill="white" stroke="black" paint-order="fill stroke markers" d=" M 1083.19565115 274.1863873905 L 1099.53085445 274.1863873905 L 1099.53085445 319.9249566305 L 1083.19565115 319.9249566305 L 1083.19565115 274.1863873905" stroke-miterlimit="10" stroke-width="1.3612669416666667" stroke-dasharray=""/><path fill="white" stroke="black" paint-order="fill stroke markers" d=" M 361.40416028333334 501.2457132605 L 377.73936358333333 501.2457132605 L 377.73936358333333 729.9385594604997 L 361.40416028333334 729.9385594604997 L 361.40416028333334 501.2457132605" stroke-miterlimit="10" stroke-width="1.3612669416666667" stroke-dasharray=""/><path fill="white" stroke="black" paint-order="fill stroke markers" d=" M 796.2999057166667 546.9842825005 L 812.6351090166668 546.9842825005 L 812.6351090166668 684.1999902204998 L 796.2999057166667 684.1999902204998 L 796.2999057166667 546.9842825005" stroke-miterlimit="10" stroke-width="1.3612669416666667" stroke-dasharray=""/><path fill="white" stroke="black" paint-order="fill stroke markers" d=" M 1083.19565115 592.7228517404999 L 1099.53085445 592.7228517404999 L 1099.53085445 638.4614209804998 L 1083.19565115 638.4614209804998 L 1083.19565115 592.7228517404999" stroke-miterlimit="10" stroke-width="1.3612669416666667" stroke-dasharray=""/><g><g><rect fill="white" stroke="none" x="150.67360872166668" y="161.4734846205" width="149.90056099" height="21.23576429"/></g><text fill="black" stroke="none" font-family="sans-serif" font-size="11pt" font-style="normal" font-weight="normal" text-decoration="normal" x="153.12388921666667" y="176.17516759049997" text-anchor="start" dominant-baseline="alphabetic">StreetSafetyRequest()</text></g><g><path fill="none" stroke="black" paint-order="fill stroke markers" d=" M 89.84361814999998 182.70924891049998 L 358.6816264 182.70924891049998" stroke-miterlimit="10" stroke-width="1.3612669416666667" stroke-dasharray=""/><g transform="translate(361.40416028333334,182.70924891049998) translate(-361.40416028333334,-182.70924891049998)"><path fill="black" stroke="none" paint-order="stroke fill markers" d=" M 347.79149086666666 175.90291420216664 L 361.40416028333334 182.70924891049998 L 347.79149086666666 189.51558361883332 Z"/></g></g><g><g><rect fill="white" stroke="none" x="440.5693541549999" y="207.2120538605" width="292.90056099" height="21.23576429"/></g><text fill="black" stroke="none" font-family="sans-serif" font-size="11pt" font-style="normal" font-weight="normal" text-decoration="normal" x="443.01963464999994" y="221.91373683049997" text-anchor="start" dominant-baseline="alphabetic">ForwardStreetSafetyRequest(userID: String)</text></g><g><path fill="none" stroke="black" paint-order="fill stroke markers" d=" M 377.73936358333333 228.44781815049998 L 793.5773718333334 228.44781815049998" stroke-miterlimit="10" stroke-width="1.3612669416666667" stroke-dasharray=""/><g transform="translate(796.2999057166667,228.44781815049998) translate(-796.2999057166667,-228.44781815049998)"><path fill="black" stroke="none" paint-order="stroke fill markers" d=" M 782.6872363 221.64148344216665 L 796.2999057166667 228.44781815049998 L 782.6872363 235.25415285883332 Z"/></g></g><g><g><rect fill="white" stroke="none" x="873.4650995883334" y="252.9506231005" width="148.90056099" height="21.23576429"/></g><text fill="black" stroke="none" font-family="sans-serif" font-size="11pt" font-style="normal" font-weight="normal" text-decoration="normal" x="875.9153800833334" y="267.6523060705" text-anchor="start" dominant-baseline="alphabetic">GetStreetSafetyData()</text></g><g><path fill="none" stroke="black" paint-order="fill stroke markers" d=" M 812.6351090166668 274.1863873905 L 1080.4731172666666 274.1863873905" stroke-miterlimit="10" stroke-width="1.3612669416666667" stroke-dasharray=""/><g transform="translate(1083.19565115,274.1863873905) translate(-1083.19565115,-274.1863873905)"><path fill="black" stroke="none" paint-order="stroke fill markers" d=" M 1069.5829817333333 267.38005268216665 L 1083.19565115 274.1863873905 L 1069.5829817333333 280.9927220988333 Z"/></g></g><g><g><rect fill="white" stroke="none" x="881.9650995883334" y="298.6891923405" width="131.90056099" height="21.23576429"/></g><text fill="black" stroke="none" font-family="sans-serif" font-size="11pt" font-style="normal" font-weight="normal" text-decoration="normal" x="884.4153800833334" y="313.39087531049995" text-anchor="start" dominant-baseline="alphabetic">Street Safety's data</text></g><g><path fill="none" stroke="black" paint-order="fill stroke markers" d=" M 1083.19565115 319.9249566305 L 815.3576429000001 319.9249566305" stroke-miterlimit="10" stroke-width="1.3612669416666667" stroke-dasharray="6.53408132"/><g transform="translate(812.6351090166668,319.9249566305) translate(-812.6351090166668,-319.9249566305)"><path fill="black" stroke="none" paint-order="stroke fill markers" d=" M 826.2477784333335 313.11862192216665 L 812.6351090166668 319.9249566305 L 826.2477784333335 326.73129133883333 Z"/></g></g><g><g><rect fill="white" stroke="none" x="521.0693541549999" y="344.4277615805" width="131.90056099" height="21.23576429"/></g><text fill="black" stroke="none" font-family="sans-serif" font-size="11pt" font-style="normal" font-weight="normal" text-decoration="normal" x="523.51963465" y="359.12944455049995" text-anchor="start" dominant-baseline="alphabetic">Street Safety's data</text></g><g><path fill="none" stroke="black" paint-order="fill stroke markers" d=" M 796.2999057166667 365.6635258705 L 380.46189746666664 365.6635258705" stroke-miterlimit="10" stroke-width="1.3612669416666667" stroke-dasharray="6.53408132"/><g transform="translate(377.73936358333333,365.6635258705) translate(-377.73936358333333,-365.6635258705)"><path fill="black" stroke="none" paint-order="stroke fill markers" d=" M 391.352033 358.85719116216666 L 377.73936358333333 365.6635258705 L 391.352033 372.46986057883333 Z"/></g></g><g><g><rect fill="white" stroke="none" x="133.17360872166668" y="390.1663308205" width="184.90056099" height="21.23576429"/></g><text fill="black" stroke="none" font-family="sans-serif" font-size="11pt" font-style="normal" font-weight="normal" text-decoration="normal" x="135.62388921666667" y="404.86801379049996" text-anchor="start" dominant-baseline="alphabetic">Prompts Street Safety page</text></g><g><path fill="none" stroke="black" paint-order="fill stroke markers" d=" M 361.40416028333334 411.4020951105 L 92.56615203333331 411.4020951105" stroke-miterlimit="10" stroke-width="1.3612669416666667" stroke-dasharray="6.53408132"/><g transform="translate(89.84361814999998,411.4020951105) translate(-89.84361814999998,-411.4020951105)"><path fill="black" stroke="none" paint-order="stroke fill markers" d=" M 103.45628756666665 404.59576040216666 L 89.84361814999998 411.4020951105 L 103.45628756666665 418.20842981883334 Z"/></g></g><g><g><rect fill="white" stroke="none" x="109.17360872166667" y="480.0099489705" width="232.90056099" height="21.23576429"/></g><text fill="black" stroke="none" font-family="sans-serif" font-size="11pt" font-style="normal" font-weight="normal" text-decoration="normal" x="111.62388921666667" y="494.71163194049996" text-anchor="start" dominant-baseline="alphabetic">StreetSafetyRequest(street: String)</text></g><g><path fill="none" stroke="black" paint-order="fill stroke markers" d=" M 89.84361814999998 501.2457132605 L 358.6816264 501.2457132605" stroke-miterlimit="10" stroke-width="1.3612669416666667" stroke-dasharray=""/><g transform="translate(361.40416028333334,501.2457132605) translate(-361.40416028333334,-501.2457132605)"><path fill="black" stroke="none" paint-order="stroke fill markers" d=" M 347.79149086666666 494.43937855216666 L 361.40416028333334 501.2457132605 L 347.79149086666666 508.05204796883334 Z"/></g></g><g><g><rect fill="white" stroke="none" x="397.0693541549999" y="525.7485182104999" width="379.90056099" height="21.23576429"/></g><text fill="black" stroke="none" font-family="sans-serif" font-size="11pt" font-style="normal" font-weight="normal" text-decoration="normal" x="399.51963464999994" y="540.4502011804999" text-anchor="start" dominant-baseline="alphabetic">ForwardStreetSafetyRequest(userID: String,street: String)</text></g><g><path fill="none" stroke="black" paint-order="fill stroke markers" d=" M 377.73936358333333 546.9842825005 L 793.5773718333334 546.9842825005" stroke-miterlimit="10" stroke-width="1.3612669416666667" stroke-dasharray=""/><g transform="translate(796.2999057166667,546.9842825005) translate(-796.2999057166667,-546.9842825005)"><path fill="black" stroke="none" paint-order="stroke fill markers" d=" M 782.6872363 540.1779477921666 L 796.2999057166667 546.9842825005 L 782.6872363 553.7906172088333 Z"/></g></g><g><g><rect fill="white" stroke="none" x="831.9650995883334" y="571.4870874504999" width="231.90056099" height="21.23576429"/></g><text fill="black" stroke="none" font-family="sans-serif" font-size="11pt" font-style="normal" font-weight="normal" text-decoration="normal" x="834.4153800833334" y="586.1887704204998" text-anchor="start" dominant-baseline="alphabetic">GetStreetSafetyData(street: String)</text></g><g><path fill="none" stroke="black" paint-order="fill stroke markers" d=" M 812.6351090166668 592.7228517404999 L 1080.4731172666666 592.7228517404999" stroke-miterlimit="10" stroke-width="1.3612669416666667" stroke-dasharray=""/><g transform="translate(1083.19565115,592.7228517404999) translate(-1083.19565115,-592.7228517404999)"><path fill="black" stroke="none" paint-order="stroke fill markers" d=" M 1069.5829817333333 585.9165170321666 L 1083.19565115 592.7228517404999 L 1069.5829817333333 599.5291864488332 Z"/></g></g><g><g><rect fill="white" stroke="none" x="861.4650995883334" y="617.2256566904998" width="172.90056099" height="21.23576429"/></g><text fill="black" stroke="none" font-family="sans-serif" font-size="11pt" font-style="normal" font-weight="normal" text-decoration="normal" x="863.9153800833334" y="631.9273396604998" text-anchor="start" dominant-baseline="alphabetic">Street Safety's street data</text></g><g><path fill="none" stroke="black" paint-order="fill stroke markers" d=" M 1083.19565115 638.4614209804998 L 815.3576429000001 638.4614209804998" stroke-miterlimit="10" stroke-width="1.3612669416666667" stroke-dasharray="6.53408132"/><g transform="translate(812.6351090166668,638.4614209804998) translate(-812.6351090166668,-638.4614209804998)"><path fill="black" stroke="none" paint-order="stroke fill markers" d=" M 826.2477784333335 631.6550862721665 L 812.6351090166668 638.4614209804998 L 826.2477784333335 645.2677556888332 Z"/></g></g><g><g><rect fill="white" stroke="none" x="500.5693541549999" y="662.9642259304998" width="172.90056099" height="21.23576429"/></g><text fill="black" stroke="none" font-family="sans-serif" font-size="11pt" font-style="normal" font-weight="normal" text-decoration="normal" x="503.01963464999994" y="677.6659089004997" text-anchor="start" dominant-baseline="alphabetic">Street Safety's street data</text></g><g><path fill="none" stroke="black" paint-order="fill stroke markers" d=" M 796.2999057166667 684.1999902204998 L 380.46189746666664 684.1999902204998" stroke-miterlimit="10" stroke-width="1.3612669416666667" stroke-dasharray="6.53408132"/><g transform="translate(377.73936358333333,684.1999902204998) translate(-377.73936358333333,-684.1999902204998)"><path fill="black" stroke="none" paint-order="stroke fill markers" d=" M 391.352033 677.3936555121664 L 377.73936358333333 684.1999902204998 L 391.352033 691.0063249288331 Z"/></g></g><g><g><rect fill="white" stroke="none" x="114.67360872166667" y="708.7027951704997" width="221.90056099" height="21.23576429"/></g><text fill="black" stroke="none" font-family="sans-serif" font-size="11pt" font-style="normal" font-weight="normal" text-decoration="normal" x="117.12388921666667" y="723.4044781404997" text-anchor="start" dominant-baseline="alphabetic">Prompts popup with street details</text></g><g><path fill="none" stroke="black" paint-order="fill stroke markers" d=" M 361.40416028333334 729.9385594604997 L 92.56615203333331 729.9385594604997" stroke-miterlimit="10" stroke-width="1.3612669416666667" stroke-dasharray="6.53408132"/><g transform="translate(89.84361814999998,729.9385594604997) translate(-89.84361814999998,-729.9385594604997)"><path fill="black" stroke="none" paint-order="stroke fill markers" d=" M 103.45628756666665 723.1322247521664 L 89.84361814999998 729.9385594604997 L 103.45628756666665 736.7448941688331 Z"/></g></g><g><g/><path fill="none" stroke="black" paint-order="fill stroke markers" d=" M 16.33520329999999 435.9049000605 L 1148.5364643500002 435.9049000605 L 1148.5364643500002 754.4413644104998 L 16.33520329999999 754.4413644104998 L 16.33520329999999 435.9049000605 Z" stroke-miterlimit="10" stroke-width="2.3336004714285714" stroke-dasharray=""/><path fill="white" stroke="black" paint-order="fill stroke markers" d=" M 16.33520329999999 435.9049000605 L 16.33520329999999 455.5071440205 L 73.0056099 455.5071440205 L 82.80673188 445.7060220405 L 82.80673188 435.9049000605 L 16.33520329999999 435.9049000605" stroke-miterlimit="10" stroke-width="2.3336004714285714" stroke-dasharray=""/><text fill="black" stroke="none" font-family="sans-serif" font-size="8.8pt" font-style="normal" font-weight="bold" text-decoration="normal" x="32.67040659999999" y="448.9730627005" text-anchor="start" dominant-baseline="alphabetic">loop</text></g></g><g/><g/><g/><g/></g></svg>